M48
;Layer_Color=9474304
;FILE_FORMAT=2:5
INCH,TZ
;TYPE=PLATED
T1F00S00C0.01500
;TYPE=NON_PLATED
T2F00S00C0.02953
T3F00S00C0.03150
T5F00S00C0.06700
T6F00S00C0.08661
T7F00S00C0.11811
T8F00S00C0.12598
T9F00S00C0.16000
%
T01
X182000Y11000
X71500Y10000
X68000Y76000
X35500Y81500
X29500Y142000
X34000Y164500
X77500Y139000
X83000Y128500
X88500Y127500
X94000Y128500
X103500Y145500
X107500Y161000
X113000Y117500
X107500Y86000
X113000Y69500
X104400Y59200
X104500Y52000
X130000Y95500
X182000Y86500
Y73500
X217000Y59000
X227000Y64500
X233500Y70500
X242500Y81000
X241500Y97000
X215500Y140000
X185500Y141500
X182000Y160000
X154000Y139500
X285500Y160500
X300750Y157000
X320500Y148000
X320000Y139500
X335500Y142500
X348000Y143000
X354500Y141500
X348500Y125000
X358500Y120500
X356000Y117500
Y104000
X348000Y104500
X349000Y100500
X361000
X356500Y89500
X352500Y85000
X345468Y70969
X327000Y89500
X320500Y93500
X317000Y101000
X305500Y99000
X325500Y111500
X336500Y113385
X341500Y112500
X305000Y59500
X298500Y64000
X301000Y197000
X299000Y214500
X322750Y220750
X329000Y227000
X334000Y236500
X336500Y240000
X319500Y244000
X313500Y248500
X315500Y255000
Y271000
X333500Y290500
X339500Y289500
X329500Y297500
X339500Y312000
X337000Y319000
X334500Y324000
X335000Y335500
Y343000
X354349Y274651
X368770Y274730
X313000Y235000
X337500Y206500
X341500Y206000
X251000Y216000
X244500Y246500
X266500Y256500
X235000Y267500
X239500Y272500
X238500Y289500
X227000Y290500
X181000Y297500
X183600Y310600
X155000Y290500
X104500Y295000
X108600Y310600
X88500Y281500
Y276500
Y272500
X107750Y233250
X105500Y217000
X88500Y208000
Y202500
Y198500
X154500Y212500
X176500Y222000
X183000Y235000
X215500Y215000
X234000Y205000
X233500Y201500
X234000Y198000
X241000Y223500
X88500Y346000
X78000Y289000
X32500Y303000
X23500Y294500
X18000Y236000
X35500Y214500
X79000Y216000
X78500Y366000
X30500Y362000
X88500Y356000
Y351500
X106500Y376500
X155500Y366000
X179500Y375500
X228000Y366000
X240500Y375500
X253000Y375000
X301000Y370000
X323000Y361000
X325000Y356500
X340500
X342000Y368500
X348500Y364000
X356500Y361000
X317000Y348500
T02
X349462Y328122
Y350878
T03
X77800Y55700
Y74500
X60100Y130700
Y149500
X40300
Y130700
X115300
Y149500
X135100
Y130700
X190300
Y149500
X210100
Y130700
Y74000
Y55200
X190300
Y74000
X97600Y74500
Y55700
X289200Y69900
X308000
Y89700
X289200
Y219900
X308000
Y239700
X289200
X210100Y224000
Y205200
X190300
Y224000
X135100Y224500
Y205700
X115300
Y224500
Y280700
Y299500
X135100
Y280700
X190300
Y299500
X210100
Y280700
X60100
Y299500
X40300
Y280700
Y224500
Y205700
X60100
Y224500
Y355700
Y374500
X40300
Y355700
X115300
Y374500
X135100
Y355700
X190300
Y374500
X210100
Y355700
X265300
Y374500
X285100
Y355700
T05
X68000Y42000
X70500Y117000
X30500
Y192000
X70500
X105500
X145500
X180500Y191500
X220500
Y117000
X180500
X145500
X105500
X108000Y42000
X180500Y41500
X220500
X275500Y59500
Y99500
Y209500
Y249500
X255500Y342000
X295500
X220500
X180500
X145500
X105500
Y267000
X145500
X180500
X220500
X70500
X30500
Y342000
X70500
T06
X141220Y306000
X15500
Y209500
T07
X103000Y32000
X190500Y21500
X215500Y31500
X78000Y22000
X65500Y107000
X40500Y97000
Y172000
X65500Y182000
X115500Y172000
X140500Y182000
X190500Y171500
X215500Y181500
Y107000
X190500Y97000
X140500Y107000
X115500Y97000
X255500Y89500
X265500Y64500
Y214500
X255500Y239500
X265500Y322000
X290500Y332000
X215500
X190500Y322000
X140500Y332000
X115500Y322000
Y247000
X140500Y257000
X190500Y247000
X215500Y257000
X65500
X40500Y247000
Y322000
X65500Y332000
T08
X359252Y15748
X16500Y14500
Y378500
X359252Y377252
T09
X50500Y117000
Y192000
X125500
Y117000
X200500
Y191500
Y41500
X88000Y42000
X275500Y79500
Y229500
Y342000
X200500
X125500
Y267000
X200500
X50500
Y342000
M30
