M48
;Layer_Color=9474304
;FILE_FORMAT=2:5
INCH,TZ
;TYPE=PLATED
T1F00S00C0.01000
T2F00S00C0.02362
;TYPE=NON_PLATED
T3F00S00C0.08661
%
T01
X4000Y8500
X3500Y15500
X15500Y8500
X20500Y7500
X27000Y14000
Y17500
X35500Y20500
X33000Y23500
X34000Y28000
X37000Y25500
X34500Y34500
X35500Y39000
X40500Y39356
X37000Y49500
X47500Y54500
X60000Y51000
X63000Y47500
X65000Y49500
X68801Y48801
X72000Y47000
X67500Y56000
X64500Y54500
X83000Y52000
X89000Y47500
X91000Y46500
X95827Y48837
X96500Y43500
X98500
X92500Y36500
X83500Y33500
X83452Y41048
X87000Y24000
X88000Y20000
X94500Y15000
X99500Y16000
X105000
X103500Y22000
X102500Y24000
Y26000
X104500Y25000
X113000Y26500
X111328Y29000
X109341Y31300
X109000Y34000
X121000Y22500
X118000Y17500
X117000Y12500
X117500Y6500
X101000Y7000
Y54500
X114500Y56000
X116500
X118500
X123221Y45779
X57500Y19000
X55000Y12000
X45000Y11000
X40000Y6000
X41250Y17250
X47000Y20500
X17000Y32500
X13000Y38500
X17000Y44500
Y54500
X13000Y50500
X128000Y55500
X133000
X138000
X138500Y38000
X143000Y39000
X132500Y40500
X128500Y45500
X133500Y26000
X138000Y19500
X143500Y15500
X143000Y10500
X138500Y4500
X149000Y15500
X154000Y17500
X158500Y16500
X162500
X153000Y22000
Y31000
X150500Y34500
X155000Y36500
X158500
X162000
X163000Y58000
X159500
X156500
X153500Y63500
X149000Y60500
X144500Y64500
X140000Y67000
Y71000
X131199Y73301
X135000Y61500
X143000Y84500
X149000Y79500
X156500
X159500
X162500
X153500Y75000
X147500Y93000
Y97000
X138000Y105500
X132500
X127000Y98000
X122137
X121221Y104500
X114500
X111500Y94500
X115720Y89500
Y85500
Y81500
X119720
X123721
Y85500
Y89500
X119720
Y85500
X105937Y84187
X96000Y84000
X86500
X83000Y83000
X67967Y81426
X64000Y79500
X66000Y71500
X60000
X58500Y65500
X53000Y59500
X48000Y66500
X50500Y69500
X48391Y73690
X53174Y82826
X47418Y90475
X37500Y90000
X28500Y96000
X19000Y89500
X20500Y81000
X20000Y78000
Y74000
X13000Y77000
Y67500
X17000Y63000
X13000Y59000
X6000Y94500
X6500Y102000
X12500Y105500
X21000
X39000Y104500
X58500Y95500
X60500Y92504
X67000Y93000
X102000Y93500
X101500Y95500
X97500Y105500
X96000Y108000
X91875Y108125
X93500Y105500
X95500Y69500
Y65000
X99500Y60000
X103000Y58000
X110500Y59500
X113500Y61500
X118500Y62500
X115607Y68173
X112500Y73000
X110500Y75000
X110769Y78269
X105550Y74300
X108000Y71000
X123000Y72000
X83500Y64500
X77000Y63500
X79500Y58000
T02
X46957Y6000
X51878
X56799
X61721
X66642
X71563
X76484
X74063Y101500
X78984
X69142
X64220
X59299
X54378
X49457
T03
X31500Y8000
X157220
Y104500
X31500
M30
