  0
SECTION
  2
HEADER
  9
$ACADVER
  1
AC1009
  9
$EXTMIN
 10
0.0
 20
0.0
 30
0.0
  9
$EXTMAX
 10
1000.0
 20
1000.0
 30
0.0
  9
$FILLMODE
 70
 0
  9
$SPLFRAME
 70
 1
  0
ENDSEC
  0
SECTION
  2
TABLES
  0
TABLE
  2
LAYER
 70
1
  0
LAYER
  2
0
 70
     0
 62
     7
  6
CONTINUOUS
  0
ENDTAB
  0
ENDSEC
  0
SECTION
  2
ENTITIES
  0
LINE
  8
0
 62
     0
 10
0.0950846
 20
119.156
 30
0.0
 11
352.52
 21
119.156
 31
0.0
  0
LINE
  8
0
 62
     0
 10
352.52
 20
119.156
 30
0.0
 11
352.52
 21
0.0923286
 31
0.0
  0
LINE
  8
0
 62
     0
 10
352.52
 20
0.0923286
 30
0.0
 11
0.0950846
 21
0.0923286
 31
0.0
  0
LINE
  8
0
 62
     0
 10
0.0950846
 20
0.0923286
 30
0.0
 11
0.0950846
 21
119.156
 31
0.0
  0
LINE
  8
0
 62
     0
 10
116.918
 20
16.6178
 30
0.0
 11
116.918
 21
15.6187
 31
0.0
  0
LINE
  8
0
 62
     0
 10
116.918
 20
15.6187
 30
0.0
 11
116.119
 21
15.6187
 31
0.0
  0
LINE
  8
0
 62
     0
 10
116.119
 20
15.6187
 30
0.0
 11
116.119
 21
12.5181
 31
0.0
  0
LINE
  8
0
 62
     0
 10
116.119
 20
12.5181
 30
0.0
 11
116.918
 21
12.5181
 31
0.0
  0
LINE
  8
0
 62
     0
 10
116.918
 20
12.5181
 30
0.0
 11
116.918
 21
11.9187
 31
0.0
  0
LINE
  8
0
 62
     0
 10
116.918
 20
11.9187
 30
0.0
 11
108.244
 21
11.9187
 31
0.0
  0
LINE
  8
0
 62
     0
 10
108.244
 20
11.9187
 30
0.0
 11
108.244
 21
15.1488
 31
0.0
  0
LINE
  8
0
 62
     0
 10
108.244
 20
15.1488
 30
0.0
 11
106.518
 21
15.1488
 31
0.0
  0
LINE
  8
0
 62
     0
 10
106.518
 20
15.1488
 30
0.0
 11
106.518
 21
16.0679
 31
0.0
  0
LINE
  8
0
 62
     0
 10
106.518
 20
16.0679
 30
0.0
 11
103.219
 21
16.0679
 31
0.0
  0
LINE
  8
0
 62
     0
 10
103.219
 20
16.0679
 30
0.0
 11
103.219
 21
15.1488
 31
0.0
  0
LINE
  8
0
 62
     0
 10
103.219
 20
15.1488
 30
0.0
 11
101.494
 21
15.1488
 31
0.0
  0
LINE
  8
0
 62
     0
 10
101.494
 20
15.1488
 30
0.0
 11
101.494
 21
11.9187
 31
0.0
  0
LINE
  8
0
 62
     0
 10
101.494
 20
11.9187
 30
0.0
 11
100.668
 21
11.9187
 31
0.0
  0
LINE
  8
0
 62
     0
 10
100.668
 20
11.9187
 30
0.0
 11
100.668
 21
9.11849
 31
0.0
  0
LINE
  8
0
 62
     0
 10
100.668
 20
9.11849
 30
0.0
 11
101.494
 21
9.11849
 31
0.0
  0
LINE
  8
0
 62
     0
 10
101.494
 20
9.11849
 30
0.0
 11
101.494
 21
2.84841
 31
0.0
  0
LINE
  8
0
 62
     0
 10
101.494
 20
2.84841
 30
0.0
 11
103.219
 21
2.84841
 31
0.0
  0
LINE
  8
0
 62
     0
 10
103.219
 20
2.84841
 30
0.0
 11
103.219
 21
1.86862
 31
0.0
  0
LINE
  8
0
 62
     0
 10
103.219
 20
1.86862
 30
0.0
 11
106.518
 21
1.86862
 31
0.0
  0
LINE
  8
0
 62
     0
 10
106.518
 20
1.86862
 30
0.0
 11
106.518
 21
2.84841
 31
0.0
  0
LINE
  8
0
 62
     0
 10
106.518
 20
2.84841
 30
0.0
 11
108.244
 21
2.84841
 31
0.0
  0
LINE
  8
0
 62
     0
 10
108.244
 20
2.84841
 30
0.0
 11
108.244
 21
7.31876
 31
0.0
  0
LINE
  8
0
 62
     0
 10
108.244
 20
7.31876
 30
0.0
 11
116.918
 21
7.31876
 31
0.0
  0
LINE
  8
0
 62
     0
 10
116.918
 20
7.31876
 30
0.0
 11
116.918
 21
6.71795
 31
0.0
  0
LINE
  8
0
 62
     0
 10
116.918
 20
6.71795
 30
0.0
 11
116.119
 21
6.71795
 31
0.0
  0
LINE
  8
0
 62
     0
 10
116.119
 20
6.71795
 30
0.0
 11
116.119
 21
3.61872
 31
0.0
  0
LINE
  8
0
 62
     0
 10
116.119
 20
3.61872
 30
0.0
 11
116.918
 21
3.61872
 31
0.0
  0
LINE
  8
0
 62
     0
 10
116.918
 20
3.61872
 30
0.0
 11
116.918
 21
2.61827
 31
0.0
  0
LINE
  8
0
 62
     0
 10
116.918
 20
2.61827
 30
0.0
 11
130.919
 21
2.61827
 31
0.0
  0
LINE
  8
0
 62
     0
 10
130.919
 20
2.61827
 30
0.0
 11
130.919
 21
3.61872
 31
0.0
  0
LINE
  8
0
 62
     0
 10
130.919
 20
3.61872
 30
0.0
 11
131.72
 21
3.61872
 31
0.0
  0
LINE
  8
0
 62
     0
 10
131.72
 20
3.61872
 30
0.0
 11
131.72
 21
6.71795
 31
0.0
  0
LINE
  8
0
 62
     0
 10
131.72
 20
6.71795
 30
0.0
 11
130.919
 21
6.71795
 31
0.0
  0
LINE
  8
0
 62
     0
 10
130.919
 20
6.71795
 30
0.0
 11
130.919
 21
7.31876
 31
0.0
  0
LINE
  8
0
 62
     0
 10
130.919
 20
7.31876
 30
0.0
 11
139.595
 21
7.31876
 31
0.0
  0
LINE
  8
0
 62
     0
 10
139.595
 20
7.31876
 30
0.0
 11
139.595
 21
2.84841
 31
0.0
  0
LINE
  8
0
 62
     0
 10
139.595
 20
2.84841
 30
0.0
 11
141.319
 21
2.84841
 31
0.0
  0
LINE
  8
0
 62
     0
 10
141.319
 20
2.84841
 30
0.0
 11
141.319
 21
1.86862
 31
0.0
  0
LINE
  8
0
 62
     0
 10
141.319
 20
1.86862
 30
0.0
 11
144.618
 21
1.86862
 31
0.0
  0
LINE
  8
0
 62
     0
 10
144.618
 20
1.86862
 30
0.0
 11
144.618
 21
2.84841
 31
0.0
  0
LINE
  8
0
 62
     0
 10
144.618
 20
2.84841
 30
0.0
 11
146.345
 21
2.84841
 31
0.0
  0
LINE
  8
0
 62
     0
 10
146.345
 20
2.84841
 30
0.0
 11
146.345
 21
9.11849
 31
0.0
  0
LINE
  8
0
 62
     0
 10
146.345
 20
9.11849
 30
0.0
 11
147.17
 21
9.11849
 31
0.0
  0
LINE
  8
0
 62
     0
 10
147.17
 20
9.11849
 30
0.0
 11
147.17
 21
11.9187
 31
0.0
  0
LINE
  8
0
 62
     0
 10
147.17
 20
11.9187
 30
0.0
 11
146.345
 21
11.9187
 31
0.0
  0
LINE
  8
0
 62
     0
 10
146.345
 20
11.9187
 30
0.0
 11
146.345
 21
15.1488
 31
0.0
  0
LINE
  8
0
 62
     0
 10
146.345
 20
15.1488
 30
0.0
 11
144.618
 21
15.1488
 31
0.0
  0
LINE
  8
0
 62
     0
 10
144.618
 20
15.1488
 30
0.0
 11
144.618
 21
16.0679
 31
0.0
  0
LINE
  8
0
 62
     0
 10
144.618
 20
16.0679
 30
0.0
 11
141.319
 21
16.0679
 31
0.0
  0
LINE
  8
0
 62
     0
 10
141.319
 20
16.0679
 30
0.0
 11
141.319
 21
15.1488
 31
0.0
  0
LINE
  8
0
 62
     0
 10
141.319
 20
15.1488
 30
0.0
 11
139.595
 21
15.1488
 31
0.0
  0
LINE
  8
0
 62
     0
 10
139.595
 20
15.1488
 30
0.0
 11
139.595
 21
11.9187
 31
0.0
  0
LINE
  8
0
 62
     0
 10
139.595
 20
11.9187
 30
0.0
 11
130.919
 21
11.9187
 31
0.0
  0
LINE
  8
0
 62
     0
 10
130.919
 20
11.9187
 30
0.0
 11
130.919
 21
12.5181
 31
0.0
  0
LINE
  8
0
 62
     0
 10
130.919
 20
12.5181
 30
0.0
 11
131.72
 21
12.5181
 31
0.0
  0
LINE
  8
0
 62
     0
 10
131.72
 20
12.5181
 30
0.0
 11
131.72
 21
15.6187
 31
0.0
  0
LINE
  8
0
 62
     0
 10
131.72
 20
15.6187
 30
0.0
 11
130.919
 21
15.6187
 31
0.0
  0
LINE
  8
0
 62
     0
 10
130.919
 20
15.6187
 30
0.0
 11
130.919
 21
16.6178
 31
0.0
  0
LINE
  8
0
 62
     0
 10
130.919
 20
16.6178
 30
0.0
 11
116.918
 21
16.6178
 31
0.0
  0
LINE
  8
0
 62
     0
 10
174.07
 20
16.6178
 30
0.0
 11
174.07
 21
15.6187
 31
0.0
  0
LINE
  8
0
 62
     0
 10
174.07
 20
15.6187
 30
0.0
 11
173.269
 21
15.6187
 31
0.0
  0
LINE
  8
0
 62
     0
 10
173.269
 20
15.6187
 30
0.0
 11
173.269
 21
12.5181
 31
0.0
  0
LINE
  8
0
 62
     0
 10
173.269
 20
12.5181
 30
0.0
 11
174.07
 21
12.5181
 31
0.0
  0
LINE
  8
0
 62
     0
 10
174.07
 20
12.5181
 30
0.0
 11
174.07
 21
11.9187
 31
0.0
  0
LINE
  8
0
 62
     0
 10
174.07
 20
11.9187
 30
0.0
 11
165.394
 21
11.9187
 31
0.0
  0
LINE
  8
0
 62
     0
 10
165.394
 20
11.9187
 30
0.0
 11
165.394
 21
15.1488
 31
0.0
  0
LINE
  8
0
 62
     0
 10
165.394
 20
15.1488
 30
0.0
 11
163.669
 21
15.1488
 31
0.0
  0
LINE
  8
0
 62
     0
 10
163.669
 20
15.1488
 30
0.0
 11
163.669
 21
16.0679
 31
0.0
  0
LINE
  8
0
 62
     0
 10
163.669
 20
16.0679
 30
0.0
 11
160.369
 21
16.0679
 31
0.0
  0
LINE
  8
0
 62
     0
 10
160.369
 20
16.0679
 30
0.0
 11
160.369
 21
15.1488
 31
0.0
  0
LINE
  8
0
 62
     0
 10
160.369
 20
15.1488
 30
0.0
 11
158.644
 21
15.1488
 31
0.0
  0
LINE
  8
0
 62
     0
 10
158.644
 20
15.1488
 30
0.0
 11
158.644
 21
11.9187
 31
0.0
  0
LINE
  8
0
 62
     0
 10
158.644
 20
11.9187
 30
0.0
 11
157.82
 21
11.9187
 31
0.0
  0
LINE
  8
0
 62
     0
 10
157.82
 20
11.9187
 30
0.0
 11
157.82
 21
9.11849
 31
0.0
  0
LINE
  8
0
 62
     0
 10
157.82
 20
9.11849
 30
0.0
 11
158.644
 21
9.11849
 31
0.0
  0
LINE
  8
0
 62
     0
 10
158.644
 20
9.11849
 30
0.0
 11
158.644
 21
2.84841
 31
0.0
  0
LINE
  8
0
 62
     0
 10
158.644
 20
2.84841
 30
0.0
 11
160.369
 21
2.84841
 31
0.0
  0
LINE
  8
0
 62
     0
 10
160.369
 20
2.84841
 30
0.0
 11
160.369
 21
1.86862
 31
0.0
  0
LINE
  8
0
 62
     0
 10
160.369
 20
1.86862
 30
0.0
 11
163.669
 21
1.86862
 31
0.0
  0
LINE
  8
0
 62
     0
 10
163.669
 20
1.86862
 30
0.0
 11
163.669
 21
2.84841
 31
0.0
  0
LINE
  8
0
 62
     0
 10
163.669
 20
2.84841
 30
0.0
 11
165.394
 21
2.84841
 31
0.0
  0
LINE
  8
0
 62
     0
 10
165.394
 20
2.84841
 30
0.0
 11
165.394
 21
7.31876
 31
0.0
  0
LINE
  8
0
 62
     0
 10
165.394
 20
7.31876
 30
0.0
 11
174.07
 21
7.31876
 31
0.0
  0
LINE
  8
0
 62
     0
 10
174.07
 20
7.31876
 30
0.0
 11
174.07
 21
6.71795
 31
0.0
  0
LINE
  8
0
 62
     0
 10
174.07
 20
6.71795
 30
0.0
 11
173.269
 21
6.71795
 31
0.0
  0
LINE
  8
0
 62
     0
 10
173.269
 20
6.71795
 30
0.0
 11
173.269
 21
3.61872
 31
0.0
  0
LINE
  8
0
 62
     0
 10
173.269
 20
3.61872
 30
0.0
 11
174.07
 21
3.61872
 31
0.0
  0
LINE
  8
0
 62
     0
 10
174.07
 20
3.61872
 30
0.0
 11
174.07
 21
2.61827
 31
0.0
  0
LINE
  8
0
 62
     0
 10
174.07
 20
2.61827
 30
0.0
 11
188.069
 21
2.61827
 31
0.0
  0
LINE
  8
0
 62
     0
 10
188.069
 20
2.61827
 30
0.0
 11
188.069
 21
3.61872
 31
0.0
  0
LINE
  8
0
 62
     0
 10
188.069
 20
3.61872
 30
0.0
 11
188.87
 21
3.61872
 31
0.0
  0
LINE
  8
0
 62
     0
 10
188.87
 20
3.61872
 30
0.0
 11
188.87
 21
6.71795
 31
0.0
  0
LINE
  8
0
 62
     0
 10
188.87
 20
6.71795
 30
0.0
 11
188.069
 21
6.71795
 31
0.0
  0
LINE
  8
0
 62
     0
 10
188.069
 20
6.71795
 30
0.0
 11
188.069
 21
7.31876
 31
0.0
  0
LINE
  8
0
 62
     0
 10
188.069
 20
7.31876
 30
0.0
 11
196.745
 21
7.31876
 31
0.0
  0
LINE
  8
0
 62
     0
 10
196.745
 20
7.31876
 30
0.0
 11
196.745
 21
2.84841
 31
0.0
  0
LINE
  8
0
 62
     0
 10
196.745
 20
2.84841
 30
0.0
 11
198.469
 21
2.84841
 31
0.0
  0
LINE
  8
0
 62
     0
 10
198.469
 20
2.84841
 30
0.0
 11
198.469
 21
1.86862
 31
0.0
  0
LINE
  8
0
 62
     0
 10
198.469
 20
1.86862
 30
0.0
 11
201.768
 21
1.86862
 31
0.0
  0
LINE
  8
0
 62
     0
 10
201.768
 20
1.86862
 30
0.0
 11
201.768
 21
2.84841
 31
0.0
  0
LINE
  8
0
 62
     0
 10
201.768
 20
2.84841
 30
0.0
 11
203.495
 21
2.84841
 31
0.0
  0
LINE
  8
0
 62
     0
 10
203.495
 20
2.84841
 30
0.0
 11
203.495
 21
9.11849
 31
0.0
  0
LINE
  8
0
 62
     0
 10
203.495
 20
9.11849
 30
0.0
 11
204.32
 21
9.11849
 31
0.0
  0
LINE
  8
0
 62
     0
 10
204.32
 20
9.11849
 30
0.0
 11
204.32
 21
11.9187
 31
0.0
  0
LINE
  8
0
 62
     0
 10
204.32
 20
11.9187
 30
0.0
 11
203.495
 21
11.9187
 31
0.0
  0
LINE
  8
0
 62
     0
 10
203.495
 20
11.9187
 30
0.0
 11
203.495
 21
15.1488
 31
0.0
  0
LINE
  8
0
 62
     0
 10
203.495
 20
15.1488
 30
0.0
 11
201.768
 21
15.1488
 31
0.0
  0
LINE
  8
0
 62
     0
 10
201.768
 20
15.1488
 30
0.0
 11
201.768
 21
16.0679
 31
0.0
  0
LINE
  8
0
 62
     0
 10
201.768
 20
16.0679
 30
0.0
 11
198.469
 21
16.0679
 31
0.0
  0
LINE
  8
0
 62
     0
 10
198.469
 20
16.0679
 30
0.0
 11
198.469
 21
15.1488
 31
0.0
  0
LINE
  8
0
 62
     0
 10
198.469
 20
15.1488
 30
0.0
 11
196.745
 21
15.1488
 31
0.0
  0
LINE
  8
0
 62
     0
 10
196.745
 20
15.1488
 30
0.0
 11
196.745
 21
11.9187
 31
0.0
  0
LINE
  8
0
 62
     0
 10
196.745
 20
11.9187
 30
0.0
 11
188.069
 21
11.9187
 31
0.0
  0
LINE
  8
0
 62
     0
 10
188.069
 20
11.9187
 30
0.0
 11
188.069
 21
12.5181
 31
0.0
  0
LINE
  8
0
 62
     0
 10
188.069
 20
12.5181
 30
0.0
 11
188.87
 21
12.5181
 31
0.0
  0
LINE
  8
0
 62
     0
 10
188.87
 20
12.5181
 30
0.0
 11
188.87
 21
15.6187
 31
0.0
  0
LINE
  8
0
 62
     0
 10
188.87
 20
15.6187
 30
0.0
 11
188.069
 21
15.6187
 31
0.0
  0
LINE
  8
0
 62
     0
 10
188.069
 20
15.6187
 30
0.0
 11
188.069
 21
16.6178
 31
0.0
  0
LINE
  8
0
 62
     0
 10
188.069
 20
16.6178
 30
0.0
 11
174.07
 21
16.6178
 31
0.0
  0
LINE
  8
0
 62
     0
 10
5.00091
 20
16.6178
 30
0.0
 11
5.00091
 21
15.6187
 31
0.0
  0
LINE
  8
0
 62
     0
 10
5.00091
 20
15.6187
 30
0.0
 11
4.20028
 21
15.6187
 31
0.0
  0
LINE
  8
0
 62
     0
 10
4.20028
 20
15.6187
 30
0.0
 11
4.20028
 21
12.5181
 31
0.0
  0
LINE
  8
0
 62
     0
 10
4.20028
 20
12.5181
 30
0.0
 11
5.00091
 21
12.5181
 31
0.0
  0
LINE
  8
0
 62
     0
 10
5.00091
 20
12.5181
 30
0.0
 11
5.00091
 21
6.71795
 31
0.0
  0
LINE
  8
0
 62
     0
 10
5.00091
 20
6.71795
 30
0.0
 11
4.20028
 21
6.71795
 31
0.0
  0
LINE
  8
0
 62
     0
 10
4.20028
 20
6.71795
 30
0.0
 11
4.20028
 21
3.61872
 31
0.0
  0
LINE
  8
0
 62
     0
 10
4.20028
 20
3.61872
 30
0.0
 11
5.00091
 21
3.61872
 31
0.0
  0
LINE
  8
0
 62
     0
 10
5.00091
 20
3.61872
 30
0.0
 11
5.00091
 21
2.61827
 31
0.0
  0
LINE
  8
0
 62
     0
 10
5.00091
 20
2.61827
 30
0.0
 11
19.0004
 21
2.61827
 31
0.0
  0
LINE
  8
0
 62
     0
 10
19.0004
 20
2.61827
 30
0.0
 11
19.0004
 21
3.61872
 31
0.0
  0
LINE
  8
0
 62
     0
 10
19.0004
 20
3.61872
 30
0.0
 11
19.801
 21
3.61872
 31
0.0
  0
LINE
  8
0
 62
     0
 10
19.801
 20
3.61872
 30
0.0
 11
19.801
 21
6.71795
 31
0.0
  0
LINE
  8
0
 62
     0
 10
19.801
 20
6.71795
 30
0.0
 11
19.0004
 21
6.71795
 31
0.0
  0
LINE
  8
0
 62
     0
 10
19.0004
 20
6.71795
 30
0.0
 11
19.0004
 21
12.5181
 31
0.0
  0
LINE
  8
0
 62
     0
 10
19.0004
 20
12.5181
 30
0.0
 11
19.801
 21
12.5181
 31
0.0
  0
LINE
  8
0
 62
     0
 10
19.801
 20
12.5181
 30
0.0
 11
19.801
 21
15.6187
 31
0.0
  0
LINE
  8
0
 62
     0
 10
19.801
 20
15.6187
 30
0.0
 11
19.0004
 21
15.6187
 31
0.0
  0
LINE
  8
0
 62
     0
 10
19.0004
 20
15.6187
 30
0.0
 11
19.0004
 21
16.6178
 31
0.0
  0
LINE
  8
0
 62
     0
 10
19.0004
 20
16.6178
 30
0.0
 11
5.00091
 21
16.6178
 31
0.0
  0
LINE
  8
0
 62
     0
 10
28.8134
 20
16.6178
 30
0.0
 11
28.8134
 21
15.6187
 31
0.0
  0
LINE
  8
0
 62
     0
 10
28.8134
 20
15.6187
 30
0.0
 11
28.0128
 21
15.6187
 31
0.0
  0
LINE
  8
0
 62
     0
 10
28.0128
 20
15.6187
 30
0.0
 11
28.0128
 21
12.5181
 31
0.0
  0
LINE
  8
0
 62
     0
 10
28.0128
 20
12.5181
 30
0.0
 11
28.8134
 21
12.5181
 31
0.0
  0
LINE
  8
0
 62
     0
 10
28.8134
 20
12.5181
 30
0.0
 11
28.8134
 21
6.71795
 31
0.0
  0
LINE
  8
0
 62
     0
 10
28.8134
 20
6.71795
 30
0.0
 11
28.0128
 21
6.71795
 31
0.0
  0
LINE
  8
0
 62
     0
 10
28.0128
 20
6.71795
 30
0.0
 11
28.0128
 21
3.61872
 31
0.0
  0
LINE
  8
0
 62
     0
 10
28.0128
 20
3.61872
 30
0.0
 11
28.8134
 21
3.61872
 31
0.0
  0
LINE
  8
0
 62
     0
 10
28.8134
 20
3.61872
 30
0.0
 11
28.8134
 21
2.61827
 31
0.0
  0
LINE
  8
0
 62
     0
 10
28.8134
 20
2.61827
 30
0.0
 11
42.8128
 21
2.61827
 31
0.0
  0
LINE
  8
0
 62
     0
 10
42.8128
 20
2.61827
 30
0.0
 11
42.8128
 21
3.61872
 31
0.0
  0
LINE
  8
0
 62
     0
 10
42.8128
 20
3.61872
 30
0.0
 11
43.6122
 21
3.61872
 31
0.0
  0
LINE
  8
0
 62
     0
 10
43.6122
 20
3.61872
 30
0.0
 11
43.6122
 21
6.71795
 31
0.0
  0
LINE
  8
0
 62
     0
 10
43.6122
 20
6.71795
 30
0.0
 11
42.8128
 21
6.71795
 31
0.0
  0
LINE
  8
0
 62
     0
 10
42.8128
 20
6.71795
 30
0.0
 11
42.8128
 21
12.5181
 31
0.0
  0
LINE
  8
0
 62
     0
 10
42.8128
 20
12.5181
 30
0.0
 11
43.6122
 21
12.5181
 31
0.0
  0
LINE
  8
0
 62
     0
 10
43.6122
 20
12.5181
 30
0.0
 11
43.6122
 21
15.6187
 31
0.0
  0
LINE
  8
0
 62
     0
 10
43.6122
 20
15.6187
 30
0.0
 11
42.8128
 21
15.6187
 31
0.0
  0
LINE
  8
0
 62
     0
 10
42.8128
 20
15.6187
 30
0.0
 11
42.8128
 21
16.6178
 31
0.0
  0
LINE
  8
0
 62
     0
 10
42.8128
 20
16.6178
 30
0.0
 11
28.8134
 21
16.6178
 31
0.0
  0
LINE
  8
0
 62
     0
 10
52.626
 20
16.6178
 30
0.0
 11
52.626
 21
15.6187
 31
0.0
  0
LINE
  8
0
 62
     0
 10
52.626
 20
15.6187
 30
0.0
 11
51.8252
 21
15.6187
 31
0.0
  0
LINE
  8
0
 62
     0
 10
51.8252
 20
15.6187
 30
0.0
 11
51.8252
 21
12.5181
 31
0.0
  0
LINE
  8
0
 62
     0
 10
51.8252
 20
12.5181
 30
0.0
 11
52.626
 21
12.5181
 31
0.0
  0
LINE
  8
0
 62
     0
 10
52.626
 20
12.5181
 30
0.0
 11
52.626
 21
6.71795
 31
0.0
  0
LINE
  8
0
 62
     0
 10
52.626
 20
6.71795
 30
0.0
 11
51.8252
 21
6.71795
 31
0.0
  0
LINE
  8
0
 62
     0
 10
51.8252
 20
6.71795
 30
0.0
 11
51.8252
 21
3.61872
 31
0.0
  0
LINE
  8
0
 62
     0
 10
51.8252
 20
3.61872
 30
0.0
 11
52.626
 21
3.61872
 31
0.0
  0
LINE
  8
0
 62
     0
 10
52.626
 20
3.61872
 30
0.0
 11
52.626
 21
2.61827
 31
0.0
  0
LINE
  8
0
 62
     0
 10
52.626
 20
2.61827
 30
0.0
 11
66.6253
 21
2.61827
 31
0.0
  0
LINE
  8
0
 62
     0
 10
66.6253
 20
2.61827
 30
0.0
 11
66.6253
 21
3.61872
 31
0.0
  0
LINE
  8
0
 62
     0
 10
66.6253
 20
3.61872
 30
0.0
 11
67.4261
 21
3.61872
 31
0.0
  0
LINE
  8
0
 62
     0
 10
67.4261
 20
3.61872
 30
0.0
 11
67.4261
 21
6.71795
 31
0.0
  0
LINE
  8
0
 62
     0
 10
67.4261
 20
6.71795
 30
0.0
 11
66.6253
 21
6.71795
 31
0.0
  0
LINE
  8
0
 62
     0
 10
66.6253
 20
6.71795
 30
0.0
 11
66.6253
 21
12.5181
 31
0.0
  0
LINE
  8
0
 62
     0
 10
66.6253
 20
12.5181
 30
0.0
 11
67.4261
 21
12.5181
 31
0.0
  0
LINE
  8
0
 62
     0
 10
67.4261
 20
12.5181
 30
0.0
 11
67.4261
 21
15.6187
 31
0.0
  0
LINE
  8
0
 62
     0
 10
67.4261
 20
15.6187
 30
0.0
 11
66.6253
 21
15.6187
 31
0.0
  0
LINE
  8
0
 62
     0
 10
66.6253
 20
15.6187
 30
0.0
 11
66.6253
 21
16.6178
 31
0.0
  0
LINE
  8
0
 62
     0
 10
66.6253
 20
16.6178
 30
0.0
 11
52.626
 21
16.6178
 31
0.0
  0
LINE
  8
0
 62
     0
 10
76.4385
 20
16.6178
 30
0.0
 11
76.4385
 21
15.6187
 31
0.0
  0
LINE
  8
0
 62
     0
 10
76.4385
 20
15.6187
 30
0.0
 11
75.6377
 21
15.6187
 31
0.0
  0
LINE
  8
0
 62
     0
 10
75.6377
 20
15.6187
 30
0.0
 11
75.6377
 21
12.5181
 31
0.0
  0
LINE
  8
0
 62
     0
 10
75.6377
 20
12.5181
 30
0.0
 11
76.4385
 21
12.5181
 31
0.0
  0
LINE
  8
0
 62
     0
 10
76.4385
 20
12.5181
 30
0.0
 11
76.4385
 21
6.71795
 31
0.0
  0
LINE
  8
0
 62
     0
 10
76.4385
 20
6.71795
 30
0.0
 11
75.6377
 21
6.71795
 31
0.0
  0
LINE
  8
0
 62
     0
 10
75.6377
 20
6.71795
 30
0.0
 11
75.6377
 21
3.61872
 31
0.0
  0
LINE
  8
0
 62
     0
 10
75.6377
 20
3.61872
 30
0.0
 11
76.4385
 21
3.61872
 31
0.0
  0
LINE
  8
0
 62
     0
 10
76.4385
 20
3.61872
 30
0.0
 11
76.4385
 21
2.61827
 31
0.0
  0
LINE
  8
0
 62
     0
 10
76.4385
 20
2.61827
 30
0.0
 11
90.4378
 21
2.61827
 31
0.0
  0
LINE
  8
0
 62
     0
 10
90.4378
 20
2.61827
 30
0.0
 11
90.4378
 21
3.61872
 31
0.0
  0
LINE
  8
0
 62
     0
 10
90.4378
 20
3.61872
 30
0.0
 11
91.2372
 21
3.61872
 31
0.0
  0
LINE
  8
0
 62
     0
 10
91.2372
 20
3.61872
 30
0.0
 11
91.2372
 21
6.71795
 31
0.0
  0
LINE
  8
0
 62
     0
 10
91.2372
 20
6.71795
 30
0.0
 11
90.4378
 21
6.71795
 31
0.0
  0
LINE
  8
0
 62
     0
 10
90.4378
 20
6.71795
 30
0.0
 11
90.4378
 21
12.5181
 31
0.0
  0
LINE
  8
0
 62
     0
 10
90.4378
 20
12.5181
 30
0.0
 11
91.2372
 21
12.5181
 31
0.0
  0
LINE
  8
0
 62
     0
 10
91.2372
 20
12.5181
 30
0.0
 11
91.2372
 21
15.6187
 31
0.0
  0
LINE
  8
0
 62
     0
 10
91.2372
 20
15.6187
 30
0.0
 11
90.4378
 21
15.6187
 31
0.0
  0
LINE
  8
0
 62
     0
 10
90.4378
 20
15.6187
 30
0.0
 11
90.4378
 21
16.6178
 31
0.0
  0
LINE
  8
0
 62
     0
 10
90.4378
 20
16.6178
 30
0.0
 11
76.4385
 21
16.6178
 31
0.0
  0
LINE
  8
0
 62
     0
 10
212.17
 20
16.6178
 30
0.0
 11
212.17
 21
15.6187
 31
0.0
  0
LINE
  8
0
 62
     0
 10
212.17
 20
15.6187
 30
0.0
 11
211.369
 21
15.6187
 31
0.0
  0
LINE
  8
0
 62
     0
 10
211.369
 20
15.6187
 30
0.0
 11
211.369
 21
12.5181
 31
0.0
  0
LINE
  8
0
 62
     0
 10
211.369
 20
12.5181
 30
0.0
 11
212.17
 21
12.5181
 31
0.0
  0
LINE
  8
0
 62
     0
 10
212.17
 20
12.5181
 30
0.0
 11
212.17
 21
6.71795
 31
0.0
  0
LINE
  8
0
 62
     0
 10
212.17
 20
6.71795
 30
0.0
 11
211.369
 21
6.71795
 31
0.0
  0
LINE
  8
0
 62
     0
 10
211.369
 20
6.71795
 30
0.0
 11
211.369
 21
3.61872
 31
0.0
  0
LINE
  8
0
 62
     0
 10
211.369
 20
3.61872
 30
0.0
 11
212.17
 21
3.61872
 31
0.0
  0
LINE
  8
0
 62
     0
 10
212.17
 20
3.61872
 30
0.0
 11
212.17
 21
2.61827
 31
0.0
  0
LINE
  8
0
 62
     0
 10
212.17
 20
2.61827
 30
0.0
 11
226.169
 21
2.61827
 31
0.0
  0
LINE
  8
0
 62
     0
 10
226.169
 20
2.61827
 30
0.0
 11
226.169
 21
3.61872
 31
0.0
  0
LINE
  8
0
 62
     0
 10
226.169
 20
3.61872
 30
0.0
 11
226.97
 21
3.61872
 31
0.0
  0
LINE
  8
0
 62
     0
 10
226.97
 20
3.61872
 30
0.0
 11
226.97
 21
6.71795
 31
0.0
  0
LINE
  8
0
 62
     0
 10
226.97
 20
6.71795
 30
0.0
 11
226.169
 21
6.71795
 31
0.0
  0
LINE
  8
0
 62
     0
 10
226.169
 20
6.71795
 30
0.0
 11
226.169
 21
12.5181
 31
0.0
  0
LINE
  8
0
 62
     0
 10
226.169
 20
12.5181
 30
0.0
 11
226.97
 21
12.5181
 31
0.0
  0
LINE
  8
0
 62
     0
 10
226.97
 20
12.5181
 30
0.0
 11
226.97
 21
15.6187
 31
0.0
  0
LINE
  8
0
 62
     0
 10
226.97
 20
15.6187
 30
0.0
 11
226.169
 21
15.6187
 31
0.0
  0
LINE
  8
0
 62
     0
 10
226.169
 20
15.6187
 30
0.0
 11
226.169
 21
16.6178
 31
0.0
  0
LINE
  8
0
 62
     0
 10
226.169
 20
16.6178
 30
0.0
 11
212.17
 21
16.6178
 31
0.0
  0
LINE
  8
0
 62
     0
 10
231.22
 20
16.6178
 30
0.0
 11
231.22
 21
15.6187
 31
0.0
  0
LINE
  8
0
 62
     0
 10
231.22
 20
15.6187
 30
0.0
 11
230.42
 21
15.6187
 31
0.0
  0
LINE
  8
0
 62
     0
 10
230.42
 20
15.6187
 30
0.0
 11
230.42
 21
12.5181
 31
0.0
  0
LINE
  8
0
 62
     0
 10
230.42
 20
12.5181
 30
0.0
 11
231.22
 21
12.5181
 31
0.0
  0
LINE
  8
0
 62
     0
 10
231.22
 20
12.5181
 30
0.0
 11
231.22
 21
6.71795
 31
0.0
  0
LINE
  8
0
 62
     0
 10
231.22
 20
6.71795
 30
0.0
 11
230.42
 21
6.71795
 31
0.0
  0
LINE
  8
0
 62
     0
 10
230.42
 20
6.71795
 30
0.0
 11
230.42
 21
3.61872
 31
0.0
  0
LINE
  8
0
 62
     0
 10
230.42
 20
3.61872
 30
0.0
 11
231.22
 21
3.61872
 31
0.0
  0
LINE
  8
0
 62
     0
 10
231.22
 20
3.61872
 30
0.0
 11
231.22
 21
2.61827
 31
0.0
  0
LINE
  8
0
 62
     0
 10
231.22
 20
2.61827
 30
0.0
 11
245.219
 21
2.61827
 31
0.0
  0
LINE
  8
0
 62
     0
 10
245.219
 20
2.61827
 30
0.0
 11
245.219
 21
3.61872
 31
0.0
  0
LINE
  8
0
 62
     0
 10
245.219
 20
3.61872
 30
0.0
 11
246.02
 21
3.61872
 31
0.0
  0
LINE
  8
0
 62
     0
 10
246.02
 20
3.61872
 30
0.0
 11
246.02
 21
6.71795
 31
0.0
  0
LINE
  8
0
 62
     0
 10
246.02
 20
6.71795
 30
0.0
 11
245.219
 21
6.71795
 31
0.0
  0
LINE
  8
0
 62
     0
 10
245.219
 20
6.71795
 30
0.0
 11
245.219
 21
12.5181
 31
0.0
  0
LINE
  8
0
 62
     0
 10
245.219
 20
12.5181
 30
0.0
 11
246.02
 21
12.5181
 31
0.0
  0
LINE
  8
0
 62
     0
 10
246.02
 20
12.5181
 30
0.0
 11
246.02
 21
15.6187
 31
0.0
  0
LINE
  8
0
 62
     0
 10
246.02
 20
15.6187
 30
0.0
 11
245.219
 21
15.6187
 31
0.0
  0
LINE
  8
0
 62
     0
 10
245.219
 20
15.6187
 30
0.0
 11
245.219
 21
16.6178
 31
0.0
  0
LINE
  8
0
 62
     0
 10
245.219
 20
16.6178
 30
0.0
 11
231.22
 21
16.6178
 31
0.0
  0
LINE
  8
0
 62
     0
 10
255.032
 20
16.6178
 30
0.0
 11
255.032
 21
15.6187
 31
0.0
  0
LINE
  8
0
 62
     0
 10
255.032
 20
15.6187
 30
0.0
 11
254.231
 21
15.6187
 31
0.0
  0
LINE
  8
0
 62
     0
 10
254.231
 20
15.6187
 30
0.0
 11
254.231
 21
12.5181
 31
0.0
  0
LINE
  8
0
 62
     0
 10
254.231
 20
12.5181
 30
0.0
 11
255.032
 21
12.5181
 31
0.0
  0
LINE
  8
0
 62
     0
 10
255.032
 20
12.5181
 30
0.0
 11
255.032
 21
6.71795
 31
0.0
  0
LINE
  8
0
 62
     0
 10
255.032
 20
6.71795
 30
0.0
 11
254.231
 21
6.71795
 31
0.0
  0
LINE
  8
0
 62
     0
 10
254.231
 20
6.71795
 30
0.0
 11
254.231
 21
3.61872
 31
0.0
  0
LINE
  8
0
 62
     0
 10
254.231
 20
3.61872
 30
0.0
 11
255.032
 21
3.61872
 31
0.0
  0
LINE
  8
0
 62
     0
 10
255.032
 20
3.61872
 30
0.0
 11
255.032
 21
2.61827
 31
0.0
  0
LINE
  8
0
 62
     0
 10
255.032
 20
2.61827
 30
0.0
 11
269.032
 21
2.61827
 31
0.0
  0
LINE
  8
0
 62
     0
 10
269.032
 20
2.61827
 30
0.0
 11
269.032
 21
3.61872
 31
0.0
  0
LINE
  8
0
 62
     0
 10
269.032
 20
3.61872
 30
0.0
 11
269.832
 21
3.61872
 31
0.0
  0
LINE
  8
0
 62
     0
 10
269.832
 20
3.61872
 30
0.0
 11
269.832
 21
6.71795
 31
0.0
  0
LINE
  8
0
 62
     0
 10
269.832
 20
6.71795
 30
0.0
 11
269.032
 21
6.71795
 31
0.0
  0
LINE
  8
0
 62
     0
 10
269.032
 20
6.71795
 30
0.0
 11
269.032
 21
12.5181
 31
0.0
  0
LINE
  8
0
 62
     0
 10
269.032
 20
12.5181
 30
0.0
 11
269.832
 21
12.5181
 31
0.0
  0
LINE
  8
0
 62
     0
 10
269.832
 20
12.5181
 30
0.0
 11
269.832
 21
15.6187
 31
0.0
  0
LINE
  8
0
 62
     0
 10
269.832
 20
15.6187
 30
0.0
 11
269.032
 21
15.6187
 31
0.0
  0
LINE
  8
0
 62
     0
 10
269.032
 20
15.6187
 30
0.0
 11
269.032
 21
16.6178
 31
0.0
  0
LINE
  8
0
 62
     0
 10
269.032
 20
16.6178
 30
0.0
 11
255.032
 21
16.6178
 31
0.0
  0
LINE
  8
0
 62
     0
 10
274.082
 20
16.6178
 30
0.0
 11
274.082
 21
15.6187
 31
0.0
  0
LINE
  8
0
 62
     0
 10
274.082
 20
15.6187
 30
0.0
 11
273.281
 21
15.6187
 31
0.0
  0
LINE
  8
0
 62
     0
 10
273.281
 20
15.6187
 30
0.0
 11
273.281
 21
12.5181
 31
0.0
  0
LINE
  8
0
 62
     0
 10
273.281
 20
12.5181
 30
0.0
 11
274.082
 21
12.5181
 31
0.0
  0
LINE
  8
0
 62
     0
 10
274.082
 20
12.5181
 30
0.0
 11
274.082
 21
6.71795
 31
0.0
  0
LINE
  8
0
 62
     0
 10
274.082
 20
6.71795
 30
0.0
 11
273.281
 21
6.71795
 31
0.0
  0
LINE
  8
0
 62
     0
 10
273.281
 20
6.71795
 30
0.0
 11
273.281
 21
3.61872
 31
0.0
  0
LINE
  8
0
 62
     0
 10
273.281
 20
3.61872
 30
0.0
 11
274.082
 21
3.61872
 31
0.0
  0
LINE
  8
0
 62
     0
 10
274.082
 20
3.61872
 30
0.0
 11
274.082
 21
2.61827
 31
0.0
  0
LINE
  8
0
 62
     0
 10
274.082
 20
2.61827
 30
0.0
 11
288.082
 21
2.61827
 31
0.0
  0
LINE
  8
0
 62
     0
 10
288.082
 20
2.61827
 30
0.0
 11
288.082
 21
3.61872
 31
0.0
  0
LINE
  8
0
 62
     0
 10
288.082
 20
3.61872
 30
0.0
 11
288.882
 21
3.61872
 31
0.0
  0
LINE
  8
0
 62
     0
 10
288.882
 20
3.61872
 30
0.0
 11
288.882
 21
6.71795
 31
0.0
  0
LINE
  8
0
 62
     0
 10
288.882
 20
6.71795
 30
0.0
 11
288.082
 21
6.71795
 31
0.0
  0
LINE
  8
0
 62
     0
 10
288.082
 20
6.71795
 30
0.0
 11
288.082
 21
12.5181
 31
0.0
  0
LINE
  8
0
 62
     0
 10
288.082
 20
12.5181
 30
0.0
 11
288.882
 21
12.5181
 31
0.0
  0
LINE
  8
0
 62
     0
 10
288.882
 20
12.5181
 30
0.0
 11
288.882
 21
15.6187
 31
0.0
  0
LINE
  8
0
 62
     0
 10
288.882
 20
15.6187
 30
0.0
 11
288.082
 21
15.6187
 31
0.0
  0
LINE
  8
0
 62
     0
 10
288.082
 20
15.6187
 30
0.0
 11
288.082
 21
16.6178
 31
0.0
  0
LINE
  8
0
 62
     0
 10
288.082
 20
16.6178
 30
0.0
 11
274.082
 21
16.6178
 31
0.0
  0
LINE
  8
0
 62
     0
 10
293.132
 20
16.6178
 30
0.0
 11
293.132
 21
15.6187
 31
0.0
  0
LINE
  8
0
 62
     0
 10
293.132
 20
15.6187
 30
0.0
 11
292.331
 21
15.6187
 31
0.0
  0
LINE
  8
0
 62
     0
 10
292.331
 20
15.6187
 30
0.0
 11
292.331
 21
12.5181
 31
0.0
  0
LINE
  8
0
 62
     0
 10
292.331
 20
12.5181
 30
0.0
 11
293.132
 21
12.5181
 31
0.0
  0
LINE
  8
0
 62
     0
 10
293.132
 20
12.5181
 30
0.0
 11
293.132
 21
6.71795
 31
0.0
  0
LINE
  8
0
 62
     0
 10
293.132
 20
6.71795
 30
0.0
 11
292.331
 21
6.71795
 31
0.0
  0
LINE
  8
0
 62
     0
 10
292.331
 20
6.71795
 30
0.0
 11
292.331
 21
3.61872
 31
0.0
  0
LINE
  8
0
 62
     0
 10
292.331
 20
3.61872
 30
0.0
 11
293.132
 21
3.61872
 31
0.0
  0
LINE
  8
0
 62
     0
 10
293.132
 20
3.61872
 30
0.0
 11
293.132
 21
2.61827
 31
0.0
  0
LINE
  8
0
 62
     0
 10
293.132
 20
2.61827
 30
0.0
 11
307.132
 21
2.61827
 31
0.0
  0
LINE
  8
0
 62
     0
 10
307.132
 20
2.61827
 30
0.0
 11
307.132
 21
3.61872
 31
0.0
  0
LINE
  8
0
 62
     0
 10
307.132
 20
3.61872
 30
0.0
 11
307.932
 21
3.61872
 31
0.0
  0
LINE
  8
0
 62
     0
 10
307.932
 20
3.61872
 30
0.0
 11
307.932
 21
6.71795
 31
0.0
  0
LINE
  8
0
 62
     0
 10
307.932
 20
6.71795
 30
0.0
 11
307.132
 21
6.71795
 31
0.0
  0
LINE
  8
0
 62
     0
 10
307.132
 20
6.71795
 30
0.0
 11
307.132
 21
12.5181
 31
0.0
  0
LINE
  8
0
 62
     0
 10
307.132
 20
12.5181
 30
0.0
 11
307.932
 21
12.5181
 31
0.0
  0
LINE
  8
0
 62
     0
 10
307.932
 20
12.5181
 30
0.0
 11
307.932
 21
15.6187
 31
0.0
  0
LINE
  8
0
 62
     0
 10
307.932
 20
15.6187
 30
0.0
 11
307.132
 21
15.6187
 31
0.0
  0
LINE
  8
0
 62
     0
 10
307.132
 20
15.6187
 30
0.0
 11
307.132
 21
16.6178
 31
0.0
  0
LINE
  8
0
 62
     0
 10
307.132
 20
16.6178
 30
0.0
 11
293.132
 21
16.6178
 31
0.0
  0
LINE
  8
0
 62
     0
 10
316.945
 20
16.6178
 30
0.0
 11
316.945
 21
15.6187
 31
0.0
  0
LINE
  8
0
 62
     0
 10
316.945
 20
15.6187
 30
0.0
 11
316.145
 21
15.6187
 31
0.0
  0
LINE
  8
0
 62
     0
 10
316.145
 20
15.6187
 30
0.0
 11
316.145
 21
12.5181
 31
0.0
  0
LINE
  8
0
 62
     0
 10
316.145
 20
12.5181
 30
0.0
 11
316.945
 21
12.5181
 31
0.0
  0
LINE
  8
0
 62
     0
 10
316.945
 20
12.5181
 30
0.0
 11
316.945
 21
6.71795
 31
0.0
  0
LINE
  8
0
 62
     0
 10
316.945
 20
6.71795
 30
0.0
 11
316.145
 21
6.71795
 31
0.0
  0
LINE
  8
0
 62
     0
 10
316.145
 20
6.71795
 30
0.0
 11
316.145
 21
3.61872
 31
0.0
  0
LINE
  8
0
 62
     0
 10
316.145
 20
3.61872
 30
0.0
 11
316.945
 21
3.61872
 31
0.0
  0
LINE
  8
0
 62
     0
 10
316.945
 20
3.61872
 30
0.0
 11
316.945
 21
2.61827
 31
0.0
  0
LINE
  8
0
 62
     0
 10
316.945
 20
2.61827
 30
0.0
 11
330.944
 21
2.61827
 31
0.0
  0
LINE
  8
0
 62
     0
 10
330.944
 20
2.61827
 30
0.0
 11
330.944
 21
3.61872
 31
0.0
  0
LINE
  8
0
 62
     0
 10
330.944
 20
3.61872
 30
0.0
 11
331.745
 21
3.61872
 31
0.0
  0
LINE
  8
0
 62
     0
 10
331.745
 20
3.61872
 30
0.0
 11
331.745
 21
6.71795
 31
0.0
  0
LINE
  8
0
 62
     0
 10
331.745
 20
6.71795
 30
0.0
 11
330.944
 21
6.71795
 31
0.0
  0
LINE
  8
0
 62
     0
 10
330.944
 20
6.71795
 30
0.0
 11
330.944
 21
12.5181
 31
0.0
  0
LINE
  8
0
 62
     0
 10
330.944
 20
12.5181
 30
0.0
 11
331.745
 21
12.5181
 31
0.0
  0
LINE
  8
0
 62
     0
 10
331.745
 20
12.5181
 30
0.0
 11
331.745
 21
15.6187
 31
0.0
  0
LINE
  8
0
 62
     0
 10
331.745
 20
15.6187
 30
0.0
 11
330.944
 21
15.6187
 31
0.0
  0
LINE
  8
0
 62
     0
 10
330.944
 20
15.6187
 30
0.0
 11
330.944
 21
16.6178
 31
0.0
  0
LINE
  8
0
 62
     0
 10
330.944
 20
16.6178
 30
0.0
 11
316.945
 21
16.6178
 31
0.0
  0
LINE
  8
0
 62
     0
 10
335.995
 20
16.6178
 30
0.0
 11
335.995
 21
15.6187
 31
0.0
  0
LINE
  8
0
 62
     0
 10
335.995
 20
15.6187
 30
0.0
 11
335.195
 21
15.6187
 31
0.0
  0
LINE
  8
0
 62
     0
 10
335.195
 20
15.6187
 30
0.0
 11
335.195
 21
12.5181
 31
0.0
  0
LINE
  8
0
 62
     0
 10
335.195
 20
12.5181
 30
0.0
 11
335.995
 21
12.5181
 31
0.0
  0
LINE
  8
0
 62
     0
 10
335.995
 20
12.5181
 30
0.0
 11
335.995
 21
6.71795
 31
0.0
  0
LINE
  8
0
 62
     0
 10
335.995
 20
6.71795
 30
0.0
 11
335.195
 21
6.71795
 31
0.0
  0
LINE
  8
0
 62
     0
 10
335.195
 20
6.71795
 30
0.0
 11
335.195
 21
3.61872
 31
0.0
  0
LINE
  8
0
 62
     0
 10
335.195
 20
3.61872
 30
0.0
 11
335.995
 21
3.61872
 31
0.0
  0
LINE
  8
0
 62
     0
 10
335.995
 20
3.61872
 30
0.0
 11
335.995
 21
2.61827
 31
0.0
  0
LINE
  8
0
 62
     0
 10
335.995
 20
2.61827
 30
0.0
 11
349.994
 21
2.61827
 31
0.0
  0
LINE
  8
0
 62
     0
 10
349.994
 20
2.61827
 30
0.0
 11
349.994
 21
3.61872
 31
0.0
  0
LINE
  8
0
 62
     0
 10
349.994
 20
3.61872
 30
0.0
 11
350.795
 21
3.61872
 31
0.0
  0
LINE
  8
0
 62
     0
 10
350.795
 20
3.61872
 30
0.0
 11
350.795
 21
6.71795
 31
0.0
  0
LINE
  8
0
 62
     0
 10
350.795
 20
6.71795
 30
0.0
 11
349.994
 21
6.71795
 31
0.0
  0
LINE
  8
0
 62
     0
 10
349.994
 20
6.71795
 30
0.0
 11
349.994
 21
12.5181
 31
0.0
  0
LINE
  8
0
 62
     0
 10
349.994
 20
12.5181
 30
0.0
 11
350.795
 21
12.5181
 31
0.0
  0
LINE
  8
0
 62
     0
 10
350.795
 20
12.5181
 30
0.0
 11
350.795
 21
15.6187
 31
0.0
  0
LINE
  8
0
 62
     0
 10
350.795
 20
15.6187
 30
0.0
 11
349.994
 21
15.6187
 31
0.0
  0
LINE
  8
0
 62
     0
 10
349.994
 20
15.6187
 30
0.0
 11
349.994
 21
16.6178
 31
0.0
  0
LINE
  8
0
 62
     0
 10
349.994
 20
16.6178
 30
0.0
 11
335.995
 21
16.6178
 31
0.0
  0
LINE
  8
0
 62
     0
 10
14.5259
 20
35.6676
 30
0.0
 11
14.5259
 21
34.6687
 31
0.0
  0
LINE
  8
0
 62
     0
 10
14.5259
 20
34.6687
 30
0.0
 11
13.7253
 21
34.6687
 31
0.0
  0
LINE
  8
0
 62
     0
 10
13.7253
 20
34.6687
 30
0.0
 11
13.7253
 21
31.5681
 31
0.0
  0
LINE
  8
0
 62
     0
 10
13.7253
 20
31.5681
 30
0.0
 11
14.5259
 21
31.5681
 31
0.0
  0
LINE
  8
0
 62
     0
 10
14.5259
 20
31.5681
 30
0.0
 11
14.5259
 21
30.9687
 31
0.0
  0
LINE
  8
0
 62
     0
 10
14.5259
 20
30.9687
 30
0.0
 11
13.0004
 21
30.9687
 31
0.0
  0
LINE
  8
0
 62
     0
 10
13.0004
 20
30.9687
 30
0.0
 11
13.0004
 21
34.1988
 31
0.0
  0
LINE
  8
0
 62
     0
 10
13.0004
 20
34.1988
 30
0.0
 11
11.2751
 21
34.1988
 31
0.0
  0
LINE
  8
0
 62
     0
 10
11.2751
 20
34.1988
 30
0.0
 11
11.2751
 21
35.1179
 31
0.0
  0
LINE
  8
0
 62
     0
 10
11.2751
 20
35.1179
 30
0.0
 11
7.97609
 21
35.1179
 31
0.0
  0
LINE
  8
0
 62
     0
 10
7.97609
 20
35.1179
 30
0.0
 11
7.97609
 21
34.1988
 31
0.0
  0
LINE
  8
0
 62
     0
 10
7.97609
 20
34.1988
 30
0.0
 11
6.2508
 21
34.1988
 31
0.0
  0
LINE
  8
0
 62
     0
 10
6.2508
 20
34.1988
 30
0.0
 11
6.2508
 21
30.9687
 31
0.0
  0
LINE
  8
0
 62
     0
 10
6.2508
 20
30.9687
 30
0.0
 11
5.42533
 21
30.9687
 31
0.0
  0
LINE
  8
0
 62
     0
 10
5.42533
 20
30.9687
 30
0.0
 11
5.42533
 21
28.1685
 31
0.0
  0
LINE
  8
0
 62
     0
 10
5.42533
 20
28.1685
 30
0.0
 11
6.2508
 21
28.1685
 31
0.0
  0
LINE
  8
0
 62
     0
 10
6.2508
 20
28.1685
 30
0.0
 11
6.2508
 21
21.8984
 31
0.0
  0
LINE
  8
0
 62
     0
 10
6.2508
 20
21.8984
 30
0.0
 11
7.97609
 21
21.8984
 31
0.0
  0
LINE
  8
0
 62
     0
 10
7.97609
 20
21.8984
 30
0.0
 11
7.97609
 21
20.9186
 31
0.0
  0
LINE
  8
0
 62
     0
 10
7.97609
 20
20.9186
 30
0.0
 11
11.2751
 21
20.9186
 31
0.0
  0
LINE
  8
0
 62
     0
 10
11.2751
 20
20.9186
 30
0.0
 11
11.2751
 21
21.8984
 31
0.0
  0
LINE
  8
0
 62
     0
 10
11.2751
 20
21.8984
 30
0.0
 11
13.0004
 21
21.8984
 31
0.0
  0
LINE
  8
0
 62
     0
 10
13.0004
 20
21.8984
 30
0.0
 11
13.0004
 21
26.3688
 31
0.0
  0
LINE
  8
0
 62
     0
 10
13.0004
 20
26.3688
 30
0.0
 11
14.5259
 21
26.3688
 31
0.0
  0
LINE
  8
0
 62
     0
 10
14.5259
 20
26.3688
 30
0.0
 11
14.5259
 21
25.7679
 31
0.0
  0
LINE
  8
0
 62
     0
 10
14.5259
 20
25.7679
 30
0.0
 11
13.7253
 21
25.7679
 31
0.0
  0
LINE
  8
0
 62
     0
 10
13.7253
 20
25.7679
 30
0.0
 11
13.7253
 21
22.6687
 31
0.0
  0
LINE
  8
0
 62
     0
 10
13.7253
 20
22.6687
 30
0.0
 11
14.5259
 21
22.6687
 31
0.0
  0
LINE
  8
0
 62
     0
 10
14.5259
 20
22.6687
 30
0.0
 11
14.5259
 21
21.6683
 31
0.0
  0
LINE
  8
0
 62
     0
 10
14.5259
 20
21.6683
 30
0.0
 11
28.5254
 21
21.6683
 31
0.0
  0
LINE
  8
0
 62
     0
 10
28.5254
 20
21.6683
 30
0.0
 11
28.5254
 21
22.6687
 31
0.0
  0
LINE
  8
0
 62
     0
 10
28.5254
 20
22.6687
 30
0.0
 11
29.326
 21
22.6687
 31
0.0
  0
LINE
  8
0
 62
     0
 10
29.326
 20
22.6687
 30
0.0
 11
29.326
 21
25.7679
 31
0.0
  0
LINE
  8
0
 62
     0
 10
29.326
 20
25.7679
 30
0.0
 11
28.5254
 21
25.7679
 31
0.0
  0
LINE
  8
0
 62
     0
 10
28.5254
 20
25.7679
 30
0.0
 11
28.5254
 21
26.3688
 31
0.0
  0
LINE
  8
0
 62
     0
 10
28.5254
 20
26.3688
 30
0.0
 11
30.0509
 21
26.3688
 31
0.0
  0
LINE
  8
0
 62
     0
 10
30.0509
 20
26.3688
 30
0.0
 11
30.0509
 21
21.8984
 31
0.0
  0
LINE
  8
0
 62
     0
 10
30.0509
 20
21.8984
 30
0.0
 11
31.7762
 21
21.8984
 31
0.0
  0
LINE
  8
0
 62
     0
 10
31.7762
 20
21.8984
 30
0.0
 11
31.7762
 21
20.9186
 31
0.0
  0
LINE
  8
0
 62
     0
 10
31.7762
 20
20.9186
 30
0.0
 11
35.0752
 21
20.9186
 31
0.0
  0
LINE
  8
0
 62
     0
 10
35.0752
 20
20.9186
 30
0.0
 11
35.0752
 21
21.8984
 31
0.0
  0
LINE
  8
0
 62
     0
 10
35.0752
 20
21.8984
 30
0.0
 11
36.8004
 21
21.8984
 31
0.0
  0
LINE
  8
0
 62
     0
 10
36.8004
 20
21.8984
 30
0.0
 11
36.8004
 21
28.1685
 31
0.0
  0
LINE
  8
0
 62
     0
 10
36.8004
 20
28.1685
 30
0.0
 11
37.6259
 21
28.1685
 31
0.0
  0
LINE
  8
0
 62
     0
 10
37.6259
 20
28.1685
 30
0.0
 11
37.6259
 21
30.9687
 31
0.0
  0
LINE
  8
0
 62
     0
 10
37.6259
 20
30.9687
 30
0.0
 11
36.8004
 21
30.9687
 31
0.0
  0
LINE
  8
0
 62
     0
 10
36.8004
 20
30.9687
 30
0.0
 11
36.8004
 21
34.1988
 31
0.0
  0
LINE
  8
0
 62
     0
 10
36.8004
 20
34.1988
 30
0.0
 11
35.0752
 21
34.1988
 31
0.0
  0
LINE
  8
0
 62
     0
 10
35.0752
 20
34.1988
 30
0.0
 11
35.0752
 21
35.1179
 31
0.0
  0
LINE
  8
0
 62
     0
 10
35.0752
 20
35.1179
 30
0.0
 11
31.7762
 21
35.1179
 31
0.0
  0
LINE
  8
0
 62
     0
 10
31.7762
 20
35.1179
 30
0.0
 11
31.7762
 21
34.1988
 31
0.0
  0
LINE
  8
0
 62
     0
 10
31.7762
 20
34.1988
 30
0.0
 11
30.0509
 21
34.1988
 31
0.0
  0
LINE
  8
0
 62
     0
 10
30.0509
 20
34.1988
 30
0.0
 11
30.0509
 21
30.9687
 31
0.0
  0
LINE
  8
0
 62
     0
 10
30.0509
 20
30.9687
 30
0.0
 11
28.5254
 21
30.9687
 31
0.0
  0
LINE
  8
0
 62
     0
 10
28.5254
 20
30.9687
 30
0.0
 11
28.5254
 21
31.5681
 31
0.0
  0
LINE
  8
0
 62
     0
 10
28.5254
 20
31.5681
 30
0.0
 11
29.326
 21
31.5681
 31
0.0
  0
LINE
  8
0
 62
     0
 10
29.326
 20
31.5681
 30
0.0
 11
29.326
 21
34.6687
 31
0.0
  0
LINE
  8
0
 62
     0
 10
29.326
 20
34.6687
 30
0.0
 11
28.5254
 21
34.6687
 31
0.0
  0
LINE
  8
0
 62
     0
 10
28.5254
 20
34.6687
 30
0.0
 11
28.5254
 21
35.6676
 31
0.0
  0
LINE
  8
0
 62
     0
 10
28.5254
 20
35.6676
 30
0.0
 11
14.5259
 21
35.6676
 31
0.0
  0
LINE
  8
0
 62
     0
 10
45.4822
 20
35.6676
 30
0.0
 11
45.4822
 21
34.6687
 31
0.0
  0
LINE
  8
0
 62
     0
 10
45.4822
 20
34.6687
 30
0.0
 11
44.6814
 21
34.6687
 31
0.0
  0
LINE
  8
0
 62
     0
 10
44.6814
 20
34.6687
 30
0.0
 11
44.6814
 21
31.5681
 31
0.0
  0
LINE
  8
0
 62
     0
 10
44.6814
 20
31.5681
 30
0.0
 11
45.4822
 21
31.5681
 31
0.0
  0
LINE
  8
0
 62
     0
 10
45.4822
 20
31.5681
 30
0.0
 11
45.4822
 21
25.7679
 31
0.0
  0
LINE
  8
0
 62
     0
 10
45.4822
 20
25.7679
 30
0.0
 11
44.6814
 21
25.7679
 31
0.0
  0
LINE
  8
0
 62
     0
 10
44.6814
 20
25.7679
 30
0.0
 11
44.6814
 21
22.6687
 31
0.0
  0
LINE
  8
0
 62
     0
 10
44.6814
 20
22.6687
 30
0.0
 11
45.4822
 21
22.6687
 31
0.0
  0
LINE
  8
0
 62
     0
 10
45.4822
 20
22.6687
 30
0.0
 11
45.4822
 21
21.6683
 31
0.0
  0
LINE
  8
0
 62
     0
 10
45.4822
 20
21.6683
 30
0.0
 11
59.4815
 21
21.6683
 31
0.0
  0
LINE
  8
0
 62
     0
 10
59.4815
 20
21.6683
 30
0.0
 11
59.4815
 21
22.6687
 31
0.0
  0
LINE
  8
0
 62
     0
 10
59.4815
 20
22.6687
 30
0.0
 11
60.2823
 21
22.6687
 31
0.0
  0
LINE
  8
0
 62
     0
 10
60.2823
 20
22.6687
 30
0.0
 11
60.2823
 21
25.7679
 31
0.0
  0
LINE
  8
0
 62
     0
 10
60.2823
 20
25.7679
 30
0.0
 11
59.4815
 21
25.7679
 31
0.0
  0
LINE
  8
0
 62
     0
 10
59.4815
 20
25.7679
 30
0.0
 11
59.4815
 21
31.5681
 31
0.0
  0
LINE
  8
0
 62
     0
 10
59.4815
 20
31.5681
 30
0.0
 11
60.2823
 21
31.5681
 31
0.0
  0
LINE
  8
0
 62
     0
 10
60.2823
 20
31.5681
 30
0.0
 11
60.2823
 21
34.6687
 31
0.0
  0
LINE
  8
0
 62
     0
 10
60.2823
 20
34.6687
 30
0.0
 11
59.4815
 21
34.6687
 31
0.0
  0
LINE
  8
0
 62
     0
 10
59.4815
 20
34.6687
 30
0.0
 11
59.4815
 21
35.6676
 31
0.0
  0
LINE
  8
0
 62
     0
 10
59.4815
 20
35.6676
 30
0.0
 11
45.4822
 21
35.6676
 31
0.0
  0
LINE
  8
0
 62
     0
 10
64.5322
 20
35.6676
 30
0.0
 11
64.5322
 21
34.6687
 31
0.0
  0
LINE
  8
0
 62
     0
 10
64.5322
 20
34.6687
 30
0.0
 11
63.7314
 21
34.6687
 31
0.0
  0
LINE
  8
0
 62
     0
 10
63.7314
 20
34.6687
 30
0.0
 11
63.7314
 21
31.5681
 31
0.0
  0
LINE
  8
0
 62
     0
 10
63.7314
 20
31.5681
 30
0.0
 11
64.5322
 21
31.5681
 31
0.0
  0
LINE
  8
0
 62
     0
 10
64.5322
 20
31.5681
 30
0.0
 11
64.5322
 21
25.7679
 31
0.0
  0
LINE
  8
0
 62
     0
 10
64.5322
 20
25.7679
 30
0.0
 11
63.7314
 21
25.7679
 31
0.0
  0
LINE
  8
0
 62
     0
 10
63.7314
 20
25.7679
 30
0.0
 11
63.7314
 21
22.6687
 31
0.0
  0
LINE
  8
0
 62
     0
 10
63.7314
 20
22.6687
 30
0.0
 11
64.5322
 21
22.6687
 31
0.0
  0
LINE
  8
0
 62
     0
 10
64.5322
 20
22.6687
 30
0.0
 11
64.5322
 21
21.6683
 31
0.0
  0
LINE
  8
0
 62
     0
 10
64.5322
 20
21.6683
 30
0.0
 11
78.5315
 21
21.6683
 31
0.0
  0
LINE
  8
0
 62
     0
 10
78.5315
 20
21.6683
 30
0.0
 11
78.5315
 21
22.6687
 31
0.0
  0
LINE
  8
0
 62
     0
 10
78.5315
 20
22.6687
 30
0.0
 11
79.3323
 21
22.6687
 31
0.0
  0
LINE
  8
0
 62
     0
 10
79.3323
 20
22.6687
 30
0.0
 11
79.3323
 21
25.7679
 31
0.0
  0
LINE
  8
0
 62
     0
 10
79.3323
 20
25.7679
 30
0.0
 11
78.5315
 21
25.7679
 31
0.0
  0
LINE
  8
0
 62
     0
 10
78.5315
 20
25.7679
 30
0.0
 11
78.5315
 21
31.5681
 31
0.0
  0
LINE
  8
0
 62
     0
 10
78.5315
 20
31.5681
 30
0.0
 11
79.3323
 21
31.5681
 31
0.0
  0
LINE
  8
0
 62
     0
 10
79.3323
 20
31.5681
 30
0.0
 11
79.3323
 21
34.6687
 31
0.0
  0
LINE
  8
0
 62
     0
 10
79.3323
 20
34.6687
 30
0.0
 11
78.5315
 21
34.6687
 31
0.0
  0
LINE
  8
0
 62
     0
 10
78.5315
 20
34.6687
 30
0.0
 11
78.5315
 21
35.6676
 31
0.0
  0
LINE
  8
0
 62
     0
 10
78.5315
 20
35.6676
 30
0.0
 11
64.5322
 21
35.6676
 31
0.0
  0
LINE
  8
0
 62
     0
 10
83.5822
 20
35.6676
 30
0.0
 11
83.5822
 21
34.6687
 31
0.0
  0
LINE
  8
0
 62
     0
 10
83.5822
 20
34.6687
 30
0.0
 11
82.7814
 21
34.6687
 31
0.0
  0
LINE
  8
0
 62
     0
 10
82.7814
 20
34.6687
 30
0.0
 11
82.7814
 21
31.5681
 31
0.0
  0
LINE
  8
0
 62
     0
 10
82.7814
 20
31.5681
 30
0.0
 11
83.5822
 21
31.5681
 31
0.0
  0
LINE
  8
0
 62
     0
 10
83.5822
 20
31.5681
 30
0.0
 11
83.5822
 21
25.7679
 31
0.0
  0
LINE
  8
0
 62
     0
 10
83.5822
 20
25.7679
 30
0.0
 11
82.7814
 21
25.7679
 31
0.0
  0
LINE
  8
0
 62
     0
 10
82.7814
 20
25.7679
 30
0.0
 11
82.7814
 21
22.6687
 31
0.0
  0
LINE
  8
0
 62
     0
 10
82.7814
 20
22.6687
 30
0.0
 11
83.5822
 21
22.6687
 31
0.0
  0
LINE
  8
0
 62
     0
 10
83.5822
 20
22.6687
 30
0.0
 11
83.5822
 21
21.6683
 31
0.0
  0
LINE
  8
0
 62
     0
 10
83.5822
 20
21.6683
 30
0.0
 11
97.5815
 21
21.6683
 31
0.0
  0
LINE
  8
0
 62
     0
 10
97.5815
 20
21.6683
 30
0.0
 11
97.5815
 21
22.6687
 31
0.0
  0
LINE
  8
0
 62
     0
 10
97.5815
 20
22.6687
 30
0.0
 11
98.3823
 21
22.6687
 31
0.0
  0
LINE
  8
0
 62
     0
 10
98.3823
 20
22.6687
 30
0.0
 11
98.3823
 21
25.7679
 31
0.0
  0
LINE
  8
0
 62
     0
 10
98.3823
 20
25.7679
 30
0.0
 11
97.5815
 21
25.7679
 31
0.0
  0
LINE
  8
0
 62
     0
 10
97.5815
 20
25.7679
 30
0.0
 11
97.5815
 21
31.5681
 31
0.0
  0
LINE
  8
0
 62
     0
 10
97.5815
 20
31.5681
 30
0.0
 11
98.3823
 21
31.5681
 31
0.0
  0
LINE
  8
0
 62
     0
 10
98.3823
 20
31.5681
 30
0.0
 11
98.3823
 21
34.6687
 31
0.0
  0
LINE
  8
0
 62
     0
 10
98.3823
 20
34.6687
 30
0.0
 11
97.5815
 21
34.6687
 31
0.0
  0
LINE
  8
0
 62
     0
 10
97.5815
 20
34.6687
 30
0.0
 11
97.5815
 21
35.6676
 31
0.0
  0
LINE
  8
0
 62
     0
 10
97.5815
 20
35.6676
 30
0.0
 11
83.5822
 21
35.6676
 31
0.0
  0
LINE
  8
0
 62
     0
 10
102.632
 20
35.6676
 30
0.0
 11
102.632
 21
34.6687
 31
0.0
  0
LINE
  8
0
 62
     0
 10
102.632
 20
34.6687
 30
0.0
 11
101.831
 21
34.6687
 31
0.0
  0
LINE
  8
0
 62
     0
 10
101.831
 20
34.6687
 30
0.0
 11
101.831
 21
31.5681
 31
0.0
  0
LINE
  8
0
 62
     0
 10
101.831
 20
31.5681
 30
0.0
 11
102.632
 21
31.5681
 31
0.0
  0
LINE
  8
0
 62
     0
 10
102.632
 20
31.5681
 30
0.0
 11
102.632
 21
25.7679
 31
0.0
  0
LINE
  8
0
 62
     0
 10
102.632
 20
25.7679
 30
0.0
 11
101.831
 21
25.7679
 31
0.0
  0
LINE
  8
0
 62
     0
 10
101.831
 20
25.7679
 30
0.0
 11
101.831
 21
22.6687
 31
0.0
  0
LINE
  8
0
 62
     0
 10
101.831
 20
22.6687
 30
0.0
 11
102.632
 21
22.6687
 31
0.0
  0
LINE
  8
0
 62
     0
 10
102.632
 20
22.6687
 30
0.0
 11
102.632
 21
21.6683
 31
0.0
  0
LINE
  8
0
 62
     0
 10
102.632
 20
21.6683
 30
0.0
 11
116.632
 21
21.6683
 31
0.0
  0
LINE
  8
0
 62
     0
 10
116.632
 20
21.6683
 30
0.0
 11
116.632
 21
22.6687
 31
0.0
  0
LINE
  8
0
 62
     0
 10
116.632
 20
22.6687
 30
0.0
 11
117.432
 21
22.6687
 31
0.0
  0
LINE
  8
0
 62
     0
 10
117.432
 20
22.6687
 30
0.0
 11
117.432
 21
25.7679
 31
0.0
  0
LINE
  8
0
 62
     0
 10
117.432
 20
25.7679
 30
0.0
 11
116.632
 21
25.7679
 31
0.0
  0
LINE
  8
0
 62
     0
 10
116.632
 20
25.7679
 30
0.0
 11
116.632
 21
31.5681
 31
0.0
  0
LINE
  8
0
 62
     0
 10
116.632
 20
31.5681
 30
0.0
 11
117.432
 21
31.5681
 31
0.0
  0
LINE
  8
0
 62
     0
 10
117.432
 20
31.5681
 30
0.0
 11
117.432
 21
34.6687
 31
0.0
  0
LINE
  8
0
 62
     0
 10
117.432
 20
34.6687
 30
0.0
 11
116.632
 21
34.6687
 31
0.0
  0
LINE
  8
0
 62
     0
 10
116.632
 20
34.6687
 30
0.0
 11
116.632
 21
35.6676
 31
0.0
  0
LINE
  8
0
 62
     0
 10
116.632
 20
35.6676
 30
0.0
 11
102.632
 21
35.6676
 31
0.0
  0
LINE
  8
0
 62
     0
 10
121.682
 20
35.6676
 30
0.0
 11
121.682
 21
34.6687
 31
0.0
  0
LINE
  8
0
 62
     0
 10
121.682
 20
34.6687
 30
0.0
 11
120.881
 21
34.6687
 31
0.0
  0
LINE
  8
0
 62
     0
 10
120.881
 20
34.6687
 30
0.0
 11
120.881
 21
31.5681
 31
0.0
  0
LINE
  8
0
 62
     0
 10
120.881
 20
31.5681
 30
0.0
 11
121.682
 21
31.5681
 31
0.0
  0
LINE
  8
0
 62
     0
 10
121.682
 20
31.5681
 30
0.0
 11
121.682
 21
25.7679
 31
0.0
  0
LINE
  8
0
 62
     0
 10
121.682
 20
25.7679
 30
0.0
 11
120.881
 21
25.7679
 31
0.0
  0
LINE
  8
0
 62
     0
 10
120.881
 20
25.7679
 30
0.0
 11
120.881
 21
22.6687
 31
0.0
  0
LINE
  8
0
 62
     0
 10
120.881
 20
22.6687
 30
0.0
 11
121.682
 21
22.6687
 31
0.0
  0
LINE
  8
0
 62
     0
 10
121.682
 20
22.6687
 30
0.0
 11
121.682
 21
21.6683
 31
0.0
  0
LINE
  8
0
 62
     0
 10
121.682
 20
21.6683
 30
0.0
 11
135.682
 21
21.6683
 31
0.0
  0
LINE
  8
0
 62
     0
 10
135.682
 20
21.6683
 30
0.0
 11
135.682
 21
22.6687
 31
0.0
  0
LINE
  8
0
 62
     0
 10
135.682
 20
22.6687
 30
0.0
 11
136.482
 21
22.6687
 31
0.0
  0
LINE
  8
0
 62
     0
 10
136.482
 20
22.6687
 30
0.0
 11
136.482
 21
25.7679
 31
0.0
  0
LINE
  8
0
 62
     0
 10
136.482
 20
25.7679
 30
0.0
 11
135.682
 21
25.7679
 31
0.0
  0
LINE
  8
0
 62
     0
 10
135.682
 20
25.7679
 30
0.0
 11
135.682
 21
31.5681
 31
0.0
  0
LINE
  8
0
 62
     0
 10
135.682
 20
31.5681
 30
0.0
 11
136.482
 21
31.5681
 31
0.0
  0
LINE
  8
0
 62
     0
 10
136.482
 20
31.5681
 30
0.0
 11
136.482
 21
34.6687
 31
0.0
  0
LINE
  8
0
 62
     0
 10
136.482
 20
34.6687
 30
0.0
 11
135.682
 21
34.6687
 31
0.0
  0
LINE
  8
0
 62
     0
 10
135.682
 20
34.6687
 30
0.0
 11
135.682
 21
35.6676
 31
0.0
  0
LINE
  8
0
 62
     0
 10
135.682
 20
35.6676
 30
0.0
 11
121.682
 21
35.6676
 31
0.0
  0
LINE
  8
0
 62
     0
 10
140.732
 20
35.6676
 30
0.0
 11
140.732
 21
34.6687
 31
0.0
  0
LINE
  8
0
 62
     0
 10
140.732
 20
34.6687
 30
0.0
 11
139.931
 21
34.6687
 31
0.0
  0
LINE
  8
0
 62
     0
 10
139.931
 20
34.6687
 30
0.0
 11
139.931
 21
31.5681
 31
0.0
  0
LINE
  8
0
 62
     0
 10
139.931
 20
31.5681
 30
0.0
 11
140.732
 21
31.5681
 31
0.0
  0
LINE
  8
0
 62
     0
 10
140.732
 20
31.5681
 30
0.0
 11
140.732
 21
25.7679
 31
0.0
  0
LINE
  8
0
 62
     0
 10
140.732
 20
25.7679
 30
0.0
 11
139.931
 21
25.7679
 31
0.0
  0
LINE
  8
0
 62
     0
 10
139.931
 20
25.7679
 30
0.0
 11
139.931
 21
22.6687
 31
0.0
  0
LINE
  8
0
 62
     0
 10
139.931
 20
22.6687
 30
0.0
 11
140.732
 21
22.6687
 31
0.0
  0
LINE
  8
0
 62
     0
 10
140.732
 20
22.6687
 30
0.0
 11
140.732
 21
21.6683
 31
0.0
  0
LINE
  8
0
 62
     0
 10
140.732
 20
21.6683
 30
0.0
 11
154.732
 21
21.6683
 31
0.0
  0
LINE
  8
0
 62
     0
 10
154.732
 20
21.6683
 30
0.0
 11
154.732
 21
22.6687
 31
0.0
  0
LINE
  8
0
 62
     0
 10
154.732
 20
22.6687
 30
0.0
 11
155.532
 21
22.6687
 31
0.0
  0
LINE
  8
0
 62
     0
 10
155.532
 20
22.6687
 30
0.0
 11
155.532
 21
25.7679
 31
0.0
  0
LINE
  8
0
 62
     0
 10
155.532
 20
25.7679
 30
0.0
 11
154.732
 21
25.7679
 31
0.0
  0
LINE
  8
0
 62
     0
 10
154.732
 20
25.7679
 30
0.0
 11
154.732
 21
31.5681
 31
0.0
  0
LINE
  8
0
 62
     0
 10
154.732
 20
31.5681
 30
0.0
 11
155.532
 21
31.5681
 31
0.0
  0
LINE
  8
0
 62
     0
 10
155.532
 20
31.5681
 30
0.0
 11
155.532
 21
34.6687
 31
0.0
  0
LINE
  8
0
 62
     0
 10
155.532
 20
34.6687
 30
0.0
 11
154.732
 21
34.6687
 31
0.0
  0
LINE
  8
0
 62
     0
 10
154.732
 20
34.6687
 30
0.0
 11
154.732
 21
35.6676
 31
0.0
  0
LINE
  8
0
 62
     0
 10
154.732
 20
35.6676
 30
0.0
 11
140.732
 21
35.6676
 31
0.0
  0
LINE
  8
0
 62
     0
 10
159.782
 20
35.6676
 30
0.0
 11
159.782
 21
34.6687
 31
0.0
  0
LINE
  8
0
 62
     0
 10
159.782
 20
34.6687
 30
0.0
 11
158.981
 21
34.6687
 31
0.0
  0
LINE
  8
0
 62
     0
 10
158.981
 20
34.6687
 30
0.0
 11
158.981
 21
31.5681
 31
0.0
  0
LINE
  8
0
 62
     0
 10
158.981
 20
31.5681
 30
0.0
 11
159.782
 21
31.5681
 31
0.0
  0
LINE
  8
0
 62
     0
 10
159.782
 20
31.5681
 30
0.0
 11
159.782
 21
25.7679
 31
0.0
  0
LINE
  8
0
 62
     0
 10
159.782
 20
25.7679
 30
0.0
 11
158.981
 21
25.7679
 31
0.0
  0
LINE
  8
0
 62
     0
 10
158.981
 20
25.7679
 30
0.0
 11
158.981
 21
22.6687
 31
0.0
  0
LINE
  8
0
 62
     0
 10
158.981
 20
22.6687
 30
0.0
 11
159.782
 21
22.6687
 31
0.0
  0
LINE
  8
0
 62
     0
 10
159.782
 20
22.6687
 30
0.0
 11
159.782
 21
21.6683
 31
0.0
  0
LINE
  8
0
 62
     0
 10
159.782
 20
21.6683
 30
0.0
 11
173.782
 21
21.6683
 31
0.0
  0
LINE
  8
0
 62
     0
 10
173.782
 20
21.6683
 30
0.0
 11
173.782
 21
22.6687
 31
0.0
  0
LINE
  8
0
 62
     0
 10
173.782
 20
22.6687
 30
0.0
 11
174.582
 21
22.6687
 31
0.0
  0
LINE
  8
0
 62
     0
 10
174.582
 20
22.6687
 30
0.0
 11
174.582
 21
25.7679
 31
0.0
  0
LINE
  8
0
 62
     0
 10
174.582
 20
25.7679
 30
0.0
 11
173.782
 21
25.7679
 31
0.0
  0
LINE
  8
0
 62
     0
 10
173.782
 20
25.7679
 30
0.0
 11
173.782
 21
31.5681
 31
0.0
  0
LINE
  8
0
 62
     0
 10
173.782
 20
31.5681
 30
0.0
 11
174.582
 21
31.5681
 31
0.0
  0
LINE
  8
0
 62
     0
 10
174.582
 20
31.5681
 30
0.0
 11
174.582
 21
34.6687
 31
0.0
  0
LINE
  8
0
 62
     0
 10
174.582
 20
34.6687
 30
0.0
 11
173.782
 21
34.6687
 31
0.0
  0
LINE
  8
0
 62
     0
 10
173.782
 20
34.6687
 30
0.0
 11
173.782
 21
35.6676
 31
0.0
  0
LINE
  8
0
 62
     0
 10
173.782
 20
35.6676
 30
0.0
 11
159.782
 21
35.6676
 31
0.0
  0
LINE
  8
0
 62
     0
 10
178.832
 20
35.6676
 30
0.0
 11
178.832
 21
34.6687
 31
0.0
  0
LINE
  8
0
 62
     0
 10
178.832
 20
34.6687
 30
0.0
 11
178.031
 21
34.6687
 31
0.0
  0
LINE
  8
0
 62
     0
 10
178.031
 20
34.6687
 30
0.0
 11
178.031
 21
31.5681
 31
0.0
  0
LINE
  8
0
 62
     0
 10
178.031
 20
31.5681
 30
0.0
 11
178.832
 21
31.5681
 31
0.0
  0
LINE
  8
0
 62
     0
 10
178.832
 20
31.5681
 30
0.0
 11
178.832
 21
25.7679
 31
0.0
  0
LINE
  8
0
 62
     0
 10
178.832
 20
25.7679
 30
0.0
 11
178.031
 21
25.7679
 31
0.0
  0
LINE
  8
0
 62
     0
 10
178.031
 20
25.7679
 30
0.0
 11
178.031
 21
22.6687
 31
0.0
  0
LINE
  8
0
 62
     0
 10
178.031
 20
22.6687
 30
0.0
 11
178.832
 21
22.6687
 31
0.0
  0
LINE
  8
0
 62
     0
 10
178.832
 20
22.6687
 30
0.0
 11
178.832
 21
21.6683
 31
0.0
  0
LINE
  8
0
 62
     0
 10
178.832
 20
21.6683
 30
0.0
 11
192.832
 21
21.6683
 31
0.0
  0
LINE
  8
0
 62
     0
 10
192.832
 20
21.6683
 30
0.0
 11
192.832
 21
22.6687
 31
0.0
  0
LINE
  8
0
 62
     0
 10
192.832
 20
22.6687
 30
0.0
 11
193.632
 21
22.6687
 31
0.0
  0
LINE
  8
0
 62
     0
 10
193.632
 20
22.6687
 30
0.0
 11
193.632
 21
25.7679
 31
0.0
  0
LINE
  8
0
 62
     0
 10
193.632
 20
25.7679
 30
0.0
 11
192.832
 21
25.7679
 31
0.0
  0
LINE
  8
0
 62
     0
 10
192.832
 20
25.7679
 30
0.0
 11
192.832
 21
31.5681
 31
0.0
  0
LINE
  8
0
 62
     0
 10
192.832
 20
31.5681
 30
0.0
 11
193.632
 21
31.5681
 31
0.0
  0
LINE
  8
0
 62
     0
 10
193.632
 20
31.5681
 30
0.0
 11
193.632
 21
34.6687
 31
0.0
  0
LINE
  8
0
 62
     0
 10
193.632
 20
34.6687
 30
0.0
 11
192.832
 21
34.6687
 31
0.0
  0
LINE
  8
0
 62
     0
 10
192.832
 20
34.6687
 30
0.0
 11
192.832
 21
35.6676
 31
0.0
  0
LINE
  8
0
 62
     0
 10
192.832
 20
35.6676
 30
0.0
 11
178.832
 21
35.6676
 31
0.0
  0
LINE
  8
0
 62
     0
 10
197.882
 20
35.6676
 30
0.0
 11
197.882
 21
34.6687
 31
0.0
  0
LINE
  8
0
 62
     0
 10
197.882
 20
34.6687
 30
0.0
 11
197.081
 21
34.6687
 31
0.0
  0
LINE
  8
0
 62
     0
 10
197.081
 20
34.6687
 30
0.0
 11
197.081
 21
31.5681
 31
0.0
  0
LINE
  8
0
 62
     0
 10
197.081
 20
31.5681
 30
0.0
 11
197.882
 21
31.5681
 31
0.0
  0
LINE
  8
0
 62
     0
 10
197.882
 20
31.5681
 30
0.0
 11
197.882
 21
25.7679
 31
0.0
  0
LINE
  8
0
 62
     0
 10
197.882
 20
25.7679
 30
0.0
 11
197.081
 21
25.7679
 31
0.0
  0
LINE
  8
0
 62
     0
 10
197.081
 20
25.7679
 30
0.0
 11
197.081
 21
22.6687
 31
0.0
  0
LINE
  8
0
 62
     0
 10
197.081
 20
22.6687
 30
0.0
 11
197.882
 21
22.6687
 31
0.0
  0
LINE
  8
0
 62
     0
 10
197.882
 20
22.6687
 30
0.0
 11
197.882
 21
21.6683
 31
0.0
  0
LINE
  8
0
 62
     0
 10
197.882
 20
21.6683
 30
0.0
 11
211.882
 21
21.6683
 31
0.0
  0
LINE
  8
0
 62
     0
 10
211.882
 20
21.6683
 30
0.0
 11
211.882
 21
22.6687
 31
0.0
  0
LINE
  8
0
 62
     0
 10
211.882
 20
22.6687
 30
0.0
 11
212.682
 21
22.6687
 31
0.0
  0
LINE
  8
0
 62
     0
 10
212.682
 20
22.6687
 30
0.0
 11
212.682
 21
25.7679
 31
0.0
  0
LINE
  8
0
 62
     0
 10
212.682
 20
25.7679
 30
0.0
 11
211.882
 21
25.7679
 31
0.0
  0
LINE
  8
0
 62
     0
 10
211.882
 20
25.7679
 30
0.0
 11
211.882
 21
31.5681
 31
0.0
  0
LINE
  8
0
 62
     0
 10
211.882
 20
31.5681
 30
0.0
 11
212.682
 21
31.5681
 31
0.0
  0
LINE
  8
0
 62
     0
 10
212.682
 20
31.5681
 30
0.0
 11
212.682
 21
34.6687
 31
0.0
  0
LINE
  8
0
 62
     0
 10
212.682
 20
34.6687
 30
0.0
 11
211.882
 21
34.6687
 31
0.0
  0
LINE
  8
0
 62
     0
 10
211.882
 20
34.6687
 30
0.0
 11
211.882
 21
35.6676
 31
0.0
  0
LINE
  8
0
 62
     0
 10
211.882
 20
35.6676
 30
0.0
 11
197.882
 21
35.6676
 31
0.0
  0
LINE
  8
0
 62
     0
 10
216.932
 20
35.6676
 30
0.0
 11
216.932
 21
34.6687
 31
0.0
  0
LINE
  8
0
 62
     0
 10
216.932
 20
34.6687
 30
0.0
 11
216.131
 21
34.6687
 31
0.0
  0
LINE
  8
0
 62
     0
 10
216.131
 20
34.6687
 30
0.0
 11
216.131
 21
31.5681
 31
0.0
  0
LINE
  8
0
 62
     0
 10
216.131
 20
31.5681
 30
0.0
 11
216.932
 21
31.5681
 31
0.0
  0
LINE
  8
0
 62
     0
 10
216.932
 20
31.5681
 30
0.0
 11
216.932
 21
25.7679
 31
0.0
  0
LINE
  8
0
 62
     0
 10
216.932
 20
25.7679
 30
0.0
 11
216.131
 21
25.7679
 31
0.0
  0
LINE
  8
0
 62
     0
 10
216.131
 20
25.7679
 30
0.0
 11
216.131
 21
22.6687
 31
0.0
  0
LINE
  8
0
 62
     0
 10
216.131
 20
22.6687
 30
0.0
 11
216.932
 21
22.6687
 31
0.0
  0
LINE
  8
0
 62
     0
 10
216.932
 20
22.6687
 30
0.0
 11
216.932
 21
21.6683
 31
0.0
  0
LINE
  8
0
 62
     0
 10
216.932
 20
21.6683
 30
0.0
 11
230.932
 21
21.6683
 31
0.0
  0
LINE
  8
0
 62
     0
 10
230.932
 20
21.6683
 30
0.0
 11
230.932
 21
22.6687
 31
0.0
  0
LINE
  8
0
 62
     0
 10
230.932
 20
22.6687
 30
0.0
 11
231.732
 21
22.6687
 31
0.0
  0
LINE
  8
0
 62
     0
 10
231.732
 20
22.6687
 30
0.0
 11
231.732
 21
25.7679
 31
0.0
  0
LINE
  8
0
 62
     0
 10
231.732
 20
25.7679
 30
0.0
 11
230.932
 21
25.7679
 31
0.0
  0
LINE
  8
0
 62
     0
 10
230.932
 20
25.7679
 30
0.0
 11
230.932
 21
31.5681
 31
0.0
  0
LINE
  8
0
 62
     0
 10
230.932
 20
31.5681
 30
0.0
 11
231.732
 21
31.5681
 31
0.0
  0
LINE
  8
0
 62
     0
 10
231.732
 20
31.5681
 30
0.0
 11
231.732
 21
34.6687
 31
0.0
  0
LINE
  8
0
 62
     0
 10
231.732
 20
34.6687
 30
0.0
 11
230.932
 21
34.6687
 31
0.0
  0
LINE
  8
0
 62
     0
 10
230.932
 20
34.6687
 30
0.0
 11
230.932
 21
35.6676
 31
0.0
  0
LINE
  8
0
 62
     0
 10
230.932
 20
35.6676
 30
0.0
 11
216.932
 21
35.6676
 31
0.0
  0
LINE
  8
0
 62
     0
 10
243.126
 20
35.6676
 30
0.0
 11
243.126
 21
34.6687
 31
0.0
  0
LINE
  8
0
 62
     0
 10
243.126
 20
34.6687
 30
0.0
 11
242.325
 21
34.6687
 31
0.0
  0
LINE
  8
0
 62
     0
 10
242.325
 20
34.6687
 30
0.0
 11
242.325
 21
31.5681
 31
0.0
  0
LINE
  8
0
 62
     0
 10
242.325
 20
31.5681
 30
0.0
 11
243.126
 21
31.5681
 31
0.0
  0
LINE
  8
0
 62
     0
 10
243.126
 20
31.5681
 30
0.0
 11
243.126
 21
25.7679
 31
0.0
  0
LINE
  8
0
 62
     0
 10
243.126
 20
25.7679
 30
0.0
 11
242.325
 21
25.7679
 31
0.0
  0
LINE
  8
0
 62
     0
 10
242.325
 20
25.7679
 30
0.0
 11
242.325
 21
22.6687
 31
0.0
  0
LINE
  8
0
 62
     0
 10
242.325
 20
22.6687
 30
0.0
 11
243.126
 21
22.6687
 31
0.0
  0
LINE
  8
0
 62
     0
 10
243.126
 20
22.6687
 30
0.0
 11
243.126
 21
21.6683
 31
0.0
  0
LINE
  8
0
 62
     0
 10
243.126
 20
21.6683
 30
0.0
 11
257.125
 21
21.6683
 31
0.0
  0
LINE
  8
0
 62
     0
 10
257.125
 20
21.6683
 30
0.0
 11
257.125
 21
22.6687
 31
0.0
  0
LINE
  8
0
 62
     0
 10
257.125
 20
22.6687
 30
0.0
 11
257.926
 21
22.6687
 31
0.0
  0
LINE
  8
0
 62
     0
 10
257.926
 20
22.6687
 30
0.0
 11
257.926
 21
25.7679
 31
0.0
  0
LINE
  8
0
 62
     0
 10
257.926
 20
25.7679
 30
0.0
 11
257.125
 21
25.7679
 31
0.0
  0
LINE
  8
0
 62
     0
 10
257.125
 20
25.7679
 30
0.0
 11
257.125
 21
31.5681
 31
0.0
  0
LINE
  8
0
 62
     0
 10
257.125
 20
31.5681
 30
0.0
 11
257.926
 21
31.5681
 31
0.0
  0
LINE
  8
0
 62
     0
 10
257.926
 20
31.5681
 30
0.0
 11
257.926
 21
34.6687
 31
0.0
  0
LINE
  8
0
 62
     0
 10
257.926
 20
34.6687
 30
0.0
 11
257.125
 21
34.6687
 31
0.0
  0
LINE
  8
0
 62
     0
 10
257.125
 20
34.6687
 30
0.0
 11
257.125
 21
35.6676
 31
0.0
  0
LINE
  8
0
 62
     0
 10
257.125
 20
35.6676
 30
0.0
 11
243.126
 21
35.6676
 31
0.0
  0
LINE
  8
0
 62
     0
 10
274.082
 20
35.6676
 30
0.0
 11
274.082
 21
34.6687
 31
0.0
  0
LINE
  8
0
 62
     0
 10
274.082
 20
34.6687
 30
0.0
 11
273.281
 21
34.6687
 31
0.0
  0
LINE
  8
0
 62
     0
 10
273.281
 20
34.6687
 30
0.0
 11
273.281
 21
31.5681
 31
0.0
  0
LINE
  8
0
 62
     0
 10
273.281
 20
31.5681
 30
0.0
 11
274.082
 21
31.5681
 31
0.0
  0
LINE
  8
0
 62
     0
 10
274.082
 20
31.5681
 30
0.0
 11
274.082
 21
25.7679
 31
0.0
  0
LINE
  8
0
 62
     0
 10
274.082
 20
25.7679
 30
0.0
 11
273.281
 21
25.7679
 31
0.0
  0
LINE
  8
0
 62
     0
 10
273.281
 20
25.7679
 30
0.0
 11
273.281
 21
22.6687
 31
0.0
  0
LINE
  8
0
 62
     0
 10
273.281
 20
22.6687
 30
0.0
 11
274.082
 21
22.6687
 31
0.0
  0
LINE
  8
0
 62
     0
 10
274.082
 20
22.6687
 30
0.0
 11
274.082
 21
21.6683
 31
0.0
  0
LINE
  8
0
 62
     0
 10
274.082
 20
21.6683
 30
0.0
 11
288.082
 21
21.6683
 31
0.0
  0
LINE
  8
0
 62
     0
 10
288.082
 20
21.6683
 30
0.0
 11
288.082
 21
22.6687
 31
0.0
  0
LINE
  8
0
 62
     0
 10
288.082
 20
22.6687
 30
0.0
 11
288.882
 21
22.6687
 31
0.0
  0
LINE
  8
0
 62
     0
 10
288.882
 20
22.6687
 30
0.0
 11
288.882
 21
25.7679
 31
0.0
  0
LINE
  8
0
 62
     0
 10
288.882
 20
25.7679
 30
0.0
 11
288.082
 21
25.7679
 31
0.0
  0
LINE
  8
0
 62
     0
 10
288.082
 20
25.7679
 30
0.0
 11
288.082
 21
31.5681
 31
0.0
  0
LINE
  8
0
 62
     0
 10
288.082
 20
31.5681
 30
0.0
 11
288.882
 21
31.5681
 31
0.0
  0
LINE
  8
0
 62
     0
 10
288.882
 20
31.5681
 30
0.0
 11
288.882
 21
34.6687
 31
0.0
  0
LINE
  8
0
 62
     0
 10
288.882
 20
34.6687
 30
0.0
 11
288.082
 21
34.6687
 31
0.0
  0
LINE
  8
0
 62
     0
 10
288.082
 20
34.6687
 30
0.0
 11
288.082
 21
35.6676
 31
0.0
  0
LINE
  8
0
 62
     0
 10
288.082
 20
35.6676
 30
0.0
 11
274.082
 21
35.6676
 31
0.0
  0
LINE
  8
0
 62
     0
 10
297.895
 20
35.6676
 30
0.0
 11
297.895
 21
34.6687
 31
0.0
  0
LINE
  8
0
 62
     0
 10
297.895
 20
34.6687
 30
0.0
 11
297.095
 21
34.6687
 31
0.0
  0
LINE
  8
0
 62
     0
 10
297.095
 20
34.6687
 30
0.0
 11
297.095
 21
31.5681
 31
0.0
  0
LINE
  8
0
 62
     0
 10
297.095
 20
31.5681
 30
0.0
 11
297.895
 21
31.5681
 31
0.0
  0
LINE
  8
0
 62
     0
 10
297.895
 20
31.5681
 30
0.0
 11
297.895
 21
25.7679
 31
0.0
  0
LINE
  8
0
 62
     0
 10
297.895
 20
25.7679
 30
0.0
 11
297.095
 21
25.7679
 31
0.0
  0
LINE
  8
0
 62
     0
 10
297.095
 20
25.7679
 30
0.0
 11
297.095
 21
22.6687
 31
0.0
  0
LINE
  8
0
 62
     0
 10
297.095
 20
22.6687
 30
0.0
 11
297.895
 21
22.6687
 31
0.0
  0
LINE
  8
0
 62
     0
 10
297.895
 20
22.6687
 30
0.0
 11
297.895
 21
21.6683
 31
0.0
  0
LINE
  8
0
 62
     0
 10
297.895
 20
21.6683
 30
0.0
 11
311.894
 21
21.6683
 31
0.0
  0
LINE
  8
0
 62
     0
 10
311.894
 20
21.6683
 30
0.0
 11
311.894
 21
22.6687
 31
0.0
  0
LINE
  8
0
 62
     0
 10
311.894
 20
22.6687
 30
0.0
 11
312.695
 21
22.6687
 31
0.0
  0
LINE
  8
0
 62
     0
 10
312.695
 20
22.6687
 30
0.0
 11
312.695
 21
25.7679
 31
0.0
  0
LINE
  8
0
 62
     0
 10
312.695
 20
25.7679
 30
0.0
 11
311.894
 21
25.7679
 31
0.0
  0
LINE
  8
0
 62
     0
 10
311.894
 20
25.7679
 30
0.0
 11
311.894
 21
31.5681
 31
0.0
  0
LINE
  8
0
 62
     0
 10
311.894
 20
31.5681
 30
0.0
 11
312.695
 21
31.5681
 31
0.0
  0
LINE
  8
0
 62
     0
 10
312.695
 20
31.5681
 30
0.0
 11
312.695
 21
34.6687
 31
0.0
  0
LINE
  8
0
 62
     0
 10
312.695
 20
34.6687
 30
0.0
 11
311.894
 21
34.6687
 31
0.0
  0
LINE
  8
0
 62
     0
 10
311.894
 20
34.6687
 30
0.0
 11
311.894
 21
35.6676
 31
0.0
  0
LINE
  8
0
 62
     0
 10
311.894
 20
35.6676
 30
0.0
 11
297.895
 21
35.6676
 31
0.0
  0
LINE
  8
0
 62
     0
 10
316.945
 20
35.6676
 30
0.0
 11
316.945
 21
34.6687
 31
0.0
  0
LINE
  8
0
 62
     0
 10
316.945
 20
34.6687
 30
0.0
 11
316.145
 21
34.6687
 31
0.0
  0
LINE
  8
0
 62
     0
 10
316.145
 20
34.6687
 30
0.0
 11
316.145
 21
31.5681
 31
0.0
  0
LINE
  8
0
 62
     0
 10
316.145
 20
31.5681
 30
0.0
 11
316.945
 21
31.5681
 31
0.0
  0
LINE
  8
0
 62
     0
 10
316.945
 20
31.5681
 30
0.0
 11
316.945
 21
25.7679
 31
0.0
  0
LINE
  8
0
 62
     0
 10
316.945
 20
25.7679
 30
0.0
 11
316.145
 21
25.7679
 31
0.0
  0
LINE
  8
0
 62
     0
 10
316.145
 20
25.7679
 30
0.0
 11
316.145
 21
22.6687
 31
0.0
  0
LINE
  8
0
 62
     0
 10
316.145
 20
22.6687
 30
0.0
 11
316.945
 21
22.6687
 31
0.0
  0
LINE
  8
0
 62
     0
 10
316.945
 20
22.6687
 30
0.0
 11
316.945
 21
21.6683
 31
0.0
  0
LINE
  8
0
 62
     0
 10
316.945
 20
21.6683
 30
0.0
 11
330.944
 21
21.6683
 31
0.0
  0
LINE
  8
0
 62
     0
 10
330.944
 20
21.6683
 30
0.0
 11
330.944
 21
22.6687
 31
0.0
  0
LINE
  8
0
 62
     0
 10
330.944
 20
22.6687
 30
0.0
 11
331.745
 21
22.6687
 31
0.0
  0
LINE
  8
0
 62
     0
 10
331.745
 20
22.6687
 30
0.0
 11
331.745
 21
25.7679
 31
0.0
  0
LINE
  8
0
 62
     0
 10
331.745
 20
25.7679
 30
0.0
 11
330.944
 21
25.7679
 31
0.0
  0
LINE
  8
0
 62
     0
 10
330.944
 20
25.7679
 30
0.0
 11
330.944
 21
31.5681
 31
0.0
  0
LINE
  8
0
 62
     0
 10
330.944
 20
31.5681
 30
0.0
 11
331.745
 21
31.5681
 31
0.0
  0
LINE
  8
0
 62
     0
 10
331.745
 20
31.5681
 30
0.0
 11
331.745
 21
34.6687
 31
0.0
  0
LINE
  8
0
 62
     0
 10
331.745
 20
34.6687
 30
0.0
 11
330.944
 21
34.6687
 31
0.0
  0
LINE
  8
0
 62
     0
 10
330.944
 20
34.6687
 30
0.0
 11
330.944
 21
35.6676
 31
0.0
  0
LINE
  8
0
 62
     0
 10
330.944
 20
35.6676
 30
0.0
 11
316.945
 21
35.6676
 31
0.0
  0
LINE
  8
0
 62
     0
 10
335.995
 20
35.6676
 30
0.0
 11
335.995
 21
34.6687
 31
0.0
  0
LINE
  8
0
 62
     0
 10
335.995
 20
34.6687
 30
0.0
 11
335.195
 21
34.6687
 31
0.0
  0
LINE
  8
0
 62
     0
 10
335.195
 20
34.6687
 30
0.0
 11
335.195
 21
31.5681
 31
0.0
  0
LINE
  8
0
 62
     0
 10
335.195
 20
31.5681
 30
0.0
 11
335.995
 21
31.5681
 31
0.0
  0
LINE
  8
0
 62
     0
 10
335.995
 20
31.5681
 30
0.0
 11
335.995
 21
25.7679
 31
0.0
  0
LINE
  8
0
 62
     0
 10
335.995
 20
25.7679
 30
0.0
 11
335.195
 21
25.7679
 31
0.0
  0
LINE
  8
0
 62
     0
 10
335.195
 20
25.7679
 30
0.0
 11
335.195
 21
22.6687
 31
0.0
  0
LINE
  8
0
 62
     0
 10
335.195
 20
22.6687
 30
0.0
 11
335.995
 21
22.6687
 31
0.0
  0
LINE
  8
0
 62
     0
 10
335.995
 20
22.6687
 30
0.0
 11
335.995
 21
21.6683
 31
0.0
  0
LINE
  8
0
 62
     0
 10
335.995
 20
21.6683
 30
0.0
 11
349.994
 21
21.6683
 31
0.0
  0
LINE
  8
0
 62
     0
 10
349.994
 20
21.6683
 30
0.0
 11
349.994
 21
22.6687
 31
0.0
  0
LINE
  8
0
 62
     0
 10
349.994
 20
22.6687
 30
0.0
 11
350.795
 21
22.6687
 31
0.0
  0
LINE
  8
0
 62
     0
 10
350.795
 20
22.6687
 30
0.0
 11
350.795
 21
25.7679
 31
0.0
  0
LINE
  8
0
 62
     0
 10
350.795
 20
25.7679
 30
0.0
 11
349.994
 21
25.7679
 31
0.0
  0
LINE
  8
0
 62
     0
 10
349.994
 20
25.7679
 30
0.0
 11
349.994
 21
31.5681
 31
0.0
  0
LINE
  8
0
 62
     0
 10
349.994
 20
31.5681
 30
0.0
 11
350.795
 21
31.5681
 31
0.0
  0
LINE
  8
0
 62
     0
 10
350.795
 20
31.5681
 30
0.0
 11
350.795
 21
34.6687
 31
0.0
  0
LINE
  8
0
 62
     0
 10
350.795
 20
34.6687
 30
0.0
 11
349.994
 21
34.6687
 31
0.0
  0
LINE
  8
0
 62
     0
 10
349.994
 20
34.6687
 30
0.0
 11
349.994
 21
35.6676
 31
0.0
  0
LINE
  8
0
 62
     0
 10
349.994
 20
35.6676
 30
0.0
 11
335.995
 21
35.6676
 31
0.0
  0
LINE
  8
0
 62
     0
 10
257.413
 20
54.7176
 30
0.0
 11
257.413
 21
53.7185
 31
0.0
  0
LINE
  8
0
 62
     0
 10
257.413
 20
53.7185
 30
0.0
 11
256.611
 21
53.7185
 31
0.0
  0
LINE
  8
0
 62
     0
 10
256.611
 20
53.7185
 30
0.0
 11
256.611
 21
50.618
 31
0.0
  0
LINE
  8
0
 62
     0
 10
256.611
 20
50.618
 30
0.0
 11
257.413
 21
50.618
 31
0.0
  0
LINE
  8
0
 62
     0
 10
257.413
 20
50.618
 30
0.0
 11
257.413
 21
50.0186
 31
0.0
  0
LINE
  8
0
 62
     0
 10
257.413
 20
50.0186
 30
0.0
 11
255.888
 21
50.0186
 31
0.0
  0
LINE
  8
0
 62
     0
 10
255.888
 20
50.0186
 30
0.0
 11
255.888
 21
53.2486
 31
0.0
  0
LINE
  8
0
 62
     0
 10
255.888
 20
53.2486
 30
0.0
 11
254.161
 21
53.2486
 31
0.0
  0
LINE
  8
0
 62
     0
 10
254.161
 20
53.2486
 30
0.0
 11
254.161
 21
54.168
 31
0.0
  0
LINE
  8
0
 62
     0
 10
254.161
 20
54.168
 30
0.0
 11
250.862
 21
54.168
 31
0.0
  0
LINE
  8
0
 62
     0
 10
250.862
 20
54.168
 30
0.0
 11
250.862
 21
53.2486
 31
0.0
  0
LINE
  8
0
 62
     0
 10
250.862
 20
53.2486
 30
0.0
 11
249.138
 21
53.2486
 31
0.0
  0
LINE
  8
0
 62
     0
 10
249.138
 20
53.2486
 30
0.0
 11
249.138
 21
50.0186
 31
0.0
  0
LINE
  8
0
 62
     0
 10
249.138
 20
50.0186
 30
0.0
 11
248.313
 21
50.0186
 31
0.0
  0
LINE
  8
0
 62
     0
 10
248.313
 20
50.0186
 30
0.0
 11
248.313
 21
47.2186
 31
0.0
  0
LINE
  8
0
 62
     0
 10
248.313
 20
47.2186
 30
0.0
 11
249.138
 21
47.2186
 31
0.0
  0
LINE
  8
0
 62
     0
 10
249.138
 20
47.2186
 30
0.0
 11
249.138
 21
40.9483
 31
0.0
  0
LINE
  8
0
 62
     0
 10
249.138
 20
40.9483
 30
0.0
 11
250.862
 21
40.9483
 31
0.0
  0
LINE
  8
0
 62
     0
 10
250.862
 20
40.9483
 30
0.0
 11
250.862
 21
39.9687
 31
0.0
  0
LINE
  8
0
 62
     0
 10
250.862
 20
39.9687
 30
0.0
 11
254.161
 21
39.9687
 31
0.0
  0
LINE
  8
0
 62
     0
 10
254.161
 20
39.9687
 30
0.0
 11
254.161
 21
40.9483
 31
0.0
  0
LINE
  8
0
 62
     0
 10
254.161
 20
40.9483
 30
0.0
 11
255.888
 21
40.9483
 31
0.0
  0
LINE
  8
0
 62
     0
 10
255.888
 20
40.9483
 30
0.0
 11
255.888
 21
45.4187
 31
0.0
  0
LINE
  8
0
 62
     0
 10
255.888
 20
45.4187
 30
0.0
 11
257.413
 21
45.4187
 31
0.0
  0
LINE
  8
0
 62
     0
 10
257.413
 20
45.4187
 30
0.0
 11
257.413
 21
44.8179
 31
0.0
  0
LINE
  8
0
 62
     0
 10
257.413
 20
44.8179
 30
0.0
 11
256.611
 21
44.8179
 31
0.0
  0
LINE
  8
0
 62
     0
 10
256.611
 20
44.8179
 30
0.0
 11
256.611
 21
41.7188
 31
0.0
  0
LINE
  8
0
 62
     0
 10
256.611
 20
41.7188
 30
0.0
 11
257.413
 21
41.7188
 31
0.0
  0
LINE
  8
0
 62
     0
 10
257.413
 20
41.7188
 30
0.0
 11
257.413
 21
40.7183
 31
0.0
  0
LINE
  8
0
 62
     0
 10
257.413
 20
40.7183
 30
0.0
 11
271.413
 21
40.7183
 31
0.0
  0
LINE
  8
0
 62
     0
 10
271.413
 20
40.7183
 30
0.0
 11
271.413
 21
41.7188
 31
0.0
  0
LINE
  8
0
 62
     0
 10
271.413
 20
41.7188
 30
0.0
 11
272.212
 21
41.7188
 31
0.0
  0
LINE
  8
0
 62
     0
 10
272.212
 20
41.7188
 30
0.0
 11
272.212
 21
44.8179
 31
0.0
  0
LINE
  8
0
 62
     0
 10
272.212
 20
44.8179
 30
0.0
 11
271.413
 21
44.8179
 31
0.0
  0
LINE
  8
0
 62
     0
 10
271.413
 20
44.8179
 30
0.0
 11
271.413
 21
45.4187
 31
0.0
  0
LINE
  8
0
 62
     0
 10
271.413
 20
45.4187
 30
0.0
 11
272.939
 21
45.4187
 31
0.0
  0
LINE
  8
0
 62
     0
 10
272.939
 20
45.4187
 30
0.0
 11
272.939
 21
40.9483
 31
0.0
  0
LINE
  8
0
 62
     0
 10
272.939
 20
40.9483
 30
0.0
 11
274.662
 21
40.9483
 31
0.0
  0
LINE
  8
0
 62
     0
 10
274.662
 20
40.9483
 30
0.0
 11
274.662
 21
39.9687
 31
0.0
  0
LINE
  8
0
 62
     0
 10
274.662
 20
39.9687
 30
0.0
 11
277.963
 21
39.9687
 31
0.0
  0
LINE
  8
0
 62
     0
 10
277.963
 20
39.9687
 30
0.0
 11
277.963
 21
40.9483
 31
0.0
  0
LINE
  8
0
 62
     0
 10
277.963
 20
40.9483
 30
0.0
 11
279.688
 21
40.9483
 31
0.0
  0
LINE
  8
0
 62
     0
 10
279.688
 20
40.9483
 30
0.0
 11
279.688
 21
47.2186
 31
0.0
  0
LINE
  8
0
 62
     0
 10
279.688
 20
47.2186
 30
0.0
 11
280.512
 21
47.2186
 31
0.0
  0
LINE
  8
0
 62
     0
 10
280.512
 20
47.2186
 30
0.0
 11
280.512
 21
50.0186
 31
0.0
  0
LINE
  8
0
 62
     0
 10
280.512
 20
50.0186
 30
0.0
 11
279.688
 21
50.0186
 31
0.0
  0
LINE
  8
0
 62
     0
 10
279.688
 20
50.0186
 30
0.0
 11
279.688
 21
53.2486
 31
0.0
  0
LINE
  8
0
 62
     0
 10
279.688
 20
53.2486
 30
0.0
 11
277.963
 21
53.2486
 31
0.0
  0
LINE
  8
0
 62
     0
 10
277.963
 20
53.2486
 30
0.0
 11
277.963
 21
54.168
 31
0.0
  0
LINE
  8
0
 62
     0
 10
277.963
 20
54.168
 30
0.0
 11
274.662
 21
54.168
 31
0.0
  0
LINE
  8
0
 62
     0
 10
274.662
 20
54.168
 30
0.0
 11
274.662
 21
53.2486
 31
0.0
  0
LINE
  8
0
 62
     0
 10
274.662
 20
53.2486
 30
0.0
 11
272.939
 21
53.2486
 31
0.0
  0
LINE
  8
0
 62
     0
 10
272.939
 20
53.2486
 30
0.0
 11
272.939
 21
50.0186
 31
0.0
  0
LINE
  8
0
 62
     0
 10
272.939
 20
50.0186
 30
0.0
 11
271.413
 21
50.0186
 31
0.0
  0
LINE
  8
0
 62
     0
 10
271.413
 20
50.0186
 30
0.0
 11
271.413
 21
50.618
 31
0.0
  0
LINE
  8
0
 62
     0
 10
271.413
 20
50.618
 30
0.0
 11
272.212
 21
50.618
 31
0.0
  0
LINE
  8
0
 62
     0
 10
272.212
 20
50.618
 30
0.0
 11
272.212
 21
53.7185
 31
0.0
  0
LINE
  8
0
 62
     0
 10
272.212
 20
53.7185
 30
0.0
 11
271.413
 21
53.7185
 31
0.0
  0
LINE
  8
0
 62
     0
 10
271.413
 20
53.7185
 30
0.0
 11
271.413
 21
54.7176
 31
0.0
  0
LINE
  8
0
 62
     0
 10
271.413
 20
54.7176
 30
0.0
 11
257.413
 21
54.7176
 31
0.0
  0
LINE
  8
0
 62
     0
 10
9.76341
 20
54.7176
 30
0.0
 11
9.76341
 21
53.7185
 31
0.0
  0
LINE
  8
0
 62
     0
 10
9.76341
 20
53.7185
 30
0.0
 11
8.96278
 21
53.7185
 31
0.0
  0
LINE
  8
0
 62
     0
 10
8.96278
 20
53.7185
 30
0.0
 11
8.96278
 21
50.618
 31
0.0
  0
LINE
  8
0
 62
     0
 10
8.96278
 20
50.618
 30
0.0
 11
9.76341
 21
50.618
 31
0.0
  0
LINE
  8
0
 62
     0
 10
9.76341
 20
50.618
 30
0.0
 11
9.76341
 21
44.8179
 31
0.0
  0
LINE
  8
0
 62
     0
 10
9.76341
 20
44.8179
 30
0.0
 11
8.96278
 21
44.8179
 31
0.0
  0
LINE
  8
0
 62
     0
 10
8.96278
 20
44.8179
 30
0.0
 11
8.96278
 21
41.7188
 31
0.0
  0
LINE
  8
0
 62
     0
 10
8.96278
 20
41.7188
 30
0.0
 11
9.76341
 21
41.7188
 31
0.0
  0
LINE
  8
0
 62
     0
 10
9.76341
 20
41.7188
 30
0.0
 11
9.76341
 21
40.7183
 31
0.0
  0
LINE
  8
0
 62
     0
 10
9.76341
 20
40.7183
 30
0.0
 11
23.7629
 21
40.7183
 31
0.0
  0
LINE
  8
0
 62
     0
 10
23.7629
 20
40.7183
 30
0.0
 11
23.7629
 21
41.7188
 31
0.0
  0
LINE
  8
0
 62
     0
 10
23.7629
 20
41.7188
 30
0.0
 11
24.5622
 21
41.7188
 31
0.0
  0
LINE
  8
0
 62
     0
 10
24.5622
 20
41.7188
 30
0.0
 11
24.5622
 21
44.8179
 31
0.0
  0
LINE
  8
0
 62
     0
 10
24.5622
 20
44.8179
 30
0.0
 11
23.7629
 21
44.8179
 31
0.0
  0
LINE
  8
0
 62
     0
 10
23.7629
 20
44.8179
 30
0.0
 11
23.7629
 21
50.618
 31
0.0
  0
LINE
  8
0
 62
     0
 10
23.7629
 20
50.618
 30
0.0
 11
24.5622
 21
50.618
 31
0.0
  0
LINE
  8
0
 62
     0
 10
24.5622
 20
50.618
 30
0.0
 11
24.5622
 21
53.7185
 31
0.0
  0
LINE
  8
0
 62
     0
 10
24.5622
 20
53.7185
 30
0.0
 11
23.7629
 21
53.7185
 31
0.0
  0
LINE
  8
0
 62
     0
 10
23.7629
 20
53.7185
 30
0.0
 11
23.7629
 21
54.7176
 31
0.0
  0
LINE
  8
0
 62
     0
 10
23.7629
 20
54.7176
 30
0.0
 11
9.76341
 21
54.7176
 31
0.0
  0
LINE
  8
0
 62
     0
 10
35.9572
 20
54.7176
 30
0.0
 11
35.9572
 21
53.7185
 31
0.0
  0
LINE
  8
0
 62
     0
 10
35.9572
 20
53.7185
 30
0.0
 11
35.1565
 21
53.7185
 31
0.0
  0
LINE
  8
0
 62
     0
 10
35.1565
 20
53.7185
 30
0.0
 11
35.1565
 21
50.618
 31
0.0
  0
LINE
  8
0
 62
     0
 10
35.1565
 20
50.618
 30
0.0
 11
35.9572
 21
50.618
 31
0.0
  0
LINE
  8
0
 62
     0
 10
35.9572
 20
50.618
 30
0.0
 11
35.9572
 21
44.8179
 31
0.0
  0
LINE
  8
0
 62
     0
 10
35.9572
 20
44.8179
 30
0.0
 11
35.1565
 21
44.8179
 31
0.0
  0
LINE
  8
0
 62
     0
 10
35.1565
 20
44.8179
 30
0.0
 11
35.1565
 21
41.7188
 31
0.0
  0
LINE
  8
0
 62
     0
 10
35.1565
 20
41.7188
 30
0.0
 11
35.9572
 21
41.7188
 31
0.0
  0
LINE
  8
0
 62
     0
 10
35.9572
 20
41.7188
 30
0.0
 11
35.9572
 21
40.7183
 31
0.0
  0
LINE
  8
0
 62
     0
 10
35.9572
 20
40.7183
 30
0.0
 11
49.9565
 21
40.7183
 31
0.0
  0
LINE
  8
0
 62
     0
 10
49.9565
 20
40.7183
 30
0.0
 11
49.9565
 21
41.7188
 31
0.0
  0
LINE
  8
0
 62
     0
 10
49.9565
 20
41.7188
 30
0.0
 11
50.7573
 21
41.7188
 31
0.0
  0
LINE
  8
0
 62
     0
 10
50.7573
 20
41.7188
 30
0.0
 11
50.7573
 21
44.8179
 31
0.0
  0
LINE
  8
0
 62
     0
 10
50.7573
 20
44.8179
 30
0.0
 11
49.9565
 21
44.8179
 31
0.0
  0
LINE
  8
0
 62
     0
 10
49.9565
 20
44.8179
 30
0.0
 11
49.9565
 21
50.618
 31
0.0
  0
LINE
  8
0
 62
     0
 10
49.9565
 20
50.618
 30
0.0
 11
50.7573
 21
50.618
 31
0.0
  0
LINE
  8
0
 62
     0
 10
50.7573
 20
50.618
 30
0.0
 11
50.7573
 21
53.7185
 31
0.0
  0
LINE
  8
0
 62
     0
 10
50.7573
 20
53.7185
 30
0.0
 11
49.9565
 21
53.7185
 31
0.0
  0
LINE
  8
0
 62
     0
 10
49.9565
 20
53.7185
 30
0.0
 11
49.9565
 21
54.7176
 31
0.0
  0
LINE
  8
0
 62
     0
 10
49.9565
 20
54.7176
 30
0.0
 11
35.9572
 21
54.7176
 31
0.0
  0
LINE
  8
0
 62
     0
 10
55.0072
 20
54.7176
 30
0.0
 11
55.0072
 21
53.7185
 31
0.0
  0
LINE
  8
0
 62
     0
 10
55.0072
 20
53.7185
 30
0.0
 11
54.2064
 21
53.7185
 31
0.0
  0
LINE
  8
0
 62
     0
 10
54.2064
 20
53.7185
 30
0.0
 11
54.2064
 21
50.618
 31
0.0
  0
LINE
  8
0
 62
     0
 10
54.2064
 20
50.618
 30
0.0
 11
55.0072
 21
50.618
 31
0.0
  0
LINE
  8
0
 62
     0
 10
55.0072
 20
50.618
 30
0.0
 11
55.0072
 21
44.8179
 31
0.0
  0
LINE
  8
0
 62
     0
 10
55.0072
 20
44.8179
 30
0.0
 11
54.2064
 21
44.8179
 31
0.0
  0
LINE
  8
0
 62
     0
 10
54.2064
 20
44.8179
 30
0.0
 11
54.2064
 21
41.7188
 31
0.0
  0
LINE
  8
0
 62
     0
 10
54.2064
 20
41.7188
 30
0.0
 11
55.0072
 21
41.7188
 31
0.0
  0
LINE
  8
0
 62
     0
 10
55.0072
 20
41.7188
 30
0.0
 11
55.0072
 21
40.7183
 31
0.0
  0
LINE
  8
0
 62
     0
 10
55.0072
 20
40.7183
 30
0.0
 11
69.0065
 21
40.7183
 31
0.0
  0
LINE
  8
0
 62
     0
 10
69.0065
 20
40.7183
 30
0.0
 11
69.0065
 21
41.7188
 31
0.0
  0
LINE
  8
0
 62
     0
 10
69.0065
 20
41.7188
 30
0.0
 11
69.8073
 21
41.7188
 31
0.0
  0
LINE
  8
0
 62
     0
 10
69.8073
 20
41.7188
 30
0.0
 11
69.8073
 21
44.8179
 31
0.0
  0
LINE
  8
0
 62
     0
 10
69.8073
 20
44.8179
 30
0.0
 11
69.0065
 21
44.8179
 31
0.0
  0
LINE
  8
0
 62
     0
 10
69.0065
 20
44.8179
 30
0.0
 11
69.0065
 21
50.618
 31
0.0
  0
LINE
  8
0
 62
     0
 10
69.0065
 20
50.618
 30
0.0
 11
69.8073
 21
50.618
 31
0.0
  0
LINE
  8
0
 62
     0
 10
69.8073
 20
50.618
 30
0.0
 11
69.8073
 21
53.7185
 31
0.0
  0
LINE
  8
0
 62
     0
 10
69.8073
 20
53.7185
 30
0.0
 11
69.0065
 21
53.7185
 31
0.0
  0
LINE
  8
0
 62
     0
 10
69.0065
 20
53.7185
 30
0.0
 11
69.0065
 21
54.7176
 31
0.0
  0
LINE
  8
0
 62
     0
 10
69.0065
 20
54.7176
 30
0.0
 11
55.0072
 21
54.7176
 31
0.0
  0
LINE
  8
0
 62
     0
 10
74.0572
 20
54.7176
 30
0.0
 11
74.0572
 21
53.7185
 31
0.0
  0
LINE
  8
0
 62
     0
 10
74.0572
 20
53.7185
 30
0.0
 11
73.2564
 21
53.7185
 31
0.0
  0
LINE
  8
0
 62
     0
 10
73.2564
 20
53.7185
 30
0.0
 11
73.2564
 21
50.618
 31
0.0
  0
LINE
  8
0
 62
     0
 10
73.2564
 20
50.618
 30
0.0
 11
74.0572
 21
50.618
 31
0.0
  0
LINE
  8
0
 62
     0
 10
74.0572
 20
50.618
 30
0.0
 11
74.0572
 21
44.8179
 31
0.0
  0
LINE
  8
0
 62
     0
 10
74.0572
 20
44.8179
 30
0.0
 11
73.2564
 21
44.8179
 31
0.0
  0
LINE
  8
0
 62
     0
 10
73.2564
 20
44.8179
 30
0.0
 11
73.2564
 21
41.7188
 31
0.0
  0
LINE
  8
0
 62
     0
 10
73.2564
 20
41.7188
 30
0.0
 11
74.0572
 21
41.7188
 31
0.0
  0
LINE
  8
0
 62
     0
 10
74.0572
 20
41.7188
 30
0.0
 11
74.0572
 21
40.7183
 31
0.0
  0
LINE
  8
0
 62
     0
 10
74.0572
 20
40.7183
 30
0.0
 11
88.0565
 21
40.7183
 31
0.0
  0
LINE
  8
0
 62
     0
 10
88.0565
 20
40.7183
 30
0.0
 11
88.0565
 21
41.7188
 31
0.0
  0
LINE
  8
0
 62
     0
 10
88.0565
 20
41.7188
 30
0.0
 11
88.8573
 21
41.7188
 31
0.0
  0
LINE
  8
0
 62
     0
 10
88.8573
 20
41.7188
 30
0.0
 11
88.8573
 21
44.8179
 31
0.0
  0
LINE
  8
0
 62
     0
 10
88.8573
 20
44.8179
 30
0.0
 11
88.0565
 21
44.8179
 31
0.0
  0
LINE
  8
0
 62
     0
 10
88.0565
 20
44.8179
 30
0.0
 11
88.0565
 21
50.618
 31
0.0
  0
LINE
  8
0
 62
     0
 10
88.0565
 20
50.618
 30
0.0
 11
88.8573
 21
50.618
 31
0.0
  0
LINE
  8
0
 62
     0
 10
88.8573
 20
50.618
 30
0.0
 11
88.8573
 21
53.7185
 31
0.0
  0
LINE
  8
0
 62
     0
 10
88.8573
 20
53.7185
 30
0.0
 11
88.0565
 21
53.7185
 31
0.0
  0
LINE
  8
0
 62
     0
 10
88.0565
 20
53.7185
 30
0.0
 11
88.0565
 21
54.7176
 31
0.0
  0
LINE
  8
0
 62
     0
 10
88.0565
 20
54.7176
 30
0.0
 11
74.0572
 21
54.7176
 31
0.0
  0
LINE
  8
0
 62
     0
 10
93.1072
 20
54.7176
 30
0.0
 11
93.1072
 21
53.7185
 31
0.0
  0
LINE
  8
0
 62
     0
 10
93.1072
 20
53.7185
 30
0.0
 11
92.3064
 21
53.7185
 31
0.0
  0
LINE
  8
0
 62
     0
 10
92.3064
 20
53.7185
 30
0.0
 11
92.3064
 21
50.618
 31
0.0
  0
LINE
  8
0
 62
     0
 10
92.3064
 20
50.618
 30
0.0
 11
93.1072
 21
50.618
 31
0.0
  0
LINE
  8
0
 62
     0
 10
93.1072
 20
50.618
 30
0.0
 11
93.1072
 21
44.8179
 31
0.0
  0
LINE
  8
0
 62
     0
 10
93.1072
 20
44.8179
 30
0.0
 11
92.3064
 21
44.8179
 31
0.0
  0
LINE
  8
0
 62
     0
 10
92.3064
 20
44.8179
 30
0.0
 11
92.3064
 21
41.7188
 31
0.0
  0
LINE
  8
0
 62
     0
 10
92.3064
 20
41.7188
 30
0.0
 11
93.1072
 21
41.7188
 31
0.0
  0
LINE
  8
0
 62
     0
 10
93.1072
 20
41.7188
 30
0.0
 11
93.1072
 21
40.7183
 31
0.0
  0
LINE
  8
0
 62
     0
 10
93.1072
 20
40.7183
 30
0.0
 11
107.107
 21
40.7183
 31
0.0
  0
LINE
  8
0
 62
     0
 10
107.107
 20
40.7183
 30
0.0
 11
107.107
 21
41.7188
 31
0.0
  0
LINE
  8
0
 62
     0
 10
107.107
 20
41.7188
 30
0.0
 11
107.907
 21
41.7188
 31
0.0
  0
LINE
  8
0
 62
     0
 10
107.907
 20
41.7188
 30
0.0
 11
107.907
 21
44.8179
 31
0.0
  0
LINE
  8
0
 62
     0
 10
107.907
 20
44.8179
 30
0.0
 11
107.107
 21
44.8179
 31
0.0
  0
LINE
  8
0
 62
     0
 10
107.107
 20
44.8179
 30
0.0
 11
107.107
 21
50.618
 31
0.0
  0
LINE
  8
0
 62
     0
 10
107.107
 20
50.618
 30
0.0
 11
107.907
 21
50.618
 31
0.0
  0
LINE
  8
0
 62
     0
 10
107.907
 20
50.618
 30
0.0
 11
107.907
 21
53.7185
 31
0.0
  0
LINE
  8
0
 62
     0
 10
107.907
 20
53.7185
 30
0.0
 11
107.107
 21
53.7185
 31
0.0
  0
LINE
  8
0
 62
     0
 10
107.107
 20
53.7185
 30
0.0
 11
107.107
 21
54.7176
 31
0.0
  0
LINE
  8
0
 62
     0
 10
107.107
 20
54.7176
 30
0.0
 11
93.1072
 21
54.7176
 31
0.0
  0
LINE
  8
0
 62
     0
 10
112.157
 20
54.7176
 30
0.0
 11
112.157
 21
53.7185
 31
0.0
  0
LINE
  8
0
 62
     0
 10
112.157
 20
53.7185
 30
0.0
 11
111.356
 21
53.7185
 31
0.0
  0
LINE
  8
0
 62
     0
 10
111.356
 20
53.7185
 30
0.0
 11
111.356
 21
50.618
 31
0.0
  0
LINE
  8
0
 62
     0
 10
111.356
 20
50.618
 30
0.0
 11
112.157
 21
50.618
 31
0.0
  0
LINE
  8
0
 62
     0
 10
112.157
 20
50.618
 30
0.0
 11
112.157
 21
44.8179
 31
0.0
  0
LINE
  8
0
 62
     0
 10
112.157
 20
44.8179
 30
0.0
 11
111.356
 21
44.8179
 31
0.0
  0
LINE
  8
0
 62
     0
 10
111.356
 20
44.8179
 30
0.0
 11
111.356
 21
41.7188
 31
0.0
  0
LINE
  8
0
 62
     0
 10
111.356
 20
41.7188
 30
0.0
 11
112.157
 21
41.7188
 31
0.0
  0
LINE
  8
0
 62
     0
 10
112.157
 20
41.7188
 30
0.0
 11
112.157
 21
40.7183
 31
0.0
  0
LINE
  8
0
 62
     0
 10
112.157
 20
40.7183
 30
0.0
 11
126.157
 21
40.7183
 31
0.0
  0
LINE
  8
0
 62
     0
 10
126.157
 20
40.7183
 30
0.0
 11
126.157
 21
41.7188
 31
0.0
  0
LINE
  8
0
 62
     0
 10
126.157
 20
41.7188
 30
0.0
 11
126.957
 21
41.7188
 31
0.0
  0
LINE
  8
0
 62
     0
 10
126.957
 20
41.7188
 30
0.0
 11
126.957
 21
44.8179
 31
0.0
  0
LINE
  8
0
 62
     0
 10
126.957
 20
44.8179
 30
0.0
 11
126.157
 21
44.8179
 31
0.0
  0
LINE
  8
0
 62
     0
 10
126.157
 20
44.8179
 30
0.0
 11
126.157
 21
50.618
 31
0.0
  0
LINE
  8
0
 62
     0
 10
126.157
 20
50.618
 30
0.0
 11
126.957
 21
50.618
 31
0.0
  0
LINE
  8
0
 62
     0
 10
126.957
 20
50.618
 30
0.0
 11
126.957
 21
53.7185
 31
0.0
  0
LINE
  8
0
 62
     0
 10
126.957
 20
53.7185
 30
0.0
 11
126.157
 21
53.7185
 31
0.0
  0
LINE
  8
0
 62
     0
 10
126.157
 20
53.7185
 30
0.0
 11
126.157
 21
54.7176
 31
0.0
  0
LINE
  8
0
 62
     0
 10
126.157
 20
54.7176
 30
0.0
 11
112.157
 21
54.7176
 31
0.0
  0
LINE
  8
0
 62
     0
 10
131.207
 20
54.7176
 30
0.0
 11
131.207
 21
53.7185
 31
0.0
  0
LINE
  8
0
 62
     0
 10
131.207
 20
53.7185
 30
0.0
 11
130.406
 21
53.7185
 31
0.0
  0
LINE
  8
0
 62
     0
 10
130.406
 20
53.7185
 30
0.0
 11
130.406
 21
50.618
 31
0.0
  0
LINE
  8
0
 62
     0
 10
130.406
 20
50.618
 30
0.0
 11
131.207
 21
50.618
 31
0.0
  0
LINE
  8
0
 62
     0
 10
131.207
 20
50.618
 30
0.0
 11
131.207
 21
44.8179
 31
0.0
  0
LINE
  8
0
 62
     0
 10
131.207
 20
44.8179
 30
0.0
 11
130.406
 21
44.8179
 31
0.0
  0
LINE
  8
0
 62
     0
 10
130.406
 20
44.8179
 30
0.0
 11
130.406
 21
41.7188
 31
0.0
  0
LINE
  8
0
 62
     0
 10
130.406
 20
41.7188
 30
0.0
 11
131.207
 21
41.7188
 31
0.0
  0
LINE
  8
0
 62
     0
 10
131.207
 20
41.7188
 30
0.0
 11
131.207
 21
40.7183
 31
0.0
  0
LINE
  8
0
 62
     0
 10
131.207
 20
40.7183
 30
0.0
 11
145.207
 21
40.7183
 31
0.0
  0
LINE
  8
0
 62
     0
 10
145.207
 20
40.7183
 30
0.0
 11
145.207
 21
41.7188
 31
0.0
  0
LINE
  8
0
 62
     0
 10
145.207
 20
41.7188
 30
0.0
 11
146.007
 21
41.7188
 31
0.0
  0
LINE
  8
0
 62
     0
 10
146.007
 20
41.7188
 30
0.0
 11
146.007
 21
44.8179
 31
0.0
  0
LINE
  8
0
 62
     0
 10
146.007
 20
44.8179
 30
0.0
 11
145.207
 21
44.8179
 31
0.0
  0
LINE
  8
0
 62
     0
 10
145.207
 20
44.8179
 30
0.0
 11
145.207
 21
50.618
 31
0.0
  0
LINE
  8
0
 62
     0
 10
145.207
 20
50.618
 30
0.0
 11
146.007
 21
50.618
 31
0.0
  0
LINE
  8
0
 62
     0
 10
146.007
 20
50.618
 30
0.0
 11
146.007
 21
53.7185
 31
0.0
  0
LINE
  8
0
 62
     0
 10
146.007
 20
53.7185
 30
0.0
 11
145.207
 21
53.7185
 31
0.0
  0
LINE
  8
0
 62
     0
 10
145.207
 20
53.7185
 30
0.0
 11
145.207
 21
54.7176
 31
0.0
  0
LINE
  8
0
 62
     0
 10
145.207
 20
54.7176
 30
0.0
 11
131.207
 21
54.7176
 31
0.0
  0
LINE
  8
0
 62
     0
 10
150.257
 20
54.7176
 30
0.0
 11
150.257
 21
53.7185
 31
0.0
  0
LINE
  8
0
 62
     0
 10
150.257
 20
53.7185
 30
0.0
 11
149.456
 21
53.7185
 31
0.0
  0
LINE
  8
0
 62
     0
 10
149.456
 20
53.7185
 30
0.0
 11
149.456
 21
50.618
 31
0.0
  0
LINE
  8
0
 62
     0
 10
149.456
 20
50.618
 30
0.0
 11
150.257
 21
50.618
 31
0.0
  0
LINE
  8
0
 62
     0
 10
150.257
 20
50.618
 30
0.0
 11
150.257
 21
44.8179
 31
0.0
  0
LINE
  8
0
 62
     0
 10
150.257
 20
44.8179
 30
0.0
 11
149.456
 21
44.8179
 31
0.0
  0
LINE
  8
0
 62
     0
 10
149.456
 20
44.8179
 30
0.0
 11
149.456
 21
41.7188
 31
0.0
  0
LINE
  8
0
 62
     0
 10
149.456
 20
41.7188
 30
0.0
 11
150.257
 21
41.7188
 31
0.0
  0
LINE
  8
0
 62
     0
 10
150.257
 20
41.7188
 30
0.0
 11
150.257
 21
40.7183
 31
0.0
  0
LINE
  8
0
 62
     0
 10
150.257
 20
40.7183
 30
0.0
 11
164.257
 21
40.7183
 31
0.0
  0
LINE
  8
0
 62
     0
 10
164.257
 20
40.7183
 30
0.0
 11
164.257
 21
41.7188
 31
0.0
  0
LINE
  8
0
 62
     0
 10
164.257
 20
41.7188
 30
0.0
 11
165.057
 21
41.7188
 31
0.0
  0
LINE
  8
0
 62
     0
 10
165.057
 20
41.7188
 30
0.0
 11
165.057
 21
44.8179
 31
0.0
  0
LINE
  8
0
 62
     0
 10
165.057
 20
44.8179
 30
0.0
 11
164.257
 21
44.8179
 31
0.0
  0
LINE
  8
0
 62
     0
 10
164.257
 20
44.8179
 30
0.0
 11
164.257
 21
50.618
 31
0.0
  0
LINE
  8
0
 62
     0
 10
164.257
 20
50.618
 30
0.0
 11
165.057
 21
50.618
 31
0.0
  0
LINE
  8
0
 62
     0
 10
165.057
 20
50.618
 30
0.0
 11
165.057
 21
53.7185
 31
0.0
  0
LINE
  8
0
 62
     0
 10
165.057
 20
53.7185
 30
0.0
 11
164.257
 21
53.7185
 31
0.0
  0
LINE
  8
0
 62
     0
 10
164.257
 20
53.7185
 30
0.0
 11
164.257
 21
54.7176
 31
0.0
  0
LINE
  8
0
 62
     0
 10
164.257
 20
54.7176
 30
0.0
 11
150.257
 21
54.7176
 31
0.0
  0
LINE
  8
0
 62
     0
 10
169.307
 20
54.7176
 30
0.0
 11
169.307
 21
53.7185
 31
0.0
  0
LINE
  8
0
 62
     0
 10
169.307
 20
53.7185
 30
0.0
 11
168.506
 21
53.7185
 31
0.0
  0
LINE
  8
0
 62
     0
 10
168.506
 20
53.7185
 30
0.0
 11
168.506
 21
50.618
 31
0.0
  0
LINE
  8
0
 62
     0
 10
168.506
 20
50.618
 30
0.0
 11
169.307
 21
50.618
 31
0.0
  0
LINE
  8
0
 62
     0
 10
169.307
 20
50.618
 30
0.0
 11
169.307
 21
44.8179
 31
0.0
  0
LINE
  8
0
 62
     0
 10
169.307
 20
44.8179
 30
0.0
 11
168.506
 21
44.8179
 31
0.0
  0
LINE
  8
0
 62
     0
 10
168.506
 20
44.8179
 30
0.0
 11
168.506
 21
41.7188
 31
0.0
  0
LINE
  8
0
 62
     0
 10
168.506
 20
41.7188
 30
0.0
 11
169.307
 21
41.7188
 31
0.0
  0
LINE
  8
0
 62
     0
 10
169.307
 20
41.7188
 30
0.0
 11
169.307
 21
40.7183
 31
0.0
  0
LINE
  8
0
 62
     0
 10
169.307
 20
40.7183
 30
0.0
 11
183.307
 21
40.7183
 31
0.0
  0
LINE
  8
0
 62
     0
 10
183.307
 20
40.7183
 30
0.0
 11
183.307
 21
41.7188
 31
0.0
  0
LINE
  8
0
 62
     0
 10
183.307
 20
41.7188
 30
0.0
 11
184.107
 21
41.7188
 31
0.0
  0
LINE
  8
0
 62
     0
 10
184.107
 20
41.7188
 30
0.0
 11
184.107
 21
44.8179
 31
0.0
  0
LINE
  8
0
 62
     0
 10
184.107
 20
44.8179
 30
0.0
 11
183.307
 21
44.8179
 31
0.0
  0
LINE
  8
0
 62
     0
 10
183.307
 20
44.8179
 30
0.0
 11
183.307
 21
50.618
 31
0.0
  0
LINE
  8
0
 62
     0
 10
183.307
 20
50.618
 30
0.0
 11
184.107
 21
50.618
 31
0.0
  0
LINE
  8
0
 62
     0
 10
184.107
 20
50.618
 30
0.0
 11
184.107
 21
53.7185
 31
0.0
  0
LINE
  8
0
 62
     0
 10
184.107
 20
53.7185
 30
0.0
 11
183.307
 21
53.7185
 31
0.0
  0
LINE
  8
0
 62
     0
 10
183.307
 20
53.7185
 30
0.0
 11
183.307
 21
54.7176
 31
0.0
  0
LINE
  8
0
 62
     0
 10
183.307
 20
54.7176
 30
0.0
 11
169.307
 21
54.7176
 31
0.0
  0
LINE
  8
0
 62
     0
 10
188.357
 20
54.7176
 30
0.0
 11
188.357
 21
53.7185
 31
0.0
  0
LINE
  8
0
 62
     0
 10
188.357
 20
53.7185
 30
0.0
 11
187.556
 21
53.7185
 31
0.0
  0
LINE
  8
0
 62
     0
 10
187.556
 20
53.7185
 30
0.0
 11
187.556
 21
50.618
 31
0.0
  0
LINE
  8
0
 62
     0
 10
187.556
 20
50.618
 30
0.0
 11
188.357
 21
50.618
 31
0.0
  0
LINE
  8
0
 62
     0
 10
188.357
 20
50.618
 30
0.0
 11
188.357
 21
44.8179
 31
0.0
  0
LINE
  8
0
 62
     0
 10
188.357
 20
44.8179
 30
0.0
 11
187.556
 21
44.8179
 31
0.0
  0
LINE
  8
0
 62
     0
 10
187.556
 20
44.8179
 30
0.0
 11
187.556
 21
41.7188
 31
0.0
  0
LINE
  8
0
 62
     0
 10
187.556
 20
41.7188
 30
0.0
 11
188.357
 21
41.7188
 31
0.0
  0
LINE
  8
0
 62
     0
 10
188.357
 20
41.7188
 30
0.0
 11
188.357
 21
40.7183
 31
0.0
  0
LINE
  8
0
 62
     0
 10
188.357
 20
40.7183
 30
0.0
 11
202.357
 21
40.7183
 31
0.0
  0
LINE
  8
0
 62
     0
 10
202.357
 20
40.7183
 30
0.0
 11
202.357
 21
41.7188
 31
0.0
  0
LINE
  8
0
 62
     0
 10
202.357
 20
41.7188
 30
0.0
 11
203.157
 21
41.7188
 31
0.0
  0
LINE
  8
0
 62
     0
 10
203.157
 20
41.7188
 30
0.0
 11
203.157
 21
44.8179
 31
0.0
  0
LINE
  8
0
 62
     0
 10
203.157
 20
44.8179
 30
0.0
 11
202.357
 21
44.8179
 31
0.0
  0
LINE
  8
0
 62
     0
 10
202.357
 20
44.8179
 30
0.0
 11
202.357
 21
50.618
 31
0.0
  0
LINE
  8
0
 62
     0
 10
202.357
 20
50.618
 30
0.0
 11
203.157
 21
50.618
 31
0.0
  0
LINE
  8
0
 62
     0
 10
203.157
 20
50.618
 30
0.0
 11
203.157
 21
53.7185
 31
0.0
  0
LINE
  8
0
 62
     0
 10
203.157
 20
53.7185
 30
0.0
 11
202.357
 21
53.7185
 31
0.0
  0
LINE
  8
0
 62
     0
 10
202.357
 20
53.7185
 30
0.0
 11
202.357
 21
54.7176
 31
0.0
  0
LINE
  8
0
 62
     0
 10
202.357
 20
54.7176
 30
0.0
 11
188.357
 21
54.7176
 31
0.0
  0
LINE
  8
0
 62
     0
 10
207.407
 20
54.7176
 30
0.0
 11
207.407
 21
53.7185
 31
0.0
  0
LINE
  8
0
 62
     0
 10
207.407
 20
53.7185
 30
0.0
 11
206.606
 21
53.7185
 31
0.0
  0
LINE
  8
0
 62
     0
 10
206.606
 20
53.7185
 30
0.0
 11
206.606
 21
50.618
 31
0.0
  0
LINE
  8
0
 62
     0
 10
206.606
 20
50.618
 30
0.0
 11
207.407
 21
50.618
 31
0.0
  0
LINE
  8
0
 62
     0
 10
207.407
 20
50.618
 30
0.0
 11
207.407
 21
44.8179
 31
0.0
  0
LINE
  8
0
 62
     0
 10
207.407
 20
44.8179
 30
0.0
 11
206.606
 21
44.8179
 31
0.0
  0
LINE
  8
0
 62
     0
 10
206.606
 20
44.8179
 30
0.0
 11
206.606
 21
41.7188
 31
0.0
  0
LINE
  8
0
 62
     0
 10
206.606
 20
41.7188
 30
0.0
 11
207.407
 21
41.7188
 31
0.0
  0
LINE
  8
0
 62
     0
 10
207.407
 20
41.7188
 30
0.0
 11
207.407
 21
40.7183
 31
0.0
  0
LINE
  8
0
 62
     0
 10
207.407
 20
40.7183
 30
0.0
 11
221.407
 21
40.7183
 31
0.0
  0
LINE
  8
0
 62
     0
 10
221.407
 20
40.7183
 30
0.0
 11
221.407
 21
41.7188
 31
0.0
  0
LINE
  8
0
 62
     0
 10
221.407
 20
41.7188
 30
0.0
 11
222.207
 21
41.7188
 31
0.0
  0
LINE
  8
0
 62
     0
 10
222.207
 20
41.7188
 30
0.0
 11
222.207
 21
44.8179
 31
0.0
  0
LINE
  8
0
 62
     0
 10
222.207
 20
44.8179
 30
0.0
 11
221.407
 21
44.8179
 31
0.0
  0
LINE
  8
0
 62
     0
 10
221.407
 20
44.8179
 30
0.0
 11
221.407
 21
50.618
 31
0.0
  0
LINE
  8
0
 62
     0
 10
221.407
 20
50.618
 30
0.0
 11
222.207
 21
50.618
 31
0.0
  0
LINE
  8
0
 62
     0
 10
222.207
 20
50.618
 30
0.0
 11
222.207
 21
53.7185
 31
0.0
  0
LINE
  8
0
 62
     0
 10
222.207
 20
53.7185
 30
0.0
 11
221.407
 21
53.7185
 31
0.0
  0
LINE
  8
0
 62
     0
 10
221.407
 20
53.7185
 30
0.0
 11
221.407
 21
54.7176
 31
0.0
  0
LINE
  8
0
 62
     0
 10
221.407
 20
54.7176
 30
0.0
 11
207.407
 21
54.7176
 31
0.0
  0
LINE
  8
0
 62
     0
 10
226.457
 20
54.7176
 30
0.0
 11
226.457
 21
53.7185
 31
0.0
  0
LINE
  8
0
 62
     0
 10
226.457
 20
53.7185
 30
0.0
 11
225.656
 21
53.7185
 31
0.0
  0
LINE
  8
0
 62
     0
 10
225.656
 20
53.7185
 30
0.0
 11
225.656
 21
50.618
 31
0.0
  0
LINE
  8
0
 62
     0
 10
225.656
 20
50.618
 30
0.0
 11
226.457
 21
50.618
 31
0.0
  0
LINE
  8
0
 62
     0
 10
226.457
 20
50.618
 30
0.0
 11
226.457
 21
44.8179
 31
0.0
  0
LINE
  8
0
 62
     0
 10
226.457
 20
44.8179
 30
0.0
 11
225.656
 21
44.8179
 31
0.0
  0
LINE
  8
0
 62
     0
 10
225.656
 20
44.8179
 30
0.0
 11
225.656
 21
41.7188
 31
0.0
  0
LINE
  8
0
 62
     0
 10
225.656
 20
41.7188
 30
0.0
 11
226.457
 21
41.7188
 31
0.0
  0
LINE
  8
0
 62
     0
 10
226.457
 20
41.7188
 30
0.0
 11
226.457
 21
40.7183
 31
0.0
  0
LINE
  8
0
 62
     0
 10
226.457
 20
40.7183
 30
0.0
 11
240.457
 21
40.7183
 31
0.0
  0
LINE
  8
0
 62
     0
 10
240.457
 20
40.7183
 30
0.0
 11
240.457
 21
41.7188
 31
0.0
  0
LINE
  8
0
 62
     0
 10
240.457
 20
41.7188
 30
0.0
 11
241.257
 21
41.7188
 31
0.0
  0
LINE
  8
0
 62
     0
 10
241.257
 20
41.7188
 30
0.0
 11
241.257
 21
44.8179
 31
0.0
  0
LINE
  8
0
 62
     0
 10
241.257
 20
44.8179
 30
0.0
 11
240.457
 21
44.8179
 31
0.0
  0
LINE
  8
0
 62
     0
 10
240.457
 20
44.8179
 30
0.0
 11
240.457
 21
50.618
 31
0.0
  0
LINE
  8
0
 62
     0
 10
240.457
 20
50.618
 30
0.0
 11
241.257
 21
50.618
 31
0.0
  0
LINE
  8
0
 62
     0
 10
241.257
 20
50.618
 30
0.0
 11
241.257
 21
53.7185
 31
0.0
  0
LINE
  8
0
 62
     0
 10
241.257
 20
53.7185
 30
0.0
 11
240.457
 21
53.7185
 31
0.0
  0
LINE
  8
0
 62
     0
 10
240.457
 20
53.7185
 30
0.0
 11
240.457
 21
54.7176
 31
0.0
  0
LINE
  8
0
 62
     0
 10
240.457
 20
54.7176
 30
0.0
 11
226.457
 21
54.7176
 31
0.0
  0
LINE
  8
0
 62
     0
 10
297.895
 20
54.7176
 30
0.0
 11
297.895
 21
53.7185
 31
0.0
  0
LINE
  8
0
 62
     0
 10
297.895
 20
53.7185
 30
0.0
 11
297.095
 21
53.7185
 31
0.0
  0
LINE
  8
0
 62
     0
 10
297.095
 20
53.7185
 30
0.0
 11
297.095
 21
50.618
 31
0.0
  0
LINE
  8
0
 62
     0
 10
297.095
 20
50.618
 30
0.0
 11
297.895
 21
50.618
 31
0.0
  0
LINE
  8
0
 62
     0
 10
297.895
 20
50.618
 30
0.0
 11
297.895
 21
44.8179
 31
0.0
  0
LINE
  8
0
 62
     0
 10
297.895
 20
44.8179
 30
0.0
 11
297.095
 21
44.8179
 31
0.0
  0
LINE
  8
0
 62
     0
 10
297.095
 20
44.8179
 30
0.0
 11
297.095
 21
41.7188
 31
0.0
  0
LINE
  8
0
 62
     0
 10
297.095
 20
41.7188
 30
0.0
 11
297.895
 21
41.7188
 31
0.0
  0
LINE
  8
0
 62
     0
 10
297.895
 20
41.7188
 30
0.0
 11
297.895
 21
40.7183
 31
0.0
  0
LINE
  8
0
 62
     0
 10
297.895
 20
40.7183
 30
0.0
 11
311.894
 21
40.7183
 31
0.0
  0
LINE
  8
0
 62
     0
 10
311.894
 20
40.7183
 30
0.0
 11
311.894
 21
41.7188
 31
0.0
  0
LINE
  8
0
 62
     0
 10
311.894
 20
41.7188
 30
0.0
 11
312.695
 21
41.7188
 31
0.0
  0
LINE
  8
0
 62
     0
 10
312.695
 20
41.7188
 30
0.0
 11
312.695
 21
44.8179
 31
0.0
  0
LINE
  8
0
 62
     0
 10
312.695
 20
44.8179
 30
0.0
 11
311.894
 21
44.8179
 31
0.0
  0
LINE
  8
0
 62
     0
 10
311.894
 20
44.8179
 30
0.0
 11
311.894
 21
50.618
 31
0.0
  0
LINE
  8
0
 62
     0
 10
311.894
 20
50.618
 30
0.0
 11
312.695
 21
50.618
 31
0.0
  0
LINE
  8
0
 62
     0
 10
312.695
 20
50.618
 30
0.0
 11
312.695
 21
53.7185
 31
0.0
  0
LINE
  8
0
 62
     0
 10
312.695
 20
53.7185
 30
0.0
 11
311.894
 21
53.7185
 31
0.0
  0
LINE
  8
0
 62
     0
 10
311.894
 20
53.7185
 30
0.0
 11
311.894
 21
54.7176
 31
0.0
  0
LINE
  8
0
 62
     0
 10
311.894
 20
54.7176
 30
0.0
 11
297.895
 21
54.7176
 31
0.0
  0
LINE
  8
0
 62
     0
 10
316.945
 20
54.7176
 30
0.0
 11
316.945
 21
53.7185
 31
0.0
  0
LINE
  8
0
 62
     0
 10
316.945
 20
53.7185
 30
0.0
 11
316.145
 21
53.7185
 31
0.0
  0
LINE
  8
0
 62
     0
 10
316.145
 20
53.7185
 30
0.0
 11
316.145
 21
50.618
 31
0.0
  0
LINE
  8
0
 62
     0
 10
316.145
 20
50.618
 30
0.0
 11
316.945
 21
50.618
 31
0.0
  0
LINE
  8
0
 62
     0
 10
316.945
 20
50.618
 30
0.0
 11
316.945
 21
44.8179
 31
0.0
  0
LINE
  8
0
 62
     0
 10
316.945
 20
44.8179
 30
0.0
 11
316.145
 21
44.8179
 31
0.0
  0
LINE
  8
0
 62
     0
 10
316.145
 20
44.8179
 30
0.0
 11
316.145
 21
41.7188
 31
0.0
  0
LINE
  8
0
 62
     0
 10
316.145
 20
41.7188
 30
0.0
 11
316.945
 21
41.7188
 31
0.0
  0
LINE
  8
0
 62
     0
 10
316.945
 20
41.7188
 30
0.0
 11
316.945
 21
40.7183
 31
0.0
  0
LINE
  8
0
 62
     0
 10
316.945
 20
40.7183
 30
0.0
 11
330.944
 21
40.7183
 31
0.0
  0
LINE
  8
0
 62
     0
 10
330.944
 20
40.7183
 30
0.0
 11
330.944
 21
41.7188
 31
0.0
  0
LINE
  8
0
 62
     0
 10
330.944
 20
41.7188
 30
0.0
 11
331.745
 21
41.7188
 31
0.0
  0
LINE
  8
0
 62
     0
 10
331.745
 20
41.7188
 30
0.0
 11
331.745
 21
44.8179
 31
0.0
  0
LINE
  8
0
 62
     0
 10
331.745
 20
44.8179
 30
0.0
 11
330.944
 21
44.8179
 31
0.0
  0
LINE
  8
0
 62
     0
 10
330.944
 20
44.8179
 30
0.0
 11
330.944
 21
50.618
 31
0.0
  0
LINE
  8
0
 62
     0
 10
330.944
 20
50.618
 30
0.0
 11
331.745
 21
50.618
 31
0.0
  0
LINE
  8
0
 62
     0
 10
331.745
 20
50.618
 30
0.0
 11
331.745
 21
53.7185
 31
0.0
  0
LINE
  8
0
 62
     0
 10
331.745
 20
53.7185
 30
0.0
 11
330.944
 21
53.7185
 31
0.0
  0
LINE
  8
0
 62
     0
 10
330.944
 20
53.7185
 30
0.0
 11
330.944
 21
54.7176
 31
0.0
  0
LINE
  8
0
 62
     0
 10
330.944
 20
54.7176
 30
0.0
 11
316.945
 21
54.7176
 31
0.0
  0
LINE
  8
0
 62
     0
 10
335.995
 20
54.7176
 30
0.0
 11
335.995
 21
53.7185
 31
0.0
  0
LINE
  8
0
 62
     0
 10
335.995
 20
53.7185
 30
0.0
 11
335.195
 21
53.7185
 31
0.0
  0
LINE
  8
0
 62
     0
 10
335.195
 20
53.7185
 30
0.0
 11
335.195
 21
50.618
 31
0.0
  0
LINE
  8
0
 62
     0
 10
335.195
 20
50.618
 30
0.0
 11
335.995
 21
50.618
 31
0.0
  0
LINE
  8
0
 62
     0
 10
335.995
 20
50.618
 30
0.0
 11
335.995
 21
44.8179
 31
0.0
  0
LINE
  8
0
 62
     0
 10
335.995
 20
44.8179
 30
0.0
 11
335.195
 21
44.8179
 31
0.0
  0
LINE
  8
0
 62
     0
 10
335.195
 20
44.8179
 30
0.0
 11
335.195
 21
41.7188
 31
0.0
  0
LINE
  8
0
 62
     0
 10
335.195
 20
41.7188
 30
0.0
 11
335.995
 21
41.7188
 31
0.0
  0
LINE
  8
0
 62
     0
 10
335.995
 20
41.7188
 30
0.0
 11
335.995
 21
40.7183
 31
0.0
  0
LINE
  8
0
 62
     0
 10
335.995
 20
40.7183
 30
0.0
 11
349.994
 21
40.7183
 31
0.0
  0
LINE
  8
0
 62
     0
 10
349.994
 20
40.7183
 30
0.0
 11
349.994
 21
41.7188
 31
0.0
  0
LINE
  8
0
 62
     0
 10
349.994
 20
41.7188
 30
0.0
 11
350.795
 21
41.7188
 31
0.0
  0
LINE
  8
0
 62
     0
 10
350.795
 20
41.7188
 30
0.0
 11
350.795
 21
44.8179
 31
0.0
  0
LINE
  8
0
 62
     0
 10
350.795
 20
44.8179
 30
0.0
 11
349.994
 21
44.8179
 31
0.0
  0
LINE
  8
0
 62
     0
 10
349.994
 20
44.8179
 30
0.0
 11
349.994
 21
50.618
 31
0.0
  0
LINE
  8
0
 62
     0
 10
349.994
 20
50.618
 30
0.0
 11
350.795
 21
50.618
 31
0.0
  0
LINE
  8
0
 62
     0
 10
350.795
 20
50.618
 30
0.0
 11
350.795
 21
53.7185
 31
0.0
  0
LINE
  8
0
 62
     0
 10
350.795
 20
53.7185
 30
0.0
 11
349.994
 21
53.7185
 31
0.0
  0
LINE
  8
0
 62
     0
 10
349.994
 20
53.7185
 30
0.0
 11
349.994
 21
54.7176
 31
0.0
  0
LINE
  8
0
 62
     0
 10
349.994
 20
54.7176
 30
0.0
 11
335.995
 21
54.7176
 31
0.0
  0
LINE
  8
0
 62
     0
 10
7.38216
 20
73.7676
 30
0.0
 11
7.38216
 21
72.7685
 31
0.0
  0
LINE
  8
0
 62
     0
 10
7.38216
 20
72.7685
 30
0.0
 11
6.58153
 21
72.7685
 31
0.0
  0
LINE
  8
0
 62
     0
 10
6.58153
 20
72.7685
 30
0.0
 11
6.58153
 21
69.668
 31
0.0
  0
LINE
  8
0
 62
     0
 10
6.58153
 20
69.668
 30
0.0
 11
7.38216
 21
69.668
 31
0.0
  0
LINE
  8
0
 62
     0
 10
7.38216
 20
69.668
 30
0.0
 11
7.38216
 21
63.8679
 31
0.0
  0
LINE
  8
0
 62
     0
 10
7.38216
 20
63.8679
 30
0.0
 11
6.58153
 21
63.8679
 31
0.0
  0
LINE
  8
0
 62
     0
 10
6.58153
 20
63.8679
 30
0.0
 11
6.58153
 21
60.7688
 31
0.0
  0
LINE
  8
0
 62
     0
 10
6.58153
 20
60.7688
 30
0.0
 11
7.38216
 21
60.7688
 31
0.0
  0
LINE
  8
0
 62
     0
 10
7.38216
 20
60.7688
 30
0.0
 11
7.38216
 21
59.7683
 31
0.0
  0
LINE
  8
0
 62
     0
 10
7.38216
 20
59.7683
 30
0.0
 11
21.3817
 21
59.7683
 31
0.0
  0
LINE
  8
0
 62
     0
 10
21.3817
 20
59.7683
 30
0.0
 11
21.3817
 21
60.7688
 31
0.0
  0
LINE
  8
0
 62
     0
 10
21.3817
 20
60.7688
 30
0.0
 11
22.1823
 21
60.7688
 31
0.0
  0
LINE
  8
0
 62
     0
 10
22.1823
 20
60.7688
 30
0.0
 11
22.1823
 21
63.8679
 31
0.0
  0
LINE
  8
0
 62
     0
 10
22.1823
 20
63.8679
 30
0.0
 11
21.3817
 21
63.8679
 31
0.0
  0
LINE
  8
0
 62
     0
 10
21.3817
 20
63.8679
 30
0.0
 11
21.3817
 21
69.668
 31
0.0
  0
LINE
  8
0
 62
     0
 10
21.3817
 20
69.668
 30
0.0
 11
22.1823
 21
69.668
 31
0.0
  0
LINE
  8
0
 62
     0
 10
22.1823
 20
69.668
 30
0.0
 11
22.1823
 21
72.7685
 31
0.0
  0
LINE
  8
0
 62
     0
 10
22.1823
 20
72.7685
 30
0.0
 11
21.3817
 21
72.7685
 31
0.0
  0
LINE
  8
0
 62
     0
 10
21.3817
 20
72.7685
 30
0.0
 11
21.3817
 21
73.7676
 31
0.0
  0
LINE
  8
0
 62
     0
 10
21.3817
 20
73.7676
 30
0.0
 11
7.38216
 21
73.7676
 31
0.0
  0
LINE
  8
0
 62
     0
 10
31.1947
 20
73.7676
 30
0.0
 11
31.1947
 21
72.7685
 31
0.0
  0
LINE
  8
0
 62
     0
 10
31.1947
 20
72.7685
 30
0.0
 11
30.3954
 21
72.7685
 31
0.0
  0
LINE
  8
0
 62
     0
 10
30.3954
 20
72.7685
 30
0.0
 11
30.3954
 21
69.668
 31
0.0
  0
LINE
  8
0
 62
     0
 10
30.3954
 20
69.668
 30
0.0
 11
31.1947
 21
69.668
 31
0.0
  0
LINE
  8
0
 62
     0
 10
31.1947
 20
69.668
 30
0.0
 11
31.1947
 21
63.8679
 31
0.0
  0
LINE
  8
0
 62
     0
 10
31.1947
 20
63.8679
 30
0.0
 11
30.3954
 21
63.8679
 31
0.0
  0
LINE
  8
0
 62
     0
 10
30.3954
 20
63.8679
 30
0.0
 11
30.3954
 21
60.7688
 31
0.0
  0
LINE
  8
0
 62
     0
 10
30.3954
 20
60.7688
 30
0.0
 11
31.1947
 21
60.7688
 31
0.0
  0
LINE
  8
0
 62
     0
 10
31.1947
 20
60.7688
 30
0.0
 11
31.1947
 21
59.7683
 31
0.0
  0
LINE
  8
0
 62
     0
 10
31.1947
 20
59.7683
 30
0.0
 11
45.194
 21
59.7683
 31
0.0
  0
LINE
  8
0
 62
     0
 10
45.194
 20
59.7683
 30
0.0
 11
45.194
 21
60.7688
 31
0.0
  0
LINE
  8
0
 62
     0
 10
45.194
 20
60.7688
 30
0.0
 11
45.9948
 21
60.7688
 31
0.0
  0
LINE
  8
0
 62
     0
 10
45.9948
 20
60.7688
 30
0.0
 11
45.9948
 21
63.8679
 31
0.0
  0
LINE
  8
0
 62
     0
 10
45.9948
 20
63.8679
 30
0.0
 11
45.194
 21
63.8679
 31
0.0
  0
LINE
  8
0
 62
     0
 10
45.194
 20
63.8679
 30
0.0
 11
45.194
 21
69.668
 31
0.0
  0
LINE
  8
0
 62
     0
 10
45.194
 20
69.668
 30
0.0
 11
45.9948
 21
69.668
 31
0.0
  0
LINE
  8
0
 62
     0
 10
45.9948
 20
69.668
 30
0.0
 11
45.9948
 21
72.7685
 31
0.0
  0
LINE
  8
0
 62
     0
 10
45.9948
 20
72.7685
 30
0.0
 11
45.194
 21
72.7685
 31
0.0
  0
LINE
  8
0
 62
     0
 10
45.194
 20
72.7685
 30
0.0
 11
45.194
 21
73.7676
 31
0.0
  0
LINE
  8
0
 62
     0
 10
45.194
 20
73.7676
 30
0.0
 11
31.1947
 21
73.7676
 31
0.0
  0
LINE
  8
0
 62
     0
 10
50.2447
 20
73.7676
 30
0.0
 11
50.2447
 21
72.7685
 31
0.0
  0
LINE
  8
0
 62
     0
 10
50.2447
 20
72.7685
 30
0.0
 11
49.4453
 21
72.7685
 31
0.0
  0
LINE
  8
0
 62
     0
 10
49.4453
 20
72.7685
 30
0.0
 11
49.4453
 21
69.668
 31
0.0
  0
LINE
  8
0
 62
     0
 10
49.4453
 20
69.668
 30
0.0
 11
50.2447
 21
69.668
 31
0.0
  0
LINE
  8
0
 62
     0
 10
50.2447
 20
69.668
 30
0.0
 11
50.2447
 21
63.8679
 31
0.0
  0
LINE
  8
0
 62
     0
 10
50.2447
 20
63.8679
 30
0.0
 11
49.4453
 21
63.8679
 31
0.0
  0
LINE
  8
0
 62
     0
 10
49.4453
 20
63.8679
 30
0.0
 11
49.4453
 21
60.7688
 31
0.0
  0
LINE
  8
0
 62
     0
 10
49.4453
 20
60.7688
 30
0.0
 11
50.2447
 21
60.7688
 31
0.0
  0
LINE
  8
0
 62
     0
 10
50.2447
 20
60.7688
 30
0.0
 11
50.2447
 21
59.7683
 31
0.0
  0
LINE
  8
0
 62
     0
 10
50.2447
 20
59.7683
 30
0.0
 11
64.244
 21
59.7683
 31
0.0
  0
LINE
  8
0
 62
     0
 10
64.244
 20
59.7683
 30
0.0
 11
64.244
 21
60.7688
 31
0.0
  0
LINE
  8
0
 62
     0
 10
64.244
 20
60.7688
 30
0.0
 11
65.0448
 21
60.7688
 31
0.0
  0
LINE
  8
0
 62
     0
 10
65.0448
 20
60.7688
 30
0.0
 11
65.0448
 21
63.8679
 31
0.0
  0
LINE
  8
0
 62
     0
 10
65.0448
 20
63.8679
 30
0.0
 11
64.244
 21
63.8679
 31
0.0
  0
LINE
  8
0
 62
     0
 10
64.244
 20
63.8679
 30
0.0
 11
64.244
 21
69.668
 31
0.0
  0
LINE
  8
0
 62
     0
 10
64.244
 20
69.668
 30
0.0
 11
65.0448
 21
69.668
 31
0.0
  0
LINE
  8
0
 62
     0
 10
65.0448
 20
69.668
 30
0.0
 11
65.0448
 21
72.7685
 31
0.0
  0
LINE
  8
0
 62
     0
 10
65.0448
 20
72.7685
 30
0.0
 11
64.244
 21
72.7685
 31
0.0
  0
LINE
  8
0
 62
     0
 10
64.244
 20
72.7685
 30
0.0
 11
64.244
 21
73.7676
 31
0.0
  0
LINE
  8
0
 62
     0
 10
64.244
 20
73.7676
 30
0.0
 11
50.2447
 21
73.7676
 31
0.0
  0
LINE
  8
0
 62
     0
 10
69.2947
 20
73.7676
 30
0.0
 11
69.2947
 21
72.7685
 31
0.0
  0
LINE
  8
0
 62
     0
 10
69.2947
 20
72.7685
 30
0.0
 11
68.4953
 21
72.7685
 31
0.0
  0
LINE
  8
0
 62
     0
 10
68.4953
 20
72.7685
 30
0.0
 11
68.4953
 21
69.668
 31
0.0
  0
LINE
  8
0
 62
     0
 10
68.4953
 20
69.668
 30
0.0
 11
69.2947
 21
69.668
 31
0.0
  0
LINE
  8
0
 62
     0
 10
69.2947
 20
69.668
 30
0.0
 11
69.2947
 21
63.8679
 31
0.0
  0
LINE
  8
0
 62
     0
 10
69.2947
 20
63.8679
 30
0.0
 11
68.4953
 21
63.8679
 31
0.0
  0
LINE
  8
0
 62
     0
 10
68.4953
 20
63.8679
 30
0.0
 11
68.4953
 21
60.7688
 31
0.0
  0
LINE
  8
0
 62
     0
 10
68.4953
 20
60.7688
 30
0.0
 11
69.2947
 21
60.7688
 31
0.0
  0
LINE
  8
0
 62
     0
 10
69.2947
 20
60.7688
 30
0.0
 11
69.2947
 21
59.7683
 31
0.0
  0
LINE
  8
0
 62
     0
 10
69.2947
 20
59.7683
 30
0.0
 11
83.294
 21
59.7683
 31
0.0
  0
LINE
  8
0
 62
     0
 10
83.294
 20
59.7683
 30
0.0
 11
83.294
 21
60.7688
 31
0.0
  0
LINE
  8
0
 62
     0
 10
83.294
 20
60.7688
 30
0.0
 11
84.0948
 21
60.7688
 31
0.0
  0
LINE
  8
0
 62
     0
 10
84.0948
 20
60.7688
 30
0.0
 11
84.0948
 21
63.8679
 31
0.0
  0
LINE
  8
0
 62
     0
 10
84.0948
 20
63.8679
 30
0.0
 11
83.294
 21
63.8679
 31
0.0
  0
LINE
  8
0
 62
     0
 10
83.294
 20
63.8679
 30
0.0
 11
83.294
 21
69.668
 31
0.0
  0
LINE
  8
0
 62
     0
 10
83.294
 20
69.668
 30
0.0
 11
84.0948
 21
69.668
 31
0.0
  0
LINE
  8
0
 62
     0
 10
84.0948
 20
69.668
 30
0.0
 11
84.0948
 21
72.7685
 31
0.0
  0
LINE
  8
0
 62
     0
 10
84.0948
 20
72.7685
 30
0.0
 11
83.294
 21
72.7685
 31
0.0
  0
LINE
  8
0
 62
     0
 10
83.294
 20
72.7685
 30
0.0
 11
83.294
 21
73.7676
 31
0.0
  0
LINE
  8
0
 62
     0
 10
83.294
 20
73.7676
 30
0.0
 11
69.2947
 21
73.7676
 31
0.0
  0
LINE
  8
0
 62
     0
 10
88.3447
 20
73.7676
 30
0.0
 11
88.3447
 21
72.7685
 31
0.0
  0
LINE
  8
0
 62
     0
 10
88.3447
 20
72.7685
 30
0.0
 11
87.5453
 21
72.7685
 31
0.0
  0
LINE
  8
0
 62
     0
 10
87.5453
 20
72.7685
 30
0.0
 11
87.5453
 21
69.668
 31
0.0
  0
LINE
  8
0
 62
     0
 10
87.5453
 20
69.668
 30
0.0
 11
88.3447
 21
69.668
 31
0.0
  0
LINE
  8
0
 62
     0
 10
88.3447
 20
69.668
 30
0.0
 11
88.3447
 21
63.8679
 31
0.0
  0
LINE
  8
0
 62
     0
 10
88.3447
 20
63.8679
 30
0.0
 11
87.5453
 21
63.8679
 31
0.0
  0
LINE
  8
0
 62
     0
 10
87.5453
 20
63.8679
 30
0.0
 11
87.5453
 21
60.7688
 31
0.0
  0
LINE
  8
0
 62
     0
 10
87.5453
 20
60.7688
 30
0.0
 11
88.3447
 21
60.7688
 31
0.0
  0
LINE
  8
0
 62
     0
 10
88.3447
 20
60.7688
 30
0.0
 11
88.3447
 21
59.7683
 31
0.0
  0
LINE
  8
0
 62
     0
 10
88.3447
 20
59.7683
 30
0.0
 11
102.344
 21
59.7683
 31
0.0
  0
LINE
  8
0
 62
     0
 10
102.344
 20
59.7683
 30
0.0
 11
102.344
 21
60.7688
 31
0.0
  0
LINE
  8
0
 62
     0
 10
102.344
 20
60.7688
 30
0.0
 11
103.145
 21
60.7688
 31
0.0
  0
LINE
  8
0
 62
     0
 10
103.145
 20
60.7688
 30
0.0
 11
103.145
 21
63.8679
 31
0.0
  0
LINE
  8
0
 62
     0
 10
103.145
 20
63.8679
 30
0.0
 11
102.344
 21
63.8679
 31
0.0
  0
LINE
  8
0
 62
     0
 10
102.344
 20
63.8679
 30
0.0
 11
102.344
 21
69.668
 31
0.0
  0
LINE
  8
0
 62
     0
 10
102.344
 20
69.668
 30
0.0
 11
103.145
 21
69.668
 31
0.0
  0
LINE
  8
0
 62
     0
 10
103.145
 20
69.668
 30
0.0
 11
103.145
 21
72.7685
 31
0.0
  0
LINE
  8
0
 62
     0
 10
103.145
 20
72.7685
 30
0.0
 11
102.344
 21
72.7685
 31
0.0
  0
LINE
  8
0
 62
     0
 10
102.344
 20
72.7685
 30
0.0
 11
102.344
 21
73.7676
 31
0.0
  0
LINE
  8
0
 62
     0
 10
102.344
 20
73.7676
 30
0.0
 11
88.3447
 21
73.7676
 31
0.0
  0
LINE
  8
0
 62
     0
 10
107.395
 20
73.7676
 30
0.0
 11
107.395
 21
72.7685
 31
0.0
  0
LINE
  8
0
 62
     0
 10
107.395
 20
72.7685
 30
0.0
 11
106.595
 21
72.7685
 31
0.0
  0
LINE
  8
0
 62
     0
 10
106.595
 20
72.7685
 30
0.0
 11
106.595
 21
69.668
 31
0.0
  0
LINE
  8
0
 62
     0
 10
106.595
 20
69.668
 30
0.0
 11
107.395
 21
69.668
 31
0.0
  0
LINE
  8
0
 62
     0
 10
107.395
 20
69.668
 30
0.0
 11
107.395
 21
63.8679
 31
0.0
  0
LINE
  8
0
 62
     0
 10
107.395
 20
63.8679
 30
0.0
 11
106.595
 21
63.8679
 31
0.0
  0
LINE
  8
0
 62
     0
 10
106.595
 20
63.8679
 30
0.0
 11
106.595
 21
60.7688
 31
0.0
  0
LINE
  8
0
 62
     0
 10
106.595
 20
60.7688
 30
0.0
 11
107.395
 21
60.7688
 31
0.0
  0
LINE
  8
0
 62
     0
 10
107.395
 20
60.7688
 30
0.0
 11
107.395
 21
59.7683
 31
0.0
  0
LINE
  8
0
 62
     0
 10
107.395
 20
59.7683
 30
0.0
 11
121.394
 21
59.7683
 31
0.0
  0
LINE
  8
0
 62
     0
 10
121.394
 20
59.7683
 30
0.0
 11
121.394
 21
60.7688
 31
0.0
  0
LINE
  8
0
 62
     0
 10
121.394
 20
60.7688
 30
0.0
 11
122.195
 21
60.7688
 31
0.0
  0
LINE
  8
0
 62
     0
 10
122.195
 20
60.7688
 30
0.0
 11
122.195
 21
63.8679
 31
0.0
  0
LINE
  8
0
 62
     0
 10
122.195
 20
63.8679
 30
0.0
 11
121.394
 21
63.8679
 31
0.0
  0
LINE
  8
0
 62
     0
 10
121.394
 20
63.8679
 30
0.0
 11
121.394
 21
69.668
 31
0.0
  0
LINE
  8
0
 62
     0
 10
121.394
 20
69.668
 30
0.0
 11
122.195
 21
69.668
 31
0.0
  0
LINE
  8
0
 62
     0
 10
122.195
 20
69.668
 30
0.0
 11
122.195
 21
72.7685
 31
0.0
  0
LINE
  8
0
 62
     0
 10
122.195
 20
72.7685
 30
0.0
 11
121.394
 21
72.7685
 31
0.0
  0
LINE
  8
0
 62
     0
 10
121.394
 20
72.7685
 30
0.0
 11
121.394
 21
73.7676
 31
0.0
  0
LINE
  8
0
 62
     0
 10
121.394
 20
73.7676
 30
0.0
 11
107.395
 21
73.7676
 31
0.0
  0
LINE
  8
0
 62
     0
 10
126.445
 20
73.7676
 30
0.0
 11
126.445
 21
72.7685
 31
0.0
  0
LINE
  8
0
 62
     0
 10
126.445
 20
72.7685
 30
0.0
 11
125.644
 21
72.7685
 31
0.0
  0
LINE
  8
0
 62
     0
 10
125.644
 20
72.7685
 30
0.0
 11
125.644
 21
69.668
 31
0.0
  0
LINE
  8
0
 62
     0
 10
125.644
 20
69.668
 30
0.0
 11
126.445
 21
69.668
 31
0.0
  0
LINE
  8
0
 62
     0
 10
126.445
 20
69.668
 30
0.0
 11
126.445
 21
63.8679
 31
0.0
  0
LINE
  8
0
 62
     0
 10
126.445
 20
63.8679
 30
0.0
 11
125.644
 21
63.8679
 31
0.0
  0
LINE
  8
0
 62
     0
 10
125.644
 20
63.8679
 30
0.0
 11
125.644
 21
60.7688
 31
0.0
  0
LINE
  8
0
 62
     0
 10
125.644
 20
60.7688
 30
0.0
 11
126.445
 21
60.7688
 31
0.0
  0
LINE
  8
0
 62
     0
 10
126.445
 20
60.7688
 30
0.0
 11
126.445
 21
59.7683
 31
0.0
  0
LINE
  8
0
 62
     0
 10
126.445
 20
59.7683
 30
0.0
 11
140.444
 21
59.7683
 31
0.0
  0
LINE
  8
0
 62
     0
 10
140.444
 20
59.7683
 30
0.0
 11
140.444
 21
60.7688
 31
0.0
  0
LINE
  8
0
 62
     0
 10
140.444
 20
60.7688
 30
0.0
 11
141.245
 21
60.7688
 31
0.0
  0
LINE
  8
0
 62
     0
 10
141.245
 20
60.7688
 30
0.0
 11
141.245
 21
63.8679
 31
0.0
  0
LINE
  8
0
 62
     0
 10
141.245
 20
63.8679
 30
0.0
 11
140.444
 21
63.8679
 31
0.0
  0
LINE
  8
0
 62
     0
 10
140.444
 20
63.8679
 30
0.0
 11
140.444
 21
69.668
 31
0.0
  0
LINE
  8
0
 62
     0
 10
140.444
 20
69.668
 30
0.0
 11
141.245
 21
69.668
 31
0.0
  0
LINE
  8
0
 62
     0
 10
141.245
 20
69.668
 30
0.0
 11
141.245
 21
72.7685
 31
0.0
  0
LINE
  8
0
 62
     0
 10
141.245
 20
72.7685
 30
0.0
 11
140.444
 21
72.7685
 31
0.0
  0
LINE
  8
0
 62
     0
 10
140.444
 20
72.7685
 30
0.0
 11
140.444
 21
73.7676
 31
0.0
  0
LINE
  8
0
 62
     0
 10
140.444
 20
73.7676
 30
0.0
 11
126.445
 21
73.7676
 31
0.0
  0
LINE
  8
0
 62
     0
 10
145.495
 20
73.7676
 30
0.0
 11
145.495
 21
72.7685
 31
0.0
  0
LINE
  8
0
 62
     0
 10
145.495
 20
72.7685
 30
0.0
 11
144.695
 21
72.7685
 31
0.0
  0
LINE
  8
0
 62
     0
 10
144.695
 20
72.7685
 30
0.0
 11
144.695
 21
69.668
 31
0.0
  0
LINE
  8
0
 62
     0
 10
144.695
 20
69.668
 30
0.0
 11
145.495
 21
69.668
 31
0.0
  0
LINE
  8
0
 62
     0
 10
145.495
 20
69.668
 30
0.0
 11
145.495
 21
63.8679
 31
0.0
  0
LINE
  8
0
 62
     0
 10
145.495
 20
63.8679
 30
0.0
 11
144.695
 21
63.8679
 31
0.0
  0
LINE
  8
0
 62
     0
 10
144.695
 20
63.8679
 30
0.0
 11
144.695
 21
60.7688
 31
0.0
  0
LINE
  8
0
 62
     0
 10
144.695
 20
60.7688
 30
0.0
 11
145.495
 21
60.7688
 31
0.0
  0
LINE
  8
0
 62
     0
 10
145.495
 20
60.7688
 30
0.0
 11
145.495
 21
59.7683
 31
0.0
  0
LINE
  8
0
 62
     0
 10
145.495
 20
59.7683
 30
0.0
 11
159.494
 21
59.7683
 31
0.0
  0
LINE
  8
0
 62
     0
 10
159.494
 20
59.7683
 30
0.0
 11
159.494
 21
60.7688
 31
0.0
  0
LINE
  8
0
 62
     0
 10
159.494
 20
60.7688
 30
0.0
 11
160.295
 21
60.7688
 31
0.0
  0
LINE
  8
0
 62
     0
 10
160.295
 20
60.7688
 30
0.0
 11
160.295
 21
63.8679
 31
0.0
  0
LINE
  8
0
 62
     0
 10
160.295
 20
63.8679
 30
0.0
 11
159.494
 21
63.8679
 31
0.0
  0
LINE
  8
0
 62
     0
 10
159.494
 20
63.8679
 30
0.0
 11
159.494
 21
69.668
 31
0.0
  0
LINE
  8
0
 62
     0
 10
159.494
 20
69.668
 30
0.0
 11
160.295
 21
69.668
 31
0.0
  0
LINE
  8
0
 62
     0
 10
160.295
 20
69.668
 30
0.0
 11
160.295
 21
72.7685
 31
0.0
  0
LINE
  8
0
 62
     0
 10
160.295
 20
72.7685
 30
0.0
 11
159.494
 21
72.7685
 31
0.0
  0
LINE
  8
0
 62
     0
 10
159.494
 20
72.7685
 30
0.0
 11
159.494
 21
73.7676
 31
0.0
  0
LINE
  8
0
 62
     0
 10
159.494
 20
73.7676
 30
0.0
 11
145.495
 21
73.7676
 31
0.0
  0
LINE
  8
0
 62
     0
 10
164.545
 20
73.7676
 30
0.0
 11
164.545
 21
72.7685
 31
0.0
  0
LINE
  8
0
 62
     0
 10
164.545
 20
72.7685
 30
0.0
 11
163.745
 21
72.7685
 31
0.0
  0
LINE
  8
0
 62
     0
 10
163.745
 20
72.7685
 30
0.0
 11
163.745
 21
69.668
 31
0.0
  0
LINE
  8
0
 62
     0
 10
163.745
 20
69.668
 30
0.0
 11
164.545
 21
69.668
 31
0.0
  0
LINE
  8
0
 62
     0
 10
164.545
 20
69.668
 30
0.0
 11
164.545
 21
63.8679
 31
0.0
  0
LINE
  8
0
 62
     0
 10
164.545
 20
63.8679
 30
0.0
 11
163.745
 21
63.8679
 31
0.0
  0
LINE
  8
0
 62
     0
 10
163.745
 20
63.8679
 30
0.0
 11
163.745
 21
60.7688
 31
0.0
  0
LINE
  8
0
 62
     0
 10
163.745
 20
60.7688
 30
0.0
 11
164.545
 21
60.7688
 31
0.0
  0
LINE
  8
0
 62
     0
 10
164.545
 20
60.7688
 30
0.0
 11
164.545
 21
59.7683
 31
0.0
  0
LINE
  8
0
 62
     0
 10
164.545
 20
59.7683
 30
0.0
 11
178.544
 21
59.7683
 31
0.0
  0
LINE
  8
0
 62
     0
 10
178.544
 20
59.7683
 30
0.0
 11
178.544
 21
60.7688
 31
0.0
  0
LINE
  8
0
 62
     0
 10
178.544
 20
60.7688
 30
0.0
 11
179.345
 21
60.7688
 31
0.0
  0
LINE
  8
0
 62
     0
 10
179.345
 20
60.7688
 30
0.0
 11
179.345
 21
63.8679
 31
0.0
  0
LINE
  8
0
 62
     0
 10
179.345
 20
63.8679
 30
0.0
 11
178.544
 21
63.8679
 31
0.0
  0
LINE
  8
0
 62
     0
 10
178.544
 20
63.8679
 30
0.0
 11
178.544
 21
69.668
 31
0.0
  0
LINE
  8
0
 62
     0
 10
178.544
 20
69.668
 30
0.0
 11
179.345
 21
69.668
 31
0.0
  0
LINE
  8
0
 62
     0
 10
179.345
 20
69.668
 30
0.0
 11
179.345
 21
72.7685
 31
0.0
  0
LINE
  8
0
 62
     0
 10
179.345
 20
72.7685
 30
0.0
 11
178.544
 21
72.7685
 31
0.0
  0
LINE
  8
0
 62
     0
 10
178.544
 20
72.7685
 30
0.0
 11
178.544
 21
73.7676
 31
0.0
  0
LINE
  8
0
 62
     0
 10
178.544
 20
73.7676
 30
0.0
 11
164.545
 21
73.7676
 31
0.0
  0
LINE
  8
0
 62
     0
 10
183.595
 20
73.7676
 30
0.0
 11
183.595
 21
72.7685
 31
0.0
  0
LINE
  8
0
 62
     0
 10
183.595
 20
72.7685
 30
0.0
 11
182.795
 21
72.7685
 31
0.0
  0
LINE
  8
0
 62
     0
 10
182.795
 20
72.7685
 30
0.0
 11
182.795
 21
69.668
 31
0.0
  0
LINE
  8
0
 62
     0
 10
182.795
 20
69.668
 30
0.0
 11
183.595
 21
69.668
 31
0.0
  0
LINE
  8
0
 62
     0
 10
183.595
 20
69.668
 30
0.0
 11
183.595
 21
63.8679
 31
0.0
  0
LINE
  8
0
 62
     0
 10
183.595
 20
63.8679
 30
0.0
 11
182.795
 21
63.8679
 31
0.0
  0
LINE
  8
0
 62
     0
 10
182.795
 20
63.8679
 30
0.0
 11
182.795
 21
60.7688
 31
0.0
  0
LINE
  8
0
 62
     0
 10
182.795
 20
60.7688
 30
0.0
 11
183.595
 21
60.7688
 31
0.0
  0
LINE
  8
0
 62
     0
 10
183.595
 20
60.7688
 30
0.0
 11
183.595
 21
59.7683
 31
0.0
  0
LINE
  8
0
 62
     0
 10
183.595
 20
59.7683
 30
0.0
 11
197.594
 21
59.7683
 31
0.0
  0
LINE
  8
0
 62
     0
 10
197.594
 20
59.7683
 30
0.0
 11
197.594
 21
60.7688
 31
0.0
  0
LINE
  8
0
 62
     0
 10
197.594
 20
60.7688
 30
0.0
 11
198.395
 21
60.7688
 31
0.0
  0
LINE
  8
0
 62
     0
 10
198.395
 20
60.7688
 30
0.0
 11
198.395
 21
63.8679
 31
0.0
  0
LINE
  8
0
 62
     0
 10
198.395
 20
63.8679
 30
0.0
 11
197.594
 21
63.8679
 31
0.0
  0
LINE
  8
0
 62
     0
 10
197.594
 20
63.8679
 30
0.0
 11
197.594
 21
69.668
 31
0.0
  0
LINE
  8
0
 62
     0
 10
197.594
 20
69.668
 30
0.0
 11
198.395
 21
69.668
 31
0.0
  0
LINE
  8
0
 62
     0
 10
198.395
 20
69.668
 30
0.0
 11
198.395
 21
72.7685
 31
0.0
  0
LINE
  8
0
 62
     0
 10
198.395
 20
72.7685
 30
0.0
 11
197.594
 21
72.7685
 31
0.0
  0
LINE
  8
0
 62
     0
 10
197.594
 20
72.7685
 30
0.0
 11
197.594
 21
73.7676
 31
0.0
  0
LINE
  8
0
 62
     0
 10
197.594
 20
73.7676
 30
0.0
 11
183.595
 21
73.7676
 31
0.0
  0
LINE
  8
0
 62
     0
 10
202.645
 20
73.7676
 30
0.0
 11
202.645
 21
72.7685
 31
0.0
  0
LINE
  8
0
 62
     0
 10
202.645
 20
72.7685
 30
0.0
 11
201.845
 21
72.7685
 31
0.0
  0
LINE
  8
0
 62
     0
 10
201.845
 20
72.7685
 30
0.0
 11
201.845
 21
69.668
 31
0.0
  0
LINE
  8
0
 62
     0
 10
201.845
 20
69.668
 30
0.0
 11
202.645
 21
69.668
 31
0.0
  0
LINE
  8
0
 62
     0
 10
202.645
 20
69.668
 30
0.0
 11
202.645
 21
63.8679
 31
0.0
  0
LINE
  8
0
 62
     0
 10
202.645
 20
63.8679
 30
0.0
 11
201.845
 21
63.8679
 31
0.0
  0
LINE
  8
0
 62
     0
 10
201.845
 20
63.8679
 30
0.0
 11
201.845
 21
60.7688
 31
0.0
  0
LINE
  8
0
 62
     0
 10
201.845
 20
60.7688
 30
0.0
 11
202.645
 21
60.7688
 31
0.0
  0
LINE
  8
0
 62
     0
 10
202.645
 20
60.7688
 30
0.0
 11
202.645
 21
59.7683
 31
0.0
  0
LINE
  8
0
 62
     0
 10
202.645
 20
59.7683
 30
0.0
 11
216.644
 21
59.7683
 31
0.0
  0
LINE
  8
0
 62
     0
 10
216.644
 20
59.7683
 30
0.0
 11
216.644
 21
60.7688
 31
0.0
  0
LINE
  8
0
 62
     0
 10
216.644
 20
60.7688
 30
0.0
 11
217.445
 21
60.7688
 31
0.0
  0
LINE
  8
0
 62
     0
 10
217.445
 20
60.7688
 30
0.0
 11
217.445
 21
63.8679
 31
0.0
  0
LINE
  8
0
 62
     0
 10
217.445
 20
63.8679
 30
0.0
 11
216.644
 21
63.8679
 31
0.0
  0
LINE
  8
0
 62
     0
 10
216.644
 20
63.8679
 30
0.0
 11
216.644
 21
69.668
 31
0.0
  0
LINE
  8
0
 62
     0
 10
216.644
 20
69.668
 30
0.0
 11
217.445
 21
69.668
 31
0.0
  0
LINE
  8
0
 62
     0
 10
217.445
 20
69.668
 30
0.0
 11
217.445
 21
72.7685
 31
0.0
  0
LINE
  8
0
 62
     0
 10
217.445
 20
72.7685
 30
0.0
 11
216.644
 21
72.7685
 31
0.0
  0
LINE
  8
0
 62
     0
 10
216.644
 20
72.7685
 30
0.0
 11
216.644
 21
73.7676
 31
0.0
  0
LINE
  8
0
 62
     0
 10
216.644
 20
73.7676
 30
0.0
 11
202.645
 21
73.7676
 31
0.0
  0
LINE
  8
0
 62
     0
 10
221.695
 20
73.7676
 30
0.0
 11
221.695
 21
72.7685
 31
0.0
  0
LINE
  8
0
 62
     0
 10
221.695
 20
72.7685
 30
0.0
 11
220.895
 21
72.7685
 31
0.0
  0
LINE
  8
0
 62
     0
 10
220.895
 20
72.7685
 30
0.0
 11
220.895
 21
69.668
 31
0.0
  0
LINE
  8
0
 62
     0
 10
220.895
 20
69.668
 30
0.0
 11
221.695
 21
69.668
 31
0.0
  0
LINE
  8
0
 62
     0
 10
221.695
 20
69.668
 30
0.0
 11
221.695
 21
63.8679
 31
0.0
  0
LINE
  8
0
 62
     0
 10
221.695
 20
63.8679
 30
0.0
 11
220.895
 21
63.8679
 31
0.0
  0
LINE
  8
0
 62
     0
 10
220.895
 20
63.8679
 30
0.0
 11
220.895
 21
60.7688
 31
0.0
  0
LINE
  8
0
 62
     0
 10
220.895
 20
60.7688
 30
0.0
 11
221.695
 21
60.7688
 31
0.0
  0
LINE
  8
0
 62
     0
 10
221.695
 20
60.7688
 30
0.0
 11
221.695
 21
59.7683
 31
0.0
  0
LINE
  8
0
 62
     0
 10
221.695
 20
59.7683
 30
0.0
 11
235.694
 21
59.7683
 31
0.0
  0
LINE
  8
0
 62
     0
 10
235.694
 20
59.7683
 30
0.0
 11
235.694
 21
60.7688
 31
0.0
  0
LINE
  8
0
 62
     0
 10
235.694
 20
60.7688
 30
0.0
 11
236.495
 21
60.7688
 31
0.0
  0
LINE
  8
0
 62
     0
 10
236.495
 20
60.7688
 30
0.0
 11
236.495
 21
63.8679
 31
0.0
  0
LINE
  8
0
 62
     0
 10
236.495
 20
63.8679
 30
0.0
 11
235.694
 21
63.8679
 31
0.0
  0
LINE
  8
0
 62
     0
 10
235.694
 20
63.8679
 30
0.0
 11
235.694
 21
69.668
 31
0.0
  0
LINE
  8
0
 62
     0
 10
235.694
 20
69.668
 30
0.0
 11
236.495
 21
69.668
 31
0.0
  0
LINE
  8
0
 62
     0
 10
236.495
 20
69.668
 30
0.0
 11
236.495
 21
72.7685
 31
0.0
  0
LINE
  8
0
 62
     0
 10
236.495
 20
72.7685
 30
0.0
 11
235.694
 21
72.7685
 31
0.0
  0
LINE
  8
0
 62
     0
 10
235.694
 20
72.7685
 30
0.0
 11
235.694
 21
73.7676
 31
0.0
  0
LINE
  8
0
 62
     0
 10
235.694
 20
73.7676
 30
0.0
 11
221.695
 21
73.7676
 31
0.0
  0
LINE
  8
0
 62
     0
 10
240.745
 20
73.7676
 30
0.0
 11
240.745
 21
72.7685
 31
0.0
  0
LINE
  8
0
 62
     0
 10
240.745
 20
72.7685
 30
0.0
 11
239.945
 21
72.7685
 31
0.0
  0
LINE
  8
0
 62
     0
 10
239.945
 20
72.7685
 30
0.0
 11
239.945
 21
69.668
 31
0.0
  0
LINE
  8
0
 62
     0
 10
239.945
 20
69.668
 30
0.0
 11
240.745
 21
69.668
 31
0.0
  0
LINE
  8
0
 62
     0
 10
240.745
 20
69.668
 30
0.0
 11
240.745
 21
63.8679
 31
0.0
  0
LINE
  8
0
 62
     0
 10
240.745
 20
63.8679
 30
0.0
 11
239.945
 21
63.8679
 31
0.0
  0
LINE
  8
0
 62
     0
 10
239.945
 20
63.8679
 30
0.0
 11
239.945
 21
60.7688
 31
0.0
  0
LINE
  8
0
 62
     0
 10
239.945
 20
60.7688
 30
0.0
 11
240.745
 21
60.7688
 31
0.0
  0
LINE
  8
0
 62
     0
 10
240.745
 20
60.7688
 30
0.0
 11
240.745
 21
59.7683
 31
0.0
  0
LINE
  8
0
 62
     0
 10
240.745
 20
59.7683
 30
0.0
 11
254.744
 21
59.7683
 31
0.0
  0
LINE
  8
0
 62
     0
 10
254.744
 20
59.7683
 30
0.0
 11
254.744
 21
60.7688
 31
0.0
  0
LINE
  8
0
 62
     0
 10
254.744
 20
60.7688
 30
0.0
 11
255.545
 21
60.7688
 31
0.0
  0
LINE
  8
0
 62
     0
 10
255.545
 20
60.7688
 30
0.0
 11
255.545
 21
63.8679
 31
0.0
  0
LINE
  8
0
 62
     0
 10
255.545
 20
63.8679
 30
0.0
 11
254.744
 21
63.8679
 31
0.0
  0
LINE
  8
0
 62
     0
 10
254.744
 20
63.8679
 30
0.0
 11
254.744
 21
69.668
 31
0.0
  0
LINE
  8
0
 62
     0
 10
254.744
 20
69.668
 30
0.0
 11
255.545
 21
69.668
 31
0.0
  0
LINE
  8
0
 62
     0
 10
255.545
 20
69.668
 30
0.0
 11
255.545
 21
72.7685
 31
0.0
  0
LINE
  8
0
 62
     0
 10
255.545
 20
72.7685
 30
0.0
 11
254.744
 21
72.7685
 31
0.0
  0
LINE
  8
0
 62
     0
 10
254.744
 20
72.7685
 30
0.0
 11
254.744
 21
73.7676
 31
0.0
  0
LINE
  8
0
 62
     0
 10
254.744
 20
73.7676
 30
0.0
 11
240.745
 21
73.7676
 31
0.0
  0
LINE
  8
0
 62
     0
 10
264.557
 20
73.7676
 30
0.0
 11
264.557
 21
72.7685
 31
0.0
  0
LINE
  8
0
 62
     0
 10
264.557
 20
72.7685
 30
0.0
 11
263.756
 21
72.7685
 31
0.0
  0
LINE
  8
0
 62
     0
 10
263.756
 20
72.7685
 30
0.0
 11
263.756
 21
69.668
 31
0.0
  0
LINE
  8
0
 62
     0
 10
263.756
 20
69.668
 30
0.0
 11
264.557
 21
69.668
 31
0.0
  0
LINE
  8
0
 62
     0
 10
264.557
 20
69.668
 30
0.0
 11
264.557
 21
63.8679
 31
0.0
  0
LINE
  8
0
 62
     0
 10
264.557
 20
63.8679
 30
0.0
 11
263.756
 21
63.8679
 31
0.0
  0
LINE
  8
0
 62
     0
 10
263.756
 20
63.8679
 30
0.0
 11
263.756
 21
60.7688
 31
0.0
  0
LINE
  8
0
 62
     0
 10
263.756
 20
60.7688
 30
0.0
 11
264.557
 21
60.7688
 31
0.0
  0
LINE
  8
0
 62
     0
 10
264.557
 20
60.7688
 30
0.0
 11
264.557
 21
59.7683
 31
0.0
  0
LINE
  8
0
 62
     0
 10
264.557
 20
59.7683
 30
0.0
 11
278.557
 21
59.7683
 31
0.0
  0
LINE
  8
0
 62
     0
 10
278.557
 20
59.7683
 30
0.0
 11
278.557
 21
60.7688
 31
0.0
  0
LINE
  8
0
 62
     0
 10
278.557
 20
60.7688
 30
0.0
 11
279.357
 21
60.7688
 31
0.0
  0
LINE
  8
0
 62
     0
 10
279.357
 20
60.7688
 30
0.0
 11
279.357
 21
63.8679
 31
0.0
  0
LINE
  8
0
 62
     0
 10
279.357
 20
63.8679
 30
0.0
 11
278.557
 21
63.8679
 31
0.0
  0
LINE
  8
0
 62
     0
 10
278.557
 20
63.8679
 30
0.0
 11
278.557
 21
69.668
 31
0.0
  0
LINE
  8
0
 62
     0
 10
278.557
 20
69.668
 30
0.0
 11
279.357
 21
69.668
 31
0.0
  0
LINE
  8
0
 62
     0
 10
279.357
 20
69.668
 30
0.0
 11
279.357
 21
72.7685
 31
0.0
  0
LINE
  8
0
 62
     0
 10
279.357
 20
72.7685
 30
0.0
 11
278.557
 21
72.7685
 31
0.0
  0
LINE
  8
0
 62
     0
 10
278.557
 20
72.7685
 30
0.0
 11
278.557
 21
73.7676
 31
0.0
  0
LINE
  8
0
 62
     0
 10
278.557
 20
73.7676
 30
0.0
 11
264.557
 21
73.7676
 31
0.0
  0
LINE
  8
0
 62
     0
 10
297.895
 20
73.7676
 30
0.0
 11
297.895
 21
72.7685
 31
0.0
  0
LINE
  8
0
 62
     0
 10
297.895
 20
72.7685
 30
0.0
 11
297.095
 21
72.7685
 31
0.0
  0
LINE
  8
0
 62
     0
 10
297.095
 20
72.7685
 30
0.0
 11
297.095
 21
69.668
 31
0.0
  0
LINE
  8
0
 62
     0
 10
297.095
 20
69.668
 30
0.0
 11
297.895
 21
69.668
 31
0.0
  0
LINE
  8
0
 62
     0
 10
297.895
 20
69.668
 30
0.0
 11
297.895
 21
63.8679
 31
0.0
  0
LINE
  8
0
 62
     0
 10
297.895
 20
63.8679
 30
0.0
 11
297.095
 21
63.8679
 31
0.0
  0
LINE
  8
0
 62
     0
 10
297.095
 20
63.8679
 30
0.0
 11
297.095
 21
60.7688
 31
0.0
  0
LINE
  8
0
 62
     0
 10
297.095
 20
60.7688
 30
0.0
 11
297.895
 21
60.7688
 31
0.0
  0
LINE
  8
0
 62
     0
 10
297.895
 20
60.7688
 30
0.0
 11
297.895
 21
59.7683
 31
0.0
  0
LINE
  8
0
 62
     0
 10
297.895
 20
59.7683
 30
0.0
 11
311.894
 21
59.7683
 31
0.0
  0
LINE
  8
0
 62
     0
 10
311.894
 20
59.7683
 30
0.0
 11
311.894
 21
60.7688
 31
0.0
  0
LINE
  8
0
 62
     0
 10
311.894
 20
60.7688
 30
0.0
 11
312.695
 21
60.7688
 31
0.0
  0
LINE
  8
0
 62
     0
 10
312.695
 20
60.7688
 30
0.0
 11
312.695
 21
63.8679
 31
0.0
  0
LINE
  8
0
 62
     0
 10
312.695
 20
63.8679
 30
0.0
 11
311.894
 21
63.8679
 31
0.0
  0
LINE
  8
0
 62
     0
 10
311.894
 20
63.8679
 30
0.0
 11
311.894
 21
69.668
 31
0.0
  0
LINE
  8
0
 62
     0
 10
311.894
 20
69.668
 30
0.0
 11
312.695
 21
69.668
 31
0.0
  0
LINE
  8
0
 62
     0
 10
312.695
 20
69.668
 30
0.0
 11
312.695
 21
72.7685
 31
0.0
  0
LINE
  8
0
 62
     0
 10
312.695
 20
72.7685
 30
0.0
 11
311.894
 21
72.7685
 31
0.0
  0
LINE
  8
0
 62
     0
 10
311.894
 20
72.7685
 30
0.0
 11
311.894
 21
73.7676
 31
0.0
  0
LINE
  8
0
 62
     0
 10
311.894
 20
73.7676
 30
0.0
 11
297.895
 21
73.7676
 31
0.0
  0
LINE
  8
0
 62
     0
 10
316.945
 20
73.7676
 30
0.0
 11
316.945
 21
72.7685
 31
0.0
  0
LINE
  8
0
 62
     0
 10
316.945
 20
72.7685
 30
0.0
 11
316.145
 21
72.7685
 31
0.0
  0
LINE
  8
0
 62
     0
 10
316.145
 20
72.7685
 30
0.0
 11
316.145
 21
69.668
 31
0.0
  0
LINE
  8
0
 62
     0
 10
316.145
 20
69.668
 30
0.0
 11
316.945
 21
69.668
 31
0.0
  0
LINE
  8
0
 62
     0
 10
316.945
 20
69.668
 30
0.0
 11
316.945
 21
63.8679
 31
0.0
  0
LINE
  8
0
 62
     0
 10
316.945
 20
63.8679
 30
0.0
 11
316.145
 21
63.8679
 31
0.0
  0
LINE
  8
0
 62
     0
 10
316.145
 20
63.8679
 30
0.0
 11
316.145
 21
60.7688
 31
0.0
  0
LINE
  8
0
 62
     0
 10
316.145
 20
60.7688
 30
0.0
 11
316.945
 21
60.7688
 31
0.0
  0
LINE
  8
0
 62
     0
 10
316.945
 20
60.7688
 30
0.0
 11
316.945
 21
59.7683
 31
0.0
  0
LINE
  8
0
 62
     0
 10
316.945
 20
59.7683
 30
0.0
 11
330.944
 21
59.7683
 31
0.0
  0
LINE
  8
0
 62
     0
 10
330.944
 20
59.7683
 30
0.0
 11
330.944
 21
60.7688
 31
0.0
  0
LINE
  8
0
 62
     0
 10
330.944
 20
60.7688
 30
0.0
 11
331.745
 21
60.7688
 31
0.0
  0
LINE
  8
0
 62
     0
 10
331.745
 20
60.7688
 30
0.0
 11
331.745
 21
63.8679
 31
0.0
  0
LINE
  8
0
 62
     0
 10
331.745
 20
63.8679
 30
0.0
 11
330.944
 21
63.8679
 31
0.0
  0
LINE
  8
0
 62
     0
 10
330.944
 20
63.8679
 30
0.0
 11
330.944
 21
69.668
 31
0.0
  0
LINE
  8
0
 62
     0
 10
330.944
 20
69.668
 30
0.0
 11
331.745
 21
69.668
 31
0.0
  0
LINE
  8
0
 62
     0
 10
331.745
 20
69.668
 30
0.0
 11
331.745
 21
72.7685
 31
0.0
  0
LINE
  8
0
 62
     0
 10
331.745
 20
72.7685
 30
0.0
 11
330.944
 21
72.7685
 31
0.0
  0
LINE
  8
0
 62
     0
 10
330.944
 20
72.7685
 30
0.0
 11
330.944
 21
73.7676
 31
0.0
  0
LINE
  8
0
 62
     0
 10
330.944
 20
73.7676
 30
0.0
 11
316.945
 21
73.7676
 31
0.0
  0
LINE
  8
0
 62
     0
 10
335.995
 20
73.7676
 30
0.0
 11
335.995
 21
72.7685
 31
0.0
  0
LINE
  8
0
 62
     0
 10
335.995
 20
72.7685
 30
0.0
 11
335.195
 21
72.7685
 31
0.0
  0
LINE
  8
0
 62
     0
 10
335.195
 20
72.7685
 30
0.0
 11
335.195
 21
69.668
 31
0.0
  0
LINE
  8
0
 62
     0
 10
335.195
 20
69.668
 30
0.0
 11
335.995
 21
69.668
 31
0.0
  0
LINE
  8
0
 62
     0
 10
335.995
 20
69.668
 30
0.0
 11
335.995
 21
63.8679
 31
0.0
  0
LINE
  8
0
 62
     0
 10
335.995
 20
63.8679
 30
0.0
 11
335.195
 21
63.8679
 31
0.0
  0
LINE
  8
0
 62
     0
 10
335.195
 20
63.8679
 30
0.0
 11
335.195
 21
60.7688
 31
0.0
  0
LINE
  8
0
 62
     0
 10
335.195
 20
60.7688
 30
0.0
 11
335.995
 21
60.7688
 31
0.0
  0
LINE
  8
0
 62
     0
 10
335.995
 20
60.7688
 30
0.0
 11
335.995
 21
59.7683
 31
0.0
  0
LINE
  8
0
 62
     0
 10
335.995
 20
59.7683
 30
0.0
 11
349.994
 21
59.7683
 31
0.0
  0
LINE
  8
0
 62
     0
 10
349.994
 20
59.7683
 30
0.0
 11
349.994
 21
60.7688
 31
0.0
  0
LINE
  8
0
 62
     0
 10
349.994
 20
60.7688
 30
0.0
 11
350.795
 21
60.7688
 31
0.0
  0
LINE
  8
0
 62
     0
 10
350.795
 20
60.7688
 30
0.0
 11
350.795
 21
63.8679
 31
0.0
  0
LINE
  8
0
 62
     0
 10
350.795
 20
63.8679
 30
0.0
 11
349.994
 21
63.8679
 31
0.0
  0
LINE
  8
0
 62
     0
 10
349.994
 20
63.8679
 30
0.0
 11
349.994
 21
69.668
 31
0.0
  0
LINE
  8
0
 62
     0
 10
349.994
 20
69.668
 30
0.0
 11
350.795
 21
69.668
 31
0.0
  0
LINE
  8
0
 62
     0
 10
350.795
 20
69.668
 30
0.0
 11
350.795
 21
72.7685
 31
0.0
  0
LINE
  8
0
 62
     0
 10
350.795
 20
72.7685
 30
0.0
 11
349.994
 21
72.7685
 31
0.0
  0
LINE
  8
0
 62
     0
 10
349.994
 20
72.7685
 30
0.0
 11
349.994
 21
73.7676
 31
0.0
  0
LINE
  8
0
 62
     0
 10
349.994
 20
73.7676
 30
0.0
 11
335.995
 21
73.7676
 31
0.0
  0
LINE
  8
0
 62
     0
 10
259.795
 20
92.8176
 30
0.0
 11
259.795
 21
91.8185
 31
0.0
  0
LINE
  8
0
 62
     0
 10
259.795
 20
91.8185
 30
0.0
 11
258.995
 21
91.8185
 31
0.0
  0
LINE
  8
0
 62
     0
 10
258.995
 20
91.8185
 30
0.0
 11
258.995
 21
88.718
 31
0.0
  0
LINE
  8
0
 62
     0
 10
258.995
 20
88.718
 30
0.0
 11
259.795
 21
88.718
 31
0.0
  0
LINE
  8
0
 62
     0
 10
259.795
 20
88.718
 30
0.0
 11
259.795
 21
88.1186
 31
0.0
  0
LINE
  8
0
 62
     0
 10
259.795
 20
88.1186
 30
0.0
 11
258.269
 21
88.1186
 31
0.0
  0
LINE
  8
0
 62
     0
 10
258.269
 20
88.1186
 30
0.0
 11
258.269
 21
91.3486
 31
0.0
  0
LINE
  8
0
 62
     0
 10
258.269
 20
91.3486
 30
0.0
 11
256.545
 21
91.3486
 31
0.0
  0
LINE
  8
0
 62
     0
 10
256.545
 20
91.3486
 30
0.0
 11
256.545
 21
92.268
 31
0.0
  0
LINE
  8
0
 62
     0
 10
256.545
 20
92.268
 30
0.0
 11
253.243
 21
92.268
 31
0.0
  0
LINE
  8
0
 62
     0
 10
253.243
 20
92.268
 30
0.0
 11
253.243
 21
91.3486
 31
0.0
  0
LINE
  8
0
 62
     0
 10
253.243
 20
91.3486
 30
0.0
 11
251.52
 21
91.3486
 31
0.0
  0
LINE
  8
0
 62
     0
 10
251.52
 20
91.3486
 30
0.0
 11
251.52
 21
88.1186
 31
0.0
  0
LINE
  8
0
 62
     0
 10
251.52
 20
88.1186
 30
0.0
 11
250.694
 21
88.1186
 31
0.0
  0
LINE
  8
0
 62
     0
 10
250.694
 20
88.1186
 30
0.0
 11
250.694
 21
85.3186
 31
0.0
  0
LINE
  8
0
 62
     0
 10
250.694
 20
85.3186
 30
0.0
 11
251.52
 21
85.3186
 31
0.0
  0
LINE
  8
0
 62
     0
 10
251.52
 20
85.3186
 30
0.0
 11
251.52
 21
79.0483
 31
0.0
  0
LINE
  8
0
 62
     0
 10
251.52
 20
79.0483
 30
0.0
 11
253.243
 21
79.0483
 31
0.0
  0
LINE
  8
0
 62
     0
 10
253.243
 20
79.0483
 30
0.0
 11
253.243
 21
78.0687
 31
0.0
  0
LINE
  8
0
 62
     0
 10
253.243
 20
78.0687
 30
0.0
 11
256.545
 21
78.0687
 31
0.0
  0
LINE
  8
0
 62
     0
 10
256.545
 20
78.0687
 30
0.0
 11
256.545
 21
79.0483
 31
0.0
  0
LINE
  8
0
 62
     0
 10
256.545
 20
79.0483
 30
0.0
 11
258.269
 21
79.0483
 31
0.0
  0
LINE
  8
0
 62
     0
 10
258.269
 20
79.0483
 30
0.0
 11
258.269
 21
83.5187
 31
0.0
  0
LINE
  8
0
 62
     0
 10
258.269
 20
83.5187
 30
0.0
 11
259.795
 21
83.5187
 31
0.0
  0
LINE
  8
0
 62
     0
 10
259.795
 20
83.5187
 30
0.0
 11
259.795
 21
82.9179
 31
0.0
  0
LINE
  8
0
 62
     0
 10
259.795
 20
82.9179
 30
0.0
 11
258.995
 21
82.9179
 31
0.0
  0
LINE
  8
0
 62
     0
 10
258.995
 20
82.9179
 30
0.0
 11
258.995
 21
79.8188
 31
0.0
  0
LINE
  8
0
 62
     0
 10
258.995
 20
79.8188
 30
0.0
 11
259.795
 21
79.8188
 31
0.0
  0
LINE
  8
0
 62
     0
 10
259.795
 20
79.8188
 30
0.0
 11
259.795
 21
78.8183
 31
0.0
  0
LINE
  8
0
 62
     0
 10
259.795
 20
78.8183
 30
0.0
 11
273.794
 21
78.8183
 31
0.0
  0
LINE
  8
0
 62
     0
 10
273.794
 20
78.8183
 30
0.0
 11
273.794
 21
79.8188
 31
0.0
  0
LINE
  8
0
 62
     0
 10
273.794
 20
79.8188
 30
0.0
 11
274.595
 21
79.8188
 31
0.0
  0
LINE
  8
0
 62
     0
 10
274.595
 20
79.8188
 30
0.0
 11
274.595
 21
82.9179
 31
0.0
  0
LINE
  8
0
 62
     0
 10
274.595
 20
82.9179
 30
0.0
 11
273.794
 21
82.9179
 31
0.0
  0
LINE
  8
0
 62
     0
 10
273.794
 20
82.9179
 30
0.0
 11
273.794
 21
83.5187
 31
0.0
  0
LINE
  8
0
 62
     0
 10
273.794
 20
83.5187
 30
0.0
 11
275.32
 21
83.5187
 31
0.0
  0
LINE
  8
0
 62
     0
 10
275.32
 20
83.5187
 30
0.0
 11
275.32
 21
79.0483
 31
0.0
  0
LINE
  8
0
 62
     0
 10
275.32
 20
79.0483
 30
0.0
 11
277.045
 21
79.0483
 31
0.0
  0
LINE
  8
0
 62
     0
 10
277.045
 20
79.0483
 30
0.0
 11
277.045
 21
78.0687
 31
0.0
  0
LINE
  8
0
 62
     0
 10
277.045
 20
78.0687
 30
0.0
 11
280.345
 21
78.0687
 31
0.0
  0
LINE
  8
0
 62
     0
 10
280.345
 20
78.0687
 30
0.0
 11
280.345
 21
79.0483
 31
0.0
  0
LINE
  8
0
 62
     0
 10
280.345
 20
79.0483
 30
0.0
 11
282.069
 21
79.0483
 31
0.0
  0
LINE
  8
0
 62
     0
 10
282.069
 20
79.0483
 30
0.0
 11
282.069
 21
85.3186
 31
0.0
  0
LINE
  8
0
 62
     0
 10
282.069
 20
85.3186
 30
0.0
 11
282.895
 21
85.3186
 31
0.0
  0
LINE
  8
0
 62
     0
 10
282.895
 20
85.3186
 30
0.0
 11
282.895
 21
88.1186
 31
0.0
  0
LINE
  8
0
 62
     0
 10
282.895
 20
88.1186
 30
0.0
 11
282.069
 21
88.1186
 31
0.0
  0
LINE
  8
0
 62
     0
 10
282.069
 20
88.1186
 30
0.0
 11
282.069
 21
91.3486
 31
0.0
  0
LINE
  8
0
 62
     0
 10
282.069
 20
91.3486
 30
0.0
 11
280.345
 21
91.3486
 31
0.0
  0
LINE
  8
0
 62
     0
 10
280.345
 20
91.3486
 30
0.0
 11
280.345
 21
92.268
 31
0.0
  0
LINE
  8
0
 62
     0
 10
280.345
 20
92.268
 30
0.0
 11
277.045
 21
92.268
 31
0.0
  0
LINE
  8
0
 62
     0
 10
277.045
 20
92.268
 30
0.0
 11
277.045
 21
91.3486
 31
0.0
  0
LINE
  8
0
 62
     0
 10
277.045
 20
91.3486
 30
0.0
 11
275.32
 21
91.3486
 31
0.0
  0
LINE
  8
0
 62
     0
 10
275.32
 20
91.3486
 30
0.0
 11
275.32
 21
88.1186
 31
0.0
  0
LINE
  8
0
 62
     0
 10
275.32
 20
88.1186
 30
0.0
 11
273.794
 21
88.1186
 31
0.0
  0
LINE
  8
0
 62
     0
 10
273.794
 20
88.1186
 30
0.0
 11
273.794
 21
88.718
 31
0.0
  0
LINE
  8
0
 62
     0
 10
273.794
 20
88.718
 30
0.0
 11
274.595
 21
88.718
 31
0.0
  0
LINE
  8
0
 62
     0
 10
274.595
 20
88.718
 30
0.0
 11
274.595
 21
91.8185
 31
0.0
  0
LINE
  8
0
 62
     0
 10
274.595
 20
91.8185
 30
0.0
 11
273.794
 21
91.8185
 31
0.0
  0
LINE
  8
0
 62
     0
 10
273.794
 20
91.8185
 30
0.0
 11
273.794
 21
92.8176
 31
0.0
  0
LINE
  8
0
 62
     0
 10
273.794
 20
92.8176
 30
0.0
 11
259.795
 21
92.8176
 31
0.0
  0
LINE
  8
0
 62
     0
 10
2.61965
 20
92.8176
 30
0.0
 11
2.61965
 21
91.8185
 31
0.0
  0
LINE
  8
0
 62
     0
 10
2.61965
 20
91.8185
 30
0.0
 11
1.82039
 21
91.8185
 31
0.0
  0
LINE
  8
0
 62
     0
 10
1.82039
 20
91.8185
 30
0.0
 11
1.82039
 21
88.718
 31
0.0
  0
LINE
  8
0
 62
     0
 10
1.82039
 20
88.718
 30
0.0
 11
2.61965
 21
88.718
 31
0.0
  0
LINE
  8
0
 62
     0
 10
2.61965
 20
88.718
 30
0.0
 11
2.61965
 21
82.9179
 31
0.0
  0
LINE
  8
0
 62
     0
 10
2.61965
 20
82.9179
 30
0.0
 11
1.82039
 21
82.9179
 31
0.0
  0
LINE
  8
0
 62
     0
 10
1.82039
 20
82.9179
 30
0.0
 11
1.82039
 21
79.8188
 31
0.0
  0
LINE
  8
0
 62
     0
 10
1.82039
 20
79.8188
 30
0.0
 11
2.61965
 21
79.8188
 31
0.0
  0
LINE
  8
0
 62
     0
 10
2.61965
 20
79.8188
 30
0.0
 11
2.61965
 21
78.8183
 31
0.0
  0
LINE
  8
0
 62
     0
 10
2.61965
 20
78.8183
 30
0.0
 11
16.6192
 21
78.8183
 31
0.0
  0
LINE
  8
0
 62
     0
 10
16.6192
 20
78.8183
 30
0.0
 11
16.6192
 21
79.8188
 31
0.0
  0
LINE
  8
0
 62
     0
 10
16.6192
 20
79.8188
 30
0.0
 11
17.4198
 21
79.8188
 31
0.0
  0
LINE
  8
0
 62
     0
 10
17.4198
 20
79.8188
 30
0.0
 11
17.4198
 21
82.9179
 31
0.0
  0
LINE
  8
0
 62
     0
 10
17.4198
 20
82.9179
 30
0.0
 11
16.6192
 21
82.9179
 31
0.0
  0
LINE
  8
0
 62
     0
 10
16.6192
 20
82.9179
 30
0.0
 11
16.6192
 21
88.718
 31
0.0
  0
LINE
  8
0
 62
     0
 10
16.6192
 20
88.718
 30
0.0
 11
17.4198
 21
88.718
 31
0.0
  0
LINE
  8
0
 62
     0
 10
17.4198
 20
88.718
 30
0.0
 11
17.4198
 21
91.8185
 31
0.0
  0
LINE
  8
0
 62
     0
 10
17.4198
 20
91.8185
 30
0.0
 11
16.6192
 21
91.8185
 31
0.0
  0
LINE
  8
0
 62
     0
 10
16.6192
 20
91.8185
 30
0.0
 11
16.6192
 21
92.8176
 31
0.0
  0
LINE
  8
0
 62
     0
 10
16.6192
 20
92.8176
 30
0.0
 11
2.61965
 21
92.8176
 31
0.0
  0
LINE
  8
0
 62
     0
 10
21.6697
 20
92.8176
 30
0.0
 11
21.6697
 21
91.8185
 31
0.0
  0
LINE
  8
0
 62
     0
 10
21.6697
 20
91.8185
 30
0.0
 11
20.8704
 21
91.8185
 31
0.0
  0
LINE
  8
0
 62
     0
 10
20.8704
 20
91.8185
 30
0.0
 11
20.8704
 21
88.718
 31
0.0
  0
LINE
  8
0
 62
     0
 10
20.8704
 20
88.718
 30
0.0
 11
21.6697
 21
88.718
 31
0.0
  0
LINE
  8
0
 62
     0
 10
21.6697
 20
88.718
 30
0.0
 11
21.6697
 21
82.9179
 31
0.0
  0
LINE
  8
0
 62
     0
 10
21.6697
 20
82.9179
 30
0.0
 11
20.8704
 21
82.9179
 31
0.0
  0
LINE
  8
0
 62
     0
 10
20.8704
 20
82.9179
 30
0.0
 11
20.8704
 21
79.8188
 31
0.0
  0
LINE
  8
0
 62
     0
 10
20.8704
 20
79.8188
 30
0.0
 11
21.6697
 21
79.8188
 31
0.0
  0
LINE
  8
0
 62
     0
 10
21.6697
 20
79.8188
 30
0.0
 11
21.6697
 21
78.8183
 31
0.0
  0
LINE
  8
0
 62
     0
 10
21.6697
 20
78.8183
 30
0.0
 11
35.669
 21
78.8183
 31
0.0
  0
LINE
  8
0
 62
     0
 10
35.669
 20
78.8183
 30
0.0
 11
35.669
 21
79.8188
 31
0.0
  0
LINE
  8
0
 62
     0
 10
35.669
 20
79.8188
 30
0.0
 11
36.4698
 21
79.8188
 31
0.0
  0
LINE
  8
0
 62
     0
 10
36.4698
 20
79.8188
 30
0.0
 11
36.4698
 21
82.9179
 31
0.0
  0
LINE
  8
0
 62
     0
 10
36.4698
 20
82.9179
 30
0.0
 11
35.669
 21
82.9179
 31
0.0
  0
LINE
  8
0
 62
     0
 10
35.669
 20
82.9179
 30
0.0
 11
35.669
 21
88.718
 31
0.0
  0
LINE
  8
0
 62
     0
 10
35.669
 20
88.718
 30
0.0
 11
36.4698
 21
88.718
 31
0.0
  0
LINE
  8
0
 62
     0
 10
36.4698
 20
88.718
 30
0.0
 11
36.4698
 21
91.8185
 31
0.0
  0
LINE
  8
0
 62
     0
 10
36.4698
 20
91.8185
 30
0.0
 11
35.669
 21
91.8185
 31
0.0
  0
LINE
  8
0
 62
     0
 10
35.669
 20
91.8185
 30
0.0
 11
35.669
 21
92.8176
 31
0.0
  0
LINE
  8
0
 62
     0
 10
35.669
 20
92.8176
 30
0.0
 11
21.6697
 21
92.8176
 31
0.0
  0
LINE
  8
0
 62
     0
 10
40.7197
 20
92.8176
 30
0.0
 11
40.7197
 21
91.8185
 31
0.0
  0
LINE
  8
0
 62
     0
 10
40.7197
 20
91.8185
 30
0.0
 11
39.9203
 21
91.8185
 31
0.0
  0
LINE
  8
0
 62
     0
 10
39.9203
 20
91.8185
 30
0.0
 11
39.9203
 21
88.718
 31
0.0
  0
LINE
  8
0
 62
     0
 10
39.9203
 20
88.718
 30
0.0
 11
40.7197
 21
88.718
 31
0.0
  0
LINE
  8
0
 62
     0
 10
40.7197
 20
88.718
 30
0.0
 11
40.7197
 21
82.9179
 31
0.0
  0
LINE
  8
0
 62
     0
 10
40.7197
 20
82.9179
 30
0.0
 11
39.9203
 21
82.9179
 31
0.0
  0
LINE
  8
0
 62
     0
 10
39.9203
 20
82.9179
 30
0.0
 11
39.9203
 21
79.8188
 31
0.0
  0
LINE
  8
0
 62
     0
 10
39.9203
 20
79.8188
 30
0.0
 11
40.7197
 21
79.8188
 31
0.0
  0
LINE
  8
0
 62
     0
 10
40.7197
 20
79.8188
 30
0.0
 11
40.7197
 21
78.8183
 31
0.0
  0
LINE
  8
0
 62
     0
 10
40.7197
 20
78.8183
 30
0.0
 11
54.719
 21
78.8183
 31
0.0
  0
LINE
  8
0
 62
     0
 10
54.719
 20
78.8183
 30
0.0
 11
54.719
 21
79.8188
 31
0.0
  0
LINE
  8
0
 62
     0
 10
54.719
 20
79.8188
 30
0.0
 11
55.5198
 21
79.8188
 31
0.0
  0
LINE
  8
0
 62
     0
 10
55.5198
 20
79.8188
 30
0.0
 11
55.5198
 21
82.9179
 31
0.0
  0
LINE
  8
0
 62
     0
 10
55.5198
 20
82.9179
 30
0.0
 11
54.719
 21
82.9179
 31
0.0
  0
LINE
  8
0
 62
     0
 10
54.719
 20
82.9179
 30
0.0
 11
54.719
 21
88.718
 31
0.0
  0
LINE
  8
0
 62
     0
 10
54.719
 20
88.718
 30
0.0
 11
55.5198
 21
88.718
 31
0.0
  0
LINE
  8
0
 62
     0
 10
55.5198
 20
88.718
 30
0.0
 11
55.5198
 21
91.8185
 31
0.0
  0
LINE
  8
0
 62
     0
 10
55.5198
 20
91.8185
 30
0.0
 11
54.719
 21
91.8185
 31
0.0
  0
LINE
  8
0
 62
     0
 10
54.719
 20
91.8185
 30
0.0
 11
54.719
 21
92.8176
 31
0.0
  0
LINE
  8
0
 62
     0
 10
54.719
 20
92.8176
 30
0.0
 11
40.7197
 21
92.8176
 31
0.0
  0
LINE
  8
0
 62
     0
 10
59.7697
 20
92.8176
 30
0.0
 11
59.7697
 21
91.8185
 31
0.0
  0
LINE
  8
0
 62
     0
 10
59.7697
 20
91.8185
 30
0.0
 11
58.9703
 21
91.8185
 31
0.0
  0
LINE
  8
0
 62
     0
 10
58.9703
 20
91.8185
 30
0.0
 11
58.9703
 21
88.718
 31
0.0
  0
LINE
  8
0
 62
     0
 10
58.9703
 20
88.718
 30
0.0
 11
59.7697
 21
88.718
 31
0.0
  0
LINE
  8
0
 62
     0
 10
59.7697
 20
88.718
 30
0.0
 11
59.7697
 21
82.9179
 31
0.0
  0
LINE
  8
0
 62
     0
 10
59.7697
 20
82.9179
 30
0.0
 11
58.9703
 21
82.9179
 31
0.0
  0
LINE
  8
0
 62
     0
 10
58.9703
 20
82.9179
 30
0.0
 11
58.9703
 21
79.8188
 31
0.0
  0
LINE
  8
0
 62
     0
 10
58.9703
 20
79.8188
 30
0.0
 11
59.7697
 21
79.8188
 31
0.0
  0
LINE
  8
0
 62
     0
 10
59.7697
 20
79.8188
 30
0.0
 11
59.7697
 21
78.8183
 31
0.0
  0
LINE
  8
0
 62
     0
 10
59.7697
 20
78.8183
 30
0.0
 11
73.769
 21
78.8183
 31
0.0
  0
LINE
  8
0
 62
     0
 10
73.769
 20
78.8183
 30
0.0
 11
73.769
 21
79.8188
 31
0.0
  0
LINE
  8
0
 62
     0
 10
73.769
 20
79.8188
 30
0.0
 11
74.5698
 21
79.8188
 31
0.0
  0
LINE
  8
0
 62
     0
 10
74.5698
 20
79.8188
 30
0.0
 11
74.5698
 21
82.9179
 31
0.0
  0
LINE
  8
0
 62
     0
 10
74.5698
 20
82.9179
 30
0.0
 11
73.769
 21
82.9179
 31
0.0
  0
LINE
  8
0
 62
     0
 10
73.769
 20
82.9179
 30
0.0
 11
73.769
 21
88.718
 31
0.0
  0
LINE
  8
0
 62
     0
 10
73.769
 20
88.718
 30
0.0
 11
74.5698
 21
88.718
 31
0.0
  0
LINE
  8
0
 62
     0
 10
74.5698
 20
88.718
 30
0.0
 11
74.5698
 21
91.8185
 31
0.0
  0
LINE
  8
0
 62
     0
 10
74.5698
 20
91.8185
 30
0.0
 11
73.769
 21
91.8185
 31
0.0
  0
LINE
  8
0
 62
     0
 10
73.769
 20
91.8185
 30
0.0
 11
73.769
 21
92.8176
 31
0.0
  0
LINE
  8
0
 62
     0
 10
73.769
 20
92.8176
 30
0.0
 11
59.7697
 21
92.8176
 31
0.0
  0
LINE
  8
0
 62
     0
 10
78.8197
 20
92.8176
 30
0.0
 11
78.8197
 21
91.8185
 31
0.0
  0
LINE
  8
0
 62
     0
 10
78.8197
 20
91.8185
 30
0.0
 11
78.0203
 21
91.8185
 31
0.0
  0
LINE
  8
0
 62
     0
 10
78.0203
 20
91.8185
 30
0.0
 11
78.0203
 21
88.718
 31
0.0
  0
LINE
  8
0
 62
     0
 10
78.0203
 20
88.718
 30
0.0
 11
78.8197
 21
88.718
 31
0.0
  0
LINE
  8
0
 62
     0
 10
78.8197
 20
88.718
 30
0.0
 11
78.8197
 21
82.9179
 31
0.0
  0
LINE
  8
0
 62
     0
 10
78.8197
 20
82.9179
 30
0.0
 11
78.0203
 21
82.9179
 31
0.0
  0
LINE
  8
0
 62
     0
 10
78.0203
 20
82.9179
 30
0.0
 11
78.0203
 21
79.8188
 31
0.0
  0
LINE
  8
0
 62
     0
 10
78.0203
 20
79.8188
 30
0.0
 11
78.8197
 21
79.8188
 31
0.0
  0
LINE
  8
0
 62
     0
 10
78.8197
 20
79.8188
 30
0.0
 11
78.8197
 21
78.8183
 31
0.0
  0
LINE
  8
0
 62
     0
 10
78.8197
 20
78.8183
 30
0.0
 11
92.819
 21
78.8183
 31
0.0
  0
LINE
  8
0
 62
     0
 10
92.819
 20
78.8183
 30
0.0
 11
92.819
 21
79.8188
 31
0.0
  0
LINE
  8
0
 62
     0
 10
92.819
 20
79.8188
 30
0.0
 11
93.6184
 21
79.8188
 31
0.0
  0
LINE
  8
0
 62
     0
 10
93.6184
 20
79.8188
 30
0.0
 11
93.6184
 21
82.9179
 31
0.0
  0
LINE
  8
0
 62
     0
 10
93.6184
 20
82.9179
 30
0.0
 11
92.819
 21
82.9179
 31
0.0
  0
LINE
  8
0
 62
     0
 10
92.819
 20
82.9179
 30
0.0
 11
92.819
 21
88.718
 31
0.0
  0
LINE
  8
0
 62
     0
 10
92.819
 20
88.718
 30
0.0
 11
93.6184
 21
88.718
 31
0.0
  0
LINE
  8
0
 62
     0
 10
93.6184
 20
88.718
 30
0.0
 11
93.6184
 21
91.8185
 31
0.0
  0
LINE
  8
0
 62
     0
 10
93.6184
 20
91.8185
 30
0.0
 11
92.819
 21
91.8185
 31
0.0
  0
LINE
  8
0
 62
     0
 10
92.819
 20
91.8185
 30
0.0
 11
92.819
 21
92.8176
 31
0.0
  0
LINE
  8
0
 62
     0
 10
92.819
 20
92.8176
 30
0.0
 11
78.8197
 21
92.8176
 31
0.0
  0
LINE
  8
0
 62
     0
 10
97.8683
 20
92.8176
 30
0.0
 11
97.8683
 21
91.8185
 31
0.0
  0
LINE
  8
0
 62
     0
 10
97.8683
 20
91.8185
 30
0.0
 11
97.0703
 21
91.8185
 31
0.0
  0
LINE
  8
0
 62
     0
 10
97.0703
 20
91.8185
 30
0.0
 11
97.0703
 21
88.718
 31
0.0
  0
LINE
  8
0
 62
     0
 10
97.0703
 20
88.718
 30
0.0
 11
97.8683
 21
88.718
 31
0.0
  0
LINE
  8
0
 62
     0
 10
97.8683
 20
88.718
 30
0.0
 11
97.8683
 21
82.9179
 31
0.0
  0
LINE
  8
0
 62
     0
 10
97.8683
 20
82.9179
 30
0.0
 11
97.0703
 21
82.9179
 31
0.0
  0
LINE
  8
0
 62
     0
 10
97.0703
 20
82.9179
 30
0.0
 11
97.0703
 21
79.8188
 31
0.0
  0
LINE
  8
0
 62
     0
 10
97.0703
 20
79.8188
 30
0.0
 11
97.8683
 21
79.8188
 31
0.0
  0
LINE
  8
0
 62
     0
 10
97.8683
 20
79.8188
 30
0.0
 11
97.8683
 21
78.8183
 31
0.0
  0
LINE
  8
0
 62
     0
 10
97.8683
 20
78.8183
 30
0.0
 11
111.869
 21
78.8183
 31
0.0
  0
LINE
  8
0
 62
     0
 10
111.869
 20
78.8183
 30
0.0
 11
111.869
 21
79.8188
 31
0.0
  0
LINE
  8
0
 62
     0
 10
111.869
 20
79.8188
 30
0.0
 11
112.668
 21
79.8188
 31
0.0
  0
LINE
  8
0
 62
     0
 10
112.668
 20
79.8188
 30
0.0
 11
112.668
 21
82.9179
 31
0.0
  0
LINE
  8
0
 62
     0
 10
112.668
 20
82.9179
 30
0.0
 11
111.869
 21
82.9179
 31
0.0
  0
LINE
  8
0
 62
     0
 10
111.869
 20
82.9179
 30
0.0
 11
111.869
 21
88.718
 31
0.0
  0
LINE
  8
0
 62
     0
 10
111.869
 20
88.718
 30
0.0
 11
112.668
 21
88.718
 31
0.0
  0
LINE
  8
0
 62
     0
 10
112.668
 20
88.718
 30
0.0
 11
112.668
 21
91.8185
 31
0.0
  0
LINE
  8
0
 62
     0
 10
112.668
 20
91.8185
 30
0.0
 11
111.869
 21
91.8185
 31
0.0
  0
LINE
  8
0
 62
     0
 10
111.869
 20
91.8185
 30
0.0
 11
111.869
 21
92.8176
 31
0.0
  0
LINE
  8
0
 62
     0
 10
111.869
 20
92.8176
 30
0.0
 11
97.8683
 21
92.8176
 31
0.0
  0
LINE
  8
0
 62
     0
 10
116.918
 20
92.8176
 30
0.0
 11
116.918
 21
91.8185
 31
0.0
  0
LINE
  8
0
 62
     0
 10
116.918
 20
91.8185
 30
0.0
 11
116.119
 21
91.8185
 31
0.0
  0
LINE
  8
0
 62
     0
 10
116.119
 20
91.8185
 30
0.0
 11
116.119
 21
88.718
 31
0.0
  0
LINE
  8
0
 62
     0
 10
116.119
 20
88.718
 30
0.0
 11
116.918
 21
88.718
 31
0.0
  0
LINE
  8
0
 62
     0
 10
116.918
 20
88.718
 30
0.0
 11
116.918
 21
82.9179
 31
0.0
  0
LINE
  8
0
 62
     0
 10
116.918
 20
82.9179
 30
0.0
 11
116.119
 21
82.9179
 31
0.0
  0
LINE
  8
0
 62
     0
 10
116.119
 20
82.9179
 30
0.0
 11
116.119
 21
79.8188
 31
0.0
  0
LINE
  8
0
 62
     0
 10
116.119
 20
79.8188
 30
0.0
 11
116.918
 21
79.8188
 31
0.0
  0
LINE
  8
0
 62
     0
 10
116.918
 20
79.8188
 30
0.0
 11
116.918
 21
78.8183
 31
0.0
  0
LINE
  8
0
 62
     0
 10
116.918
 20
78.8183
 30
0.0
 11
130.919
 21
78.8183
 31
0.0
  0
LINE
  8
0
 62
     0
 10
130.919
 20
78.8183
 30
0.0
 11
130.919
 21
79.8188
 31
0.0
  0
LINE
  8
0
 62
     0
 10
130.919
 20
79.8188
 30
0.0
 11
131.72
 21
79.8188
 31
0.0
  0
LINE
  8
0
 62
     0
 10
131.72
 20
79.8188
 30
0.0
 11
131.72
 21
82.9179
 31
0.0
  0
LINE
  8
0
 62
     0
 10
131.72
 20
82.9179
 30
0.0
 11
130.919
 21
82.9179
 31
0.0
  0
LINE
  8
0
 62
     0
 10
130.919
 20
82.9179
 30
0.0
 11
130.919
 21
88.718
 31
0.0
  0
LINE
  8
0
 62
     0
 10
130.919
 20
88.718
 30
0.0
 11
131.72
 21
88.718
 31
0.0
  0
LINE
  8
0
 62
     0
 10
131.72
 20
88.718
 30
0.0
 11
131.72
 21
91.8185
 31
0.0
  0
LINE
  8
0
 62
     0
 10
131.72
 20
91.8185
 30
0.0
 11
130.919
 21
91.8185
 31
0.0
  0
LINE
  8
0
 62
     0
 10
130.919
 20
91.8185
 30
0.0
 11
130.919
 21
92.8176
 31
0.0
  0
LINE
  8
0
 62
     0
 10
130.919
 20
92.8176
 30
0.0
 11
116.918
 21
92.8176
 31
0.0
  0
LINE
  8
0
 62
     0
 10
135.97
 20
92.8176
 30
0.0
 11
135.97
 21
91.8185
 31
0.0
  0
LINE
  8
0
 62
     0
 10
135.97
 20
91.8185
 30
0.0
 11
135.17
 21
91.8185
 31
0.0
  0
LINE
  8
0
 62
     0
 10
135.17
 20
91.8185
 30
0.0
 11
135.17
 21
88.718
 31
0.0
  0
LINE
  8
0
 62
     0
 10
135.17
 20
88.718
 30
0.0
 11
135.97
 21
88.718
 31
0.0
  0
LINE
  8
0
 62
     0
 10
135.97
 20
88.718
 30
0.0
 11
135.97
 21
82.9179
 31
0.0
  0
LINE
  8
0
 62
     0
 10
135.97
 20
82.9179
 30
0.0
 11
135.17
 21
82.9179
 31
0.0
  0
LINE
  8
0
 62
     0
 10
135.17
 20
82.9179
 30
0.0
 11
135.17
 21
79.8188
 31
0.0
  0
LINE
  8
0
 62
     0
 10
135.17
 20
79.8188
 30
0.0
 11
135.97
 21
79.8188
 31
0.0
  0
LINE
  8
0
 62
     0
 10
135.97
 20
79.8188
 30
0.0
 11
135.97
 21
78.8183
 31
0.0
  0
LINE
  8
0
 62
     0
 10
135.97
 20
78.8183
 30
0.0
 11
149.969
 21
78.8183
 31
0.0
  0
LINE
  8
0
 62
     0
 10
149.969
 20
78.8183
 30
0.0
 11
149.969
 21
79.8188
 31
0.0
  0
LINE
  8
0
 62
     0
 10
149.969
 20
79.8188
 30
0.0
 11
150.77
 21
79.8188
 31
0.0
  0
LINE
  8
0
 62
     0
 10
150.77
 20
79.8188
 30
0.0
 11
150.77
 21
82.9179
 31
0.0
  0
LINE
  8
0
 62
     0
 10
150.77
 20
82.9179
 30
0.0
 11
149.969
 21
82.9179
 31
0.0
  0
LINE
  8
0
 62
     0
 10
149.969
 20
82.9179
 30
0.0
 11
149.969
 21
88.718
 31
0.0
  0
LINE
  8
0
 62
     0
 10
149.969
 20
88.718
 30
0.0
 11
150.77
 21
88.718
 31
0.0
  0
LINE
  8
0
 62
     0
 10
150.77
 20
88.718
 30
0.0
 11
150.77
 21
91.8185
 31
0.0
  0
LINE
  8
0
 62
     0
 10
150.77
 20
91.8185
 30
0.0
 11
149.969
 21
91.8185
 31
0.0
  0
LINE
  8
0
 62
     0
 10
149.969
 20
91.8185
 30
0.0
 11
149.969
 21
92.8176
 31
0.0
  0
LINE
  8
0
 62
     0
 10
149.969
 20
92.8176
 30
0.0
 11
135.97
 21
92.8176
 31
0.0
  0
LINE
  8
0
 62
     0
 10
155.02
 20
92.8176
 30
0.0
 11
155.02
 21
91.8185
 31
0.0
  0
LINE
  8
0
 62
     0
 10
155.02
 20
91.8185
 30
0.0
 11
154.22
 21
91.8185
 31
0.0
  0
LINE
  8
0
 62
     0
 10
154.22
 20
91.8185
 30
0.0
 11
154.22
 21
88.718
 31
0.0
  0
LINE
  8
0
 62
     0
 10
154.22
 20
88.718
 30
0.0
 11
155.02
 21
88.718
 31
0.0
  0
LINE
  8
0
 62
     0
 10
155.02
 20
88.718
 30
0.0
 11
155.02
 21
82.9179
 31
0.0
  0
LINE
  8
0
 62
     0
 10
155.02
 20
82.9179
 30
0.0
 11
154.22
 21
82.9179
 31
0.0
  0
LINE
  8
0
 62
     0
 10
154.22
 20
82.9179
 30
0.0
 11
154.22
 21
79.8188
 31
0.0
  0
LINE
  8
0
 62
     0
 10
154.22
 20
79.8188
 30
0.0
 11
155.02
 21
79.8188
 31
0.0
  0
LINE
  8
0
 62
     0
 10
155.02
 20
79.8188
 30
0.0
 11
155.02
 21
78.8183
 31
0.0
  0
LINE
  8
0
 62
     0
 10
155.02
 20
78.8183
 30
0.0
 11
169.019
 21
78.8183
 31
0.0
  0
LINE
  8
0
 62
     0
 10
169.019
 20
78.8183
 30
0.0
 11
169.019
 21
79.8188
 31
0.0
  0
LINE
  8
0
 62
     0
 10
169.019
 20
79.8188
 30
0.0
 11
169.82
 21
79.8188
 31
0.0
  0
LINE
  8
0
 62
     0
 10
169.82
 20
79.8188
 30
0.0
 11
169.82
 21
82.9179
 31
0.0
  0
LINE
  8
0
 62
     0
 10
169.82
 20
82.9179
 30
0.0
 11
169.019
 21
82.9179
 31
0.0
  0
LINE
  8
0
 62
     0
 10
169.019
 20
82.9179
 30
0.0
 11
169.019
 21
88.718
 31
0.0
  0
LINE
  8
0
 62
     0
 10
169.019
 20
88.718
 30
0.0
 11
169.82
 21
88.718
 31
0.0
  0
LINE
  8
0
 62
     0
 10
169.82
 20
88.718
 30
0.0
 11
169.82
 21
91.8185
 31
0.0
  0
LINE
  8
0
 62
     0
 10
169.82
 20
91.8185
 30
0.0
 11
169.019
 21
91.8185
 31
0.0
  0
LINE
  8
0
 62
     0
 10
169.019
 20
91.8185
 30
0.0
 11
169.019
 21
92.8176
 31
0.0
  0
LINE
  8
0
 62
     0
 10
169.019
 20
92.8176
 30
0.0
 11
155.02
 21
92.8176
 31
0.0
  0
LINE
  8
0
 62
     0
 10
174.07
 20
92.8176
 30
0.0
 11
174.07
 21
91.8185
 31
0.0
  0
LINE
  8
0
 62
     0
 10
174.07
 20
91.8185
 30
0.0
 11
173.27
 21
91.8185
 31
0.0
  0
LINE
  8
0
 62
     0
 10
173.27
 20
91.8185
 30
0.0
 11
173.27
 21
88.718
 31
0.0
  0
LINE
  8
0
 62
     0
 10
173.27
 20
88.718
 30
0.0
 11
174.07
 21
88.718
 31
0.0
  0
LINE
  8
0
 62
     0
 10
174.07
 20
88.718
 30
0.0
 11
174.07
 21
82.9179
 31
0.0
  0
LINE
  8
0
 62
     0
 10
174.07
 20
82.9179
 30
0.0
 11
173.27
 21
82.9179
 31
0.0
  0
LINE
  8
0
 62
     0
 10
173.27
 20
82.9179
 30
0.0
 11
173.27
 21
79.8188
 31
0.0
  0
LINE
  8
0
 62
     0
 10
173.27
 20
79.8188
 30
0.0
 11
174.07
 21
79.8188
 31
0.0
  0
LINE
  8
0
 62
     0
 10
174.07
 20
79.8188
 30
0.0
 11
174.07
 21
78.8183
 31
0.0
  0
LINE
  8
0
 62
     0
 10
174.07
 20
78.8183
 30
0.0
 11
188.069
 21
78.8183
 31
0.0
  0
LINE
  8
0
 62
     0
 10
188.069
 20
78.8183
 30
0.0
 11
188.069
 21
79.8188
 31
0.0
  0
LINE
  8
0
 62
     0
 10
188.069
 20
79.8188
 30
0.0
 11
188.87
 21
79.8188
 31
0.0
  0
LINE
  8
0
 62
     0
 10
188.87
 20
79.8188
 30
0.0
 11
188.87
 21
82.9179
 31
0.0
  0
LINE
  8
0
 62
     0
 10
188.87
 20
82.9179
 30
0.0
 11
188.069
 21
82.9179
 31
0.0
  0
LINE
  8
0
 62
     0
 10
188.069
 20
82.9179
 30
0.0
 11
188.069
 21
88.718
 31
0.0
  0
LINE
  8
0
 62
     0
 10
188.069
 20
88.718
 30
0.0
 11
188.87
 21
88.718
 31
0.0
  0
LINE
  8
0
 62
     0
 10
188.87
 20
88.718
 30
0.0
 11
188.87
 21
91.8185
 31
0.0
  0
LINE
  8
0
 62
     0
 10
188.87
 20
91.8185
 30
0.0
 11
188.069
 21
91.8185
 31
0.0
  0
LINE
  8
0
 62
     0
 10
188.069
 20
91.8185
 30
0.0
 11
188.069
 21
92.8176
 31
0.0
  0
LINE
  8
0
 62
     0
 10
188.069
 20
92.8176
 30
0.0
 11
174.07
 21
92.8176
 31
0.0
  0
LINE
  8
0
 62
     0
 10
193.12
 20
92.8176
 30
0.0
 11
193.12
 21
91.8185
 31
0.0
  0
LINE
  8
0
 62
     0
 10
193.12
 20
91.8185
 30
0.0
 11
192.32
 21
91.8185
 31
0.0
  0
LINE
  8
0
 62
     0
 10
192.32
 20
91.8185
 30
0.0
 11
192.32
 21
88.718
 31
0.0
  0
LINE
  8
0
 62
     0
 10
192.32
 20
88.718
 30
0.0
 11
193.12
 21
88.718
 31
0.0
  0
LINE
  8
0
 62
     0
 10
193.12
 20
88.718
 30
0.0
 11
193.12
 21
82.9179
 31
0.0
  0
LINE
  8
0
 62
     0
 10
193.12
 20
82.9179
 30
0.0
 11
192.32
 21
82.9179
 31
0.0
  0
LINE
  8
0
 62
     0
 10
192.32
 20
82.9179
 30
0.0
 11
192.32
 21
79.8188
 31
0.0
  0
LINE
  8
0
 62
     0
 10
192.32
 20
79.8188
 30
0.0
 11
193.12
 21
79.8188
 31
0.0
  0
LINE
  8
0
 62
     0
 10
193.12
 20
79.8188
 30
0.0
 11
193.12
 21
78.8183
 31
0.0
  0
LINE
  8
0
 62
     0
 10
193.12
 20
78.8183
 30
0.0
 11
207.119
 21
78.8183
 31
0.0
  0
LINE
  8
0
 62
     0
 10
207.119
 20
78.8183
 30
0.0
 11
207.119
 21
79.8188
 31
0.0
  0
LINE
  8
0
 62
     0
 10
207.119
 20
79.8188
 30
0.0
 11
207.92
 21
79.8188
 31
0.0
  0
LINE
  8
0
 62
     0
 10
207.92
 20
79.8188
 30
0.0
 11
207.92
 21
82.9179
 31
0.0
  0
LINE
  8
0
 62
     0
 10
207.92
 20
82.9179
 30
0.0
 11
207.119
 21
82.9179
 31
0.0
  0
LINE
  8
0
 62
     0
 10
207.119
 20
82.9179
 30
0.0
 11
207.119
 21
88.718
 31
0.0
  0
LINE
  8
0
 62
     0
 10
207.119
 20
88.718
 30
0.0
 11
207.92
 21
88.718
 31
0.0
  0
LINE
  8
0
 62
     0
 10
207.92
 20
88.718
 30
0.0
 11
207.92
 21
91.8185
 31
0.0
  0
LINE
  8
0
 62
     0
 10
207.92
 20
91.8185
 30
0.0
 11
207.119
 21
91.8185
 31
0.0
  0
LINE
  8
0
 62
     0
 10
207.119
 20
91.8185
 30
0.0
 11
207.119
 21
92.8176
 31
0.0
  0
LINE
  8
0
 62
     0
 10
207.119
 20
92.8176
 30
0.0
 11
193.12
 21
92.8176
 31
0.0
  0
LINE
  8
0
 62
     0
 10
212.17
 20
92.8176
 30
0.0
 11
212.17
 21
91.8185
 31
0.0
  0
LINE
  8
0
 62
     0
 10
212.17
 20
91.8185
 30
0.0
 11
211.37
 21
91.8185
 31
0.0
  0
LINE
  8
0
 62
     0
 10
211.37
 20
91.8185
 30
0.0
 11
211.37
 21
88.718
 31
0.0
  0
LINE
  8
0
 62
     0
 10
211.37
 20
88.718
 30
0.0
 11
212.17
 21
88.718
 31
0.0
  0
LINE
  8
0
 62
     0
 10
212.17
 20
88.718
 30
0.0
 11
212.17
 21
82.9179
 31
0.0
  0
LINE
  8
0
 62
     0
 10
212.17
 20
82.9179
 30
0.0
 11
211.37
 21
82.9179
 31
0.0
  0
LINE
  8
0
 62
     0
 10
211.37
 20
82.9179
 30
0.0
 11
211.37
 21
79.8188
 31
0.0
  0
LINE
  8
0
 62
     0
 10
211.37
 20
79.8188
 30
0.0
 11
212.17
 21
79.8188
 31
0.0
  0
LINE
  8
0
 62
     0
 10
212.17
 20
79.8188
 30
0.0
 11
212.17
 21
78.8183
 31
0.0
  0
LINE
  8
0
 62
     0
 10
212.17
 20
78.8183
 30
0.0
 11
226.169
 21
78.8183
 31
0.0
  0
LINE
  8
0
 62
     0
 10
226.169
 20
78.8183
 30
0.0
 11
226.169
 21
79.8188
 31
0.0
  0
LINE
  8
0
 62
     0
 10
226.169
 20
79.8188
 30
0.0
 11
226.97
 21
79.8188
 31
0.0
  0
LINE
  8
0
 62
     0
 10
226.97
 20
79.8188
 30
0.0
 11
226.97
 21
82.9179
 31
0.0
  0
LINE
  8
0
 62
     0
 10
226.97
 20
82.9179
 30
0.0
 11
226.169
 21
82.9179
 31
0.0
  0
LINE
  8
0
 62
     0
 10
226.169
 20
82.9179
 30
0.0
 11
226.169
 21
88.718
 31
0.0
  0
LINE
  8
0
 62
     0
 10
226.169
 20
88.718
 30
0.0
 11
226.97
 21
88.718
 31
0.0
  0
LINE
  8
0
 62
     0
 10
226.97
 20
88.718
 30
0.0
 11
226.97
 21
91.8185
 31
0.0
  0
LINE
  8
0
 62
     0
 10
226.97
 20
91.8185
 30
0.0
 11
226.169
 21
91.8185
 31
0.0
  0
LINE
  8
0
 62
     0
 10
226.169
 20
91.8185
 30
0.0
 11
226.169
 21
92.8176
 31
0.0
  0
LINE
  8
0
 62
     0
 10
226.169
 20
92.8176
 30
0.0
 11
212.17
 21
92.8176
 31
0.0
  0
LINE
  8
0
 62
     0
 10
231.22
 20
92.8176
 30
0.0
 11
231.22
 21
91.8185
 31
0.0
  0
LINE
  8
0
 62
     0
 10
231.22
 20
91.8185
 30
0.0
 11
230.42
 21
91.8185
 31
0.0
  0
LINE
  8
0
 62
     0
 10
230.42
 20
91.8185
 30
0.0
 11
230.42
 21
88.718
 31
0.0
  0
LINE
  8
0
 62
     0
 10
230.42
 20
88.718
 30
0.0
 11
231.22
 21
88.718
 31
0.0
  0
LINE
  8
0
 62
     0
 10
231.22
 20
88.718
 30
0.0
 11
231.22
 21
82.9179
 31
0.0
  0
LINE
  8
0
 62
     0
 10
231.22
 20
82.9179
 30
0.0
 11
230.42
 21
82.9179
 31
0.0
  0
LINE
  8
0
 62
     0
 10
230.42
 20
82.9179
 30
0.0
 11
230.42
 21
79.8188
 31
0.0
  0
LINE
  8
0
 62
     0
 10
230.42
 20
79.8188
 30
0.0
 11
231.22
 21
79.8188
 31
0.0
  0
LINE
  8
0
 62
     0
 10
231.22
 20
79.8188
 30
0.0
 11
231.22
 21
78.8183
 31
0.0
  0
LINE
  8
0
 62
     0
 10
231.22
 20
78.8183
 30
0.0
 11
245.219
 21
78.8183
 31
0.0
  0
LINE
  8
0
 62
     0
 10
245.219
 20
78.8183
 30
0.0
 11
245.219
 21
79.8188
 31
0.0
  0
LINE
  8
0
 62
     0
 10
245.219
 20
79.8188
 30
0.0
 11
246.02
 21
79.8188
 31
0.0
  0
LINE
  8
0
 62
     0
 10
246.02
 20
79.8188
 30
0.0
 11
246.02
 21
82.9179
 31
0.0
  0
LINE
  8
0
 62
     0
 10
246.02
 20
82.9179
 30
0.0
 11
245.219
 21
82.9179
 31
0.0
  0
LINE
  8
0
 62
     0
 10
245.219
 20
82.9179
 30
0.0
 11
245.219
 21
88.718
 31
0.0
  0
LINE
  8
0
 62
     0
 10
245.219
 20
88.718
 30
0.0
 11
246.02
 21
88.718
 31
0.0
  0
LINE
  8
0
 62
     0
 10
246.02
 20
88.718
 30
0.0
 11
246.02
 21
91.8185
 31
0.0
  0
LINE
  8
0
 62
     0
 10
246.02
 20
91.8185
 30
0.0
 11
245.219
 21
91.8185
 31
0.0
  0
LINE
  8
0
 62
     0
 10
245.219
 20
91.8185
 30
0.0
 11
245.219
 21
92.8176
 31
0.0
  0
LINE
  8
0
 62
     0
 10
245.219
 20
92.8176
 30
0.0
 11
231.22
 21
92.8176
 31
0.0
  0
LINE
  8
0
 62
     0
 10
297.895
 20
92.8176
 30
0.0
 11
297.895
 21
91.8185
 31
0.0
  0
LINE
  8
0
 62
     0
 10
297.895
 20
91.8185
 30
0.0
 11
297.095
 21
91.8185
 31
0.0
  0
LINE
  8
0
 62
     0
 10
297.095
 20
91.8185
 30
0.0
 11
297.095
 21
88.718
 31
0.0
  0
LINE
  8
0
 62
     0
 10
297.095
 20
88.718
 30
0.0
 11
297.895
 21
88.718
 31
0.0
  0
LINE
  8
0
 62
     0
 10
297.895
 20
88.718
 30
0.0
 11
297.895
 21
82.9179
 31
0.0
  0
LINE
  8
0
 62
     0
 10
297.895
 20
82.9179
 30
0.0
 11
297.095
 21
82.9179
 31
0.0
  0
LINE
  8
0
 62
     0
 10
297.095
 20
82.9179
 30
0.0
 11
297.095
 21
79.8188
 31
0.0
  0
LINE
  8
0
 62
     0
 10
297.095
 20
79.8188
 30
0.0
 11
297.895
 21
79.8188
 31
0.0
  0
LINE
  8
0
 62
     0
 10
297.895
 20
79.8188
 30
0.0
 11
297.895
 21
78.8183
 31
0.0
  0
LINE
  8
0
 62
     0
 10
297.895
 20
78.8183
 30
0.0
 11
311.894
 21
78.8183
 31
0.0
  0
LINE
  8
0
 62
     0
 10
311.894
 20
78.8183
 30
0.0
 11
311.894
 21
79.8188
 31
0.0
  0
LINE
  8
0
 62
     0
 10
311.894
 20
79.8188
 30
0.0
 11
312.695
 21
79.8188
 31
0.0
  0
LINE
  8
0
 62
     0
 10
312.695
 20
79.8188
 30
0.0
 11
312.695
 21
82.9179
 31
0.0
  0
LINE
  8
0
 62
     0
 10
312.695
 20
82.9179
 30
0.0
 11
311.894
 21
82.9179
 31
0.0
  0
LINE
  8
0
 62
     0
 10
311.894
 20
82.9179
 30
0.0
 11
311.894
 21
88.718
 31
0.0
  0
LINE
  8
0
 62
     0
 10
311.894
 20
88.718
 30
0.0
 11
312.695
 21
88.718
 31
0.0
  0
LINE
  8
0
 62
     0
 10
312.695
 20
88.718
 30
0.0
 11
312.695
 21
91.8185
 31
0.0
  0
LINE
  8
0
 62
     0
 10
312.695
 20
91.8185
 30
0.0
 11
311.894
 21
91.8185
 31
0.0
  0
LINE
  8
0
 62
     0
 10
311.894
 20
91.8185
 30
0.0
 11
311.894
 21
92.8176
 31
0.0
  0
LINE
  8
0
 62
     0
 10
311.894
 20
92.8176
 30
0.0
 11
297.895
 21
92.8176
 31
0.0
  0
LINE
  8
0
 62
     0
 10
316.945
 20
92.8176
 30
0.0
 11
316.945
 21
91.8185
 31
0.0
  0
LINE
  8
0
 62
     0
 10
316.945
 20
91.8185
 30
0.0
 11
316.145
 21
91.8185
 31
0.0
  0
LINE
  8
0
 62
     0
 10
316.145
 20
91.8185
 30
0.0
 11
316.145
 21
88.718
 31
0.0
  0
LINE
  8
0
 62
     0
 10
316.145
 20
88.718
 30
0.0
 11
316.945
 21
88.718
 31
0.0
  0
LINE
  8
0
 62
     0
 10
316.945
 20
88.718
 30
0.0
 11
316.945
 21
82.9179
 31
0.0
  0
LINE
  8
0
 62
     0
 10
316.945
 20
82.9179
 30
0.0
 11
316.145
 21
82.9179
 31
0.0
  0
LINE
  8
0
 62
     0
 10
316.145
 20
82.9179
 30
0.0
 11
316.145
 21
79.8188
 31
0.0
  0
LINE
  8
0
 62
     0
 10
316.145
 20
79.8188
 30
0.0
 11
316.945
 21
79.8188
 31
0.0
  0
LINE
  8
0
 62
     0
 10
316.945
 20
79.8188
 30
0.0
 11
316.945
 21
78.8183
 31
0.0
  0
LINE
  8
0
 62
     0
 10
316.945
 20
78.8183
 30
0.0
 11
330.944
 21
78.8183
 31
0.0
  0
LINE
  8
0
 62
     0
 10
330.944
 20
78.8183
 30
0.0
 11
330.944
 21
79.8188
 31
0.0
  0
LINE
  8
0
 62
     0
 10
330.944
 20
79.8188
 30
0.0
 11
331.745
 21
79.8188
 31
0.0
  0
LINE
  8
0
 62
     0
 10
331.745
 20
79.8188
 30
0.0
 11
331.745
 21
82.9179
 31
0.0
  0
LINE
  8
0
 62
     0
 10
331.745
 20
82.9179
 30
0.0
 11
330.944
 21
82.9179
 31
0.0
  0
LINE
  8
0
 62
     0
 10
330.944
 20
82.9179
 30
0.0
 11
330.944
 21
88.718
 31
0.0
  0
LINE
  8
0
 62
     0
 10
330.944
 20
88.718
 30
0.0
 11
331.745
 21
88.718
 31
0.0
  0
LINE
  8
0
 62
     0
 10
331.745
 20
88.718
 30
0.0
 11
331.745
 21
91.8185
 31
0.0
  0
LINE
  8
0
 62
     0
 10
331.745
 20
91.8185
 30
0.0
 11
330.944
 21
91.8185
 31
0.0
  0
LINE
  8
0
 62
     0
 10
330.944
 20
91.8185
 30
0.0
 11
330.944
 21
92.8176
 31
0.0
  0
LINE
  8
0
 62
     0
 10
330.944
 20
92.8176
 30
0.0
 11
316.945
 21
92.8176
 31
0.0
  0
LINE
  8
0
 62
     0
 10
335.995
 20
92.8176
 30
0.0
 11
335.995
 21
91.8185
 31
0.0
  0
LINE
  8
0
 62
     0
 10
335.995
 20
91.8185
 30
0.0
 11
335.195
 21
91.8185
 31
0.0
  0
LINE
  8
0
 62
     0
 10
335.195
 20
91.8185
 30
0.0
 11
335.195
 21
88.718
 31
0.0
  0
LINE
  8
0
 62
     0
 10
335.195
 20
88.718
 30
0.0
 11
335.995
 21
88.718
 31
0.0
  0
LINE
  8
0
 62
     0
 10
335.995
 20
88.718
 30
0.0
 11
335.995
 21
82.9179
 31
0.0
  0
LINE
  8
0
 62
     0
 10
335.995
 20
82.9179
 30
0.0
 11
335.195
 21
82.9179
 31
0.0
  0
LINE
  8
0
 62
     0
 10
335.195
 20
82.9179
 30
0.0
 11
335.195
 21
79.8188
 31
0.0
  0
LINE
  8
0
 62
     0
 10
335.195
 20
79.8188
 30
0.0
 11
335.995
 21
79.8188
 31
0.0
  0
LINE
  8
0
 62
     0
 10
335.995
 20
79.8188
 30
0.0
 11
335.995
 21
78.8183
 31
0.0
  0
LINE
  8
0
 62
     0
 10
335.995
 20
78.8183
 30
0.0
 11
349.994
 21
78.8183
 31
0.0
  0
LINE
  8
0
 62
     0
 10
349.994
 20
78.8183
 30
0.0
 11
349.994
 21
79.8188
 31
0.0
  0
LINE
  8
0
 62
     0
 10
349.994
 20
79.8188
 30
0.0
 11
350.795
 21
79.8188
 31
0.0
  0
LINE
  8
0
 62
     0
 10
350.795
 20
79.8188
 30
0.0
 11
350.795
 21
82.9179
 31
0.0
  0
LINE
  8
0
 62
     0
 10
350.795
 20
82.9179
 30
0.0
 11
349.994
 21
82.9179
 31
0.0
  0
LINE
  8
0
 62
     0
 10
349.994
 20
82.9179
 30
0.0
 11
349.994
 21
88.718
 31
0.0
  0
LINE
  8
0
 62
     0
 10
349.994
 20
88.718
 30
0.0
 11
350.795
 21
88.718
 31
0.0
  0
LINE
  8
0
 62
     0
 10
350.795
 20
88.718
 30
0.0
 11
350.795
 21
91.8185
 31
0.0
  0
LINE
  8
0
 62
     0
 10
350.795
 20
91.8185
 30
0.0
 11
349.994
 21
91.8185
 31
0.0
  0
LINE
  8
0
 62
     0
 10
349.994
 20
91.8185
 30
0.0
 11
349.994
 21
92.8176
 31
0.0
  0
LINE
  8
0
 62
     0
 10
349.994
 20
92.8176
 30
0.0
 11
335.995
 21
92.8176
 31
0.0
  0
LINE
  8
0
 62
     0
 10
2.61965
 20
116.63
 30
0.0
 11
2.61965
 21
115.63
 31
0.0
  0
LINE
  8
0
 62
     0
 10
2.61965
 20
115.63
 30
0.0
 11
1.82039
 21
115.63
 31
0.0
  0
LINE
  8
0
 62
     0
 10
1.82039
 20
115.63
 30
0.0
 11
1.82039
 21
112.53
 31
0.0
  0
LINE
  8
0
 62
     0
 10
1.82039
 20
112.53
 30
0.0
 11
2.61965
 21
112.53
 31
0.0
  0
LINE
  8
0
 62
     0
 10
2.61965
 20
112.53
 30
0.0
 11
2.61965
 21
106.73
 31
0.0
  0
LINE
  8
0
 62
     0
 10
2.61965
 20
106.73
 30
0.0
 11
1.82039
 21
106.73
 31
0.0
  0
LINE
  8
0
 62
     0
 10
1.82039
 20
106.73
 30
0.0
 11
1.82039
 21
103.63
 31
0.0
  0
LINE
  8
0
 62
     0
 10
1.82039
 20
103.63
 30
0.0
 11
2.61965
 21
103.63
 31
0.0
  0
LINE
  8
0
 62
     0
 10
2.61965
 20
103.63
 30
0.0
 11
2.61965
 21
102.631
 31
0.0
  0
LINE
  8
0
 62
     0
 10
2.61965
 20
102.631
 30
0.0
 11
16.6192
 21
102.631
 31
0.0
  0
LINE
  8
0
 62
     0
 10
16.6192
 20
102.631
 30
0.0
 11
16.6192
 21
103.63
 31
0.0
  0
LINE
  8
0
 62
     0
 10
16.6192
 20
103.63
 30
0.0
 11
17.4198
 21
103.63
 31
0.0
  0
LINE
  8
0
 62
     0
 10
17.4198
 20
103.63
 30
0.0
 11
17.4198
 21
106.73
 31
0.0
  0
LINE
  8
0
 62
     0
 10
17.4198
 20
106.73
 30
0.0
 11
16.6192
 21
106.73
 31
0.0
  0
LINE
  8
0
 62
     0
 10
16.6192
 20
106.73
 30
0.0
 11
16.6192
 21
112.53
 31
0.0
  0
LINE
  8
0
 62
     0
 10
16.6192
 20
112.53
 30
0.0
 11
17.4198
 21
112.53
 31
0.0
  0
LINE
  8
0
 62
     0
 10
17.4198
 20
112.53
 30
0.0
 11
17.4198
 21
115.63
 31
0.0
  0
LINE
  8
0
 62
     0
 10
17.4198
 20
115.63
 30
0.0
 11
16.6192
 21
115.63
 31
0.0
  0
LINE
  8
0
 62
     0
 10
16.6192
 20
115.63
 30
0.0
 11
16.6192
 21
116.63
 31
0.0
  0
LINE
  8
0
 62
     0
 10
16.6192
 20
116.63
 30
0.0
 11
2.61965
 21
116.63
 31
0.0
  0
LINE
  8
0
 62
     0
 10
35.9572
 20
116.63
 30
0.0
 11
35.9572
 21
115.63
 31
0.0
  0
LINE
  8
0
 62
     0
 10
35.9572
 20
115.63
 30
0.0
 11
35.1565
 21
115.63
 31
0.0
  0
LINE
  8
0
 62
     0
 10
35.1565
 20
115.63
 30
0.0
 11
35.1565
 21
112.53
 31
0.0
  0
LINE
  8
0
 62
     0
 10
35.1565
 20
112.53
 30
0.0
 11
35.9572
 21
112.53
 31
0.0
  0
LINE
  8
0
 62
     0
 10
35.9572
 20
112.53
 30
0.0
 11
35.9572
 21
106.73
 31
0.0
  0
LINE
  8
0
 62
     0
 10
35.9572
 20
106.73
 30
0.0
 11
35.1565
 21
106.73
 31
0.0
  0
LINE
  8
0
 62
     0
 10
35.1565
 20
106.73
 30
0.0
 11
35.1565
 21
103.63
 31
0.0
  0
LINE
  8
0
 62
     0
 10
35.1565
 20
103.63
 30
0.0
 11
35.9572
 21
103.63
 31
0.0
  0
LINE
  8
0
 62
     0
 10
35.9572
 20
103.63
 30
0.0
 11
35.9572
 21
102.631
 31
0.0
  0
LINE
  8
0
 62
     0
 10
35.9572
 20
102.631
 30
0.0
 11
49.9565
 21
102.631
 31
0.0
  0
LINE
  8
0
 62
     0
 10
49.9565
 20
102.631
 30
0.0
 11
49.9565
 21
103.63
 31
0.0
  0
LINE
  8
0
 62
     0
 10
49.9565
 20
103.63
 30
0.0
 11
50.7573
 21
103.63
 31
0.0
  0
LINE
  8
0
 62
     0
 10
50.7573
 20
103.63
 30
0.0
 11
50.7573
 21
106.73
 31
0.0
  0
LINE
  8
0
 62
     0
 10
50.7573
 20
106.73
 30
0.0
 11
49.9565
 21
106.73
 31
0.0
  0
LINE
  8
0
 62
     0
 10
49.9565
 20
106.73
 30
0.0
 11
49.9565
 21
112.53
 31
0.0
  0
LINE
  8
0
 62
     0
 10
49.9565
 20
112.53
 30
0.0
 11
50.7573
 21
112.53
 31
0.0
  0
LINE
  8
0
 62
     0
 10
50.7573
 20
112.53
 30
0.0
 11
50.7573
 21
115.63
 31
0.0
  0
LINE
  8
0
 62
     0
 10
50.7573
 20
115.63
 30
0.0
 11
49.9565
 21
115.63
 31
0.0
  0
LINE
  8
0
 62
     0
 10
49.9565
 20
115.63
 30
0.0
 11
49.9565
 21
116.63
 31
0.0
  0
LINE
  8
0
 62
     0
 10
49.9565
 20
116.63
 30
0.0
 11
35.9572
 21
116.63
 31
0.0
  0
LINE
  8
0
 62
     0
 10
55.0072
 20
116.63
 30
0.0
 11
55.0072
 21
115.63
 31
0.0
  0
LINE
  8
0
 62
     0
 10
55.0072
 20
115.63
 30
0.0
 11
54.2064
 21
115.63
 31
0.0
  0
LINE
  8
0
 62
     0
 10
54.2064
 20
115.63
 30
0.0
 11
54.2064
 21
112.53
 31
0.0
  0
LINE
  8
0
 62
     0
 10
54.2064
 20
112.53
 30
0.0
 11
55.0072
 21
112.53
 31
0.0
  0
LINE
  8
0
 62
     0
 10
55.0072
 20
112.53
 30
0.0
 11
55.0072
 21
106.73
 31
0.0
  0
LINE
  8
0
 62
     0
 10
55.0072
 20
106.73
 30
0.0
 11
54.2064
 21
106.73
 31
0.0
  0
LINE
  8
0
 62
     0
 10
54.2064
 20
106.73
 30
0.0
 11
54.2064
 21
103.63
 31
0.0
  0
LINE
  8
0
 62
     0
 10
54.2064
 20
103.63
 30
0.0
 11
55.0072
 21
103.63
 31
0.0
  0
LINE
  8
0
 62
     0
 10
55.0072
 20
103.63
 30
0.0
 11
55.0072
 21
102.631
 31
0.0
  0
LINE
  8
0
 62
     0
 10
55.0072
 20
102.631
 30
0.0
 11
69.0065
 21
102.631
 31
0.0
  0
LINE
  8
0
 62
     0
 10
69.0065
 20
102.631
 30
0.0
 11
69.0065
 21
103.63
 31
0.0
  0
LINE
  8
0
 62
     0
 10
69.0065
 20
103.63
 30
0.0
 11
69.8073
 21
103.63
 31
0.0
  0
LINE
  8
0
 62
     0
 10
69.8073
 20
103.63
 30
0.0
 11
69.8073
 21
106.73
 31
0.0
  0
LINE
  8
0
 62
     0
 10
69.8073
 20
106.73
 30
0.0
 11
69.0065
 21
106.73
 31
0.0
  0
LINE
  8
0
 62
     0
 10
69.0065
 20
106.73
 30
0.0
 11
69.0065
 21
112.53
 31
0.0
  0
LINE
  8
0
 62
     0
 10
69.0065
 20
112.53
 30
0.0
 11
69.8073
 21
112.53
 31
0.0
  0
LINE
  8
0
 62
     0
 10
69.8073
 20
112.53
 30
0.0
 11
69.8073
 21
115.63
 31
0.0
  0
LINE
  8
0
 62
     0
 10
69.8073
 20
115.63
 30
0.0
 11
69.0065
 21
115.63
 31
0.0
  0
LINE
  8
0
 62
     0
 10
69.0065
 20
115.63
 30
0.0
 11
69.0065
 21
116.63
 31
0.0
  0
LINE
  8
0
 62
     0
 10
69.0065
 20
116.63
 30
0.0
 11
55.0072
 21
116.63
 31
0.0
  0
LINE
  8
0
 62
     0
 10
74.0572
 20
116.63
 30
0.0
 11
74.0572
 21
115.63
 31
0.0
  0
LINE
  8
0
 62
     0
 10
74.0572
 20
115.63
 30
0.0
 11
73.2564
 21
115.63
 31
0.0
  0
LINE
  8
0
 62
     0
 10
73.2564
 20
115.63
 30
0.0
 11
73.2564
 21
112.53
 31
0.0
  0
LINE
  8
0
 62
     0
 10
73.2564
 20
112.53
 30
0.0
 11
74.0572
 21
112.53
 31
0.0
  0
LINE
  8
0
 62
     0
 10
74.0572
 20
112.53
 30
0.0
 11
74.0572
 21
106.73
 31
0.0
  0
LINE
  8
0
 62
     0
 10
74.0572
 20
106.73
 30
0.0
 11
73.2564
 21
106.73
 31
0.0
  0
LINE
  8
0
 62
     0
 10
73.2564
 20
106.73
 30
0.0
 11
73.2564
 21
103.63
 31
0.0
  0
LINE
  8
0
 62
     0
 10
73.2564
 20
103.63
 30
0.0
 11
74.0572
 21
103.63
 31
0.0
  0
LINE
  8
0
 62
     0
 10
74.0572
 20
103.63
 30
0.0
 11
74.0572
 21
102.631
 31
0.0
  0
LINE
  8
0
 62
     0
 10
74.0572
 20
102.631
 30
0.0
 11
88.0565
 21
102.631
 31
0.0
  0
LINE
  8
0
 62
     0
 10
88.0565
 20
102.631
 30
0.0
 11
88.0565
 21
103.63
 31
0.0
  0
LINE
  8
0
 62
     0
 10
88.0565
 20
103.63
 30
0.0
 11
88.8573
 21
103.63
 31
0.0
  0
LINE
  8
0
 62
     0
 10
88.8573
 20
103.63
 30
0.0
 11
88.8573
 21
106.73
 31
0.0
  0
LINE
  8
0
 62
     0
 10
88.8573
 20
106.73
 30
0.0
 11
88.0565
 21
106.73
 31
0.0
  0
LINE
  8
0
 62
     0
 10
88.0565
 20
106.73
 30
0.0
 11
88.0565
 21
112.53
 31
0.0
  0
LINE
  8
0
 62
     0
 10
88.0565
 20
112.53
 30
0.0
 11
88.8573
 21
112.53
 31
0.0
  0
LINE
  8
0
 62
     0
 10
88.8573
 20
112.53
 30
0.0
 11
88.8573
 21
115.63
 31
0.0
  0
LINE
  8
0
 62
     0
 10
88.8573
 20
115.63
 30
0.0
 11
88.0565
 21
115.63
 31
0.0
  0
LINE
  8
0
 62
     0
 10
88.0565
 20
115.63
 30
0.0
 11
88.0565
 21
116.63
 31
0.0
  0
LINE
  8
0
 62
     0
 10
88.0565
 20
116.63
 30
0.0
 11
74.0572
 21
116.63
 31
0.0
  0
LINE
  8
0
 62
     0
 10
93.1072
 20
116.63
 30
0.0
 11
93.1072
 21
115.63
 31
0.0
  0
LINE
  8
0
 62
     0
 10
93.1072
 20
115.63
 30
0.0
 11
92.3064
 21
115.63
 31
0.0
  0
LINE
  8
0
 62
     0
 10
92.3064
 20
115.63
 30
0.0
 11
92.3064
 21
112.53
 31
0.0
  0
LINE
  8
0
 62
     0
 10
92.3064
 20
112.53
 30
0.0
 11
93.1072
 21
112.53
 31
0.0
  0
LINE
  8
0
 62
     0
 10
93.1072
 20
112.53
 30
0.0
 11
93.1072
 21
106.73
 31
0.0
  0
LINE
  8
0
 62
     0
 10
93.1072
 20
106.73
 30
0.0
 11
92.3064
 21
106.73
 31
0.0
  0
LINE
  8
0
 62
     0
 10
92.3064
 20
106.73
 30
0.0
 11
92.3064
 21
103.63
 31
0.0
  0
LINE
  8
0
 62
     0
 10
92.3064
 20
103.63
 30
0.0
 11
93.1072
 21
103.63
 31
0.0
  0
LINE
  8
0
 62
     0
 10
93.1072
 20
103.63
 30
0.0
 11
93.1072
 21
102.631
 31
0.0
  0
LINE
  8
0
 62
     0
 10
93.1072
 20
102.631
 30
0.0
 11
107.107
 21
102.631
 31
0.0
  0
LINE
  8
0
 62
     0
 10
107.107
 20
102.631
 30
0.0
 11
107.107
 21
103.63
 31
0.0
  0
LINE
  8
0
 62
     0
 10
107.107
 20
103.63
 30
0.0
 11
107.907
 21
103.63
 31
0.0
  0
LINE
  8
0
 62
     0
 10
107.907
 20
103.63
 30
0.0
 11
107.907
 21
106.73
 31
0.0
  0
LINE
  8
0
 62
     0
 10
107.907
 20
106.73
 30
0.0
 11
107.107
 21
106.73
 31
0.0
  0
LINE
  8
0
 62
     0
 10
107.107
 20
106.73
 30
0.0
 11
107.107
 21
112.53
 31
0.0
  0
LINE
  8
0
 62
     0
 10
107.107
 20
112.53
 30
0.0
 11
107.907
 21
112.53
 31
0.0
  0
LINE
  8
0
 62
     0
 10
107.907
 20
112.53
 30
0.0
 11
107.907
 21
115.63
 31
0.0
  0
LINE
  8
0
 62
     0
 10
107.907
 20
115.63
 30
0.0
 11
107.107
 21
115.63
 31
0.0
  0
LINE
  8
0
 62
     0
 10
107.107
 20
115.63
 30
0.0
 11
107.107
 21
116.63
 31
0.0
  0
LINE
  8
0
 62
     0
 10
107.107
 20
116.63
 30
0.0
 11
93.1072
 21
116.63
 31
0.0
  0
LINE
  8
0
 62
     0
 10
116.918
 20
116.63
 30
0.0
 11
116.918
 21
115.63
 31
0.0
  0
LINE
  8
0
 62
     0
 10
116.918
 20
115.63
 30
0.0
 11
116.119
 21
115.63
 31
0.0
  0
LINE
  8
0
 62
     0
 10
116.119
 20
115.63
 30
0.0
 11
116.119
 21
112.53
 31
0.0
  0
LINE
  8
0
 62
     0
 10
116.119
 20
112.53
 30
0.0
 11
116.918
 21
112.53
 31
0.0
  0
LINE
  8
0
 62
     0
 10
116.918
 20
112.53
 30
0.0
 11
116.918
 21
106.73
 31
0.0
  0
LINE
  8
0
 62
     0
 10
116.918
 20
106.73
 30
0.0
 11
116.119
 21
106.73
 31
0.0
  0
LINE
  8
0
 62
     0
 10
116.119
 20
106.73
 30
0.0
 11
116.119
 21
103.63
 31
0.0
  0
LINE
  8
0
 62
     0
 10
116.119
 20
103.63
 30
0.0
 11
116.918
 21
103.63
 31
0.0
  0
LINE
  8
0
 62
     0
 10
116.918
 20
103.63
 30
0.0
 11
116.918
 21
102.631
 31
0.0
  0
LINE
  8
0
 62
     0
 10
116.918
 20
102.631
 30
0.0
 11
130.919
 21
102.631
 31
0.0
  0
LINE
  8
0
 62
     0
 10
130.919
 20
102.631
 30
0.0
 11
130.919
 21
103.63
 31
0.0
  0
LINE
  8
0
 62
     0
 10
130.919
 20
103.63
 30
0.0
 11
131.72
 21
103.63
 31
0.0
  0
LINE
  8
0
 62
     0
 10
131.72
 20
103.63
 30
0.0
 11
131.72
 21
106.73
 31
0.0
  0
LINE
  8
0
 62
     0
 10
131.72
 20
106.73
 30
0.0
 11
130.919
 21
106.73
 31
0.0
  0
LINE
  8
0
 62
     0
 10
130.919
 20
106.73
 30
0.0
 11
130.919
 21
112.53
 31
0.0
  0
LINE
  8
0
 62
     0
 10
130.919
 20
112.53
 30
0.0
 11
131.72
 21
112.53
 31
0.0
  0
LINE
  8
0
 62
     0
 10
131.72
 20
112.53
 30
0.0
 11
131.72
 21
115.63
 31
0.0
  0
LINE
  8
0
 62
     0
 10
131.72
 20
115.63
 30
0.0
 11
130.919
 21
115.63
 31
0.0
  0
LINE
  8
0
 62
     0
 10
130.919
 20
115.63
 30
0.0
 11
130.919
 21
116.63
 31
0.0
  0
LINE
  8
0
 62
     0
 10
130.919
 20
116.63
 30
0.0
 11
116.918
 21
116.63
 31
0.0
  0
LINE
  8
0
 62
     0
 10
135.97
 20
116.63
 30
0.0
 11
135.97
 21
115.63
 31
0.0
  0
LINE
  8
0
 62
     0
 10
135.97
 20
115.63
 30
0.0
 11
135.17
 21
115.63
 31
0.0
  0
LINE
  8
0
 62
     0
 10
135.17
 20
115.63
 30
0.0
 11
135.17
 21
112.53
 31
0.0
  0
LINE
  8
0
 62
     0
 10
135.17
 20
112.53
 30
0.0
 11
135.97
 21
112.53
 31
0.0
  0
LINE
  8
0
 62
     0
 10
135.97
 20
112.53
 30
0.0
 11
135.97
 21
106.73
 31
0.0
  0
LINE
  8
0
 62
     0
 10
135.97
 20
106.73
 30
0.0
 11
135.17
 21
106.73
 31
0.0
  0
LINE
  8
0
 62
     0
 10
135.17
 20
106.73
 30
0.0
 11
135.17
 21
103.63
 31
0.0
  0
LINE
  8
0
 62
     0
 10
135.17
 20
103.63
 30
0.0
 11
135.97
 21
103.63
 31
0.0
  0
LINE
  8
0
 62
     0
 10
135.97
 20
103.63
 30
0.0
 11
135.97
 21
102.631
 31
0.0
  0
LINE
  8
0
 62
     0
 10
135.97
 20
102.631
 30
0.0
 11
149.969
 21
102.631
 31
0.0
  0
LINE
  8
0
 62
     0
 10
149.969
 20
102.631
 30
0.0
 11
149.969
 21
103.63
 31
0.0
  0
LINE
  8
0
 62
     0
 10
149.969
 20
103.63
 30
0.0
 11
150.77
 21
103.63
 31
0.0
  0
LINE
  8
0
 62
     0
 10
150.77
 20
103.63
 30
0.0
 11
150.77
 21
106.73
 31
0.0
  0
LINE
  8
0
 62
     0
 10
150.77
 20
106.73
 30
0.0
 11
149.969
 21
106.73
 31
0.0
  0
LINE
  8
0
 62
     0
 10
149.969
 20
106.73
 30
0.0
 11
149.969
 21
112.53
 31
0.0
  0
LINE
  8
0
 62
     0
 10
149.969
 20
112.53
 30
0.0
 11
150.77
 21
112.53
 31
0.0
  0
LINE
  8
0
 62
     0
 10
150.77
 20
112.53
 30
0.0
 11
150.77
 21
115.63
 31
0.0
  0
LINE
  8
0
 62
     0
 10
150.77
 20
115.63
 30
0.0
 11
149.969
 21
115.63
 31
0.0
  0
LINE
  8
0
 62
     0
 10
149.969
 20
115.63
 30
0.0
 11
149.969
 21
116.63
 31
0.0
  0
LINE
  8
0
 62
     0
 10
149.969
 20
116.63
 30
0.0
 11
135.97
 21
116.63
 31
0.0
  0
LINE
  8
0
 62
     0
 10
155.02
 20
116.63
 30
0.0
 11
155.02
 21
115.63
 31
0.0
  0
LINE
  8
0
 62
     0
 10
155.02
 20
115.63
 30
0.0
 11
154.22
 21
115.63
 31
0.0
  0
LINE
  8
0
 62
     0
 10
154.22
 20
115.63
 30
0.0
 11
154.22
 21
112.53
 31
0.0
  0
LINE
  8
0
 62
     0
 10
154.22
 20
112.53
 30
0.0
 11
155.02
 21
112.53
 31
0.0
  0
LINE
  8
0
 62
     0
 10
155.02
 20
112.53
 30
0.0
 11
155.02
 21
106.73
 31
0.0
  0
LINE
  8
0
 62
     0
 10
155.02
 20
106.73
 30
0.0
 11
154.22
 21
106.73
 31
0.0
  0
LINE
  8
0
 62
     0
 10
154.22
 20
106.73
 30
0.0
 11
154.22
 21
103.63
 31
0.0
  0
LINE
  8
0
 62
     0
 10
154.22
 20
103.63
 30
0.0
 11
155.02
 21
103.63
 31
0.0
  0
LINE
  8
0
 62
     0
 10
155.02
 20
103.63
 30
0.0
 11
155.02
 21
102.631
 31
0.0
  0
LINE
  8
0
 62
     0
 10
155.02
 20
102.631
 30
0.0
 11
169.019
 21
102.631
 31
0.0
  0
LINE
  8
0
 62
     0
 10
169.019
 20
102.631
 30
0.0
 11
169.019
 21
103.63
 31
0.0
  0
LINE
  8
0
 62
     0
 10
169.019
 20
103.63
 30
0.0
 11
169.82
 21
103.63
 31
0.0
  0
LINE
  8
0
 62
     0
 10
169.82
 20
103.63
 30
0.0
 11
169.82
 21
106.73
 31
0.0
  0
LINE
  8
0
 62
     0
 10
169.82
 20
106.73
 30
0.0
 11
169.019
 21
106.73
 31
0.0
  0
LINE
  8
0
 62
     0
 10
169.019
 20
106.73
 30
0.0
 11
169.019
 21
112.53
 31
0.0
  0
LINE
  8
0
 62
     0
 10
169.019
 20
112.53
 30
0.0
 11
169.82
 21
112.53
 31
0.0
  0
LINE
  8
0
 62
     0
 10
169.82
 20
112.53
 30
0.0
 11
169.82
 21
115.63
 31
0.0
  0
LINE
  8
0
 62
     0
 10
169.82
 20
115.63
 30
0.0
 11
169.019
 21
115.63
 31
0.0
  0
LINE
  8
0
 62
     0
 10
169.019
 20
115.63
 30
0.0
 11
169.019
 21
116.63
 31
0.0
  0
LINE
  8
0
 62
     0
 10
169.019
 20
116.63
 30
0.0
 11
155.02
 21
116.63
 31
0.0
  0
LINE
  8
0
 62
     0
 10
174.07
 20
116.63
 30
0.0
 11
174.07
 21
115.63
 31
0.0
  0
LINE
  8
0
 62
     0
 10
174.07
 20
115.63
 30
0.0
 11
173.27
 21
115.63
 31
0.0
  0
LINE
  8
0
 62
     0
 10
173.27
 20
115.63
 30
0.0
 11
173.27
 21
112.53
 31
0.0
  0
LINE
  8
0
 62
     0
 10
173.27
 20
112.53
 30
0.0
 11
174.07
 21
112.53
 31
0.0
  0
LINE
  8
0
 62
     0
 10
174.07
 20
112.53
 30
0.0
 11
174.07
 21
106.73
 31
0.0
  0
LINE
  8
0
 62
     0
 10
174.07
 20
106.73
 30
0.0
 11
173.27
 21
106.73
 31
0.0
  0
LINE
  8
0
 62
     0
 10
173.27
 20
106.73
 30
0.0
 11
173.27
 21
103.63
 31
0.0
  0
LINE
  8
0
 62
     0
 10
173.27
 20
103.63
 30
0.0
 11
174.07
 21
103.63
 31
0.0
  0
LINE
  8
0
 62
     0
 10
174.07
 20
103.63
 30
0.0
 11
174.07
 21
102.631
 31
0.0
  0
LINE
  8
0
 62
     0
 10
174.07
 20
102.631
 30
0.0
 11
188.069
 21
102.631
 31
0.0
  0
LINE
  8
0
 62
     0
 10
188.069
 20
102.631
 30
0.0
 11
188.069
 21
103.63
 31
0.0
  0
LINE
  8
0
 62
     0
 10
188.069
 20
103.63
 30
0.0
 11
188.87
 21
103.63
 31
0.0
  0
LINE
  8
0
 62
     0
 10
188.87
 20
103.63
 30
0.0
 11
188.87
 21
106.73
 31
0.0
  0
LINE
  8
0
 62
     0
 10
188.87
 20
106.73
 30
0.0
 11
188.069
 21
106.73
 31
0.0
  0
LINE
  8
0
 62
     0
 10
188.069
 20
106.73
 30
0.0
 11
188.069
 21
112.53
 31
0.0
  0
LINE
  8
0
 62
     0
 10
188.069
 20
112.53
 30
0.0
 11
188.87
 21
112.53
 31
0.0
  0
LINE
  8
0
 62
     0
 10
188.87
 20
112.53
 30
0.0
 11
188.87
 21
115.63
 31
0.0
  0
LINE
  8
0
 62
     0
 10
188.87
 20
115.63
 30
0.0
 11
188.069
 21
115.63
 31
0.0
  0
LINE
  8
0
 62
     0
 10
188.069
 20
115.63
 30
0.0
 11
188.069
 21
116.63
 31
0.0
  0
LINE
  8
0
 62
     0
 10
188.069
 20
116.63
 30
0.0
 11
174.07
 21
116.63
 31
0.0
  0
LINE
  8
0
 62
     0
 10
197.882
 20
116.63
 30
0.0
 11
197.882
 21
115.63
 31
0.0
  0
LINE
  8
0
 62
     0
 10
197.882
 20
115.63
 30
0.0
 11
197.081
 21
115.63
 31
0.0
  0
LINE
  8
0
 62
     0
 10
197.081
 20
115.63
 30
0.0
 11
197.081
 21
112.53
 31
0.0
  0
LINE
  8
0
 62
     0
 10
197.081
 20
112.53
 30
0.0
 11
197.882
 21
112.53
 31
0.0
  0
LINE
  8
0
 62
     0
 10
197.882
 20
112.53
 30
0.0
 11
197.882
 21
106.73
 31
0.0
  0
LINE
  8
0
 62
     0
 10
197.882
 20
106.73
 30
0.0
 11
197.081
 21
106.73
 31
0.0
  0
LINE
  8
0
 62
     0
 10
197.081
 20
106.73
 30
0.0
 11
197.081
 21
103.63
 31
0.0
  0
LINE
  8
0
 62
     0
 10
197.081
 20
103.63
 30
0.0
 11
197.882
 21
103.63
 31
0.0
  0
LINE
  8
0
 62
     0
 10
197.882
 20
103.63
 30
0.0
 11
197.882
 21
102.631
 31
0.0
  0
LINE
  8
0
 62
     0
 10
197.882
 20
102.631
 30
0.0
 11
211.882
 21
102.631
 31
0.0
  0
LINE
  8
0
 62
     0
 10
211.882
 20
102.631
 30
0.0
 11
211.882
 21
103.63
 31
0.0
  0
LINE
  8
0
 62
     0
 10
211.882
 20
103.63
 30
0.0
 11
212.682
 21
103.63
 31
0.0
  0
LINE
  8
0
 62
     0
 10
212.682
 20
103.63
 30
0.0
 11
212.682
 21
106.73
 31
0.0
  0
LINE
  8
0
 62
     0
 10
212.682
 20
106.73
 30
0.0
 11
211.882
 21
106.73
 31
0.0
  0
LINE
  8
0
 62
     0
 10
211.882
 20
106.73
 30
0.0
 11
211.882
 21
112.53
 31
0.0
  0
LINE
  8
0
 62
     0
 10
211.882
 20
112.53
 30
0.0
 11
212.682
 21
112.53
 31
0.0
  0
LINE
  8
0
 62
     0
 10
212.682
 20
112.53
 30
0.0
 11
212.682
 21
115.63
 31
0.0
  0
LINE
  8
0
 62
     0
 10
212.682
 20
115.63
 30
0.0
 11
211.882
 21
115.63
 31
0.0
  0
LINE
  8
0
 62
     0
 10
211.882
 20
115.63
 30
0.0
 11
211.882
 21
116.63
 31
0.0
  0
LINE
  8
0
 62
     0
 10
211.882
 20
116.63
 30
0.0
 11
197.882
 21
116.63
 31
0.0
  0
LINE
  8
0
 62
     0
 10
216.932
 20
116.63
 30
0.0
 11
216.932
 21
115.63
 31
0.0
  0
LINE
  8
0
 62
     0
 10
216.932
 20
115.63
 30
0.0
 11
216.131
 21
115.63
 31
0.0
  0
LINE
  8
0
 62
     0
 10
216.131
 20
115.63
 30
0.0
 11
216.131
 21
112.53
 31
0.0
  0
LINE
  8
0
 62
     0
 10
216.131
 20
112.53
 30
0.0
 11
216.932
 21
112.53
 31
0.0
  0
LINE
  8
0
 62
     0
 10
216.932
 20
112.53
 30
0.0
 11
216.932
 21
106.73
 31
0.0
  0
LINE
  8
0
 62
     0
 10
216.932
 20
106.73
 30
0.0
 11
216.131
 21
106.73
 31
0.0
  0
LINE
  8
0
 62
     0
 10
216.131
 20
106.73
 30
0.0
 11
216.131
 21
103.63
 31
0.0
  0
LINE
  8
0
 62
     0
 10
216.131
 20
103.63
 30
0.0
 11
216.932
 21
103.63
 31
0.0
  0
LINE
  8
0
 62
     0
 10
216.932
 20
103.63
 30
0.0
 11
216.932
 21
102.631
 31
0.0
  0
LINE
  8
0
 62
     0
 10
216.932
 20
102.631
 30
0.0
 11
230.932
 21
102.631
 31
0.0
  0
LINE
  8
0
 62
     0
 10
230.932
 20
102.631
 30
0.0
 11
230.932
 21
103.63
 31
0.0
  0
LINE
  8
0
 62
     0
 10
230.932
 20
103.63
 30
0.0
 11
231.732
 21
103.63
 31
0.0
  0
LINE
  8
0
 62
     0
 10
231.732
 20
103.63
 30
0.0
 11
231.732
 21
106.73
 31
0.0
  0
LINE
  8
0
 62
     0
 10
231.732
 20
106.73
 30
0.0
 11
230.932
 21
106.73
 31
0.0
  0
LINE
  8
0
 62
     0
 10
230.932
 20
106.73
 30
0.0
 11
230.932
 21
112.53
 31
0.0
  0
LINE
  8
0
 62
     0
 10
230.932
 20
112.53
 30
0.0
 11
231.732
 21
112.53
 31
0.0
  0
LINE
  8
0
 62
     0
 10
231.732
 20
112.53
 30
0.0
 11
231.732
 21
115.63
 31
0.0
  0
LINE
  8
0
 62
     0
 10
231.732
 20
115.63
 30
0.0
 11
230.932
 21
115.63
 31
0.0
  0
LINE
  8
0
 62
     0
 10
230.932
 20
115.63
 30
0.0
 11
230.932
 21
116.63
 31
0.0
  0
LINE
  8
0
 62
     0
 10
230.932
 20
116.63
 30
0.0
 11
216.932
 21
116.63
 31
0.0
  0
LINE
  8
0
 62
     0
 10
235.982
 20
116.63
 30
0.0
 11
235.982
 21
115.63
 31
0.0
  0
LINE
  8
0
 62
     0
 10
235.982
 20
115.63
 30
0.0
 11
235.181
 21
115.63
 31
0.0
  0
LINE
  8
0
 62
     0
 10
235.181
 20
115.63
 30
0.0
 11
235.181
 21
112.53
 31
0.0
  0
LINE
  8
0
 62
     0
 10
235.181
 20
112.53
 30
0.0
 11
235.982
 21
112.53
 31
0.0
  0
LINE
  8
0
 62
     0
 10
235.982
 20
112.53
 30
0.0
 11
235.982
 21
106.73
 31
0.0
  0
LINE
  8
0
 62
     0
 10
235.982
 20
106.73
 30
0.0
 11
235.181
 21
106.73
 31
0.0
  0
LINE
  8
0
 62
     0
 10
235.181
 20
106.73
 30
0.0
 11
235.181
 21
103.63
 31
0.0
  0
LINE
  8
0
 62
     0
 10
235.181
 20
103.63
 30
0.0
 11
235.982
 21
103.63
 31
0.0
  0
LINE
  8
0
 62
     0
 10
235.982
 20
103.63
 30
0.0
 11
235.982
 21
102.631
 31
0.0
  0
LINE
  8
0
 62
     0
 10
235.982
 20
102.631
 30
0.0
 11
249.982
 21
102.631
 31
0.0
  0
LINE
  8
0
 62
     0
 10
249.982
 20
102.631
 30
0.0
 11
249.982
 21
103.63
 31
0.0
  0
LINE
  8
0
 62
     0
 10
249.982
 20
103.63
 30
0.0
 11
250.782
 21
103.63
 31
0.0
  0
LINE
  8
0
 62
     0
 10
250.782
 20
103.63
 30
0.0
 11
250.782
 21
106.73
 31
0.0
  0
LINE
  8
0
 62
     0
 10
250.782
 20
106.73
 30
0.0
 11
249.982
 21
106.73
 31
0.0
  0
LINE
  8
0
 62
     0
 10
249.982
 20
106.73
 30
0.0
 11
249.982
 21
112.53
 31
0.0
  0
LINE
  8
0
 62
     0
 10
249.982
 20
112.53
 30
0.0
 11
250.782
 21
112.53
 31
0.0
  0
LINE
  8
0
 62
     0
 10
250.782
 20
112.53
 30
0.0
 11
250.782
 21
115.63
 31
0.0
  0
LINE
  8
0
 62
     0
 10
250.782
 20
115.63
 30
0.0
 11
249.982
 21
115.63
 31
0.0
  0
LINE
  8
0
 62
     0
 10
249.982
 20
115.63
 30
0.0
 11
249.982
 21
116.63
 31
0.0
  0
LINE
  8
0
 62
     0
 10
249.982
 20
116.63
 30
0.0
 11
235.982
 21
116.63
 31
0.0
  0
LINE
  8
0
 62
     0
 10
255.032
 20
116.63
 30
0.0
 11
255.032
 21
115.63
 31
0.0
  0
LINE
  8
0
 62
     0
 10
255.032
 20
115.63
 30
0.0
 11
254.231
 21
115.63
 31
0.0
  0
LINE
  8
0
 62
     0
 10
254.231
 20
115.63
 30
0.0
 11
254.231
 21
112.53
 31
0.0
  0
LINE
  8
0
 62
     0
 10
254.231
 20
112.53
 30
0.0
 11
255.032
 21
112.53
 31
0.0
  0
LINE
  8
0
 62
     0
 10
255.032
 20
112.53
 30
0.0
 11
255.032
 21
106.73
 31
0.0
  0
LINE
  8
0
 62
     0
 10
255.032
 20
106.73
 30
0.0
 11
254.231
 21
106.73
 31
0.0
  0
LINE
  8
0
 62
     0
 10
254.231
 20
106.73
 30
0.0
 11
254.231
 21
103.63
 31
0.0
  0
LINE
  8
0
 62
     0
 10
254.231
 20
103.63
 30
0.0
 11
255.032
 21
103.63
 31
0.0
  0
LINE
  8
0
 62
     0
 10
255.032
 20
103.63
 30
0.0
 11
255.032
 21
102.631
 31
0.0
  0
LINE
  8
0
 62
     0
 10
255.032
 20
102.631
 30
0.0
 11
269.032
 21
102.631
 31
0.0
  0
LINE
  8
0
 62
     0
 10
269.032
 20
102.631
 30
0.0
 11
269.032
 21
103.63
 31
0.0
  0
LINE
  8
0
 62
     0
 10
269.032
 20
103.63
 30
0.0
 11
269.832
 21
103.63
 31
0.0
  0
LINE
  8
0
 62
     0
 10
269.832
 20
103.63
 30
0.0
 11
269.832
 21
106.73
 31
0.0
  0
LINE
  8
0
 62
     0
 10
269.832
 20
106.73
 30
0.0
 11
269.032
 21
106.73
 31
0.0
  0
LINE
  8
0
 62
     0
 10
269.032
 20
106.73
 30
0.0
 11
269.032
 21
112.53
 31
0.0
  0
LINE
  8
0
 62
     0
 10
269.032
 20
112.53
 30
0.0
 11
269.832
 21
112.53
 31
0.0
  0
LINE
  8
0
 62
     0
 10
269.832
 20
112.53
 30
0.0
 11
269.832
 21
115.63
 31
0.0
  0
LINE
  8
0
 62
     0
 10
269.832
 20
115.63
 30
0.0
 11
269.032
 21
115.63
 31
0.0
  0
LINE
  8
0
 62
     0
 10
269.032
 20
115.63
 30
0.0
 11
269.032
 21
116.63
 31
0.0
  0
LINE
  8
0
 62
     0
 10
269.032
 20
116.63
 30
0.0
 11
255.032
 21
116.63
 31
0.0
  0
LINE
  8
0
 62
     0
 10
278.845
 20
116.63
 30
0.0
 11
278.845
 21
115.63
 31
0.0
  0
LINE
  8
0
 62
     0
 10
278.845
 20
115.63
 30
0.0
 11
278.045
 21
115.63
 31
0.0
  0
LINE
  8
0
 62
     0
 10
278.045
 20
115.63
 30
0.0
 11
278.045
 21
112.53
 31
0.0
  0
LINE
  8
0
 62
     0
 10
278.045
 20
112.53
 30
0.0
 11
278.845
 21
112.53
 31
0.0
  0
LINE
  8
0
 62
     0
 10
278.845
 20
112.53
 30
0.0
 11
278.845
 21
106.73
 31
0.0
  0
LINE
  8
0
 62
     0
 10
278.845
 20
106.73
 30
0.0
 11
278.045
 21
106.73
 31
0.0
  0
LINE
  8
0
 62
     0
 10
278.045
 20
106.73
 30
0.0
 11
278.045
 21
103.63
 31
0.0
  0
LINE
  8
0
 62
     0
 10
278.045
 20
103.63
 30
0.0
 11
278.845
 21
103.63
 31
0.0
  0
LINE
  8
0
 62
     0
 10
278.845
 20
103.63
 30
0.0
 11
278.845
 21
102.631
 31
0.0
  0
LINE
  8
0
 62
     0
 10
278.845
 20
102.631
 30
0.0
 11
292.844
 21
102.631
 31
0.0
  0
LINE
  8
0
 62
     0
 10
292.844
 20
102.631
 30
0.0
 11
292.844
 21
103.63
 31
0.0
  0
LINE
  8
0
 62
     0
 10
292.844
 20
103.63
 30
0.0
 11
293.645
 21
103.63
 31
0.0
  0
LINE
  8
0
 62
     0
 10
293.645
 20
103.63
 30
0.0
 11
293.645
 21
106.73
 31
0.0
  0
LINE
  8
0
 62
     0
 10
293.645
 20
106.73
 30
0.0
 11
292.844
 21
106.73
 31
0.0
  0
LINE
  8
0
 62
     0
 10
292.844
 20
106.73
 30
0.0
 11
292.844
 21
112.53
 31
0.0
  0
LINE
  8
0
 62
     0
 10
292.844
 20
112.53
 30
0.0
 11
293.645
 21
112.53
 31
0.0
  0
LINE
  8
0
 62
     0
 10
293.645
 20
112.53
 30
0.0
 11
293.645
 21
115.63
 31
0.0
  0
LINE
  8
0
 62
     0
 10
293.645
 20
115.63
 30
0.0
 11
292.844
 21
115.63
 31
0.0
  0
LINE
  8
0
 62
     0
 10
292.844
 20
115.63
 30
0.0
 11
292.844
 21
116.63
 31
0.0
  0
LINE
  8
0
 62
     0
 10
292.844
 20
116.63
 30
0.0
 11
278.845
 21
116.63
 31
0.0
  0
LINE
  8
0
 62
     0
 10
297.895
 20
116.63
 30
0.0
 11
297.895
 21
115.63
 31
0.0
  0
LINE
  8
0
 62
     0
 10
297.895
 20
115.63
 30
0.0
 11
297.095
 21
115.63
 31
0.0
  0
LINE
  8
0
 62
     0
 10
297.095
 20
115.63
 30
0.0
 11
297.095
 21
112.53
 31
0.0
  0
LINE
  8
0
 62
     0
 10
297.095
 20
112.53
 30
0.0
 11
297.895
 21
112.53
 31
0.0
  0
LINE
  8
0
 62
     0
 10
297.895
 20
112.53
 30
0.0
 11
297.895
 21
106.73
 31
0.0
  0
LINE
  8
0
 62
     0
 10
297.895
 20
106.73
 30
0.0
 11
297.095
 21
106.73
 31
0.0
  0
LINE
  8
0
 62
     0
 10
297.095
 20
106.73
 30
0.0
 11
297.095
 21
103.63
 31
0.0
  0
LINE
  8
0
 62
     0
 10
297.095
 20
103.63
 30
0.0
 11
297.895
 21
103.63
 31
0.0
  0
LINE
  8
0
 62
     0
 10
297.895
 20
103.63
 30
0.0
 11
297.895
 21
102.631
 31
0.0
  0
LINE
  8
0
 62
     0
 10
297.895
 20
102.631
 30
0.0
 11
311.894
 21
102.631
 31
0.0
  0
LINE
  8
0
 62
     0
 10
311.894
 20
102.631
 30
0.0
 11
311.894
 21
103.63
 31
0.0
  0
LINE
  8
0
 62
     0
 10
311.894
 20
103.63
 30
0.0
 11
312.695
 21
103.63
 31
0.0
  0
LINE
  8
0
 62
     0
 10
312.695
 20
103.63
 30
0.0
 11
312.695
 21
106.73
 31
0.0
  0
LINE
  8
0
 62
     0
 10
312.695
 20
106.73
 30
0.0
 11
311.894
 21
106.73
 31
0.0
  0
LINE
  8
0
 62
     0
 10
311.894
 20
106.73
 30
0.0
 11
311.894
 21
112.53
 31
0.0
  0
LINE
  8
0
 62
     0
 10
311.894
 20
112.53
 30
0.0
 11
312.695
 21
112.53
 31
0.0
  0
LINE
  8
0
 62
     0
 10
312.695
 20
112.53
 30
0.0
 11
312.695
 21
115.63
 31
0.0
  0
LINE
  8
0
 62
     0
 10
312.695
 20
115.63
 30
0.0
 11
311.894
 21
115.63
 31
0.0
  0
LINE
  8
0
 62
     0
 10
311.894
 20
115.63
 30
0.0
 11
311.894
 21
116.63
 31
0.0
  0
LINE
  8
0
 62
     0
 10
311.894
 20
116.63
 30
0.0
 11
297.895
 21
116.63
 31
0.0
  0
LINE
  8
0
 62
     0
 10
316.945
 20
116.63
 30
0.0
 11
316.945
 21
115.63
 31
0.0
  0
LINE
  8
0
 62
     0
 10
316.945
 20
115.63
 30
0.0
 11
316.145
 21
115.63
 31
0.0
  0
LINE
  8
0
 62
     0
 10
316.145
 20
115.63
 30
0.0
 11
316.145
 21
112.53
 31
0.0
  0
LINE
  8
0
 62
     0
 10
316.145
 20
112.53
 30
0.0
 11
316.945
 21
112.53
 31
0.0
  0
LINE
  8
0
 62
     0
 10
316.945
 20
112.53
 30
0.0
 11
316.945
 21
106.73
 31
0.0
  0
LINE
  8
0
 62
     0
 10
316.945
 20
106.73
 30
0.0
 11
316.145
 21
106.73
 31
0.0
  0
LINE
  8
0
 62
     0
 10
316.145
 20
106.73
 30
0.0
 11
316.145
 21
103.63
 31
0.0
  0
LINE
  8
0
 62
     0
 10
316.145
 20
103.63
 30
0.0
 11
316.945
 21
103.63
 31
0.0
  0
LINE
  8
0
 62
     0
 10
316.945
 20
103.63
 30
0.0
 11
316.945
 21
102.631
 31
0.0
  0
LINE
  8
0
 62
     0
 10
316.945
 20
102.631
 30
0.0
 11
330.944
 21
102.631
 31
0.0
  0
LINE
  8
0
 62
     0
 10
330.944
 20
102.631
 30
0.0
 11
330.944
 21
103.63
 31
0.0
  0
LINE
  8
0
 62
     0
 10
330.944
 20
103.63
 30
0.0
 11
331.745
 21
103.63
 31
0.0
  0
LINE
  8
0
 62
     0
 10
331.745
 20
103.63
 30
0.0
 11
331.745
 21
106.73
 31
0.0
  0
LINE
  8
0
 62
     0
 10
331.745
 20
106.73
 30
0.0
 11
330.944
 21
106.73
 31
0.0
  0
LINE
  8
0
 62
     0
 10
330.944
 20
106.73
 30
0.0
 11
330.944
 21
112.53
 31
0.0
  0
LINE
  8
0
 62
     0
 10
330.944
 20
112.53
 30
0.0
 11
331.745
 21
112.53
 31
0.0
  0
LINE
  8
0
 62
     0
 10
331.745
 20
112.53
 30
0.0
 11
331.745
 21
115.63
 31
0.0
  0
LINE
  8
0
 62
     0
 10
331.745
 20
115.63
 30
0.0
 11
330.944
 21
115.63
 31
0.0
  0
LINE
  8
0
 62
     0
 10
330.944
 20
115.63
 30
0.0
 11
330.944
 21
116.63
 31
0.0
  0
LINE
  8
0
 62
     0
 10
330.944
 20
116.63
 30
0.0
 11
316.945
 21
116.63
 31
0.0
  0
LINE
  8
0
 62
     0
 10
335.995
 20
116.63
 30
0.0
 11
335.995
 21
115.63
 31
0.0
  0
LINE
  8
0
 62
     0
 10
335.995
 20
115.63
 30
0.0
 11
335.195
 21
115.63
 31
0.0
  0
LINE
  8
0
 62
     0
 10
335.195
 20
115.63
 30
0.0
 11
335.195
 21
112.53
 31
0.0
  0
LINE
  8
0
 62
     0
 10
335.195
 20
112.53
 30
0.0
 11
335.995
 21
112.53
 31
0.0
  0
LINE
  8
0
 62
     0
 10
335.995
 20
112.53
 30
0.0
 11
335.995
 21
106.73
 31
0.0
  0
LINE
  8
0
 62
     0
 10
335.995
 20
106.73
 30
0.0
 11
335.195
 21
106.73
 31
0.0
  0
LINE
  8
0
 62
     0
 10
335.195
 20
106.73
 30
0.0
 11
335.195
 21
103.63
 31
0.0
  0
LINE
  8
0
 62
     0
 10
335.195
 20
103.63
 30
0.0
 11
335.995
 21
103.63
 31
0.0
  0
LINE
  8
0
 62
     0
 10
335.995
 20
103.63
 30
0.0
 11
335.995
 21
102.631
 31
0.0
  0
LINE
  8
0
 62
     0
 10
335.995
 20
102.631
 30
0.0
 11
349.994
 21
102.631
 31
0.0
  0
LINE
  8
0
 62
     0
 10
349.994
 20
102.631
 30
0.0
 11
349.994
 21
103.63
 31
0.0
  0
LINE
  8
0
 62
     0
 10
349.994
 20
103.63
 30
0.0
 11
350.795
 21
103.63
 31
0.0
  0
LINE
  8
0
 62
     0
 10
350.795
 20
103.63
 30
0.0
 11
350.795
 21
106.73
 31
0.0
  0
LINE
  8
0
 62
     0
 10
350.795
 20
106.73
 30
0.0
 11
349.994
 21
106.73
 31
0.0
  0
LINE
  8
0
 62
     0
 10
349.994
 20
106.73
 30
0.0
 11
349.994
 21
112.53
 31
0.0
  0
LINE
  8
0
 62
     0
 10
349.994
 20
112.53
 30
0.0
 11
350.795
 21
112.53
 31
0.0
  0
LINE
  8
0
 62
     0
 10
350.795
 20
112.53
 30
0.0
 11
350.795
 21
115.63
 31
0.0
  0
LINE
  8
0
 62
     0
 10
350.795
 20
115.63
 30
0.0
 11
349.994
 21
115.63
 31
0.0
  0
LINE
  8
0
 62
     0
 10
349.994
 20
115.63
 30
0.0
 11
349.994
 21
116.63
 31
0.0
  0
LINE
  8
0
 62
     0
 10
349.994
 20
116.63
 30
0.0
 11
335.995
 21
116.63
 31
0.0
  0
ENDSEC
  0
EOF
