G04*
G04 #@! TF.GenerationSoftware,Altium Limited,Altium Designer,19.1.2 (11)*
G04*
G04 Layer_Color=16711935*
%FSLAX25Y25*%
%MOIN*%
G70*
G01*
G75*
%ADD10C,0.01000*%
%ADD98C,0.00600*%
D10*
X375000Y375500D02*
G03*
X358000Y393000I-17250J250D01*
G01*
X357500Y0D02*
G03*
X375000Y17000I250J17250D01*
G01*
X500Y17500D02*
G03*
X17500Y0I17250J-250D01*
G01*
X18000Y393000D02*
G03*
X500Y376000I-250J-17250D01*
G01*
X500Y17500D02*
Y375500D01*
X18000Y0D02*
X358000D01*
X375000Y17000D02*
Y376500D01*
X18000Y393000D02*
X358500D01*
D98*
X248500Y263000D02*
X297500D01*
X248500D02*
Y269500D01*
X245000D02*
X248500D01*
X245000D02*
Y282500D01*
X248500D01*
Y289500D01*
X273500D01*
Y292500D01*
X284500D01*
Y289500D02*
Y292500D01*
Y289500D02*
X297500D01*
Y282500D02*
Y289500D01*
Y282500D02*
X301000D01*
Y269500D02*
Y282500D01*
X297500Y269500D02*
X301000D01*
X297500Y263000D02*
Y269500D01*
Y189000D02*
Y195500D01*
Y189000D02*
X301000D01*
Y176000D02*
Y189000D01*
X297500Y176000D02*
X301000D01*
X297500Y169000D02*
Y176000D01*
X284500Y169000D02*
X297500D01*
X284500Y166000D02*
Y169000D01*
X273500Y166000D02*
X284500D01*
X273500D02*
Y169000D01*
X248500D02*
X273500D01*
X248500D02*
Y176000D01*
X245000D02*
X248500D01*
X245000D02*
Y189000D01*
X248500D01*
Y195500D01*
X297500D01*
X47500Y11000D02*
Y14500D01*
X54500D01*
X128000Y67500D02*
X141500D01*
Y63500D02*
Y67500D01*
X148000Y51000D02*
X151500D01*
Y39500D02*
Y51000D01*
X54500Y14500D02*
Y63500D01*
X34500Y11000D02*
X47500D01*
X34500D02*
Y14500D01*
X27500D02*
X34500D01*
X27500D02*
Y39500D01*
X24500D02*
X27500D01*
X24500D02*
Y51000D01*
X27500D01*
Y63500D01*
X34500D01*
Y67500D01*
X48000D01*
Y63500D02*
Y67500D01*
Y63500D02*
X54500D01*
X121500D02*
X128000D01*
Y67500D01*
X141500Y63500D02*
X148000D01*
Y51000D02*
Y63500D01*
Y39500D02*
X151500D01*
X148000Y15000D02*
Y39500D01*
X141500Y15000D02*
X148000D01*
X141500Y11000D02*
Y15000D01*
X128000Y11000D02*
X141500D01*
X128000D02*
Y15000D01*
X121500D02*
X128000D01*
X121500D02*
Y63500D01*
X248500Y45500D02*
X297500D01*
X248500Y39000D02*
Y45500D01*
X245000Y39000D02*
X248500D01*
X245000Y26000D02*
Y39000D01*
Y26000D02*
X248500D01*
Y19000D02*
Y26000D01*
Y19000D02*
X273500D01*
Y16000D02*
Y19000D01*
Y16000D02*
X284500D01*
Y19000D01*
X297500D01*
Y26000D01*
X301000D01*
Y39000D01*
X297500D02*
X301000D01*
X297500D02*
Y45500D01*
Y113000D02*
Y119500D01*
X301000D01*
Y132500D01*
X297500D02*
X301000D01*
X297500D02*
Y139500D01*
X284500D02*
X297500D01*
X284500D02*
Y142500D01*
X273500D02*
X284500D01*
X273500Y139500D02*
Y142500D01*
X248500Y139500D02*
X273500D01*
X248500Y132500D02*
Y139500D01*
X245000Y132500D02*
X248500D01*
X245000Y119500D02*
Y132500D01*
Y119500D02*
X248500D01*
Y113000D02*
Y119500D01*
Y113000D02*
X297500D01*
M02*
