G04*
G04 #@! TF.GenerationSoftware,Altium Limited,Altium Designer,19.1.2 (11)*
G04*
G04 Layer_Color=128*
%FSLAX25Y25*%
%MOIN*%
G70*
G01*
G75*
%ADD10C,0.01000*%
%ADD11C,0.00200*%
D10*
X18000Y393000D02*
G03*
X500Y376000I-250J-17250D01*
G01*
Y17500D02*
G03*
X17500Y0I17250J-250D01*
G01*
X357500D02*
G03*
X375000Y17000I250J17250D01*
G01*
Y375500D02*
G03*
X358000Y393000I-17250J250D01*
G01*
X18000D02*
X358500D01*
X375000Y17000D02*
Y376500D01*
X18000Y0D02*
X358000D01*
X500Y17500D02*
Y375500D01*
D11*
X345800Y356508D02*
X348949D01*
X347375Y354933D02*
Y358083D01*
X345800Y322492D02*
X348949D01*
X347375Y320917D02*
Y324067D01*
X362257Y322492D02*
X365406D01*
X363831Y320917D02*
Y324067D01*
X362257Y356508D02*
X365406D01*
X363831Y354933D02*
Y358083D01*
X347985Y328122D02*
X350938D01*
X349462Y326646D02*
Y329598D01*
X347985Y350878D02*
X350938D01*
X349462Y349402D02*
Y352354D01*
X208525Y74000D02*
X211675D01*
X210100Y72425D02*
Y75575D01*
X188725Y74000D02*
X191875D01*
X190300Y72425D02*
Y75575D01*
X188725Y55200D02*
X191875D01*
X190300Y53625D02*
Y56775D01*
X208525Y55200D02*
X211675D01*
X210100Y53625D02*
Y56775D01*
X189964Y64500D02*
X210436D01*
X200200Y54264D02*
Y74736D01*
X184595Y21500D02*
X196405D01*
X190500Y15595D02*
Y27406D01*
X209594Y31500D02*
X221406D01*
X215500Y25594D02*
Y37405D01*
X192500Y41500D02*
X208500D01*
X200500Y33500D02*
Y49500D01*
X217150Y41500D02*
X223850D01*
X220500Y38150D02*
Y44850D01*
X177150Y41500D02*
X183850D01*
X180500Y38150D02*
Y44850D01*
X96025Y74500D02*
X99175D01*
X97600Y72925D02*
Y76075D01*
X76225Y74500D02*
X79375D01*
X77800Y72925D02*
Y76075D01*
X76225Y55700D02*
X79375D01*
X77800Y54125D02*
Y57275D01*
X96025Y55700D02*
X99175D01*
X97600Y54125D02*
Y57275D01*
X77464Y65000D02*
X97936D01*
X87700Y54764D02*
Y75236D01*
X72095Y22000D02*
X83906D01*
X78000Y16094D02*
Y27905D01*
X97095Y32000D02*
X108905D01*
X103000Y26094D02*
Y37905D01*
X80000Y42000D02*
X96000D01*
X88000Y34000D02*
Y50000D01*
X104650Y42000D02*
X111350D01*
X108000Y38650D02*
Y45350D01*
X64650Y42000D02*
X71350D01*
X68000Y38650D02*
Y45350D01*
X208525Y149500D02*
X211675D01*
X210100Y147925D02*
Y151075D01*
X188725Y149500D02*
X191875D01*
X190300Y147925D02*
Y151075D01*
X188725Y130700D02*
X191875D01*
X190300Y129125D02*
Y132275D01*
X208525Y130700D02*
X211675D01*
X210100Y129125D02*
Y132275D01*
X189964Y140000D02*
X210436D01*
X200200Y129764D02*
Y150236D01*
X184595Y97000D02*
X196405D01*
X190500Y91094D02*
Y102905D01*
X209594Y107000D02*
X221406D01*
X215500Y101094D02*
Y112906D01*
X192500Y117000D02*
X208500D01*
X200500Y109000D02*
Y125000D01*
X217150Y117000D02*
X223850D01*
X220500Y113650D02*
Y120350D01*
X177150Y117000D02*
X183850D01*
X180500Y113650D02*
Y120350D01*
X133525Y149500D02*
X136675D01*
X135100Y147925D02*
Y151075D01*
X113725Y149500D02*
X116875D01*
X115300Y147925D02*
Y151075D01*
X113725Y130700D02*
X116875D01*
X115300Y129125D02*
Y132275D01*
X133525Y130700D02*
X136675D01*
X135100Y129125D02*
Y132275D01*
X114964Y140000D02*
X135436D01*
X125200Y129764D02*
Y150236D01*
X109595Y97000D02*
X121405D01*
X115500Y91094D02*
Y102905D01*
X134595Y107000D02*
X146405D01*
X140500Y101094D02*
Y112906D01*
X117500Y117000D02*
X133500D01*
X125500Y109000D02*
Y125000D01*
X142150Y117000D02*
X148850D01*
X145500Y113650D02*
Y120350D01*
X102150Y117000D02*
X108850D01*
X105500Y113650D02*
Y120350D01*
X58525Y149500D02*
X61675D01*
X60100Y147925D02*
Y151075D01*
X38725Y149500D02*
X41875D01*
X40300Y147925D02*
Y151075D01*
X38725Y130700D02*
X41875D01*
X40300Y129125D02*
Y132275D01*
X58525Y130700D02*
X61675D01*
X60100Y129125D02*
Y132275D01*
X39964Y140000D02*
X60436D01*
X50200Y129764D02*
Y150236D01*
X34595Y97000D02*
X46406D01*
X40500Y91094D02*
Y102905D01*
X59595Y107000D02*
X71406D01*
X65500Y101094D02*
Y112906D01*
X42500Y117000D02*
X58500D01*
X50500Y109000D02*
Y125000D01*
X67150Y117000D02*
X73850D01*
X70500Y113650D02*
Y120350D01*
X27150Y117000D02*
X33850D01*
X30500Y113650D02*
Y120350D01*
X208525Y224000D02*
X211675D01*
X210100Y222425D02*
Y225575D01*
X188725Y224000D02*
X191875D01*
X190300Y222425D02*
Y225575D01*
X188725Y205200D02*
X191875D01*
X190300Y203625D02*
Y206775D01*
X208525Y205200D02*
X211675D01*
X210100Y203625D02*
Y206775D01*
X189964Y214500D02*
X210436D01*
X200200Y204264D02*
Y224736D01*
X184595Y171500D02*
X196405D01*
X190500Y165594D02*
Y177406D01*
X209594Y181500D02*
X221406D01*
X215500Y175594D02*
Y187406D01*
X192500Y191500D02*
X208500D01*
X200500Y183500D02*
Y199500D01*
X217150Y191500D02*
X223850D01*
X220500Y188150D02*
Y194850D01*
X177150Y191500D02*
X183850D01*
X180500Y188150D02*
Y194850D01*
X133525Y224500D02*
X136675D01*
X135100Y222925D02*
Y226075D01*
X113725Y224500D02*
X116875D01*
X115300Y222925D02*
Y226075D01*
X113725Y205700D02*
X116875D01*
X115300Y204125D02*
Y207275D01*
X133525Y205700D02*
X136675D01*
X135100Y204125D02*
Y207275D01*
X114964Y215000D02*
X135436D01*
X125200Y204764D02*
Y225236D01*
X109595Y172000D02*
X121405D01*
X115500Y166095D02*
Y177905D01*
X134595Y182000D02*
X146405D01*
X140500Y176094D02*
Y187906D01*
X117500Y192000D02*
X133500D01*
X125500Y184000D02*
Y200000D01*
X142150Y192000D02*
X148850D01*
X145500Y188650D02*
Y195350D01*
X102150Y192000D02*
X108850D01*
X105500Y188650D02*
Y195350D01*
X58525Y224500D02*
X61675D01*
X60100Y222925D02*
Y226075D01*
X38725Y224500D02*
X41875D01*
X40300Y222925D02*
Y226075D01*
X38725Y205700D02*
X41875D01*
X40300Y204125D02*
Y207275D01*
X58525Y205700D02*
X61675D01*
X60100Y204125D02*
Y207275D01*
X39964Y215000D02*
X60436D01*
X50200Y204764D02*
Y225236D01*
X34595Y172000D02*
X46406D01*
X40500Y166095D02*
Y177905D01*
X59595Y182000D02*
X71406D01*
X65500Y176094D02*
Y187906D01*
X42500Y192000D02*
X58500D01*
X50500Y184000D02*
Y200000D01*
X67150Y192000D02*
X73850D01*
X70500Y188650D02*
Y195350D01*
X27150Y192000D02*
X33850D01*
X30500Y188650D02*
Y195350D01*
X133525Y374500D02*
X136675D01*
X135100Y372925D02*
Y376075D01*
X113725Y374500D02*
X116875D01*
X115300Y372925D02*
Y376075D01*
X113725Y355700D02*
X116875D01*
X115300Y354125D02*
Y357275D01*
X133525Y355700D02*
X136675D01*
X135100Y354125D02*
Y357275D01*
X114964Y365000D02*
X135436D01*
X125200Y354764D02*
Y375236D01*
X109595Y322000D02*
X121405D01*
X115500Y316094D02*
Y327906D01*
X134595Y332000D02*
X146405D01*
X140500Y326095D02*
Y337906D01*
X117500Y342000D02*
X133500D01*
X125500Y334000D02*
Y350000D01*
X142150Y342000D02*
X148850D01*
X145500Y338650D02*
Y345350D01*
X102150Y342000D02*
X108850D01*
X105500Y338650D02*
Y345350D01*
X208525Y299500D02*
X211675D01*
X210100Y297925D02*
Y301075D01*
X188725Y299500D02*
X191875D01*
X190300Y297925D02*
Y301075D01*
X188725Y280700D02*
X191875D01*
X190300Y279125D02*
Y282275D01*
X208525Y280700D02*
X211675D01*
X210100Y279125D02*
Y282275D01*
X189964Y290000D02*
X210436D01*
X200200Y279764D02*
Y300236D01*
X184595Y247000D02*
X196405D01*
X190500Y241094D02*
Y252906D01*
X209594Y257000D02*
X221406D01*
X215500Y251095D02*
Y262906D01*
X192500Y267000D02*
X208500D01*
X200500Y259000D02*
Y275000D01*
X217150Y267000D02*
X223850D01*
X220500Y263650D02*
Y270350D01*
X177150Y267000D02*
X183850D01*
X180500Y263650D02*
Y270350D01*
X133525Y299500D02*
X136675D01*
X135100Y297925D02*
Y301075D01*
X113725Y299500D02*
X116875D01*
X115300Y297925D02*
Y301075D01*
X113725Y280700D02*
X116875D01*
X115300Y279125D02*
Y282275D01*
X133525Y280700D02*
X136675D01*
X135100Y279125D02*
Y282275D01*
X114964Y290000D02*
X135436D01*
X125200Y279764D02*
Y300236D01*
X109595Y247000D02*
X121405D01*
X115500Y241094D02*
Y252906D01*
X134595Y257000D02*
X146405D01*
X140500Y251095D02*
Y262906D01*
X117500Y267000D02*
X133500D01*
X125500Y259000D02*
Y275000D01*
X142150Y267000D02*
X148850D01*
X145500Y263650D02*
Y270350D01*
X102150Y267000D02*
X108850D01*
X105500Y263650D02*
Y270350D01*
X58525Y299500D02*
X61675D01*
X60100Y297925D02*
Y301075D01*
X38725Y299500D02*
X41875D01*
X40300Y297925D02*
Y301075D01*
X38725Y280700D02*
X41875D01*
X40300Y279125D02*
Y282275D01*
X58525Y280700D02*
X61675D01*
X60100Y279125D02*
Y282275D01*
X39964Y290000D02*
X60436D01*
X50200Y279764D02*
Y300236D01*
X34595Y247000D02*
X46406D01*
X40500Y241094D02*
Y252906D01*
X59595Y257000D02*
X71406D01*
X65500Y251095D02*
Y262906D01*
X42500Y267000D02*
X58500D01*
X50500Y259000D02*
Y275000D01*
X67150Y267000D02*
X73850D01*
X70500Y263650D02*
Y270350D01*
X27150Y267000D02*
X33850D01*
X30500Y263650D02*
Y270350D01*
X58525Y374500D02*
X61675D01*
X60100Y372925D02*
Y376075D01*
X38725Y374500D02*
X41875D01*
X40300Y372925D02*
Y376075D01*
X38725Y355700D02*
X41875D01*
X40300Y354125D02*
Y357275D01*
X58525Y355700D02*
X61675D01*
X60100Y354125D02*
Y357275D01*
X39964Y365000D02*
X60436D01*
X50200Y354764D02*
Y375236D01*
X34595Y322000D02*
X46406D01*
X40500Y316094D02*
Y327906D01*
X59595Y332000D02*
X71406D01*
X65500Y326095D02*
Y337906D01*
X42500Y342000D02*
X58500D01*
X50500Y334000D02*
Y350000D01*
X67150Y342000D02*
X73850D01*
X70500Y338650D02*
Y345350D01*
X27150Y342000D02*
X33850D01*
X30500Y338650D02*
Y345350D01*
X306425Y219900D02*
X309575D01*
X308000Y218325D02*
Y221475D01*
X306425Y239700D02*
X309575D01*
X308000Y238125D02*
Y241275D01*
X287625Y239700D02*
X290775D01*
X289200Y238125D02*
Y241275D01*
X287625Y219900D02*
X290775D01*
X289200Y218325D02*
Y221475D01*
X288264Y229800D02*
X308736D01*
X298500Y219564D02*
Y240036D01*
X249594Y239500D02*
X261405D01*
X255500Y233594D02*
Y245406D01*
X259594Y214500D02*
X271406D01*
X265500Y208594D02*
Y220406D01*
X267500Y229500D02*
X283500D01*
X275500Y221500D02*
Y237500D01*
X272150Y209500D02*
X278850D01*
X275500Y206150D02*
Y212850D01*
X272150Y249500D02*
X278850D01*
X275500Y246150D02*
Y252850D01*
X306425Y69900D02*
X309575D01*
X308000Y68325D02*
Y71475D01*
X306425Y89700D02*
X309575D01*
X308000Y88125D02*
Y91275D01*
X287625Y89700D02*
X290775D01*
X289200Y88125D02*
Y91275D01*
X287625Y69900D02*
X290775D01*
X289200Y68325D02*
Y71475D01*
X288264Y79800D02*
X308736D01*
X298500Y69564D02*
Y90036D01*
X249594Y89500D02*
X261405D01*
X255500Y83595D02*
Y95406D01*
X259594Y64500D02*
X271406D01*
X265500Y58595D02*
Y70406D01*
X267500Y79500D02*
X283500D01*
X275500Y71500D02*
Y87500D01*
X272150Y59500D02*
X278850D01*
X275500Y56150D02*
Y62850D01*
X272150Y99500D02*
X278850D01*
X275500Y96150D02*
Y102850D01*
X352953Y377252D02*
X365551D01*
X359252Y370953D02*
Y383551D01*
X10201Y378500D02*
X22799D01*
X16500Y372201D02*
Y384799D01*
X10201Y14500D02*
X22799D01*
X16500Y8201D02*
Y20799D01*
X352953Y15748D02*
X365551D01*
X359252Y9449D02*
Y22047D01*
X136890Y306000D02*
X145551D01*
X141220Y301669D02*
Y310331D01*
X11169Y306000D02*
X19831D01*
X15500Y301669D02*
Y310331D01*
X11169Y209500D02*
X19831D01*
X15500Y205169D02*
Y213831D01*
X252150Y342000D02*
X258850D01*
X255500Y338650D02*
Y345350D01*
X292150Y342000D02*
X298850D01*
X295500Y338650D02*
Y345350D01*
X267500Y342000D02*
X283500D01*
X275500Y334000D02*
Y350000D01*
X284594Y332000D02*
X296406D01*
X290500Y326095D02*
Y337906D01*
X259594Y322000D02*
X271406D01*
X265500Y316094D02*
Y327906D01*
X264964Y365000D02*
X285436D01*
X275200Y354764D02*
Y375236D01*
X283525Y355700D02*
X286675D01*
X285100Y354125D02*
Y357275D01*
X263725Y355700D02*
X266875D01*
X265300Y354125D02*
Y357275D01*
X263725Y374500D02*
X266875D01*
X265300Y372925D02*
Y376075D01*
X283525Y374500D02*
X286675D01*
X285100Y372925D02*
Y376075D01*
X177150Y342000D02*
X183850D01*
X180500Y338650D02*
Y345350D01*
X217150Y342000D02*
X223850D01*
X220500Y338650D02*
Y345350D01*
X192500Y342000D02*
X208500D01*
X200500Y334000D02*
Y350000D01*
X209594Y332000D02*
X221406D01*
X215500Y326095D02*
Y337906D01*
X184595Y322000D02*
X196405D01*
X190500Y316094D02*
Y327906D01*
X189964Y365000D02*
X210436D01*
X200200Y354764D02*
Y375236D01*
X208525Y355700D02*
X211675D01*
X210100Y354125D02*
Y357275D01*
X188725Y355700D02*
X191875D01*
X190300Y354125D02*
Y357275D01*
X188725Y374500D02*
X191875D01*
X190300Y372925D02*
Y376075D01*
X208525Y374500D02*
X211675D01*
X210100Y372925D02*
Y376075D01*
X233250Y198000D02*
X234750D01*
X234000Y197250D02*
Y198750D01*
X300250Y197000D02*
X301750D01*
X301000Y196250D02*
Y197750D01*
X355250Y104000D02*
X356750D01*
X356000Y103250D02*
Y104750D01*
X335750Y113385D02*
X337250D01*
X336500Y112635D02*
Y114135D01*
X340750Y112500D02*
X342250D01*
X341500Y111750D02*
Y113250D01*
X324750Y111500D02*
X326250D01*
X325500Y110750D02*
Y112250D01*
X214750Y215000D02*
X216250D01*
X215500Y214250D02*
Y215750D01*
X339750Y356500D02*
X341250D01*
X340500Y355750D02*
Y357250D01*
X334750Y142500D02*
X336250D01*
X335500Y141750D02*
Y143250D01*
X319750Y148000D02*
X321250D01*
X320500Y147250D02*
Y148750D01*
X319250Y139500D02*
X320750D01*
X320000Y138750D02*
Y140250D01*
X316250Y101000D02*
X317750D01*
X317000Y100250D02*
Y101750D01*
X319750Y93500D02*
X321250D01*
X320500Y92750D02*
Y94250D01*
X326250Y89500D02*
X327750D01*
X327000Y88750D02*
Y90250D01*
X351750Y85000D02*
X353250D01*
X352500Y84250D02*
Y85750D01*
X355750Y89500D02*
X357250D01*
X356500Y88750D02*
Y90250D01*
X347250Y104500D02*
X348750D01*
X348000Y103750D02*
Y105250D01*
X347750Y125000D02*
X349250D01*
X348500Y124250D02*
Y125750D01*
X353750Y141500D02*
X355250D01*
X354500Y140750D02*
Y142250D01*
X347250Y143000D02*
X348750D01*
X348000Y142250D02*
Y143750D01*
X328750Y297500D02*
X330250D01*
X329500Y296750D02*
Y298250D01*
X332750Y290500D02*
X334250D01*
X333500Y289750D02*
Y291250D01*
X338750Y289500D02*
X340250D01*
X339500Y288750D02*
Y290250D01*
X338750Y312000D02*
X340250D01*
X339500Y311250D02*
Y312750D01*
X336250Y319000D02*
X337750D01*
X337000Y318250D02*
Y319750D01*
X333750Y324000D02*
X335250D01*
X334500Y323250D02*
Y324750D01*
X355750Y361000D02*
X357250D01*
X356500Y360250D02*
Y361750D01*
X347750Y364000D02*
X349250D01*
X348500Y363250D02*
Y364750D01*
X341250Y368500D02*
X342750D01*
X342000Y367750D02*
Y369250D01*
X316250Y348500D02*
X317750D01*
X317000Y347750D02*
Y349250D01*
X324250Y356500D02*
X325750D01*
X325000Y355750D02*
Y357250D01*
X322250Y361000D02*
X323750D01*
X323000Y360250D02*
Y361750D01*
X298250Y214500D02*
X299750D01*
X299000Y213750D02*
Y215250D01*
X312250Y235000D02*
X313750D01*
X313000Y234250D02*
Y235750D01*
X304750Y99000D02*
X306250D01*
X305500Y98250D02*
Y99750D01*
X297750Y64000D02*
X299250D01*
X298500Y63250D02*
Y64750D01*
X112250Y69500D02*
X113750D01*
X113000Y68750D02*
Y70250D01*
X226250Y64500D02*
X227750D01*
X227000Y63750D02*
Y65250D01*
X67250Y76000D02*
X68750D01*
X68000Y75250D02*
Y76750D01*
X181250Y73500D02*
X182750D01*
X182000Y72750D02*
Y74250D01*
X214750Y140000D02*
X216250D01*
X215500Y139250D02*
Y140750D01*
X184750Y141500D02*
X186250D01*
X185500Y140750D02*
Y142250D01*
X153250Y139500D02*
X154750D01*
X154000Y138750D02*
Y140250D01*
X102750Y145500D02*
X104250D01*
X103500Y144750D02*
Y146250D01*
X76750Y139000D02*
X78250D01*
X77500Y138250D02*
Y139750D01*
X28750Y142000D02*
X30250D01*
X29500Y141250D02*
Y142750D01*
X77750Y366000D02*
X79250D01*
X78500Y365250D02*
Y366750D01*
X154750Y366000D02*
X156250D01*
X155500Y365250D02*
Y366750D01*
X227250Y366000D02*
X228750D01*
X228000Y365250D02*
Y366750D01*
X300250Y370000D02*
X301750D01*
X301000Y369250D02*
Y370750D01*
X226250Y290500D02*
X227750D01*
X227000Y289750D02*
Y291250D01*
X154250Y290500D02*
X155750D01*
X155000Y289750D02*
Y291250D01*
X77250Y289000D02*
X78750D01*
X78000Y288250D02*
Y289750D01*
X78250Y216000D02*
X79750D01*
X79000Y215250D02*
Y216750D01*
X153750Y212500D02*
X155250D01*
X154500Y211750D02*
Y213250D01*
X175750Y222000D02*
X177250D01*
X176500Y221250D02*
Y222750D01*
X104750Y217000D02*
X106250D01*
X105500Y216250D02*
Y217750D01*
X34750Y214500D02*
X36250D01*
X35500Y213750D02*
Y215250D01*
X180250Y297500D02*
X181750D01*
X181000Y296750D02*
Y298250D01*
X103750Y295000D02*
X105250D01*
X104500Y294250D02*
Y295750D01*
X22750Y294500D02*
X24250D01*
X23500Y293750D02*
Y295250D01*
X29750Y362000D02*
X31250D01*
X30500Y361250D02*
Y362750D01*
X105750Y376500D02*
X107250D01*
X106500Y375750D02*
Y377250D01*
X178750Y375500D02*
X180250D01*
X179500Y374750D02*
Y376250D01*
X239750Y375500D02*
X241250D01*
X240500Y374750D02*
Y376250D01*
X252250Y375000D02*
X253750D01*
X253000Y374250D02*
Y375750D01*
X103750Y52000D02*
X105250D01*
X104500Y51250D02*
Y52750D01*
X93250Y128500D02*
X94750D01*
X94000Y127750D02*
Y129250D01*
X82250Y128500D02*
X83750D01*
X83000Y127750D02*
Y129250D01*
X87750Y272500D02*
X89250D01*
X88500Y271750D02*
Y273250D01*
X87750Y281500D02*
X89250D01*
X88500Y280750D02*
Y282250D01*
X87750Y356000D02*
X89250D01*
X88500Y355250D02*
Y356750D01*
X87750Y346000D02*
X89250D01*
X88500Y345250D02*
Y346750D01*
X87750Y198500D02*
X89250D01*
X88500Y197750D02*
Y199250D01*
X87750Y208000D02*
X89250D01*
X88500Y207250D02*
Y208750D01*
X233250Y205000D02*
X234750D01*
X234000Y204250D02*
Y205750D01*
X340750Y206000D02*
X342250D01*
X341500Y205250D02*
Y206750D01*
X336750Y206500D02*
X338250D01*
X337500Y205750D02*
Y207250D01*
X232750Y201500D02*
X234250D01*
X233500Y200750D02*
Y202250D01*
X216250Y59000D02*
X217750D01*
X217000Y58250D02*
Y59750D01*
X241750Y81000D02*
X243250D01*
X242500Y80250D02*
Y81750D01*
X103650Y59200D02*
X105150D01*
X104400Y58450D02*
Y59950D01*
X87750Y127500D02*
X89250D01*
X88500Y126750D02*
Y128250D01*
X87750Y202500D02*
X89250D01*
X88500Y201750D02*
Y203250D01*
X87750Y276500D02*
X89250D01*
X88500Y275750D02*
Y277250D01*
X87750Y351500D02*
X89250D01*
X88500Y350750D02*
Y352250D01*
X300000Y157000D02*
X301500D01*
X300750Y156250D02*
Y157750D01*
X284750Y160500D02*
X286250D01*
X285500Y159750D02*
Y161250D01*
X318750Y244000D02*
X320250D01*
X319500Y243250D02*
Y244750D01*
X250250Y216000D02*
X251750D01*
X251000Y215250D02*
Y216750D01*
X312750Y248500D02*
X314250D01*
X313500Y247750D02*
Y249250D01*
X240250Y223500D02*
X241750D01*
X241000Y222750D02*
Y224250D01*
X314750Y255000D02*
X316250D01*
X315500Y254250D02*
Y255750D01*
X314750Y271000D02*
X316250D01*
X315500Y270250D02*
Y271750D01*
X353600Y274651D02*
X355100D01*
X354349Y273901D02*
Y275400D01*
X368020Y274730D02*
X369520D01*
X368770Y273980D02*
Y275480D01*
X355250Y117500D02*
X356750D01*
X356000Y116750D02*
Y118250D01*
X357750Y120500D02*
X359250D01*
X358500Y119750D02*
Y121250D01*
X360250Y100500D02*
X361750D01*
X361000Y99750D02*
Y101250D01*
X344719Y70969D02*
X346218D01*
X345468Y70218D02*
Y71719D01*
X348250Y100500D02*
X349750D01*
X349000Y99750D02*
Y101250D01*
X335750Y240000D02*
X337250D01*
X336500Y239250D02*
Y240750D01*
X322000Y220750D02*
X323500D01*
X322750Y220000D02*
Y221500D01*
X333250Y236500D02*
X334750D01*
X334000Y235750D02*
Y237250D01*
X328250Y227000D02*
X329750D01*
X329000Y226250D02*
Y227750D01*
X240750Y97000D02*
X242250D01*
X241500Y96250D02*
Y97750D01*
X243750Y246500D02*
X245250D01*
X244500Y245750D02*
Y247250D01*
X238750Y272500D02*
X240250D01*
X239500Y271750D02*
Y273250D01*
X181250Y86500D02*
X182750D01*
X182000Y85750D02*
Y87250D01*
X181250Y160000D02*
X182750D01*
X182000Y159250D02*
Y160750D01*
X182250Y235000D02*
X183750D01*
X183000Y234250D02*
Y235750D01*
X182850Y310600D02*
X184350D01*
X183600Y309850D02*
Y311350D01*
X181250Y11000D02*
X182750D01*
X182000Y10250D02*
Y11750D01*
X106750Y86000D02*
X108250D01*
X107500Y85250D02*
Y86750D01*
X106750Y161000D02*
X108250D01*
X107500Y160250D02*
Y161750D01*
X107000Y233250D02*
X108500D01*
X107750Y232500D02*
Y234000D01*
X107850Y310600D02*
X109350D01*
X108600Y309850D02*
Y311350D01*
X304250Y59500D02*
X305750D01*
X305000Y58750D02*
Y60250D01*
X232750Y70500D02*
X234250D01*
X233500Y69750D02*
Y71250D01*
X129250Y95500D02*
X130750D01*
X130000Y94750D02*
Y96250D01*
X112250Y117500D02*
X113750D01*
X113000Y116750D02*
Y118250D01*
X70750Y10000D02*
X72250D01*
X71500Y9250D02*
Y10750D01*
X34750Y81500D02*
X36250D01*
X35500Y80750D02*
Y82250D01*
X33250Y164500D02*
X34750D01*
X34000Y163750D02*
Y165250D01*
X17250Y236000D02*
X18750D01*
X18000Y235250D02*
Y236750D01*
X31750Y303000D02*
X33250D01*
X32500Y302250D02*
Y303750D01*
X234250Y267500D02*
X235750D01*
X235000Y266750D02*
Y268250D01*
X265750Y256500D02*
X267250D01*
X266500Y255750D02*
Y257250D01*
X237750Y289500D02*
X239250D01*
X238500Y288750D02*
Y290250D01*
X334250Y335500D02*
X335750D01*
X335000Y334750D02*
Y336250D01*
X334250Y343000D02*
X335750D01*
X335000Y342250D02*
Y343750D01*
M02*
