G04*
G04 #@! TF.GenerationSoftware,Altium Limited,Altium Designer,19.1.2 (11)*
G04*
G04 Layer_Physical_Order=1*
G04 Layer_Color=128*
%FSLAX25Y25*%
%MOIN*%
G70*
G01*
G75*
%ADD10C,0.01000*%
%ADD13R,0.03937X0.05906*%
%ADD14R,0.03858X0.03661*%
%ADD25C,0.04000*%
%ADD26C,0.02000*%
%ADD27C,0.03000*%
%ADD28C,0.01200*%
%ADD29R,0.06000X0.06000*%
%ADD30R,0.06000X0.12000*%
%ADD31R,0.15500X0.05500*%
%ADD32R,0.05000X0.13500*%
%ADD33R,0.07000X0.14000*%
%ADD34R,0.07000X0.12000*%
%ADD35R,0.04000X0.07000*%
%ADD36R,0.07500X0.04500*%
%ADD37O,0.07874X0.04724*%
%ADD38O,0.07087X0.04724*%
%ADD39C,0.02953*%
%ADD40C,0.16000*%
%ADD41C,0.06700*%
%ADD42C,0.03000*%
G36*
X17779Y390495D02*
X18000Y390451D01*
X358338D01*
X360057Y390316D01*
X362307Y389775D01*
X364445Y388890D01*
X366418Y387681D01*
X368178Y386178D01*
X369681Y384418D01*
X370890Y382445D01*
X371776Y380307D01*
X372316Y378057D01*
X372451Y376338D01*
Y17000D01*
X372470Y16904D01*
X372316Y14943D01*
X371776Y12693D01*
X370890Y10555D01*
X369681Y8582D01*
X368178Y6822D01*
X366418Y5319D01*
X364445Y4110D01*
X362307Y3224D01*
X360057Y2684D01*
X358096Y2530D01*
X358000Y2549D01*
X18035D01*
X18031Y2549D01*
X18030Y2549D01*
X18000Y2549D01*
X17537Y2542D01*
X17048Y2558D01*
X15443Y2684D01*
X13193Y3224D01*
X11055Y4110D01*
X9082Y5319D01*
X7322Y6822D01*
X5819Y8582D01*
X4610Y10555D01*
X3725Y12693D01*
X3184Y14943D01*
X3003Y17250D01*
X3005Y17279D01*
X3049Y17500D01*
Y375465D01*
X3049Y375469D01*
X3049Y375470D01*
X3049Y375500D01*
X3042Y375963D01*
X3058Y376452D01*
X3184Y378057D01*
X3725Y380307D01*
X4610Y382445D01*
X5819Y384418D01*
X7322Y386178D01*
X9082Y387681D01*
X11055Y388890D01*
X13193Y389775D01*
X15443Y390316D01*
X17750Y390497D01*
X17779Y390495D01*
D02*
G37*
%LPC*%
G36*
X285100Y377097D02*
X284428Y377009D01*
X283802Y376749D01*
X283264Y376336D01*
X283187Y376236D01*
X267213D01*
X267136Y376336D01*
X266599Y376749D01*
X265972Y377009D01*
X265300Y377097D01*
X264628Y377009D01*
X264001Y376749D01*
X263464Y376336D01*
X263051Y375799D01*
X262791Y375172D01*
X262703Y374500D01*
X262791Y373828D01*
X263051Y373201D01*
X263464Y372664D01*
X263570Y372582D01*
Y357618D01*
X263464Y357536D01*
X263051Y356998D01*
X262791Y356372D01*
X262703Y355700D01*
X262791Y355028D01*
X263051Y354401D01*
X263464Y353864D01*
X263570Y353782D01*
Y353764D01*
X263594D01*
X264001Y353451D01*
X264628Y353191D01*
X265300Y353103D01*
X265972Y353191D01*
X266599Y353451D01*
X267006Y353764D01*
X283394D01*
X283802Y353451D01*
X284428Y353191D01*
X285100Y353103D01*
X285772Y353191D01*
X286399Y353451D01*
X286806Y353764D01*
X286830D01*
Y353782D01*
X286936Y353864D01*
X287349Y354401D01*
X287609Y355028D01*
X287697Y355700D01*
X287609Y356372D01*
X287349Y356998D01*
X286936Y357536D01*
X286830Y357618D01*
Y372582D01*
X286936Y372664D01*
X287349Y373201D01*
X287609Y373828D01*
X287697Y374500D01*
X287609Y375172D01*
X287349Y375799D01*
X286936Y376336D01*
X286399Y376749D01*
X285772Y377009D01*
X285100Y377097D01*
D02*
G37*
G36*
X210100D02*
X209428Y377009D01*
X208802Y376749D01*
X208264Y376336D01*
X208187Y376236D01*
X192213D01*
X192136Y376336D01*
X191598Y376749D01*
X190972Y377009D01*
X190300Y377097D01*
X189628Y377009D01*
X189002Y376749D01*
X188464Y376336D01*
X188051Y375799D01*
X187792Y375172D01*
X187703Y374500D01*
X187792Y373828D01*
X188051Y373201D01*
X188464Y372664D01*
X188570Y372582D01*
Y357618D01*
X188464Y357536D01*
X188051Y356998D01*
X187792Y356372D01*
X187703Y355700D01*
X187792Y355028D01*
X188051Y354401D01*
X188464Y353864D01*
X188570Y353782D01*
Y353764D01*
X188594D01*
X189002Y353451D01*
X189628Y353191D01*
X190300Y353103D01*
X190972Y353191D01*
X191598Y353451D01*
X192006Y353764D01*
X208394D01*
X208802Y353451D01*
X209428Y353191D01*
X210100Y353103D01*
X210772Y353191D01*
X211399Y353451D01*
X211806Y353764D01*
X211830D01*
Y353782D01*
X211936Y353864D01*
X212349Y354401D01*
X212609Y355028D01*
X212697Y355700D01*
X212609Y356372D01*
X212349Y356998D01*
X211936Y357536D01*
X211830Y357618D01*
Y372582D01*
X211936Y372664D01*
X212349Y373201D01*
X212609Y373828D01*
X212697Y374500D01*
X212609Y375172D01*
X212349Y375799D01*
X211936Y376336D01*
X211399Y376749D01*
X210772Y377009D01*
X210100Y377097D01*
D02*
G37*
G36*
X135100D02*
X134428Y377009D01*
X133801Y376749D01*
X133264Y376336D01*
X133187Y376236D01*
X117213D01*
X117136Y376336D01*
X116598Y376749D01*
X115972Y377009D01*
X115300Y377097D01*
X114628Y377009D01*
X114002Y376749D01*
X113464Y376336D01*
X113051Y375799D01*
X112792Y375172D01*
X112703Y374500D01*
X112792Y373828D01*
X113051Y373201D01*
X113464Y372664D01*
X113570Y372582D01*
Y357618D01*
X113464Y357536D01*
X113051Y356998D01*
X112792Y356372D01*
X112703Y355700D01*
X112792Y355028D01*
X113051Y354401D01*
X113464Y353864D01*
X113570Y353782D01*
Y353764D01*
X113594D01*
X114002Y353451D01*
X114628Y353191D01*
X115300Y353103D01*
X115972Y353191D01*
X116598Y353451D01*
X117006Y353764D01*
X133394D01*
X133801Y353451D01*
X134428Y353191D01*
X135100Y353103D01*
X135772Y353191D01*
X136398Y353451D01*
X136806Y353764D01*
X136830D01*
Y353782D01*
X136936Y353864D01*
X137349Y354401D01*
X137609Y355028D01*
X137697Y355700D01*
X137609Y356372D01*
X137349Y356998D01*
X136936Y357536D01*
X136830Y357618D01*
Y372582D01*
X136936Y372664D01*
X137349Y373201D01*
X137609Y373828D01*
X137697Y374500D01*
X137609Y375172D01*
X137349Y375799D01*
X136936Y376336D01*
X136398Y376749D01*
X135772Y377009D01*
X135100Y377097D01*
D02*
G37*
G36*
X60100D02*
X59428Y377009D01*
X58802Y376749D01*
X58264Y376336D01*
X58187Y376236D01*
X42213D01*
X42136Y376336D01*
X41598Y376749D01*
X40972Y377009D01*
X40300Y377097D01*
X39628Y377009D01*
X39002Y376749D01*
X38464Y376336D01*
X38051Y375799D01*
X37791Y375172D01*
X37703Y374500D01*
X37791Y373828D01*
X38051Y373201D01*
X38464Y372664D01*
X38570Y372582D01*
Y357618D01*
X38464Y357536D01*
X38051Y356998D01*
X37791Y356372D01*
X37703Y355700D01*
X37791Y355028D01*
X38051Y354401D01*
X38464Y353864D01*
X38570Y353782D01*
Y353764D01*
X38594D01*
X39002Y353451D01*
X39628Y353191D01*
X40300Y353103D01*
X40972Y353191D01*
X41598Y353451D01*
X42006Y353764D01*
X58394D01*
X58802Y353451D01*
X59428Y353191D01*
X60100Y353103D01*
X60772Y353191D01*
X61399Y353451D01*
X61806Y353764D01*
X61830D01*
Y353782D01*
X61936Y353864D01*
X62349Y354401D01*
X62608Y355028D01*
X62697Y355700D01*
X62608Y356372D01*
X62349Y356998D01*
X61936Y357536D01*
X61830Y357618D01*
Y372582D01*
X61936Y372664D01*
X62349Y373201D01*
X62608Y373828D01*
X62697Y374500D01*
X62608Y375172D01*
X62349Y375799D01*
X61936Y376336D01*
X61399Y376749D01*
X60772Y377009D01*
X60100Y377097D01*
D02*
G37*
G36*
X16500Y385835D02*
X15069Y385694D01*
X13693Y385276D01*
X12425Y384598D01*
X11314Y383686D01*
X10402Y382575D01*
X9724Y381307D01*
X9306Y379931D01*
X9166Y378500D01*
X9306Y377069D01*
X9724Y375693D01*
X10402Y374425D01*
X11314Y373314D01*
X12425Y372402D01*
X13693Y371724D01*
X15069Y371306D01*
X16500Y371165D01*
X17931Y371306D01*
X19307Y371724D01*
X20575Y372402D01*
X21686Y373314D01*
X22598Y374425D01*
X23276Y375693D01*
X23694Y377069D01*
X23834Y378500D01*
X23694Y379931D01*
X23276Y381307D01*
X22598Y382575D01*
X21686Y383686D01*
X20575Y384598D01*
X19307Y385276D01*
X17931Y385694D01*
X16500Y385835D01*
D02*
G37*
G36*
X359252Y384587D02*
X357821Y384446D01*
X356445Y384028D01*
X355177Y383350D01*
X354066Y382438D01*
X353153Y381327D01*
X352476Y380059D01*
X352058Y378683D01*
X351917Y377252D01*
X352058Y375821D01*
X352476Y374445D01*
X353153Y373177D01*
X354066Y372066D01*
X355177Y371153D01*
X356445Y370476D01*
X357821Y370058D01*
X359252Y369917D01*
X360683Y370058D01*
X362059Y370476D01*
X363327Y371153D01*
X364438Y372066D01*
X365350Y373177D01*
X366028Y374445D01*
X366446Y375821D01*
X366586Y377252D01*
X366446Y378683D01*
X366028Y380059D01*
X365350Y381327D01*
X364438Y382438D01*
X363327Y383350D01*
X362059Y384028D01*
X360683Y384446D01*
X359252Y384587D01*
D02*
G37*
G36*
X365013Y359899D02*
X362650D01*
X361773Y359784D01*
X360955Y359445D01*
X360252Y358906D01*
X359714Y358204D01*
X359375Y357386D01*
X359259Y356508D01*
X359375Y355630D01*
X359714Y354812D01*
X360252Y354110D01*
X360955Y353571D01*
X361773Y353232D01*
X362650Y353117D01*
X365013D01*
X365890Y353232D01*
X366708Y353571D01*
X367411Y354110D01*
X367950Y354812D01*
X368288Y355630D01*
X368404Y356508D01*
X368288Y357386D01*
X367950Y358204D01*
X367411Y358906D01*
X366708Y359445D01*
X365890Y359784D01*
X365013Y359899D01*
D02*
G37*
G36*
X348949D02*
X345800D01*
X344922Y359784D01*
X344104Y359445D01*
X343402Y358906D01*
X342863Y358204D01*
X342524Y357386D01*
X342408Y356508D01*
X342524Y355630D01*
X342863Y354812D01*
X343402Y354110D01*
X344104Y353571D01*
X344922Y353232D01*
X345800Y353117D01*
X347523D01*
X347645Y352617D01*
X347129Y351844D01*
X346937Y350878D01*
X347129Y349912D01*
X347676Y349093D01*
X348495Y348545D01*
X349462Y348353D01*
X350428Y348545D01*
X351247Y349093D01*
X351794Y349912D01*
X351986Y350878D01*
X351794Y351844D01*
X351247Y352663D01*
X350678Y353044D01*
X350660Y353332D01*
X350712Y353622D01*
X351347Y354110D01*
X351886Y354812D01*
X352225Y355630D01*
X352341Y356508D01*
X352225Y357386D01*
X351886Y358204D01*
X351347Y358906D01*
X350645Y359445D01*
X349827Y359784D01*
X348949Y359899D01*
D02*
G37*
G36*
X295500Y346388D02*
X294364Y346238D01*
X293306Y345800D01*
X292397Y345103D01*
X291700Y344194D01*
X291262Y343136D01*
X291112Y342000D01*
X291262Y340864D01*
X291700Y339806D01*
X292132Y339244D01*
X291878Y338843D01*
X291837Y338807D01*
X290500Y338939D01*
X289146Y338806D01*
X287845Y338411D01*
X286645Y337770D01*
X285593Y336907D01*
X284731Y335855D01*
X284089Y334655D01*
X283694Y333354D01*
X283561Y332000D01*
X283694Y330646D01*
X284089Y329345D01*
X284731Y328145D01*
X285593Y327093D01*
X286645Y326231D01*
X287845Y325589D01*
X289146Y325194D01*
X290500Y325061D01*
X291854Y325194D01*
X293155Y325589D01*
X294355Y326231D01*
X295407Y327093D01*
X296269Y328145D01*
X296911Y329345D01*
X297306Y330646D01*
X297439Y332000D01*
X297306Y333354D01*
X296911Y334655D01*
X296269Y335855D01*
X295407Y336907D01*
X295096Y337161D01*
X295303Y337638D01*
X295500Y337613D01*
X296636Y337762D01*
X297694Y338200D01*
X298603Y338897D01*
X299300Y339806D01*
X299738Y340864D01*
X299887Y342000D01*
X299738Y343136D01*
X299300Y344194D01*
X298603Y345103D01*
X297694Y345800D01*
X296636Y346238D01*
X295500Y346388D01*
D02*
G37*
G36*
X220500D02*
X219364Y346238D01*
X218306Y345800D01*
X217397Y345103D01*
X216700Y344194D01*
X216262Y343136D01*
X216112Y342000D01*
X216262Y340864D01*
X216700Y339806D01*
X217132Y339244D01*
X216878Y338843D01*
X216837Y338807D01*
X215500Y338939D01*
X214146Y338806D01*
X212845Y338411D01*
X211645Y337770D01*
X210593Y336907D01*
X209731Y335855D01*
X209089Y334655D01*
X208694Y333354D01*
X208561Y332000D01*
X208694Y330646D01*
X209089Y329345D01*
X209731Y328145D01*
X210593Y327093D01*
X211645Y326231D01*
X212845Y325589D01*
X214146Y325194D01*
X215500Y325061D01*
X216854Y325194D01*
X218155Y325589D01*
X219355Y326231D01*
X220407Y327093D01*
X221269Y328145D01*
X221911Y329345D01*
X222306Y330646D01*
X222439Y332000D01*
X222306Y333354D01*
X221911Y334655D01*
X221269Y335855D01*
X220407Y336907D01*
X220096Y337161D01*
X220303Y337638D01*
X220500Y337613D01*
X221636Y337762D01*
X222694Y338200D01*
X223603Y338897D01*
X224300Y339806D01*
X224738Y340864D01*
X224887Y342000D01*
X224738Y343136D01*
X224300Y344194D01*
X223603Y345103D01*
X222694Y345800D01*
X221636Y346238D01*
X220500Y346388D01*
D02*
G37*
G36*
X145500D02*
X144364Y346238D01*
X143306Y345800D01*
X142397Y345103D01*
X141700Y344194D01*
X141262Y343136D01*
X141112Y342000D01*
X141262Y340864D01*
X141700Y339806D01*
X142132Y339244D01*
X141877Y338843D01*
X141837Y338807D01*
X140500Y338939D01*
X139146Y338806D01*
X137845Y338411D01*
X136645Y337770D01*
X135593Y336907D01*
X134731Y335855D01*
X134089Y334655D01*
X133694Y333354D01*
X133561Y332000D01*
X133694Y330646D01*
X134089Y329345D01*
X134731Y328145D01*
X135593Y327093D01*
X136645Y326231D01*
X137845Y325589D01*
X139146Y325194D01*
X140500Y325061D01*
X141854Y325194D01*
X143155Y325589D01*
X144355Y326231D01*
X145407Y327093D01*
X146270Y328145D01*
X146911Y329345D01*
X147306Y330646D01*
X147439Y332000D01*
X147306Y333354D01*
X146911Y334655D01*
X146270Y335855D01*
X145407Y336907D01*
X145096Y337161D01*
X145303Y337638D01*
X145500Y337613D01*
X146636Y337762D01*
X147694Y338200D01*
X148602Y338897D01*
X149300Y339806D01*
X149738Y340864D01*
X149888Y342000D01*
X149738Y343136D01*
X149300Y344194D01*
X148602Y345103D01*
X147694Y345800D01*
X146636Y346238D01*
X145500Y346388D01*
D02*
G37*
G36*
X70500D02*
X69364Y346238D01*
X68306Y345800D01*
X67397Y345103D01*
X66700Y344194D01*
X66262Y343136D01*
X66113Y342000D01*
X66262Y340864D01*
X66700Y339806D01*
X67132Y339244D01*
X66878Y338843D01*
X66837Y338807D01*
X65500Y338939D01*
X64146Y338806D01*
X62845Y338411D01*
X61645Y337770D01*
X60593Y336907D01*
X59730Y335855D01*
X59089Y334655D01*
X58694Y333354D01*
X58561Y332000D01*
X58694Y330646D01*
X59089Y329345D01*
X59730Y328145D01*
X60593Y327093D01*
X61645Y326231D01*
X62845Y325589D01*
X64146Y325194D01*
X65500Y325061D01*
X66854Y325194D01*
X68155Y325589D01*
X69355Y326231D01*
X70407Y327093D01*
X71270Y328145D01*
X71911Y329345D01*
X72306Y330646D01*
X72439Y332000D01*
X72306Y333354D01*
X71911Y334655D01*
X71270Y335855D01*
X70407Y336907D01*
X70096Y337161D01*
X70303Y337638D01*
X70500Y337613D01*
X71636Y337762D01*
X72694Y338200D01*
X73602Y338897D01*
X74300Y339806D01*
X74738Y340864D01*
X74888Y342000D01*
X74738Y343136D01*
X74300Y344194D01*
X73602Y345103D01*
X72694Y345800D01*
X71636Y346238D01*
X70500Y346388D01*
D02*
G37*
G36*
X255500D02*
X254364Y346238D01*
X253306Y345800D01*
X252397Y345103D01*
X251700Y344194D01*
X251262Y343136D01*
X251113Y342000D01*
X251262Y340864D01*
X251700Y339806D01*
X252397Y338897D01*
X253306Y338200D01*
X254364Y337762D01*
X255500Y337613D01*
X256636Y337762D01*
X257694Y338200D01*
X258602Y338897D01*
X259300Y339806D01*
X259738Y340864D01*
X259888Y342000D01*
X259738Y343136D01*
X259300Y344194D01*
X258602Y345103D01*
X257694Y345800D01*
X256636Y346238D01*
X255500Y346388D01*
D02*
G37*
G36*
X180500D02*
X179364Y346238D01*
X178306Y345800D01*
X177398Y345103D01*
X176700Y344194D01*
X176262Y343136D01*
X176112Y342000D01*
X176262Y340864D01*
X176700Y339806D01*
X177398Y338897D01*
X178306Y338200D01*
X179364Y337762D01*
X180500Y337613D01*
X181636Y337762D01*
X182694Y338200D01*
X183602Y338897D01*
X184300Y339806D01*
X184738Y340864D01*
X184888Y342000D01*
X184738Y343136D01*
X184300Y344194D01*
X183602Y345103D01*
X182694Y345800D01*
X181636Y346238D01*
X180500Y346388D01*
D02*
G37*
G36*
X105500D02*
X104364Y346238D01*
X103306Y345800D01*
X102398Y345103D01*
X101700Y344194D01*
X101262Y343136D01*
X101112Y342000D01*
X101262Y340864D01*
X101700Y339806D01*
X102398Y338897D01*
X103306Y338200D01*
X104364Y337762D01*
X105500Y337613D01*
X106636Y337762D01*
X107694Y338200D01*
X108602Y338897D01*
X109300Y339806D01*
X109738Y340864D01*
X109888Y342000D01*
X109738Y343136D01*
X109300Y344194D01*
X108602Y345103D01*
X107694Y345800D01*
X106636Y346238D01*
X105500Y346388D01*
D02*
G37*
G36*
X30500D02*
X29364Y346238D01*
X28306Y345800D01*
X27398Y345103D01*
X26700Y344194D01*
X26262Y343136D01*
X26112Y342000D01*
X26262Y340864D01*
X26700Y339806D01*
X27398Y338897D01*
X28306Y338200D01*
X29364Y337762D01*
X30500Y337613D01*
X31636Y337762D01*
X32694Y338200D01*
X33602Y338897D01*
X34300Y339806D01*
X34738Y340864D01*
X34887Y342000D01*
X34738Y343136D01*
X34300Y344194D01*
X33602Y345103D01*
X32694Y345800D01*
X31636Y346238D01*
X30500Y346388D01*
D02*
G37*
G36*
X275500Y351044D02*
X273736Y350870D01*
X272039Y350355D01*
X270476Y349519D01*
X269105Y348395D01*
X267981Y347024D01*
X267145Y345461D01*
X266630Y343764D01*
X266456Y342000D01*
X266630Y340236D01*
X267145Y338539D01*
X267981Y336976D01*
X269105Y335605D01*
X270476Y334481D01*
X272039Y333645D01*
X273736Y333130D01*
X275500Y332956D01*
X277264Y333130D01*
X278961Y333645D01*
X280524Y334481D01*
X281895Y335605D01*
X283019Y336976D01*
X283855Y338539D01*
X284370Y340236D01*
X284544Y342000D01*
X284370Y343764D01*
X283855Y345461D01*
X283019Y347024D01*
X281895Y348395D01*
X280524Y349519D01*
X278961Y350355D01*
X277264Y350870D01*
X275500Y351044D01*
D02*
G37*
G36*
X200500D02*
X198736Y350870D01*
X197039Y350355D01*
X195476Y349519D01*
X194105Y348395D01*
X192981Y347024D01*
X192145Y345461D01*
X191630Y343764D01*
X191456Y342000D01*
X191630Y340236D01*
X192145Y338539D01*
X192981Y336976D01*
X194105Y335605D01*
X195476Y334481D01*
X197039Y333645D01*
X198736Y333130D01*
X200500Y332956D01*
X202264Y333130D01*
X203961Y333645D01*
X205524Y334481D01*
X206895Y335605D01*
X208019Y336976D01*
X208855Y338539D01*
X209370Y340236D01*
X209544Y342000D01*
X209370Y343764D01*
X208855Y345461D01*
X208019Y347024D01*
X206895Y348395D01*
X205524Y349519D01*
X203961Y350355D01*
X202264Y350870D01*
X200500Y351044D01*
D02*
G37*
G36*
X125500D02*
X123736Y350870D01*
X122039Y350355D01*
X120476Y349519D01*
X119105Y348395D01*
X117981Y347024D01*
X117145Y345461D01*
X116630Y343764D01*
X116456Y342000D01*
X116630Y340236D01*
X117145Y338539D01*
X117981Y336976D01*
X119105Y335605D01*
X120476Y334481D01*
X122039Y333645D01*
X123736Y333130D01*
X125500Y332956D01*
X127264Y333130D01*
X128961Y333645D01*
X130524Y334481D01*
X131895Y335605D01*
X133019Y336976D01*
X133855Y338539D01*
X134370Y340236D01*
X134544Y342000D01*
X134370Y343764D01*
X133855Y345461D01*
X133019Y347024D01*
X131895Y348395D01*
X130524Y349519D01*
X128961Y350355D01*
X127264Y350870D01*
X125500Y351044D01*
D02*
G37*
G36*
X50500D02*
X48736Y350870D01*
X47039Y350355D01*
X45476Y349519D01*
X44105Y348395D01*
X42981Y347024D01*
X42145Y345461D01*
X41630Y343764D01*
X41456Y342000D01*
X41630Y340236D01*
X42145Y338539D01*
X42981Y336976D01*
X44105Y335605D01*
X45476Y334481D01*
X47039Y333645D01*
X48736Y333130D01*
X50500Y332956D01*
X52264Y333130D01*
X53961Y333645D01*
X55524Y334481D01*
X56895Y335605D01*
X58019Y336976D01*
X58855Y338539D01*
X59370Y340236D01*
X59544Y342000D01*
X59370Y343764D01*
X58855Y345461D01*
X58019Y347024D01*
X56895Y348395D01*
X55524Y349519D01*
X53961Y350355D01*
X52264Y350870D01*
X50500Y351044D01*
D02*
G37*
G36*
X335000Y345549D02*
X334025Y345355D01*
X333198Y344802D01*
X332645Y343975D01*
X332451Y343000D01*
X332645Y342024D01*
X333198Y341198D01*
X333471Y341015D01*
Y337485D01*
X333198Y337302D01*
X332645Y336475D01*
X332451Y335500D01*
X332645Y334524D01*
X333198Y333698D01*
X334025Y333145D01*
X335000Y332951D01*
X335976Y333145D01*
X336802Y333698D01*
X337355Y334524D01*
X337549Y335500D01*
X337355Y336475D01*
X336802Y337302D01*
X336529Y337485D01*
Y341015D01*
X336802Y341198D01*
X337355Y342024D01*
X337549Y343000D01*
X337355Y343975D01*
X336802Y344802D01*
X335976Y345355D01*
X335000Y345549D01*
D02*
G37*
G36*
X365013Y325883D02*
X362650D01*
X361773Y325768D01*
X360955Y325429D01*
X360252Y324890D01*
X359714Y324188D01*
X359375Y323370D01*
X359259Y322492D01*
X359375Y321614D01*
X359714Y320796D01*
X360252Y320094D01*
X360955Y319555D01*
X361773Y319216D01*
X362650Y319101D01*
X365013D01*
X365890Y319216D01*
X366708Y319555D01*
X367411Y320094D01*
X367950Y320796D01*
X368288Y321614D01*
X368404Y322492D01*
X368288Y323370D01*
X367950Y324188D01*
X367411Y324890D01*
X366708Y325429D01*
X365890Y325768D01*
X365013Y325883D01*
D02*
G37*
G36*
X349462Y330647D02*
X348495Y330455D01*
X347676Y329907D01*
X347129Y329088D01*
X346937Y328122D01*
X347129Y327156D01*
X347645Y326383D01*
X347523Y325883D01*
X345800D01*
X344922Y325768D01*
X344104Y325429D01*
X343402Y324890D01*
X342863Y324188D01*
X342524Y323370D01*
X342408Y322492D01*
X342524Y321614D01*
X342863Y320796D01*
X343402Y320094D01*
X344104Y319555D01*
X344922Y319216D01*
X345800Y319101D01*
X348949D01*
X349827Y319216D01*
X350645Y319555D01*
X351347Y320094D01*
X351886Y320796D01*
X352225Y321614D01*
X352341Y322492D01*
X352225Y323370D01*
X351886Y324188D01*
X351347Y324890D01*
X350712Y325378D01*
X350660Y325668D01*
X350678Y325956D01*
X351247Y326337D01*
X351794Y327156D01*
X351986Y328122D01*
X351794Y329088D01*
X351247Y329907D01*
X350428Y330455D01*
X349462Y330647D01*
D02*
G37*
G36*
X265500Y328939D02*
X264146Y328806D01*
X262845Y328411D01*
X261645Y327769D01*
X260593Y326907D01*
X259731Y325855D01*
X259089Y324655D01*
X258694Y323354D01*
X258561Y322000D01*
X258694Y320646D01*
X259089Y319345D01*
X259731Y318145D01*
X260593Y317093D01*
X261645Y316231D01*
X262845Y315589D01*
X264146Y315194D01*
X265500Y315061D01*
X266854Y315194D01*
X268155Y315589D01*
X269355Y316231D01*
X270407Y317093D01*
X271269Y318145D01*
X271911Y319345D01*
X272306Y320646D01*
X272439Y322000D01*
X272306Y323354D01*
X271911Y324655D01*
X271269Y325855D01*
X270407Y326907D01*
X269355Y327769D01*
X268155Y328411D01*
X266854Y328806D01*
X265500Y328939D01*
D02*
G37*
G36*
X190500D02*
X189146Y328806D01*
X187845Y328411D01*
X186645Y327769D01*
X185593Y326907D01*
X184731Y325855D01*
X184089Y324655D01*
X183694Y323354D01*
X183561Y322000D01*
X183694Y320646D01*
X184089Y319345D01*
X184731Y318145D01*
X185593Y317093D01*
X186645Y316231D01*
X187845Y315589D01*
X189146Y315194D01*
X190500Y315061D01*
X191854Y315194D01*
X193155Y315589D01*
X194355Y316231D01*
X195407Y317093D01*
X196270Y318145D01*
X196911Y319345D01*
X197306Y320646D01*
X197439Y322000D01*
X197306Y323354D01*
X196911Y324655D01*
X196270Y325855D01*
X195407Y326907D01*
X194355Y327769D01*
X193155Y328411D01*
X191854Y328806D01*
X190500Y328939D01*
D02*
G37*
G36*
X115500D02*
X114146Y328806D01*
X112845Y328411D01*
X111645Y327769D01*
X110593Y326907D01*
X109731Y325855D01*
X109089Y324655D01*
X108694Y323354D01*
X108561Y322000D01*
X108694Y320646D01*
X109089Y319345D01*
X109731Y318145D01*
X110593Y317093D01*
X111645Y316231D01*
X112845Y315589D01*
X114146Y315194D01*
X115500Y315061D01*
X116854Y315194D01*
X118155Y315589D01*
X119355Y316231D01*
X120407Y317093D01*
X121270Y318145D01*
X121911Y319345D01*
X122306Y320646D01*
X122439Y322000D01*
X122306Y323354D01*
X121911Y324655D01*
X121270Y325855D01*
X120407Y326907D01*
X119355Y327769D01*
X118155Y328411D01*
X116854Y328806D01*
X115500Y328939D01*
D02*
G37*
G36*
X40500D02*
X39146Y328806D01*
X37845Y328411D01*
X36645Y327769D01*
X35593Y326907D01*
X34730Y325855D01*
X34089Y324655D01*
X33694Y323354D01*
X33561Y322000D01*
X33694Y320646D01*
X34089Y319345D01*
X34730Y318145D01*
X35593Y317093D01*
X36645Y316231D01*
X37845Y315589D01*
X39146Y315194D01*
X40500Y315061D01*
X41854Y315194D01*
X43155Y315589D01*
X44355Y316231D01*
X45407Y317093D01*
X46270Y318145D01*
X46911Y319345D01*
X47306Y320646D01*
X47439Y322000D01*
X47306Y323354D01*
X46911Y324655D01*
X46270Y325855D01*
X45407Y326907D01*
X44355Y327769D01*
X43155Y328411D01*
X41854Y328806D01*
X40500Y328939D01*
D02*
G37*
G36*
X108600Y313149D02*
X107624Y312955D01*
X106798Y312402D01*
X106245Y311576D01*
X106051Y310600D01*
X106115Y310278D01*
X95419Y299581D01*
X95087Y299085D01*
X94971Y298500D01*
Y244500D01*
X95087Y243915D01*
X95419Y243419D01*
X105265Y233572D01*
X105201Y233250D01*
X105395Y232275D01*
X105948Y231448D01*
X106221Y231265D01*
Y202250D01*
X106337Y201665D01*
X106669Y201169D01*
X109971Y197866D01*
Y193881D01*
X109471Y193781D01*
X109300Y194194D01*
X108602Y195103D01*
X107694Y195800D01*
X106636Y196238D01*
X105500Y196388D01*
X104364Y196238D01*
X103306Y195800D01*
X102398Y195103D01*
X101700Y194194D01*
X101262Y193136D01*
X101112Y192000D01*
X101262Y190864D01*
X101700Y189806D01*
X102398Y188898D01*
X103306Y188200D01*
X104364Y187762D01*
X105500Y187612D01*
X106636Y187762D01*
X107694Y188200D01*
X108602Y188898D01*
X109300Y189806D01*
X109471Y190219D01*
X109971Y190119D01*
Y183633D01*
X106419Y180081D01*
X106087Y179585D01*
X105971Y179000D01*
Y162985D01*
X105698Y162802D01*
X105145Y161976D01*
X104951Y161000D01*
X105145Y160024D01*
X105698Y159198D01*
X105971Y159015D01*
Y132633D01*
X97919Y124581D01*
X97587Y124085D01*
X97471Y123500D01*
Y94500D01*
X97587Y93915D01*
X97919Y93419D01*
X105015Y86322D01*
X104951Y86000D01*
X105145Y85024D01*
X105698Y84198D01*
X106525Y83645D01*
X107500Y83451D01*
X107822Y83515D01*
X116919Y74419D01*
X117415Y74087D01*
X118000Y73971D01*
X154867D01*
X162471Y66366D01*
Y29000D01*
X162587Y28415D01*
X162919Y27919D01*
X179515Y11322D01*
X179451Y11000D01*
X179645Y10025D01*
X180198Y9198D01*
X181025Y8645D01*
X182000Y8451D01*
X182975Y8645D01*
X183802Y9198D01*
X184355Y10025D01*
X184549Y11000D01*
X184355Y11975D01*
X183802Y12802D01*
X182975Y13355D01*
X182000Y13549D01*
X181678Y13485D01*
X165529Y29634D01*
Y67000D01*
X165413Y67585D01*
X165081Y68081D01*
X156581Y76581D01*
X156085Y76913D01*
X155500Y77029D01*
X118633D01*
X109985Y85678D01*
X110049Y86000D01*
X109855Y86976D01*
X109302Y87802D01*
X108475Y88355D01*
X107500Y88549D01*
X107178Y88485D01*
X100529Y95134D01*
Y122866D01*
X108581Y130919D01*
X108913Y131415D01*
X109029Y132000D01*
Y159015D01*
X109302Y159198D01*
X109855Y160024D01*
X110049Y161000D01*
X109855Y161976D01*
X109302Y162802D01*
X109029Y162985D01*
Y168396D01*
X109529Y168521D01*
X109731Y168145D01*
X110593Y167093D01*
X111645Y166230D01*
X112845Y165589D01*
X114146Y165194D01*
X115500Y165061D01*
X116854Y165194D01*
X118155Y165589D01*
X119355Y166230D01*
X120407Y167093D01*
X121270Y168145D01*
X121911Y169345D01*
X122306Y170646D01*
X122439Y172000D01*
X122306Y173354D01*
X121911Y174655D01*
X121270Y175855D01*
X120407Y176907D01*
X119355Y177769D01*
X118155Y178411D01*
X116854Y178806D01*
X115500Y178939D01*
X114146Y178806D01*
X112845Y178411D01*
X111645Y177769D01*
X110593Y176907D01*
X109731Y175855D01*
X109529Y175479D01*
X109029Y175604D01*
Y178366D01*
X112581Y181919D01*
X112913Y182415D01*
X113029Y183000D01*
Y198500D01*
X112913Y199085D01*
X112581Y199581D01*
X109279Y202884D01*
Y231265D01*
X109552Y231448D01*
X110105Y232275D01*
X110299Y233250D01*
X110105Y234226D01*
X109552Y235052D01*
X108726Y235605D01*
X107750Y235799D01*
X107428Y235735D01*
X98029Y245133D01*
Y297867D01*
X108278Y308115D01*
X108600Y308051D01*
X109575Y308245D01*
X110402Y308798D01*
X110955Y309625D01*
X111149Y310600D01*
X110955Y311576D01*
X110402Y312402D01*
X109575Y312955D01*
X108600Y313149D01*
D02*
G37*
G36*
X210100Y302097D02*
X209428Y302009D01*
X208802Y301749D01*
X208264Y301336D01*
X208187Y301236D01*
X192213D01*
X192136Y301336D01*
X191598Y301749D01*
X190972Y302009D01*
X190300Y302097D01*
X189628Y302009D01*
X189002Y301749D01*
X188464Y301336D01*
X188051Y300799D01*
X187792Y300172D01*
X187703Y299500D01*
X187792Y298828D01*
X188051Y298201D01*
X188464Y297664D01*
X188570Y297582D01*
Y282618D01*
X188464Y282536D01*
X188051Y281998D01*
X187792Y281372D01*
X187703Y280700D01*
X187792Y280028D01*
X188051Y279401D01*
X188464Y278864D01*
X188570Y278782D01*
Y278764D01*
X188594D01*
X189002Y278451D01*
X189628Y278191D01*
X190300Y278103D01*
X190972Y278191D01*
X191598Y278451D01*
X192006Y278764D01*
X208394D01*
X208802Y278451D01*
X209428Y278191D01*
X210100Y278103D01*
X210772Y278191D01*
X211399Y278451D01*
X211806Y278764D01*
X211830D01*
Y278782D01*
X211936Y278864D01*
X212349Y279401D01*
X212609Y280028D01*
X212697Y280700D01*
X212609Y281372D01*
X212349Y281998D01*
X211936Y282536D01*
X211830Y282618D01*
Y297582D01*
X211936Y297664D01*
X212349Y298201D01*
X212609Y298828D01*
X212697Y299500D01*
X212609Y300172D01*
X212349Y300799D01*
X211936Y301336D01*
X211399Y301749D01*
X210772Y302009D01*
X210100Y302097D01*
D02*
G37*
G36*
X135100D02*
X134428Y302009D01*
X133801Y301749D01*
X133264Y301336D01*
X133187Y301236D01*
X117213D01*
X117136Y301336D01*
X116598Y301749D01*
X115972Y302009D01*
X115300Y302097D01*
X114628Y302009D01*
X114002Y301749D01*
X113464Y301336D01*
X113051Y300799D01*
X112792Y300172D01*
X112703Y299500D01*
X112792Y298828D01*
X113051Y298201D01*
X113464Y297664D01*
X113570Y297582D01*
Y282618D01*
X113464Y282536D01*
X113051Y281998D01*
X112792Y281372D01*
X112703Y280700D01*
X112792Y280028D01*
X113051Y279401D01*
X113464Y278864D01*
X113570Y278782D01*
Y278764D01*
X113594D01*
X114002Y278451D01*
X114628Y278191D01*
X115300Y278103D01*
X115972Y278191D01*
X116598Y278451D01*
X117006Y278764D01*
X133394D01*
X133801Y278451D01*
X134428Y278191D01*
X135100Y278103D01*
X135772Y278191D01*
X136398Y278451D01*
X136806Y278764D01*
X136830D01*
Y278782D01*
X136936Y278864D01*
X137349Y279401D01*
X137609Y280028D01*
X137697Y280700D01*
X137609Y281372D01*
X137349Y281998D01*
X136936Y282536D01*
X136830Y282618D01*
Y297582D01*
X136936Y297664D01*
X137349Y298201D01*
X137609Y298828D01*
X137697Y299500D01*
X137609Y300172D01*
X137349Y300799D01*
X136936Y301336D01*
X136398Y301749D01*
X135772Y302009D01*
X135100Y302097D01*
D02*
G37*
G36*
X60100D02*
X59428Y302009D01*
X58802Y301749D01*
X58264Y301336D01*
X58187Y301236D01*
X42213D01*
X42136Y301336D01*
X41598Y301749D01*
X40972Y302009D01*
X40300Y302097D01*
X39628Y302009D01*
X39002Y301749D01*
X38464Y301336D01*
X38051Y300799D01*
X37791Y300172D01*
X37703Y299500D01*
X37791Y298828D01*
X38051Y298201D01*
X38464Y297664D01*
X38570Y297582D01*
Y282618D01*
X38464Y282536D01*
X38051Y281998D01*
X37791Y281372D01*
X37703Y280700D01*
X37791Y280028D01*
X38051Y279401D01*
X38464Y278864D01*
X38570Y278782D01*
Y278764D01*
X38594D01*
X39002Y278451D01*
X39628Y278191D01*
X40300Y278103D01*
X40972Y278191D01*
X41598Y278451D01*
X42006Y278764D01*
X58394D01*
X58802Y278451D01*
X59428Y278191D01*
X60100Y278103D01*
X60772Y278191D01*
X61399Y278451D01*
X61806Y278764D01*
X61830D01*
Y278782D01*
X61936Y278864D01*
X62349Y279401D01*
X62608Y280028D01*
X62697Y280700D01*
X62608Y281372D01*
X62349Y281998D01*
X61936Y282536D01*
X61830Y282618D01*
Y297582D01*
X61936Y297664D01*
X62349Y298201D01*
X62608Y298828D01*
X62697Y299500D01*
X62608Y300172D01*
X62349Y300799D01*
X61936Y301336D01*
X61399Y301749D01*
X60772Y302009D01*
X60100Y302097D01*
D02*
G37*
G36*
X141220Y311377D02*
X139829Y311193D01*
X138532Y310656D01*
X137419Y309802D01*
X136564Y308688D01*
X136027Y307392D01*
X135844Y306000D01*
X136027Y304608D01*
X136564Y303312D01*
X137419Y302198D01*
X138532Y301344D01*
X139829Y300806D01*
X141220Y300623D01*
X142612Y300806D01*
X143909Y301344D01*
X145022Y302198D01*
X145877Y303312D01*
X146414Y304608D01*
X146597Y306000D01*
X146414Y307392D01*
X145877Y308688D01*
X145022Y309802D01*
X143909Y310656D01*
X142612Y311193D01*
X141220Y311377D01*
D02*
G37*
G36*
X15500D02*
X14108Y311193D01*
X12812Y310656D01*
X11698Y309802D01*
X10844Y308688D01*
X10306Y307392D01*
X10123Y306000D01*
X10306Y304608D01*
X10844Y303312D01*
X11698Y302198D01*
X12812Y301344D01*
X14108Y300806D01*
X15500Y300623D01*
X16892Y300806D01*
X18188Y301344D01*
X19302Y302198D01*
X20156Y303312D01*
X20694Y304608D01*
X20877Y306000D01*
X20694Y307392D01*
X20156Y308688D01*
X19302Y309802D01*
X18188Y310656D01*
X16892Y311193D01*
X15500Y311377D01*
D02*
G37*
G36*
X368770Y277279D02*
X367794Y277085D01*
X366968Y276532D01*
X366800Y276282D01*
X356266D01*
X356152Y276453D01*
X355325Y277006D01*
X354349Y277200D01*
X353374Y277006D01*
X352547Y276453D01*
X351995Y275626D01*
X351800Y274651D01*
X351995Y273675D01*
X352547Y272848D01*
X353374Y272296D01*
X354349Y272101D01*
X355325Y272296D01*
X356152Y272848D01*
X356266Y273019D01*
X366906D01*
X366968Y272928D01*
X367794Y272375D01*
X368770Y272181D01*
X369745Y272375D01*
X370572Y272928D01*
X371125Y273755D01*
X371319Y274730D01*
X371125Y275706D01*
X370572Y276532D01*
X369745Y277085D01*
X368770Y277279D01*
D02*
G37*
G36*
X220500Y271388D02*
X219364Y271238D01*
X218306Y270800D01*
X217397Y270103D01*
X216700Y269194D01*
X216262Y268136D01*
X216112Y267000D01*
X216262Y265864D01*
X216700Y264806D01*
X217132Y264244D01*
X216878Y263843D01*
X216837Y263807D01*
X215500Y263939D01*
X214146Y263806D01*
X212845Y263411D01*
X211645Y262770D01*
X210593Y261907D01*
X209731Y260855D01*
X209089Y259655D01*
X208694Y258354D01*
X208561Y257000D01*
X208694Y255646D01*
X209089Y254345D01*
X209731Y253145D01*
X210593Y252093D01*
X211645Y251231D01*
X212845Y250589D01*
X214146Y250194D01*
X215500Y250061D01*
X216854Y250194D01*
X218155Y250589D01*
X219355Y251231D01*
X220407Y252093D01*
X221269Y253145D01*
X221911Y254345D01*
X222306Y255646D01*
X222439Y257000D01*
X222306Y258354D01*
X221911Y259655D01*
X221269Y260855D01*
X220407Y261907D01*
X220096Y262161D01*
X220303Y262638D01*
X220500Y262613D01*
X221636Y262762D01*
X222694Y263200D01*
X223603Y263897D01*
X224300Y264806D01*
X224738Y265864D01*
X224887Y267000D01*
X224738Y268136D01*
X224300Y269194D01*
X223603Y270103D01*
X222694Y270800D01*
X221636Y271238D01*
X220500Y271388D01*
D02*
G37*
G36*
X145500D02*
X144364Y271238D01*
X143306Y270800D01*
X142397Y270103D01*
X141700Y269194D01*
X141262Y268136D01*
X141112Y267000D01*
X141262Y265864D01*
X141700Y264806D01*
X142132Y264244D01*
X141877Y263843D01*
X141837Y263807D01*
X140500Y263939D01*
X139146Y263806D01*
X137845Y263411D01*
X136645Y262770D01*
X135593Y261907D01*
X134731Y260855D01*
X134089Y259655D01*
X133694Y258354D01*
X133561Y257000D01*
X133694Y255646D01*
X134089Y254345D01*
X134731Y253145D01*
X135593Y252093D01*
X136645Y251231D01*
X137845Y250589D01*
X139146Y250194D01*
X140500Y250061D01*
X141854Y250194D01*
X143155Y250589D01*
X144355Y251231D01*
X145407Y252093D01*
X146270Y253145D01*
X146911Y254345D01*
X147306Y255646D01*
X147439Y257000D01*
X147306Y258354D01*
X146911Y259655D01*
X146270Y260855D01*
X145407Y261907D01*
X145096Y262161D01*
X145303Y262638D01*
X145500Y262613D01*
X146636Y262762D01*
X147694Y263200D01*
X148602Y263897D01*
X149300Y264806D01*
X149738Y265864D01*
X149888Y267000D01*
X149738Y268136D01*
X149300Y269194D01*
X148602Y270103D01*
X147694Y270800D01*
X146636Y271238D01*
X145500Y271388D01*
D02*
G37*
G36*
X70500D02*
X69364Y271238D01*
X68306Y270800D01*
X67397Y270103D01*
X66700Y269194D01*
X66262Y268136D01*
X66113Y267000D01*
X66262Y265864D01*
X66700Y264806D01*
X67132Y264244D01*
X66878Y263843D01*
X66837Y263807D01*
X65500Y263939D01*
X64146Y263806D01*
X62845Y263411D01*
X61645Y262770D01*
X60593Y261907D01*
X59730Y260855D01*
X59089Y259655D01*
X58694Y258354D01*
X58561Y257000D01*
X58694Y255646D01*
X59089Y254345D01*
X59730Y253145D01*
X60593Y252093D01*
X61645Y251231D01*
X62845Y250589D01*
X64146Y250194D01*
X65500Y250061D01*
X66854Y250194D01*
X68155Y250589D01*
X69355Y251231D01*
X70407Y252093D01*
X71270Y253145D01*
X71911Y254345D01*
X72306Y255646D01*
X72439Y257000D01*
X72306Y258354D01*
X71911Y259655D01*
X71270Y260855D01*
X70407Y261907D01*
X70096Y262161D01*
X70303Y262638D01*
X70500Y262613D01*
X71636Y262762D01*
X72694Y263200D01*
X73602Y263897D01*
X74300Y264806D01*
X74738Y265864D01*
X74888Y267000D01*
X74738Y268136D01*
X74300Y269194D01*
X73602Y270103D01*
X72694Y270800D01*
X71636Y271238D01*
X70500Y271388D01*
D02*
G37*
G36*
X180500D02*
X179364Y271238D01*
X178306Y270800D01*
X177398Y270103D01*
X176700Y269194D01*
X176262Y268136D01*
X176112Y267000D01*
X176262Y265864D01*
X176700Y264806D01*
X177398Y263897D01*
X178306Y263200D01*
X179364Y262762D01*
X180500Y262613D01*
X181636Y262762D01*
X182694Y263200D01*
X183602Y263897D01*
X184300Y264806D01*
X184738Y265864D01*
X184888Y267000D01*
X184738Y268136D01*
X184300Y269194D01*
X183602Y270103D01*
X182694Y270800D01*
X181636Y271238D01*
X180500Y271388D01*
D02*
G37*
G36*
X105500D02*
X104364Y271238D01*
X103306Y270800D01*
X102398Y270103D01*
X101700Y269194D01*
X101262Y268136D01*
X101112Y267000D01*
X101262Y265864D01*
X101700Y264806D01*
X102398Y263897D01*
X103306Y263200D01*
X104364Y262762D01*
X105500Y262613D01*
X106636Y262762D01*
X107694Y263200D01*
X108602Y263897D01*
X109300Y264806D01*
X109738Y265864D01*
X109888Y267000D01*
X109738Y268136D01*
X109300Y269194D01*
X108602Y270103D01*
X107694Y270800D01*
X106636Y271238D01*
X105500Y271388D01*
D02*
G37*
G36*
X30500D02*
X29364Y271238D01*
X28306Y270800D01*
X27398Y270103D01*
X26700Y269194D01*
X26262Y268136D01*
X26112Y267000D01*
X26262Y265864D01*
X26700Y264806D01*
X27398Y263897D01*
X28306Y263200D01*
X29364Y262762D01*
X30500Y262613D01*
X31636Y262762D01*
X32694Y263200D01*
X33602Y263897D01*
X34300Y264806D01*
X34738Y265864D01*
X34887Y267000D01*
X34738Y268136D01*
X34300Y269194D01*
X33602Y270103D01*
X32694Y270800D01*
X31636Y271238D01*
X30500Y271388D01*
D02*
G37*
G36*
X284500Y294845D02*
X273500D01*
X272603Y294667D01*
X271842Y294158D01*
X271333Y293397D01*
X271155Y292500D01*
Y291845D01*
X248500D01*
X247603Y291667D01*
X246842Y291158D01*
X246333Y290397D01*
X246155Y289500D01*
Y284845D01*
X245000D01*
X244103Y284667D01*
X243342Y284158D01*
X242833Y283397D01*
X242655Y282500D01*
Y269500D01*
X242833Y268603D01*
X243342Y267842D01*
X244103Y267333D01*
X245000Y267155D01*
X246155D01*
Y263000D01*
X246333Y262103D01*
X246422Y261970D01*
X246186Y261529D01*
X244634D01*
X241029Y265134D01*
Y270515D01*
X241302Y270698D01*
X241855Y271525D01*
X242049Y272500D01*
X241855Y273476D01*
X241302Y274302D01*
X241029Y274485D01*
Y282867D01*
X243581Y285419D01*
X243913Y285915D01*
X244029Y286500D01*
Y291500D01*
X243913Y292085D01*
X243581Y292581D01*
X242081Y294081D01*
X241585Y294413D01*
X241000Y294529D01*
X237000D01*
X236415Y294413D01*
X235919Y294081D01*
X229419Y287581D01*
X229087Y287085D01*
X228971Y286500D01*
Y103500D01*
X229087Y102915D01*
X229419Y102419D01*
X235919Y95919D01*
X236415Y95587D01*
X237000Y95471D01*
X239515D01*
X239698Y95198D01*
X240525Y94645D01*
X241500Y94451D01*
X242476Y94645D01*
X243302Y95198D01*
X243855Y96025D01*
X244049Y97000D01*
X243855Y97975D01*
X243302Y98802D01*
X242476Y99355D01*
X241500Y99549D01*
X240525Y99355D01*
X239698Y98802D01*
X239515Y98529D01*
X237633D01*
X232029Y104133D01*
Y195709D01*
X232529Y195976D01*
X233025Y195645D01*
X234000Y195451D01*
X234976Y195645D01*
X235477Y195980D01*
X235952D01*
X236000Y195974D01*
X245855D01*
X246172Y195588D01*
X246155Y195500D01*
Y191345D01*
X245000D01*
X244103Y191167D01*
X243342Y190658D01*
X242833Y189897D01*
X242655Y189000D01*
Y176000D01*
X242833Y175103D01*
X243342Y174342D01*
X244103Y173833D01*
X245000Y173655D01*
X246155D01*
Y169000D01*
X246333Y168103D01*
X246842Y167342D01*
X247603Y166833D01*
X248500Y166655D01*
X271155D01*
Y166000D01*
X271333Y165103D01*
X271842Y164342D01*
X272603Y163833D01*
X273500Y163655D01*
X284500D01*
X285397Y163833D01*
X286158Y164342D01*
X286667Y165103D01*
X286845Y166000D01*
Y166655D01*
X297500D01*
X298397Y166833D01*
X299158Y167342D01*
X299667Y168103D01*
X299845Y169000D01*
Y173655D01*
X301000D01*
X301897Y173833D01*
X302658Y174342D01*
X303167Y175103D01*
X303345Y176000D01*
Y189000D01*
X303272Y189365D01*
X303672Y189920D01*
X303786Y189935D01*
X323360Y170360D01*
X323987Y169879D01*
X324717Y169577D01*
X325500Y169474D01*
X331500D01*
X332283Y169577D01*
X333013Y169879D01*
X333640Y170360D01*
X336140Y172860D01*
X336140Y172860D01*
X336620Y173487D01*
X336923Y174217D01*
X337026Y175000D01*
Y175890D01*
X340676D01*
X340874Y175851D01*
X340874Y175851D01*
X341013D01*
X342961Y173903D01*
Y164574D01*
X342874Y164110D01*
X342461Y164110D01*
X336936D01*
Y159931D01*
X336510Y159647D01*
X336510Y159647D01*
X329698Y152834D01*
X329064D01*
X329064Y152834D01*
X328867Y152795D01*
X325127D01*
Y144890D01*
X331064D01*
Y148860D01*
X331323Y148911D01*
X331985Y149353D01*
X338797Y156166D01*
X338936D01*
X339134Y156205D01*
X342874Y156205D01*
X342961Y155741D01*
Y154782D01*
X341013Y152834D01*
X340874D01*
X340874Y152834D01*
X340676Y152795D01*
X336936D01*
Y144890D01*
X340676D01*
X340874Y144851D01*
X340874Y144851D01*
X341013D01*
X342461Y143403D01*
Y133110D01*
X336936D01*
Y129140D01*
X336677Y129089D01*
X336015Y128647D01*
X336015Y128647D01*
X329203Y121834D01*
X329064D01*
X329064Y121834D01*
X328867Y121795D01*
X325127D01*
Y113890D01*
X331064D01*
Y118069D01*
X331490Y118353D01*
X338302Y125166D01*
X338936D01*
X339134Y125205D01*
X342461D01*
Y123282D01*
X341013Y121834D01*
X340874D01*
X340874Y121834D01*
X340676Y121795D01*
X336936D01*
Y117071D01*
X336897Y116874D01*
Y116281D01*
X336542Y115926D01*
X336500Y115934D01*
X335525Y115740D01*
X334698Y115188D01*
X334145Y114361D01*
X333951Y113385D01*
X334145Y112410D01*
X334698Y111583D01*
X335525Y111030D01*
X336500Y110836D01*
X337475Y111030D01*
X338302Y111583D01*
X338855Y112410D01*
X338870Y112486D01*
X340274Y113890D01*
X342874D01*
Y118069D01*
X343300Y118353D01*
X345942Y120996D01*
X346384Y121657D01*
X346539Y122438D01*
X346539Y122438D01*
Y144247D01*
X346539Y144247D01*
X346384Y145028D01*
X345942Y145689D01*
X343300Y148332D01*
X342895Y148602D01*
Y149083D01*
X343300Y149353D01*
X346442Y152496D01*
X346884Y153157D01*
X347039Y153937D01*
Y174748D01*
X346884Y175528D01*
X346442Y176189D01*
X343300Y179332D01*
X342874Y179616D01*
Y183795D01*
X337026D01*
Y202904D01*
X337103Y202980D01*
X344000D01*
X344390Y203058D01*
X344721Y203279D01*
X344942Y203610D01*
X345020Y204000D01*
Y208500D01*
X344942Y208890D01*
X344721Y209221D01*
X344390Y209442D01*
X344000Y209520D01*
X337548D01*
X337500Y209526D01*
X336343D01*
X335560Y209423D01*
X334830Y209120D01*
X334204Y208640D01*
X334204Y208640D01*
X331860Y206296D01*
X331380Y205670D01*
X331077Y204940D01*
X330974Y204157D01*
Y183795D01*
X326774D01*
X326626Y183825D01*
X326276D01*
X306019Y204081D01*
X305523Y204413D01*
X304938Y204529D01*
X254134D01*
X236529Y222133D01*
Y262196D01*
X237029Y262404D01*
X244014Y255419D01*
X244511Y255087D01*
X245096Y254971D01*
X250655D01*
X250705Y254471D01*
X250415Y254413D01*
X249919Y254081D01*
X244822Y248985D01*
X244500Y249049D01*
X243525Y248855D01*
X242698Y248302D01*
X242145Y247476D01*
X241951Y246500D01*
X242145Y245525D01*
X242698Y244698D01*
X243525Y244145D01*
X244500Y243951D01*
X245476Y244145D01*
X246302Y244698D01*
X246855Y245525D01*
X247049Y246500D01*
X246985Y246822D01*
X251634Y251471D01*
X269500D01*
X270085Y251587D01*
X270581Y251919D01*
X272081Y253419D01*
X272413Y253915D01*
X272529Y254500D01*
Y258500D01*
X272413Y259085D01*
X272081Y259581D01*
X271470Y260193D01*
X271661Y260655D01*
X297500D01*
X298397Y260833D01*
X299158Y261342D01*
X299667Y262103D01*
X299845Y263000D01*
Y267155D01*
X301000D01*
X301897Y267333D01*
X302658Y267842D01*
X303167Y268603D01*
X303345Y269500D01*
Y282500D01*
X303167Y283397D01*
X302658Y284158D01*
X301897Y284667D01*
X301000Y284845D01*
X299845D01*
Y289500D01*
X299667Y290397D01*
X299158Y291158D01*
X298397Y291667D01*
X297500Y291845D01*
X286845D01*
Y292500D01*
X286667Y293397D01*
X286158Y294158D01*
X285397Y294667D01*
X284500Y294845D01*
D02*
G37*
G36*
X200500Y276044D02*
X198736Y275870D01*
X197039Y275355D01*
X195476Y274519D01*
X194105Y273395D01*
X192981Y272024D01*
X192145Y270461D01*
X191630Y268764D01*
X191456Y267000D01*
X191630Y265236D01*
X192145Y263539D01*
X192981Y261976D01*
X194105Y260605D01*
X195476Y259481D01*
X197039Y258645D01*
X198736Y258130D01*
X200500Y257956D01*
X202264Y258130D01*
X203961Y258645D01*
X205524Y259481D01*
X206895Y260605D01*
X208019Y261976D01*
X208855Y263539D01*
X209370Y265236D01*
X209544Y267000D01*
X209370Y268764D01*
X208855Y270461D01*
X208019Y272024D01*
X206895Y273395D01*
X205524Y274519D01*
X203961Y275355D01*
X202264Y275870D01*
X200500Y276044D01*
D02*
G37*
G36*
X125500D02*
X123736Y275870D01*
X122039Y275355D01*
X120476Y274519D01*
X119105Y273395D01*
X117981Y272024D01*
X117145Y270461D01*
X116630Y268764D01*
X116456Y267000D01*
X116630Y265236D01*
X117145Y263539D01*
X117981Y261976D01*
X119105Y260605D01*
X120476Y259481D01*
X122039Y258645D01*
X123736Y258130D01*
X125500Y257956D01*
X127264Y258130D01*
X128961Y258645D01*
X130524Y259481D01*
X131895Y260605D01*
X133019Y261976D01*
X133855Y263539D01*
X134370Y265236D01*
X134544Y267000D01*
X134370Y268764D01*
X133855Y270461D01*
X133019Y272024D01*
X131895Y273395D01*
X130524Y274519D01*
X128961Y275355D01*
X127264Y275870D01*
X125500Y276044D01*
D02*
G37*
G36*
X50500D02*
X48736Y275870D01*
X47039Y275355D01*
X45476Y274519D01*
X44105Y273395D01*
X42981Y272024D01*
X42145Y270461D01*
X41630Y268764D01*
X41456Y267000D01*
X41630Y265236D01*
X42145Y263539D01*
X42981Y261976D01*
X44105Y260605D01*
X45476Y259481D01*
X47039Y258645D01*
X48736Y258130D01*
X50500Y257956D01*
X52264Y258130D01*
X53961Y258645D01*
X55524Y259481D01*
X56895Y260605D01*
X58019Y261976D01*
X58855Y263539D01*
X59370Y265236D01*
X59544Y267000D01*
X59370Y268764D01*
X58855Y270461D01*
X58019Y272024D01*
X56895Y273395D01*
X55524Y274519D01*
X53961Y275355D01*
X52264Y275870D01*
X50500Y276044D01*
D02*
G37*
G36*
X315500Y273549D02*
X314525Y273355D01*
X313698Y272802D01*
X313145Y271975D01*
X312951Y271000D01*
X313145Y270024D01*
X313698Y269198D01*
X313971Y269015D01*
Y256985D01*
X313698Y256802D01*
X313145Y255976D01*
X312951Y255000D01*
X313145Y254025D01*
X313698Y253198D01*
X314525Y252645D01*
X315500Y252451D01*
X316476Y252645D01*
X317302Y253198D01*
X317855Y254025D01*
X318049Y255000D01*
X317855Y255976D01*
X317302Y256802D01*
X317029Y256985D01*
Y269015D01*
X317302Y269198D01*
X317855Y270024D01*
X318049Y271000D01*
X317855Y271975D01*
X317302Y272802D01*
X316476Y273355D01*
X315500Y273549D01*
D02*
G37*
G36*
X275500Y253888D02*
X274364Y253738D01*
X273306Y253300D01*
X272397Y252603D01*
X271700Y251694D01*
X271262Y250636D01*
X271112Y249500D01*
X271262Y248364D01*
X271700Y247306D01*
X272397Y246397D01*
X273306Y245700D01*
X274364Y245262D01*
X275500Y245112D01*
X276636Y245262D01*
X277694Y245700D01*
X278603Y246397D01*
X279300Y247306D01*
X279738Y248364D01*
X279888Y249500D01*
X279738Y250636D01*
X279300Y251694D01*
X278603Y252603D01*
X277694Y253300D01*
X276636Y253738D01*
X275500Y253888D01*
D02*
G37*
G36*
X313500Y251049D02*
X312525Y250855D01*
X311698Y250302D01*
X311515Y250029D01*
X286096D01*
X285511Y249913D01*
X285014Y249581D01*
X278662Y243229D01*
X270796D01*
X270211Y243113D01*
X269714Y242781D01*
X251962Y225029D01*
X242985D01*
X242802Y225302D01*
X241975Y225855D01*
X241000Y226049D01*
X240024Y225855D01*
X239198Y225302D01*
X238645Y224476D01*
X238451Y223500D01*
X238645Y222524D01*
X239198Y221698D01*
X240024Y221145D01*
X241000Y220951D01*
X241975Y221145D01*
X242802Y221698D01*
X242985Y221971D01*
X250654D01*
X250846Y221509D01*
X249919Y220581D01*
X249587Y220085D01*
X249471Y219500D01*
Y217985D01*
X249198Y217802D01*
X248645Y216975D01*
X248451Y216000D01*
X248645Y215024D01*
X249198Y214198D01*
X250025Y213645D01*
X251000Y213451D01*
X251975Y213645D01*
X252802Y214198D01*
X253355Y215024D01*
X253549Y216000D01*
X253355Y216975D01*
X252802Y217802D01*
X252529Y217985D01*
Y218866D01*
X266622Y232959D01*
X267064Y232694D01*
X266630Y231264D01*
X266456Y229500D01*
X266630Y227736D01*
X267145Y226039D01*
X267981Y224476D01*
X269105Y223105D01*
X270476Y221981D01*
X272039Y221145D01*
X273736Y220630D01*
X275500Y220456D01*
X277264Y220630D01*
X278961Y221145D01*
X280524Y221981D01*
X281895Y223105D01*
X283019Y224476D01*
X283855Y226039D01*
X284370Y227736D01*
X284544Y229500D01*
X284370Y231264D01*
X283855Y232961D01*
X283019Y234524D01*
X281895Y235895D01*
X280524Y237019D01*
X278961Y237855D01*
X278580Y237971D01*
X278654Y238471D01*
X280000D01*
X280585Y238587D01*
X281081Y238919D01*
X286134Y243971D01*
X316957D01*
X317145Y243024D01*
X317698Y242198D01*
X318525Y241645D01*
X319500Y241451D01*
X320476Y241645D01*
X321302Y242198D01*
X321855Y243024D01*
X322049Y244000D01*
X321855Y244975D01*
X321302Y245802D01*
X320476Y246355D01*
X319500Y246549D01*
X319178Y246485D01*
X319081Y246581D01*
X318585Y246913D01*
X318000Y247029D01*
X316054D01*
X315819Y247470D01*
X315855Y247524D01*
X316049Y248500D01*
X315855Y249476D01*
X315302Y250302D01*
X314475Y250855D01*
X313500Y251049D01*
D02*
G37*
G36*
X308000Y242297D02*
X307328Y242209D01*
X306701Y241949D01*
X306164Y241536D01*
X306082Y241430D01*
X291118D01*
X291036Y241536D01*
X290498Y241949D01*
X289872Y242209D01*
X289200Y242297D01*
X288528Y242209D01*
X287901Y241949D01*
X287364Y241536D01*
X287282Y241430D01*
X287264D01*
Y241406D01*
X286951Y240999D01*
X286691Y240372D01*
X286603Y239700D01*
X286691Y239028D01*
X286951Y238402D01*
X287264Y237994D01*
Y221606D01*
X286951Y221199D01*
X286691Y220572D01*
X286603Y219900D01*
X286691Y219228D01*
X286951Y218601D01*
X287264Y218194D01*
Y218170D01*
X287282D01*
X287364Y218064D01*
X287901Y217651D01*
X288528Y217391D01*
X289200Y217303D01*
X289872Y217391D01*
X290498Y217651D01*
X291036Y218064D01*
X291118Y218170D01*
X306082D01*
X306164Y218064D01*
X306701Y217651D01*
X307328Y217391D01*
X308000Y217303D01*
X308672Y217391D01*
X309298Y217651D01*
X309836Y218064D01*
X310249Y218601D01*
X310508Y219228D01*
X310597Y219900D01*
X310508Y220572D01*
X310249Y221199D01*
X309836Y221736D01*
X309736Y221813D01*
Y237787D01*
X309836Y237864D01*
X310249Y238402D01*
X310508Y239028D01*
X310597Y239700D01*
X310508Y240372D01*
X310249Y240999D01*
X309836Y241536D01*
X309298Y241949D01*
X308672Y242209D01*
X308000Y242297D01*
D02*
G37*
G36*
X183600Y313149D02*
X182624Y312955D01*
X181798Y312402D01*
X181245Y311576D01*
X181051Y310600D01*
X181245Y309625D01*
X181798Y308798D01*
X182071Y308615D01*
Y277400D01*
X182187Y276815D01*
X182519Y276319D01*
X185471Y273366D01*
Y259134D01*
X181919Y255581D01*
X181587Y255085D01*
X181471Y254500D01*
Y236985D01*
X181198Y236802D01*
X180645Y235976D01*
X180451Y235000D01*
X180645Y234025D01*
X181198Y233198D01*
X181471Y233015D01*
Y199500D01*
X181587Y198915D01*
X181919Y198419D01*
X183971Y196367D01*
Y194889D01*
X183471Y194704D01*
X182694Y195300D01*
X181636Y195738D01*
X180500Y195887D01*
X179364Y195738D01*
X178306Y195300D01*
X177398Y194603D01*
X176700Y193694D01*
X176262Y192636D01*
X176112Y191500D01*
X176262Y190364D01*
X176700Y189306D01*
X177398Y188398D01*
X178306Y187700D01*
X179364Y187262D01*
X180500Y187112D01*
X181636Y187262D01*
X182694Y187700D01*
X183471Y188296D01*
X183971Y188111D01*
Y183633D01*
X180919Y180581D01*
X180587Y180085D01*
X180471Y179500D01*
Y161985D01*
X180198Y161802D01*
X179645Y160976D01*
X179451Y160000D01*
X179645Y159025D01*
X180198Y158198D01*
X180471Y158015D01*
Y129000D01*
X180587Y128415D01*
X180919Y127919D01*
X184971Y123866D01*
Y118881D01*
X184471Y118781D01*
X184300Y119194D01*
X183602Y120103D01*
X182694Y120800D01*
X181636Y121238D01*
X180500Y121388D01*
X179364Y121238D01*
X178306Y120800D01*
X177398Y120103D01*
X176700Y119194D01*
X176262Y118136D01*
X176112Y117000D01*
X176262Y115864D01*
X176700Y114806D01*
X177398Y113898D01*
X178306Y113200D01*
X179364Y112762D01*
X180500Y112612D01*
X181636Y112762D01*
X182694Y113200D01*
X183602Y113898D01*
X184300Y114806D01*
X184471Y115219D01*
X184971Y115119D01*
Y111134D01*
X180919Y107081D01*
X180587Y106585D01*
X180471Y106000D01*
Y88485D01*
X180198Y88302D01*
X179645Y87476D01*
X179451Y86500D01*
X179645Y85524D01*
X180198Y84698D01*
X181025Y84145D01*
X182000Y83951D01*
X182975Y84145D01*
X183802Y84698D01*
X184355Y85524D01*
X184549Y86500D01*
X184355Y87476D01*
X183802Y88302D01*
X183529Y88485D01*
Y94468D01*
X184029Y94542D01*
X184089Y94345D01*
X184731Y93145D01*
X185593Y92093D01*
X186645Y91230D01*
X187845Y90589D01*
X189146Y90194D01*
X190500Y90061D01*
X191854Y90194D01*
X193155Y90589D01*
X194355Y91230D01*
X195407Y92093D01*
X196270Y93145D01*
X196911Y94345D01*
X197306Y95646D01*
X197439Y97000D01*
X197306Y98354D01*
X196911Y99655D01*
X196270Y100855D01*
X195407Y101907D01*
X194355Y102769D01*
X193155Y103411D01*
X191854Y103806D01*
X190500Y103939D01*
X189146Y103806D01*
X187845Y103411D01*
X186645Y102769D01*
X185593Y101907D01*
X184731Y100855D01*
X184089Y99655D01*
X184029Y99458D01*
X183529Y99532D01*
Y105367D01*
X187581Y109419D01*
X187913Y109915D01*
X188029Y110500D01*
Y124500D01*
X187913Y125085D01*
X187581Y125581D01*
X183529Y129633D01*
Y158015D01*
X183802Y158198D01*
X184355Y159025D01*
X184549Y160000D01*
X184355Y160976D01*
X183802Y161802D01*
X183529Y161985D01*
Y168968D01*
X184029Y169042D01*
X184089Y168845D01*
X184731Y167645D01*
X185593Y166593D01*
X186645Y165731D01*
X187845Y165089D01*
X189146Y164694D01*
X190500Y164561D01*
X191854Y164694D01*
X193155Y165089D01*
X194355Y165731D01*
X195407Y166593D01*
X196270Y167645D01*
X196911Y168845D01*
X197306Y170146D01*
X197439Y171500D01*
X197306Y172854D01*
X196911Y174155D01*
X196270Y175355D01*
X195407Y176407D01*
X194355Y177269D01*
X193155Y177911D01*
X191854Y178306D01*
X190500Y178439D01*
X189146Y178306D01*
X187845Y177911D01*
X186645Y177269D01*
X185593Y176407D01*
X184731Y175355D01*
X184089Y174155D01*
X184029Y173958D01*
X183529Y174032D01*
Y178867D01*
X186581Y181919D01*
X186913Y182415D01*
X187029Y183000D01*
Y197000D01*
X186913Y197585D01*
X186581Y198081D01*
X184529Y200133D01*
Y233015D01*
X184802Y233198D01*
X185355Y234025D01*
X185549Y235000D01*
X185355Y235976D01*
X184802Y236802D01*
X184529Y236985D01*
Y242602D01*
X185029Y242781D01*
X185593Y242093D01*
X186645Y241231D01*
X187845Y240589D01*
X189146Y240194D01*
X190500Y240061D01*
X191854Y240194D01*
X193155Y240589D01*
X194355Y241231D01*
X195407Y242093D01*
X196270Y243145D01*
X196911Y244345D01*
X197306Y245646D01*
X197439Y247000D01*
X197306Y248354D01*
X196911Y249655D01*
X196270Y250855D01*
X195407Y251907D01*
X194355Y252769D01*
X193155Y253411D01*
X191854Y253806D01*
X190500Y253939D01*
X189146Y253806D01*
X187845Y253411D01*
X186645Y252769D01*
X185593Y251907D01*
X185029Y251219D01*
X184529Y251398D01*
Y253867D01*
X188081Y257419D01*
X188413Y257915D01*
X188529Y258500D01*
Y274000D01*
X188413Y274585D01*
X188081Y275081D01*
X185129Y278033D01*
Y308615D01*
X185402Y308798D01*
X185955Y309625D01*
X186149Y310600D01*
X185955Y311576D01*
X185402Y312402D01*
X184575Y312955D01*
X183600Y313149D01*
D02*
G37*
G36*
X115500Y253939D02*
X114146Y253806D01*
X112845Y253411D01*
X111645Y252769D01*
X110593Y251907D01*
X109731Y250855D01*
X109089Y249655D01*
X108694Y248354D01*
X108561Y247000D01*
X108694Y245646D01*
X109089Y244345D01*
X109731Y243145D01*
X110593Y242093D01*
X111645Y241231D01*
X112845Y240589D01*
X114146Y240194D01*
X115500Y240061D01*
X116854Y240194D01*
X118155Y240589D01*
X119355Y241231D01*
X120407Y242093D01*
X121270Y243145D01*
X121911Y244345D01*
X122306Y245646D01*
X122439Y247000D01*
X122306Y248354D01*
X121911Y249655D01*
X121270Y250855D01*
X120407Y251907D01*
X119355Y252769D01*
X118155Y253411D01*
X116854Y253806D01*
X115500Y253939D01*
D02*
G37*
G36*
X40500D02*
X39146Y253806D01*
X37845Y253411D01*
X36645Y252769D01*
X35593Y251907D01*
X34730Y250855D01*
X34089Y249655D01*
X33694Y248354D01*
X33561Y247000D01*
X33694Y245646D01*
X34089Y244345D01*
X34730Y243145D01*
X35593Y242093D01*
X36645Y241231D01*
X37845Y240589D01*
X39146Y240194D01*
X40500Y240061D01*
X41854Y240194D01*
X43155Y240589D01*
X44355Y241231D01*
X45407Y242093D01*
X46270Y243145D01*
X46911Y244345D01*
X47306Y245646D01*
X47439Y247000D01*
X47306Y248354D01*
X46911Y249655D01*
X46270Y250855D01*
X45407Y251907D01*
X44355Y252769D01*
X43155Y253411D01*
X41854Y253806D01*
X40500Y253939D01*
D02*
G37*
G36*
X32500Y305549D02*
X31525Y305355D01*
X30698Y304802D01*
X30145Y303976D01*
X29951Y303000D01*
X30145Y302025D01*
X30698Y301198D01*
X30971Y301015D01*
Y292133D01*
X16919Y278081D01*
X16587Y277585D01*
X16471Y277000D01*
Y237985D01*
X16198Y237802D01*
X15645Y236976D01*
X15451Y236000D01*
X15645Y235024D01*
X16198Y234198D01*
X17025Y233645D01*
X18000Y233451D01*
X18975Y233645D01*
X19802Y234198D01*
X20355Y235024D01*
X20549Y236000D01*
X20355Y236976D01*
X19802Y237802D01*
X19529Y237985D01*
Y276366D01*
X33581Y290419D01*
X33913Y290915D01*
X34029Y291500D01*
Y301015D01*
X34302Y301198D01*
X34855Y302025D01*
X35049Y303000D01*
X34855Y303976D01*
X34302Y304802D01*
X33476Y305355D01*
X32500Y305549D01*
D02*
G37*
G36*
X255500Y246439D02*
X254146Y246306D01*
X252845Y245911D01*
X251645Y245269D01*
X250593Y244407D01*
X249730Y243355D01*
X249089Y242155D01*
X248694Y240854D01*
X248561Y239500D01*
X248694Y238146D01*
X249089Y236845D01*
X249730Y235645D01*
X250593Y234593D01*
X251645Y233731D01*
X252845Y233089D01*
X254146Y232694D01*
X255500Y232561D01*
X256854Y232694D01*
X258155Y233089D01*
X259355Y233731D01*
X260407Y234593D01*
X261269Y235645D01*
X261911Y236845D01*
X262306Y238146D01*
X262439Y239500D01*
X262306Y240854D01*
X261911Y242155D01*
X261269Y243355D01*
X260407Y244407D01*
X259355Y245269D01*
X258155Y245911D01*
X256854Y246306D01*
X255500Y246439D01*
D02*
G37*
G36*
X135100Y227097D02*
X134428Y227009D01*
X133801Y226749D01*
X133264Y226336D01*
X133187Y226236D01*
X117213D01*
X117136Y226336D01*
X116598Y226749D01*
X115972Y227009D01*
X115300Y227097D01*
X114628Y227009D01*
X114002Y226749D01*
X113464Y226336D01*
X113051Y225799D01*
X112792Y225172D01*
X112703Y224500D01*
X112792Y223828D01*
X113051Y223201D01*
X113464Y222664D01*
X113570Y222582D01*
Y207618D01*
X113464Y207536D01*
X113051Y206998D01*
X112792Y206372D01*
X112703Y205700D01*
X112792Y205028D01*
X113051Y204401D01*
X113464Y203864D01*
X113570Y203782D01*
Y203764D01*
X113594D01*
X114002Y203451D01*
X114628Y203191D01*
X115300Y203103D01*
X115972Y203191D01*
X116598Y203451D01*
X117006Y203764D01*
X133394D01*
X133801Y203451D01*
X134428Y203191D01*
X135100Y203103D01*
X135772Y203191D01*
X136398Y203451D01*
X136806Y203764D01*
X136830D01*
Y203782D01*
X136936Y203864D01*
X137349Y204401D01*
X137609Y205028D01*
X137697Y205700D01*
X137609Y206372D01*
X137349Y206998D01*
X136936Y207536D01*
X136830Y207618D01*
Y222582D01*
X136936Y222664D01*
X137349Y223201D01*
X137609Y223828D01*
X137697Y224500D01*
X137609Y225172D01*
X137349Y225799D01*
X136936Y226336D01*
X136398Y226749D01*
X135772Y227009D01*
X135100Y227097D01*
D02*
G37*
G36*
X60100D02*
X59428Y227009D01*
X58802Y226749D01*
X58264Y226336D01*
X58187Y226236D01*
X42213D01*
X42136Y226336D01*
X41598Y226749D01*
X40972Y227009D01*
X40300Y227097D01*
X39628Y227009D01*
X39002Y226749D01*
X38464Y226336D01*
X38051Y225799D01*
X37791Y225172D01*
X37703Y224500D01*
X37791Y223828D01*
X38051Y223201D01*
X38464Y222664D01*
X38570Y222582D01*
Y207618D01*
X38464Y207536D01*
X38051Y206998D01*
X37791Y206372D01*
X37703Y205700D01*
X37791Y205028D01*
X38051Y204401D01*
X38464Y203864D01*
X38570Y203782D01*
Y203764D01*
X38594D01*
X39002Y203451D01*
X39628Y203191D01*
X40300Y203103D01*
X40972Y203191D01*
X41598Y203451D01*
X42006Y203764D01*
X58394D01*
X58802Y203451D01*
X59428Y203191D01*
X60100Y203103D01*
X60772Y203191D01*
X61399Y203451D01*
X61806Y203764D01*
X61830D01*
Y203782D01*
X61936Y203864D01*
X62349Y204401D01*
X62608Y205028D01*
X62697Y205700D01*
X62608Y206372D01*
X62349Y206998D01*
X61936Y207536D01*
X61830Y207618D01*
Y222582D01*
X61936Y222664D01*
X62349Y223201D01*
X62608Y223828D01*
X62697Y224500D01*
X62608Y225172D01*
X62349Y225799D01*
X61936Y226336D01*
X61399Y226749D01*
X60772Y227009D01*
X60100Y227097D01*
D02*
G37*
G36*
X210100Y226597D02*
X209428Y226508D01*
X208802Y226249D01*
X208264Y225836D01*
X208187Y225736D01*
X192213D01*
X192136Y225836D01*
X191598Y226249D01*
X190972Y226508D01*
X190300Y226597D01*
X189628Y226508D01*
X189002Y226249D01*
X188464Y225836D01*
X188051Y225299D01*
X187792Y224672D01*
X187703Y224000D01*
X187792Y223328D01*
X188051Y222702D01*
X188464Y222164D01*
X188570Y222082D01*
Y207118D01*
X188464Y207036D01*
X188051Y206499D01*
X187792Y205872D01*
X187703Y205200D01*
X187792Y204528D01*
X188051Y203902D01*
X188464Y203364D01*
X188570Y203282D01*
Y203264D01*
X188594D01*
X189002Y202951D01*
X189628Y202692D01*
X190300Y202603D01*
X190972Y202692D01*
X191598Y202951D01*
X192006Y203264D01*
X208394D01*
X208802Y202951D01*
X209428Y202692D01*
X210100Y202603D01*
X210772Y202692D01*
X211399Y202951D01*
X211806Y203264D01*
X211830D01*
Y203282D01*
X211936Y203364D01*
X212349Y203902D01*
X212609Y204528D01*
X212697Y205200D01*
X212609Y205872D01*
X212349Y206499D01*
X211936Y207036D01*
X211830Y207118D01*
Y222082D01*
X211936Y222164D01*
X212349Y222702D01*
X212609Y223328D01*
X212697Y224000D01*
X212609Y224672D01*
X212349Y225299D01*
X211936Y225836D01*
X211399Y226249D01*
X210772Y226508D01*
X210100Y226597D01*
D02*
G37*
G36*
X336500Y242549D02*
X335525Y242355D01*
X335052Y242039D01*
X329000D01*
X328220Y241884D01*
X327558Y241442D01*
X327558Y241442D01*
X321308Y235192D01*
X320866Y234530D01*
X320711Y233750D01*
Y222198D01*
X320395Y221726D01*
X320201Y220750D01*
X320395Y219775D01*
X320948Y218948D01*
X321775Y218395D01*
X322750Y218201D01*
X323726Y218395D01*
X324552Y218948D01*
X325105Y219775D01*
X325299Y220750D01*
X325105Y221726D01*
X324789Y222198D01*
Y232905D01*
X329845Y237961D01*
X331376D01*
X331656Y237550D01*
X331642Y237461D01*
X331534Y236918D01*
X327558Y232942D01*
X327116Y232280D01*
X326961Y231500D01*
Y228448D01*
X326645Y227976D01*
X326451Y227000D01*
X326645Y226025D01*
X327198Y225198D01*
X328025Y224645D01*
X329000Y224451D01*
X329976Y224645D01*
X330802Y225198D01*
X331355Y226025D01*
X331549Y227000D01*
X331355Y227976D01*
X331039Y228448D01*
Y230655D01*
X334418Y234034D01*
X334976Y234145D01*
X335802Y234698D01*
X336355Y235525D01*
X336549Y236500D01*
X336455Y236971D01*
X336500Y237451D01*
X336818Y237514D01*
X337475Y237645D01*
X338302Y238198D01*
X338855Y239024D01*
X339049Y240000D01*
X338855Y240975D01*
X338302Y241802D01*
X337475Y242355D01*
X336500Y242549D01*
D02*
G37*
G36*
X265500Y221439D02*
X264146Y221306D01*
X262845Y220911D01*
X261645Y220269D01*
X260593Y219407D01*
X259731Y218355D01*
X259089Y217155D01*
X258694Y215854D01*
X258561Y214500D01*
X258694Y213146D01*
X259089Y211845D01*
X259731Y210645D01*
X260593Y209593D01*
X261645Y208731D01*
X262845Y208089D01*
X264146Y207694D01*
X265500Y207561D01*
X266854Y207694D01*
X268155Y208089D01*
X269355Y208731D01*
X270407Y209593D01*
X270661Y209904D01*
X271138Y209697D01*
X271112Y209500D01*
X271262Y208364D01*
X271700Y207306D01*
X272397Y206398D01*
X273306Y205700D01*
X274364Y205262D01*
X275500Y205113D01*
X276636Y205262D01*
X277694Y205700D01*
X278603Y206398D01*
X279300Y207306D01*
X279738Y208364D01*
X279888Y209500D01*
X279738Y210636D01*
X279300Y211694D01*
X278603Y212602D01*
X277694Y213300D01*
X276636Y213738D01*
X275500Y213888D01*
X274364Y213738D01*
X273306Y213300D01*
X272744Y212868D01*
X272343Y213123D01*
X272307Y213163D01*
X272439Y214500D01*
X272306Y215854D01*
X271911Y217155D01*
X271269Y218355D01*
X270407Y219407D01*
X269355Y220269D01*
X268155Y220911D01*
X266854Y221306D01*
X265500Y221439D01*
D02*
G37*
G36*
X15500Y214877D02*
X14108Y214693D01*
X12812Y214156D01*
X11698Y213302D01*
X10844Y212188D01*
X10306Y210892D01*
X10123Y209500D01*
X10306Y208108D01*
X10844Y206812D01*
X11698Y205698D01*
X12812Y204844D01*
X14108Y204307D01*
X15500Y204123D01*
X16892Y204307D01*
X18188Y204844D01*
X19302Y205698D01*
X20156Y206812D01*
X20694Y208108D01*
X20877Y209500D01*
X20694Y210892D01*
X20156Y212188D01*
X19302Y213302D01*
X18188Y214156D01*
X16892Y214693D01*
X15500Y214877D01*
D02*
G37*
G36*
X145500Y196388D02*
X144364Y196238D01*
X143306Y195800D01*
X142397Y195103D01*
X141700Y194194D01*
X141262Y193136D01*
X141112Y192000D01*
X141262Y190864D01*
X141700Y189806D01*
X142132Y189244D01*
X141877Y188843D01*
X141837Y188807D01*
X140500Y188939D01*
X139146Y188806D01*
X137845Y188411D01*
X136645Y187769D01*
X135593Y186907D01*
X134731Y185855D01*
X134089Y184655D01*
X133694Y183354D01*
X133561Y182000D01*
X133694Y180646D01*
X134089Y179345D01*
X134731Y178145D01*
X135593Y177093D01*
X136645Y176231D01*
X137845Y175589D01*
X139146Y175194D01*
X140500Y175061D01*
X141854Y175194D01*
X143155Y175589D01*
X144355Y176231D01*
X145407Y177093D01*
X146270Y178145D01*
X146911Y179345D01*
X147306Y180646D01*
X147439Y182000D01*
X147306Y183354D01*
X146911Y184655D01*
X146270Y185855D01*
X145407Y186907D01*
X145096Y187161D01*
X145303Y187638D01*
X145500Y187612D01*
X146636Y187762D01*
X147694Y188200D01*
X148602Y188898D01*
X149300Y189806D01*
X149738Y190864D01*
X149888Y192000D01*
X149738Y193136D01*
X149300Y194194D01*
X148602Y195103D01*
X147694Y195800D01*
X146636Y196238D01*
X145500Y196388D01*
D02*
G37*
G36*
X70500D02*
X69364Y196238D01*
X68306Y195800D01*
X67397Y195103D01*
X66700Y194194D01*
X66262Y193136D01*
X66113Y192000D01*
X66262Y190864D01*
X66700Y189806D01*
X67132Y189244D01*
X66878Y188843D01*
X66837Y188807D01*
X65500Y188939D01*
X64146Y188806D01*
X62845Y188411D01*
X61645Y187769D01*
X60593Y186907D01*
X59730Y185855D01*
X59089Y184655D01*
X58694Y183354D01*
X58561Y182000D01*
X58694Y180646D01*
X59089Y179345D01*
X59730Y178145D01*
X60593Y177093D01*
X61645Y176231D01*
X62845Y175589D01*
X64146Y175194D01*
X65500Y175061D01*
X66854Y175194D01*
X68155Y175589D01*
X69355Y176231D01*
X70407Y177093D01*
X71270Y178145D01*
X71911Y179345D01*
X72306Y180646D01*
X72439Y182000D01*
X72306Y183354D01*
X71911Y184655D01*
X71270Y185855D01*
X70407Y186907D01*
X70096Y187161D01*
X70303Y187638D01*
X70500Y187612D01*
X71636Y187762D01*
X72694Y188200D01*
X73602Y188898D01*
X74300Y189806D01*
X74738Y190864D01*
X74888Y192000D01*
X74738Y193136D01*
X74300Y194194D01*
X73602Y195103D01*
X72694Y195800D01*
X71636Y196238D01*
X70500Y196388D01*
D02*
G37*
G36*
X220500Y195887D02*
X219364Y195738D01*
X218306Y195300D01*
X217397Y194603D01*
X216700Y193694D01*
X216262Y192636D01*
X216112Y191500D01*
X216262Y190364D01*
X216700Y189306D01*
X217132Y188744D01*
X216878Y188343D01*
X216837Y188307D01*
X215500Y188439D01*
X214146Y188306D01*
X212845Y187911D01*
X211645Y187269D01*
X210593Y186407D01*
X209731Y185355D01*
X209089Y184155D01*
X208694Y182854D01*
X208561Y181500D01*
X208694Y180146D01*
X209089Y178845D01*
X209731Y177645D01*
X210593Y176593D01*
X211645Y175731D01*
X212845Y175089D01*
X214146Y174694D01*
X215500Y174561D01*
X216854Y174694D01*
X218155Y175089D01*
X219355Y175731D01*
X220407Y176593D01*
X221269Y177645D01*
X221911Y178845D01*
X222306Y180146D01*
X222439Y181500D01*
X222306Y182854D01*
X221911Y184155D01*
X221269Y185355D01*
X220407Y186407D01*
X220096Y186661D01*
X220303Y187138D01*
X220500Y187112D01*
X221636Y187262D01*
X222694Y187700D01*
X223603Y188398D01*
X224300Y189306D01*
X224738Y190364D01*
X224887Y191500D01*
X224738Y192636D01*
X224300Y193694D01*
X223603Y194603D01*
X222694Y195300D01*
X221636Y195738D01*
X220500Y195887D01*
D02*
G37*
G36*
X30500Y196388D02*
X29364Y196238D01*
X28306Y195800D01*
X27398Y195103D01*
X26700Y194194D01*
X26262Y193136D01*
X26112Y192000D01*
X26262Y190864D01*
X26700Y189806D01*
X27398Y188898D01*
X28306Y188200D01*
X29364Y187762D01*
X30500Y187612D01*
X31636Y187762D01*
X32694Y188200D01*
X33602Y188898D01*
X34300Y189806D01*
X34738Y190864D01*
X34887Y192000D01*
X34738Y193136D01*
X34300Y194194D01*
X33602Y195103D01*
X32694Y195800D01*
X31636Y196238D01*
X30500Y196388D01*
D02*
G37*
G36*
X125500Y201044D02*
X123736Y200870D01*
X122039Y200355D01*
X120476Y199519D01*
X119105Y198395D01*
X117981Y197024D01*
X117145Y195461D01*
X116630Y193764D01*
X116456Y192000D01*
X116630Y190236D01*
X117145Y188539D01*
X117981Y186976D01*
X119105Y185605D01*
X120476Y184481D01*
X122039Y183645D01*
X123736Y183130D01*
X125500Y182956D01*
X127264Y183130D01*
X128961Y183645D01*
X130524Y184481D01*
X131895Y185605D01*
X133019Y186976D01*
X133855Y188539D01*
X134370Y190236D01*
X134544Y192000D01*
X134370Y193764D01*
X133855Y195461D01*
X133019Y197024D01*
X131895Y198395D01*
X130524Y199519D01*
X128961Y200355D01*
X127264Y200870D01*
X125500Y201044D01*
D02*
G37*
G36*
X50500D02*
X48736Y200870D01*
X47039Y200355D01*
X45476Y199519D01*
X44105Y198395D01*
X42981Y197024D01*
X42145Y195461D01*
X41630Y193764D01*
X41456Y192000D01*
X41630Y190236D01*
X42145Y188539D01*
X42981Y186976D01*
X44105Y185605D01*
X45476Y184481D01*
X47039Y183645D01*
X48736Y183130D01*
X50500Y182956D01*
X52264Y183130D01*
X53961Y183645D01*
X55524Y184481D01*
X56895Y185605D01*
X58019Y186976D01*
X58855Y188539D01*
X59370Y190236D01*
X59544Y192000D01*
X59370Y193764D01*
X58855Y195461D01*
X58019Y197024D01*
X56895Y198395D01*
X55524Y199519D01*
X53961Y200355D01*
X52264Y200870D01*
X50500Y201044D01*
D02*
G37*
G36*
X200500Y200544D02*
X198736Y200370D01*
X197039Y199855D01*
X195476Y199019D01*
X194105Y197895D01*
X192981Y196524D01*
X192145Y194961D01*
X191630Y193264D01*
X191456Y191500D01*
X191630Y189736D01*
X192145Y188039D01*
X192981Y186476D01*
X194105Y185105D01*
X195476Y183981D01*
X197039Y183145D01*
X198736Y182630D01*
X200500Y182456D01*
X202264Y182630D01*
X203961Y183145D01*
X205524Y183981D01*
X206895Y185105D01*
X208019Y186476D01*
X208855Y188039D01*
X209370Y189736D01*
X209544Y191500D01*
X209370Y193264D01*
X208855Y194961D01*
X208019Y196524D01*
X206895Y197895D01*
X205524Y199019D01*
X203961Y199855D01*
X202264Y200370D01*
X200500Y200544D01*
D02*
G37*
G36*
X40500Y178939D02*
X39146Y178806D01*
X37845Y178411D01*
X36645Y177769D01*
X35593Y176907D01*
X34730Y175855D01*
X34089Y174655D01*
X33694Y173354D01*
X33561Y172000D01*
X33694Y170646D01*
X34089Y169345D01*
X34730Y168145D01*
X35593Y167093D01*
X35922Y166824D01*
X35624Y166422D01*
X35404Y166569D01*
X34975Y166855D01*
X34000Y167049D01*
X33024Y166855D01*
X32198Y166302D01*
X31645Y165475D01*
X31451Y164500D01*
X31645Y163524D01*
X32198Y162698D01*
X32471Y162515D01*
Y123000D01*
X32587Y122415D01*
X32919Y121919D01*
X36471Y118367D01*
Y108633D01*
X32313Y104476D01*
X31982Y103980D01*
X31865Y103394D01*
Y83605D01*
X31982Y83020D01*
X32313Y82524D01*
X33015Y81822D01*
X32951Y81500D01*
X33145Y80524D01*
X33698Y79698D01*
X34525Y79145D01*
X35500Y78951D01*
X35822Y79015D01*
X42419Y72419D01*
X42915Y72087D01*
X43500Y71971D01*
X48366D01*
X54030Y66307D01*
X53839Y65845D01*
X50345D01*
Y67500D01*
X50167Y68397D01*
X49658Y69158D01*
X48897Y69666D01*
X48000Y69845D01*
X34500D01*
X33603Y69666D01*
X32842Y69158D01*
X32333Y68397D01*
X32155Y67500D01*
Y65845D01*
X27500D01*
X26603Y65667D01*
X25842Y65158D01*
X25333Y64397D01*
X25155Y63500D01*
Y53345D01*
X24500D01*
X23603Y53167D01*
X22842Y52658D01*
X22333Y51897D01*
X22155Y51000D01*
Y39500D01*
X22333Y38603D01*
X22842Y37842D01*
X23603Y37333D01*
X24500Y37155D01*
X25155D01*
Y14500D01*
X25333Y13603D01*
X25842Y12842D01*
X26603Y12333D01*
X27500Y12155D01*
X32155D01*
Y11000D01*
X32333Y10103D01*
X32842Y9342D01*
X33603Y8833D01*
X34500Y8655D01*
X47500D01*
X48397Y8833D01*
X49158Y9342D01*
X49667Y10103D01*
X49845Y11000D01*
Y12155D01*
X54500D01*
X55397Y12333D01*
X56158Y12842D01*
X56666Y13603D01*
X56845Y14500D01*
Y38285D01*
X57345Y38492D01*
X68971Y26866D01*
Y11000D01*
X69060Y10549D01*
X68951Y10000D01*
X69145Y9025D01*
X69698Y8198D01*
X70525Y7645D01*
X71500Y7451D01*
X72475Y7645D01*
X73302Y8198D01*
X73855Y9025D01*
X74049Y10000D01*
X73855Y10975D01*
X73302Y11802D01*
X72475Y12355D01*
X72029Y12444D01*
Y17602D01*
X72529Y17781D01*
X73093Y17093D01*
X74145Y16230D01*
X75345Y15589D01*
X76646Y15194D01*
X78000Y15061D01*
X79354Y15194D01*
X80655Y15589D01*
X81855Y16230D01*
X82907Y17093D01*
X83770Y18145D01*
X84411Y19345D01*
X84806Y20646D01*
X84939Y22000D01*
X84806Y23354D01*
X84411Y24655D01*
X83770Y25855D01*
X82907Y26907D01*
X81855Y27770D01*
X80655Y28411D01*
X79354Y28806D01*
X78000Y28939D01*
X76646Y28806D01*
X75345Y28411D01*
X74145Y27770D01*
X73093Y26907D01*
X72529Y26219D01*
X72029Y26398D01*
Y27500D01*
X71913Y28085D01*
X71581Y28581D01*
X59529Y40633D01*
Y64500D01*
X59413Y65085D01*
X59081Y65581D01*
X50081Y74581D01*
X49585Y74913D01*
X49000Y75029D01*
X44133D01*
X37985Y81178D01*
X38049Y81500D01*
X37855Y82476D01*
X37302Y83302D01*
X36476Y83855D01*
X35500Y84049D01*
X35331Y84015D01*
X34924Y84371D01*
Y92167D01*
X35395Y92336D01*
X35593Y92093D01*
X36645Y91230D01*
X37845Y90589D01*
X39146Y90194D01*
X40500Y90061D01*
X41854Y90194D01*
X43155Y90589D01*
X44355Y91230D01*
X45407Y92093D01*
X46270Y93145D01*
X46911Y94345D01*
X47306Y95646D01*
X47439Y97000D01*
X47306Y98354D01*
X46911Y99655D01*
X46270Y100855D01*
X45407Y101907D01*
X44355Y102769D01*
X43155Y103411D01*
X41854Y103806D01*
X40500Y103939D01*
X39146Y103806D01*
X37845Y103411D01*
X36645Y102769D01*
X35593Y101907D01*
X35395Y101664D01*
X34924Y101833D01*
Y102761D01*
X39081Y106919D01*
X39413Y107415D01*
X39529Y108000D01*
Y119000D01*
X39413Y119585D01*
X39081Y120081D01*
X35529Y123634D01*
Y162515D01*
X35802Y162698D01*
X36355Y163524D01*
X36549Y164500D01*
X36355Y165475D01*
X35951Y166080D01*
X35802Y166302D01*
X36116Y166665D01*
X36645Y166230D01*
X37845Y165589D01*
X39146Y165194D01*
X40500Y165061D01*
X41854Y165194D01*
X43155Y165589D01*
X44355Y166230D01*
X45407Y167093D01*
X46270Y168145D01*
X46911Y169345D01*
X47306Y170646D01*
X47439Y172000D01*
X47306Y173354D01*
X46911Y174655D01*
X46270Y175855D01*
X45407Y176907D01*
X44355Y177769D01*
X43155Y178411D01*
X41854Y178806D01*
X40500Y178939D01*
D02*
G37*
G36*
X331064Y164110D02*
X328845D01*
Y160908D01*
X331064D01*
Y164110D01*
D02*
G37*
G36*
X327345D02*
X325127D01*
Y160908D01*
X327345D01*
Y164110D01*
D02*
G37*
G36*
X331064Y159408D02*
X328845D01*
Y156205D01*
X331064D01*
Y159408D01*
D02*
G37*
G36*
X327345D02*
X325127D01*
Y156205D01*
X327345D01*
Y159408D01*
D02*
G37*
G36*
X285500Y163049D02*
X284524Y162855D01*
X283698Y162302D01*
X283145Y161476D01*
X282951Y160500D01*
X283145Y159525D01*
X283698Y158698D01*
X284524Y158145D01*
X285500Y157951D01*
X286475Y158145D01*
X287302Y158698D01*
X287485Y158971D01*
X295866D01*
X298291Y156546D01*
X298395Y156025D01*
X298948Y155198D01*
X299775Y154645D01*
X300750Y154451D01*
X301726Y154645D01*
X302552Y155198D01*
X303105Y156025D01*
X303299Y157000D01*
X303105Y157975D01*
X302552Y158802D01*
X301726Y159355D01*
X300750Y159549D01*
X299802Y159361D01*
X297581Y161581D01*
X297085Y161913D01*
X296500Y162029D01*
X287485D01*
X287302Y162302D01*
X286475Y162855D01*
X285500Y163049D01*
D02*
G37*
G36*
X210100Y152097D02*
X209428Y152008D01*
X208802Y151749D01*
X208264Y151336D01*
X208187Y151236D01*
X192213D01*
X192136Y151336D01*
X191598Y151749D01*
X190972Y152008D01*
X190300Y152097D01*
X189628Y152008D01*
X189002Y151749D01*
X188464Y151336D01*
X188051Y150798D01*
X187792Y150172D01*
X187703Y149500D01*
X187792Y148828D01*
X188051Y148202D01*
X188464Y147664D01*
X188570Y147582D01*
Y132618D01*
X188464Y132536D01*
X188051Y131999D01*
X187792Y131372D01*
X187703Y130700D01*
X187792Y130028D01*
X188051Y129402D01*
X188464Y128864D01*
X188570Y128782D01*
Y128764D01*
X188594D01*
X189002Y128451D01*
X189628Y128191D01*
X190300Y128103D01*
X190972Y128191D01*
X191598Y128451D01*
X192006Y128764D01*
X208394D01*
X208802Y128451D01*
X209428Y128191D01*
X210100Y128103D01*
X210772Y128191D01*
X211399Y128451D01*
X211806Y128764D01*
X211830D01*
Y128782D01*
X211936Y128864D01*
X212349Y129402D01*
X212609Y130028D01*
X212697Y130700D01*
X212609Y131372D01*
X212349Y131999D01*
X211936Y132536D01*
X211830Y132618D01*
Y147582D01*
X211936Y147664D01*
X212349Y148202D01*
X212609Y148828D01*
X212697Y149500D01*
X212609Y150172D01*
X212349Y150798D01*
X211936Y151336D01*
X211399Y151749D01*
X210772Y152008D01*
X210100Y152097D01*
D02*
G37*
G36*
X135100D02*
X134428Y152008D01*
X133801Y151749D01*
X133264Y151336D01*
X133187Y151236D01*
X117213D01*
X117136Y151336D01*
X116598Y151749D01*
X115972Y152008D01*
X115300Y152097D01*
X114628Y152008D01*
X114002Y151749D01*
X113464Y151336D01*
X113051Y150798D01*
X112792Y150172D01*
X112703Y149500D01*
X112792Y148828D01*
X113051Y148202D01*
X113464Y147664D01*
X113570Y147582D01*
Y132618D01*
X113464Y132536D01*
X113051Y131999D01*
X112792Y131372D01*
X112703Y130700D01*
X112792Y130028D01*
X113051Y129402D01*
X113464Y128864D01*
X113570Y128782D01*
Y128764D01*
X113594D01*
X114002Y128451D01*
X114628Y128191D01*
X115300Y128103D01*
X115972Y128191D01*
X116598Y128451D01*
X117006Y128764D01*
X133394D01*
X133801Y128451D01*
X134428Y128191D01*
X135100Y128103D01*
X135772Y128191D01*
X136398Y128451D01*
X136806Y128764D01*
X136830D01*
Y128782D01*
X136936Y128864D01*
X137349Y129402D01*
X137609Y130028D01*
X137697Y130700D01*
X137609Y131372D01*
X137349Y131999D01*
X136936Y132536D01*
X136830Y132618D01*
Y147582D01*
X136936Y147664D01*
X137349Y148202D01*
X137609Y148828D01*
X137697Y149500D01*
X137609Y150172D01*
X137349Y150798D01*
X136936Y151336D01*
X136398Y151749D01*
X135772Y152008D01*
X135100Y152097D01*
D02*
G37*
G36*
X60100D02*
X59428Y152008D01*
X58802Y151749D01*
X58264Y151336D01*
X58187Y151236D01*
X42213D01*
X42136Y151336D01*
X41598Y151749D01*
X40972Y152008D01*
X40300Y152097D01*
X39628Y152008D01*
X39002Y151749D01*
X38464Y151336D01*
X38051Y150798D01*
X37791Y150172D01*
X37703Y149500D01*
X37791Y148828D01*
X38051Y148202D01*
X38464Y147664D01*
X38570Y147582D01*
Y132618D01*
X38464Y132536D01*
X38051Y131999D01*
X37791Y131372D01*
X37703Y130700D01*
X37791Y130028D01*
X38051Y129402D01*
X38464Y128864D01*
X38570Y128782D01*
Y128764D01*
X38594D01*
X39002Y128451D01*
X39628Y128191D01*
X40300Y128103D01*
X40972Y128191D01*
X41598Y128451D01*
X42006Y128764D01*
X58394D01*
X58802Y128451D01*
X59428Y128191D01*
X60100Y128103D01*
X60772Y128191D01*
X61399Y128451D01*
X61806Y128764D01*
X61830D01*
Y128782D01*
X61936Y128864D01*
X62349Y129402D01*
X62608Y130028D01*
X62697Y130700D01*
X62608Y131372D01*
X62349Y131999D01*
X61936Y132536D01*
X61830Y132618D01*
Y147582D01*
X61936Y147664D01*
X62349Y148202D01*
X62608Y148828D01*
X62697Y149500D01*
X62608Y150172D01*
X62349Y150798D01*
X61936Y151336D01*
X61399Y151749D01*
X60772Y152008D01*
X60100Y152097D01*
D02*
G37*
G36*
X331064Y133110D02*
X328845D01*
Y129908D01*
X331064D01*
Y133110D01*
D02*
G37*
G36*
X327345D02*
X325127D01*
Y129908D01*
X327345D01*
Y133110D01*
D02*
G37*
G36*
X331064Y128408D02*
X328845D01*
Y125205D01*
X331064D01*
Y128408D01*
D02*
G37*
G36*
X327345D02*
X325127D01*
Y125205D01*
X327345D01*
Y128408D01*
D02*
G37*
G36*
X358500Y123049D02*
X357524Y122855D01*
X357345Y122735D01*
X357326Y122739D01*
X354200D01*
X353420Y122584D01*
X352758Y122142D01*
X349058Y118442D01*
X348616Y117780D01*
X348461Y117000D01*
Y114719D01*
X338463Y104721D01*
X338021Y104060D01*
X337866Y103279D01*
Y102110D01*
X336936D01*
Y94205D01*
X342874D01*
Y102110D01*
X342327D01*
X342120Y102610D01*
X350709Y111199D01*
X351171Y111008D01*
Y102583D01*
X350671Y102391D01*
X349975Y102855D01*
X349000Y103049D01*
X348025Y102855D01*
X347198Y102302D01*
X346645Y101476D01*
X346451Y100500D01*
X346645Y99524D01*
X347198Y98698D01*
X347471Y98515D01*
Y93133D01*
X342367Y88029D01*
X339968D01*
X339383Y87913D01*
X338887Y87581D01*
X331168Y79862D01*
X327571D01*
Y74299D01*
X327571Y74201D01*
Y73799D01*
X327571Y73701D01*
Y68138D01*
X333429D01*
Y68929D01*
X335571D01*
Y68138D01*
X341429D01*
Y68929D01*
X344021D01*
X344493Y68613D01*
X345468Y68419D01*
X346444Y68613D01*
X347271Y69166D01*
X347823Y69993D01*
X347934Y70551D01*
X362442Y85058D01*
X362884Y85720D01*
X363039Y86500D01*
Y99052D01*
X363355Y99524D01*
X363549Y100500D01*
X363355Y101476D01*
X362802Y102302D01*
X361976Y102855D01*
X361000Y103049D01*
X360024Y102855D01*
X359198Y102302D01*
X358645Y101476D01*
X358451Y100500D01*
X358645Y99524D01*
X358961Y99052D01*
Y87345D01*
X345051Y73434D01*
X344493Y73323D01*
X344021Y73008D01*
X341429D01*
Y73701D01*
X341429Y73799D01*
Y74201D01*
X341429Y74299D01*
Y77798D01*
X353781Y90150D01*
X354113Y90646D01*
X354229Y91232D01*
Y113567D01*
X355678Y115015D01*
X356000Y114951D01*
X356976Y115145D01*
X357802Y115698D01*
X358355Y116525D01*
X358549Y117500D01*
X358951Y118041D01*
X359475Y118145D01*
X360302Y118698D01*
X360855Y119525D01*
X361049Y120500D01*
X360855Y121476D01*
X360302Y122302D01*
X359475Y122855D01*
X358500Y123049D01*
D02*
G37*
G36*
X220500Y121388D02*
X219364Y121238D01*
X218306Y120800D01*
X217397Y120103D01*
X216700Y119194D01*
X216262Y118136D01*
X216112Y117000D01*
X216262Y115864D01*
X216700Y114806D01*
X217132Y114244D01*
X216878Y113843D01*
X216837Y113807D01*
X215500Y113939D01*
X214146Y113806D01*
X212845Y113411D01*
X211645Y112769D01*
X210593Y111907D01*
X209731Y110855D01*
X209089Y109655D01*
X208694Y108354D01*
X208561Y107000D01*
X208694Y105646D01*
X209089Y104345D01*
X209731Y103145D01*
X210593Y102093D01*
X211645Y101231D01*
X212845Y100589D01*
X214146Y100194D01*
X215500Y100061D01*
X216854Y100194D01*
X218155Y100589D01*
X219355Y101231D01*
X220407Y102093D01*
X221269Y103145D01*
X221911Y104345D01*
X222306Y105646D01*
X222439Y107000D01*
X222306Y108354D01*
X221911Y109655D01*
X221269Y110855D01*
X220407Y111907D01*
X220096Y112161D01*
X220303Y112638D01*
X220500Y112612D01*
X221636Y112762D01*
X222694Y113200D01*
X223603Y113898D01*
X224300Y114806D01*
X224738Y115864D01*
X224887Y117000D01*
X224738Y118136D01*
X224300Y119194D01*
X223603Y120103D01*
X222694Y120800D01*
X221636Y121238D01*
X220500Y121388D01*
D02*
G37*
G36*
X145500D02*
X144364Y121238D01*
X143306Y120800D01*
X142397Y120103D01*
X141700Y119194D01*
X141262Y118136D01*
X141112Y117000D01*
X141262Y115864D01*
X141700Y114806D01*
X142132Y114244D01*
X141877Y113843D01*
X141837Y113807D01*
X140500Y113939D01*
X139146Y113806D01*
X137845Y113411D01*
X136645Y112769D01*
X135593Y111907D01*
X134731Y110855D01*
X134089Y109655D01*
X133694Y108354D01*
X133561Y107000D01*
X133694Y105646D01*
X134089Y104345D01*
X134731Y103145D01*
X135593Y102093D01*
X136645Y101231D01*
X137845Y100589D01*
X139146Y100194D01*
X140500Y100061D01*
X141854Y100194D01*
X143155Y100589D01*
X144355Y101231D01*
X145407Y102093D01*
X146270Y103145D01*
X146911Y104345D01*
X147306Y105646D01*
X147439Y107000D01*
X147306Y108354D01*
X146911Y109655D01*
X146270Y110855D01*
X145407Y111907D01*
X145096Y112161D01*
X145303Y112638D01*
X145500Y112612D01*
X146636Y112762D01*
X147694Y113200D01*
X148602Y113898D01*
X149300Y114806D01*
X149738Y115864D01*
X149888Y117000D01*
X149738Y118136D01*
X149300Y119194D01*
X148602Y120103D01*
X147694Y120800D01*
X146636Y121238D01*
X145500Y121388D01*
D02*
G37*
G36*
X70500D02*
X69364Y121238D01*
X68306Y120800D01*
X67397Y120103D01*
X66700Y119194D01*
X66262Y118136D01*
X66113Y117000D01*
X66262Y115864D01*
X66700Y114806D01*
X67132Y114244D01*
X66878Y113843D01*
X66837Y113807D01*
X65500Y113939D01*
X64146Y113806D01*
X62845Y113411D01*
X61645Y112769D01*
X60593Y111907D01*
X59730Y110855D01*
X59089Y109655D01*
X58694Y108354D01*
X58561Y107000D01*
X58694Y105646D01*
X59089Y104345D01*
X59730Y103145D01*
X60593Y102093D01*
X61645Y101231D01*
X62845Y100589D01*
X64146Y100194D01*
X65500Y100061D01*
X66854Y100194D01*
X68155Y100589D01*
X69355Y101231D01*
X70407Y102093D01*
X71270Y103145D01*
X71911Y104345D01*
X72306Y105646D01*
X72439Y107000D01*
X72306Y108354D01*
X71911Y109655D01*
X71270Y110855D01*
X70407Y111907D01*
X70096Y112161D01*
X70303Y112638D01*
X70500Y112612D01*
X71636Y112762D01*
X72694Y113200D01*
X73602Y113898D01*
X74300Y114806D01*
X74738Y115864D01*
X74888Y117000D01*
X74738Y118136D01*
X74300Y119194D01*
X73602Y120103D01*
X72694Y120800D01*
X71636Y121238D01*
X70500Y121388D01*
D02*
G37*
G36*
X105500D02*
X104364Y121238D01*
X103306Y120800D01*
X102398Y120103D01*
X101700Y119194D01*
X101262Y118136D01*
X101112Y117000D01*
X101262Y115864D01*
X101700Y114806D01*
X102398Y113898D01*
X103306Y113200D01*
X104364Y112762D01*
X105500Y112612D01*
X106636Y112762D01*
X107694Y113200D01*
X108602Y113898D01*
X109300Y114806D01*
X109738Y115864D01*
X109888Y117000D01*
X109738Y118136D01*
X109300Y119194D01*
X108602Y120103D01*
X107694Y120800D01*
X106636Y121238D01*
X105500Y121388D01*
D02*
G37*
G36*
X30500D02*
X29364Y121238D01*
X28306Y120800D01*
X27398Y120103D01*
X26700Y119194D01*
X26262Y118136D01*
X26112Y117000D01*
X26262Y115864D01*
X26700Y114806D01*
X27398Y113898D01*
X28306Y113200D01*
X29364Y112762D01*
X30500Y112612D01*
X31636Y112762D01*
X32694Y113200D01*
X33602Y113898D01*
X34300Y114806D01*
X34738Y115864D01*
X34887Y117000D01*
X34738Y118136D01*
X34300Y119194D01*
X33602Y120103D01*
X32694Y120800D01*
X31636Y121238D01*
X30500Y121388D01*
D02*
G37*
G36*
X125500Y126044D02*
X123736Y125870D01*
X122039Y125355D01*
X120476Y124519D01*
X119105Y123395D01*
X117981Y122024D01*
X117145Y120461D01*
X116630Y118764D01*
X116456Y117000D01*
X116630Y115236D01*
X117145Y113539D01*
X117505Y112864D01*
X117099Y112563D01*
X114604Y115059D01*
X114639Y115588D01*
X114802Y115698D01*
X115355Y116525D01*
X115549Y117500D01*
X115355Y118475D01*
X114802Y119302D01*
X113976Y119855D01*
X113000Y120049D01*
X112024Y119855D01*
X111198Y119302D01*
X110645Y118475D01*
X110451Y117500D01*
X110645Y116525D01*
X111198Y115698D01*
X111471Y115515D01*
Y114500D01*
X111587Y113915D01*
X111919Y113419D01*
X128132Y97205D01*
X127645Y96475D01*
X127451Y95500D01*
X127645Y94525D01*
X128198Y93698D01*
X129025Y93145D01*
X130000Y92951D01*
X130975Y93145D01*
X131802Y93698D01*
X132355Y94525D01*
X132549Y95500D01*
X132355Y96475D01*
X131802Y97302D01*
X131529Y97485D01*
Y97500D01*
X131413Y98085D01*
X131081Y98581D01*
X121063Y108599D01*
X121364Y109005D01*
X122039Y108645D01*
X123736Y108130D01*
X125500Y107956D01*
X127264Y108130D01*
X128961Y108645D01*
X130524Y109481D01*
X131895Y110605D01*
X133019Y111976D01*
X133855Y113539D01*
X134370Y115236D01*
X134544Y117000D01*
X134370Y118764D01*
X133855Y120461D01*
X133019Y122024D01*
X131895Y123395D01*
X130524Y124519D01*
X128961Y125355D01*
X127264Y125870D01*
X125500Y126044D01*
D02*
G37*
G36*
X284500Y144845D02*
X273500D01*
X272603Y144667D01*
X271842Y144158D01*
X271333Y143397D01*
X271155Y142500D01*
Y141845D01*
X248500D01*
X247603Y141667D01*
X246842Y141158D01*
X246333Y140397D01*
X246155Y139500D01*
Y134845D01*
X245000D01*
X244103Y134667D01*
X243342Y134158D01*
X242833Y133397D01*
X242655Y132500D01*
Y119500D01*
X242833Y118603D01*
X243342Y117842D01*
X244103Y117333D01*
X245000Y117155D01*
X246155D01*
Y113000D01*
X246333Y112103D01*
X246842Y111342D01*
X247603Y110833D01*
X248500Y110655D01*
X297500D01*
X298397Y110833D01*
X299158Y111342D01*
X299667Y112103D01*
X299845Y113000D01*
Y117155D01*
X301000D01*
X301897Y117333D01*
X302658Y117842D01*
X303167Y118603D01*
X303345Y119500D01*
Y132500D01*
X303167Y133397D01*
X302658Y134158D01*
X301897Y134667D01*
X301000Y134845D01*
X299845D01*
Y139500D01*
X299667Y140397D01*
X299158Y141158D01*
X298397Y141667D01*
X297500Y141845D01*
X286845D01*
Y142500D01*
X286667Y143397D01*
X286158Y144158D01*
X285397Y144667D01*
X284500Y144845D01*
D02*
G37*
G36*
X200500Y126044D02*
X198736Y125870D01*
X197039Y125355D01*
X195476Y124519D01*
X194105Y123395D01*
X192981Y122024D01*
X192145Y120461D01*
X191630Y118764D01*
X191456Y117000D01*
X191630Y115236D01*
X192145Y113539D01*
X192981Y111976D01*
X194105Y110605D01*
X195476Y109481D01*
X197039Y108645D01*
X198736Y108130D01*
X200500Y107956D01*
X202264Y108130D01*
X203961Y108645D01*
X205524Y109481D01*
X206895Y110605D01*
X208019Y111976D01*
X208855Y113539D01*
X209370Y115236D01*
X209544Y117000D01*
X209370Y118764D01*
X208855Y120461D01*
X208019Y122024D01*
X206895Y123395D01*
X205524Y124519D01*
X203961Y125355D01*
X202264Y125870D01*
X200500Y126044D01*
D02*
G37*
G36*
X50500D02*
X48736Y125870D01*
X47039Y125355D01*
X45476Y124519D01*
X44105Y123395D01*
X42981Y122024D01*
X42145Y120461D01*
X41630Y118764D01*
X41456Y117000D01*
X41630Y115236D01*
X42145Y113539D01*
X42981Y111976D01*
X44105Y110605D01*
X45476Y109481D01*
X47039Y108645D01*
X48736Y108130D01*
X50500Y107956D01*
X52264Y108130D01*
X53961Y108645D01*
X55524Y109481D01*
X56895Y110605D01*
X58019Y111976D01*
X58855Y113539D01*
X59370Y115236D01*
X59544Y117000D01*
X59370Y118764D01*
X58855Y120461D01*
X58019Y122024D01*
X56895Y123395D01*
X55524Y124519D01*
X53961Y125355D01*
X52264Y125870D01*
X50500Y126044D01*
D02*
G37*
G36*
X331064Y102110D02*
X328845D01*
Y98908D01*
X331064D01*
Y102110D01*
D02*
G37*
G36*
X327345D02*
X325127D01*
Y98908D01*
X327345D01*
Y102110D01*
D02*
G37*
G36*
X275500Y103887D02*
X274364Y103738D01*
X273306Y103300D01*
X272397Y102603D01*
X271700Y101694D01*
X271262Y100636D01*
X271112Y99500D01*
X271262Y98364D01*
X271700Y97306D01*
X272397Y96398D01*
X273306Y95700D01*
X274364Y95262D01*
X275500Y95113D01*
X276636Y95262D01*
X277694Y95700D01*
X278603Y96398D01*
X279300Y97306D01*
X279738Y98364D01*
X279888Y99500D01*
X279738Y100636D01*
X279300Y101694D01*
X278603Y102603D01*
X277694Y103300D01*
X276636Y103738D01*
X275500Y103887D01*
D02*
G37*
G36*
X331064Y97408D02*
X328845D01*
Y94205D01*
X331064D01*
Y97408D01*
D02*
G37*
G36*
X327345D02*
X325127D01*
Y94205D01*
X327345D01*
Y97408D01*
D02*
G37*
G36*
X308000Y92297D02*
X307328Y92208D01*
X306701Y91949D01*
X306164Y91536D01*
X306082Y91430D01*
X291118D01*
X291036Y91536D01*
X290498Y91949D01*
X289872Y92208D01*
X289200Y92297D01*
X288528Y92208D01*
X287901Y91949D01*
X287364Y91536D01*
X287282Y91430D01*
X287264D01*
Y91406D01*
X286951Y90999D01*
X286691Y90372D01*
X286603Y89700D01*
X286691Y89028D01*
X286951Y88402D01*
X287264Y87994D01*
Y71606D01*
X286951Y71198D01*
X286691Y70572D01*
X286603Y69900D01*
X286691Y69228D01*
X286951Y68602D01*
X287264Y68194D01*
Y68170D01*
X287282D01*
X287364Y68064D01*
X287901Y67651D01*
X288528Y67392D01*
X289200Y67303D01*
X289872Y67392D01*
X290498Y67651D01*
X291036Y68064D01*
X291118Y68170D01*
X306082D01*
X306164Y68064D01*
X306701Y67651D01*
X307328Y67392D01*
X308000Y67303D01*
X308672Y67392D01*
X309298Y67651D01*
X309836Y68064D01*
X310249Y68602D01*
X310508Y69228D01*
X310597Y69900D01*
X310508Y70572D01*
X310249Y71198D01*
X309836Y71736D01*
X309736Y71813D01*
Y87787D01*
X309836Y87864D01*
X310249Y88402D01*
X310508Y89028D01*
X310597Y89700D01*
X310508Y90372D01*
X310249Y90999D01*
X309836Y91536D01*
X309298Y91949D01*
X308672Y92208D01*
X308000Y92297D01*
D02*
G37*
G36*
X115500Y103939D02*
X114146Y103806D01*
X112845Y103411D01*
X111645Y102769D01*
X110593Y101907D01*
X109731Y100855D01*
X109089Y99655D01*
X108694Y98354D01*
X108561Y97000D01*
X108694Y95646D01*
X109089Y94345D01*
X109731Y93145D01*
X110593Y92093D01*
X111645Y91230D01*
X112845Y90589D01*
X114146Y90194D01*
X115500Y90061D01*
X116854Y90194D01*
X118155Y90589D01*
X119355Y91230D01*
X120407Y92093D01*
X121270Y93145D01*
X121911Y94345D01*
X122306Y95646D01*
X122439Y97000D01*
X122306Y98354D01*
X121911Y99655D01*
X121270Y100855D01*
X120407Y101907D01*
X119355Y102769D01*
X118155Y103411D01*
X116854Y103806D01*
X115500Y103939D01*
D02*
G37*
G36*
X255500Y96439D02*
X254146Y96306D01*
X252845Y95911D01*
X251645Y95270D01*
X250593Y94407D01*
X249730Y93355D01*
X249089Y92155D01*
X248694Y90854D01*
X248561Y89500D01*
X248694Y88146D01*
X249089Y86845D01*
X249730Y85645D01*
X250593Y84593D01*
X251645Y83731D01*
X252845Y83089D01*
X254146Y82694D01*
X255500Y82561D01*
X256854Y82694D01*
X258155Y83089D01*
X259355Y83731D01*
X260407Y84593D01*
X261269Y85645D01*
X261911Y86845D01*
X262306Y88146D01*
X262439Y89500D01*
X262306Y90854D01*
X261911Y92155D01*
X261269Y93355D01*
X260407Y94407D01*
X259355Y95270D01*
X258155Y95911D01*
X256854Y96306D01*
X255500Y96439D01*
D02*
G37*
G36*
X242500Y83549D02*
X241525Y83355D01*
X241052Y83039D01*
X230500D01*
X229720Y82884D01*
X229058Y82442D01*
X215558Y68942D01*
X215116Y68280D01*
X214961Y67500D01*
Y60448D01*
X214645Y59975D01*
X214451Y59000D01*
X214645Y58025D01*
X215198Y57198D01*
X216024Y56645D01*
X217000Y56451D01*
X217975Y56645D01*
X218802Y57198D01*
X219355Y58025D01*
X219549Y59000D01*
X219355Y59975D01*
X219039Y60448D01*
Y66655D01*
X231345Y78961D01*
X241052D01*
X241525Y78645D01*
X242500Y78451D01*
X243476Y78645D01*
X244302Y79198D01*
X244855Y80024D01*
X245049Y81000D01*
X244855Y81976D01*
X244302Y82802D01*
X243476Y83355D01*
X242500Y83549D01*
D02*
G37*
G36*
X210100Y76597D02*
X209428Y76508D01*
X208802Y76249D01*
X208264Y75836D01*
X208187Y75736D01*
X192213D01*
X192136Y75836D01*
X191598Y76249D01*
X190972Y76508D01*
X190300Y76597D01*
X189628Y76508D01*
X189002Y76249D01*
X188464Y75836D01*
X188051Y75299D01*
X187792Y74672D01*
X187703Y74000D01*
X187792Y73328D01*
X188051Y72702D01*
X188464Y72164D01*
X188570Y72082D01*
Y57118D01*
X188464Y57036D01*
X188051Y56498D01*
X187792Y55872D01*
X187703Y55200D01*
X187792Y54528D01*
X188051Y53901D01*
X188464Y53364D01*
X188570Y53282D01*
Y53264D01*
X188594D01*
X189002Y52951D01*
X189628Y52692D01*
X190300Y52603D01*
X190972Y52692D01*
X191598Y52951D01*
X192006Y53264D01*
X208394D01*
X208802Y52951D01*
X209428Y52692D01*
X210100Y52603D01*
X210772Y52692D01*
X211399Y52951D01*
X211806Y53264D01*
X211830D01*
Y53282D01*
X211936Y53364D01*
X212349Y53901D01*
X212609Y54528D01*
X212697Y55200D01*
X212609Y55872D01*
X212349Y56498D01*
X211936Y57036D01*
X211830Y57118D01*
Y72082D01*
X211936Y72164D01*
X212349Y72702D01*
X212609Y73328D01*
X212697Y74000D01*
X212609Y74672D01*
X212349Y75299D01*
X211936Y75836D01*
X211399Y76249D01*
X210772Y76508D01*
X210100Y76597D01*
D02*
G37*
G36*
X275500Y88544D02*
X273736Y88370D01*
X272039Y87855D01*
X270476Y87019D01*
X269105Y85895D01*
X267981Y84524D01*
X267145Y82961D01*
X266630Y81264D01*
X266456Y79500D01*
X266630Y77736D01*
X267145Y76039D01*
X267981Y74476D01*
X269105Y73105D01*
X270476Y71981D01*
X272039Y71145D01*
X273736Y70630D01*
X275500Y70456D01*
X277264Y70630D01*
X278961Y71145D01*
X280524Y71981D01*
X281895Y73105D01*
X283019Y74476D01*
X283855Y76039D01*
X284370Y77736D01*
X284544Y79500D01*
X284370Y81264D01*
X283855Y82961D01*
X283019Y84524D01*
X281895Y85895D01*
X280524Y87019D01*
X278961Y87855D01*
X277264Y88370D01*
X275500Y88544D01*
D02*
G37*
G36*
X233500Y73049D02*
X232524Y72855D01*
X231698Y72302D01*
X231145Y71475D01*
X230951Y70500D01*
X231145Y69525D01*
X231698Y68698D01*
X232524Y68145D01*
X233500Y67951D01*
X233822Y68015D01*
X252419Y49419D01*
X252915Y49087D01*
X253500Y48971D01*
X296000D01*
X296585Y49087D01*
X297081Y49419D01*
X304678Y57015D01*
X305000Y56951D01*
X305976Y57145D01*
X306802Y57698D01*
X307355Y58525D01*
X307549Y59500D01*
X307355Y60475D01*
X306802Y61302D01*
X305976Y61855D01*
X305000Y62049D01*
X304025Y61855D01*
X303198Y61302D01*
X302645Y60475D01*
X302451Y59500D01*
X302515Y59178D01*
X295367Y52029D01*
X254134D01*
X235985Y70178D01*
X236049Y70500D01*
X235855Y71475D01*
X235302Y72302D01*
X234475Y72855D01*
X233500Y73049D01*
D02*
G37*
G36*
X88500Y358549D02*
X88352Y358520D01*
X85000D01*
X84610Y358442D01*
X84279Y358221D01*
X84058Y357890D01*
X83980Y357500D01*
Y343500D01*
X84058Y343110D01*
X84279Y342779D01*
X84610Y342558D01*
X85000Y342480D01*
X85474D01*
Y283851D01*
X85279Y283721D01*
X85058Y283390D01*
X84980Y283000D01*
Y269500D01*
X85058Y269110D01*
X85279Y268779D01*
X85474Y268649D01*
Y211020D01*
X85000D01*
X84610Y210942D01*
X84279Y210721D01*
X84058Y210390D01*
X83980Y210000D01*
Y198000D01*
X84058Y197610D01*
X84279Y197279D01*
X84610Y197058D01*
X85000Y196980D01*
X85474D01*
Y132520D01*
X81000D01*
X80610Y132442D01*
X80279Y132221D01*
X80058Y131890D01*
X79980Y131500D01*
Y126000D01*
X80058Y125610D01*
X80279Y125279D01*
X80610Y125058D01*
X81000Y124980D01*
X85474D01*
Y94500D01*
X85577Y93717D01*
X85879Y92987D01*
X86360Y92360D01*
X101974Y76747D01*
Y62520D01*
X101500D01*
X101110Y62442D01*
X100779Y62221D01*
X100558Y61890D01*
X100480Y61500D01*
Y56781D01*
X99980Y56682D01*
X99849Y56998D01*
X99436Y57536D01*
X99330Y57618D01*
Y72582D01*
X99436Y72664D01*
X99849Y73202D01*
X100109Y73828D01*
X100197Y74500D01*
X100109Y75172D01*
X99849Y75798D01*
X99436Y76336D01*
X98899Y76749D01*
X98272Y77008D01*
X97600Y77097D01*
X96928Y77008D01*
X96302Y76749D01*
X95764Y76336D01*
X95687Y76236D01*
X79713D01*
X79636Y76336D01*
X79098Y76749D01*
X78472Y77008D01*
X77800Y77097D01*
X77128Y77008D01*
X76502Y76749D01*
X75964Y76336D01*
X75551Y75798D01*
X75292Y75172D01*
X75203Y74500D01*
X75292Y73828D01*
X75551Y73202D01*
X75964Y72664D01*
X76070Y72582D01*
Y57618D01*
X75964Y57536D01*
X75551Y56998D01*
X75292Y56372D01*
X75203Y55700D01*
X75292Y55028D01*
X75551Y54401D01*
X75964Y53864D01*
X76070Y53782D01*
Y53764D01*
X76094D01*
X76502Y53451D01*
X77128Y53192D01*
X77800Y53103D01*
X78472Y53192D01*
X79098Y53451D01*
X79506Y53764D01*
X95894D01*
X96302Y53451D01*
X96928Y53192D01*
X97600Y53103D01*
X98272Y53192D01*
X98899Y53451D01*
X99306Y53764D01*
X99330D01*
Y53782D01*
X99436Y53864D01*
X99849Y54401D01*
X99980Y54719D01*
X100480Y54619D01*
Y49500D01*
X100558Y49110D01*
X100779Y48779D01*
X101110Y48558D01*
X101500Y48480D01*
X107500D01*
X107890Y48558D01*
X108221Y48779D01*
X108442Y49110D01*
X108520Y49500D01*
Y61500D01*
X108442Y61890D01*
X108221Y62221D01*
X108026Y62351D01*
Y78000D01*
X107923Y78783D01*
X107621Y79513D01*
X107140Y80140D01*
X107140Y80140D01*
X91526Y95753D01*
Y124980D01*
X96500D01*
X96890Y125058D01*
X97221Y125279D01*
X97442Y125610D01*
X97520Y126000D01*
Y131500D01*
X97442Y131890D01*
X97221Y132221D01*
X96890Y132442D01*
X96500Y132520D01*
X91526D01*
Y196980D01*
X92000D01*
X92390Y197058D01*
X92721Y197279D01*
X92942Y197610D01*
X93020Y198000D01*
Y210000D01*
X92942Y210390D01*
X92721Y210721D01*
X92390Y210942D01*
X92000Y211020D01*
X91526D01*
Y268649D01*
X91721Y268779D01*
X91942Y269110D01*
X92020Y269500D01*
Y283000D01*
X91942Y283390D01*
X91721Y283721D01*
X91526Y283851D01*
Y342480D01*
X92000D01*
X92390Y342558D01*
X92721Y342779D01*
X92942Y343110D01*
X93020Y343500D01*
Y357500D01*
X92942Y357890D01*
X92721Y358221D01*
X92390Y358442D01*
X92000Y358520D01*
X88648D01*
X88500Y358549D01*
D02*
G37*
G36*
X265500Y71439D02*
X264146Y71306D01*
X262845Y70911D01*
X261645Y70270D01*
X260593Y69407D01*
X259731Y68355D01*
X259089Y67155D01*
X258694Y65854D01*
X258561Y64500D01*
X258694Y63146D01*
X259089Y61845D01*
X259731Y60645D01*
X260593Y59593D01*
X261645Y58731D01*
X262845Y58089D01*
X264146Y57694D01*
X265500Y57561D01*
X266854Y57694D01*
X268155Y58089D01*
X269355Y58731D01*
X270407Y59593D01*
X270661Y59904D01*
X271138Y59697D01*
X271112Y59500D01*
X271262Y58364D01*
X271700Y57306D01*
X272397Y56397D01*
X273306Y55700D01*
X274364Y55262D01*
X275500Y55112D01*
X276636Y55262D01*
X277694Y55700D01*
X278603Y56397D01*
X279300Y57306D01*
X279738Y58364D01*
X279888Y59500D01*
X279738Y60636D01*
X279300Y61694D01*
X278603Y62603D01*
X277694Y63300D01*
X276636Y63738D01*
X275500Y63888D01*
X274364Y63738D01*
X273306Y63300D01*
X272744Y62868D01*
X272343Y63122D01*
X272307Y63163D01*
X272439Y64500D01*
X272306Y65854D01*
X271911Y67155D01*
X271269Y68355D01*
X270407Y69407D01*
X269355Y70270D01*
X268155Y70911D01*
X266854Y71306D01*
X265500Y71439D01*
D02*
G37*
G36*
X108000Y46387D02*
X106864Y46238D01*
X105806Y45800D01*
X104897Y45103D01*
X104200Y44194D01*
X103762Y43136D01*
X103612Y42000D01*
X103762Y40864D01*
X104200Y39806D01*
X104632Y39244D01*
X104377Y38843D01*
X104337Y38807D01*
X103000Y38939D01*
X101646Y38806D01*
X100345Y38411D01*
X99145Y37769D01*
X98093Y36906D01*
X97230Y35855D01*
X96589Y34655D01*
X96194Y33354D01*
X96061Y32000D01*
X96194Y30646D01*
X96589Y29345D01*
X97230Y28145D01*
X98093Y27093D01*
X99145Y26230D01*
X100345Y25589D01*
X101646Y25194D01*
X103000Y25061D01*
X104354Y25194D01*
X105655Y25589D01*
X106855Y26230D01*
X107907Y27093D01*
X108770Y28145D01*
X109411Y29345D01*
X109806Y30646D01*
X109939Y32000D01*
X109806Y33354D01*
X109411Y34655D01*
X108770Y35855D01*
X107907Y36906D01*
X107596Y37161D01*
X107803Y37638D01*
X108000Y37613D01*
X109136Y37762D01*
X110194Y38200D01*
X111102Y38897D01*
X111800Y39806D01*
X112238Y40864D01*
X112388Y42000D01*
X112238Y43136D01*
X111800Y44194D01*
X111102Y45103D01*
X110194Y45800D01*
X109136Y46238D01*
X108000Y46387D01*
D02*
G37*
G36*
X220500Y45888D02*
X219364Y45738D01*
X218306Y45300D01*
X217397Y44603D01*
X216700Y43694D01*
X216262Y42636D01*
X216112Y41500D01*
X216262Y40364D01*
X216700Y39306D01*
X217132Y38744D01*
X216878Y38343D01*
X216837Y38307D01*
X215500Y38439D01*
X214146Y38306D01*
X212845Y37911D01*
X211645Y37269D01*
X210593Y36406D01*
X209731Y35355D01*
X209089Y34155D01*
X208694Y32854D01*
X208561Y31500D01*
X208694Y30146D01*
X209089Y28845D01*
X209731Y27645D01*
X210593Y26593D01*
X211645Y25730D01*
X212845Y25089D01*
X214146Y24694D01*
X215500Y24561D01*
X216854Y24694D01*
X218155Y25089D01*
X219355Y25730D01*
X220407Y26593D01*
X221269Y27645D01*
X221911Y28845D01*
X222306Y30146D01*
X222439Y31500D01*
X222306Y32854D01*
X221911Y34155D01*
X221269Y35355D01*
X220407Y36406D01*
X220096Y36661D01*
X220303Y37138D01*
X220500Y37113D01*
X221636Y37262D01*
X222694Y37700D01*
X223603Y38397D01*
X224300Y39306D01*
X224738Y40364D01*
X224887Y41500D01*
X224738Y42636D01*
X224300Y43694D01*
X223603Y44603D01*
X222694Y45300D01*
X221636Y45738D01*
X220500Y45888D01*
D02*
G37*
G36*
X68000Y46387D02*
X66864Y46238D01*
X65806Y45800D01*
X64898Y45103D01*
X64200Y44194D01*
X63762Y43136D01*
X63613Y42000D01*
X63762Y40864D01*
X64200Y39806D01*
X64898Y38897D01*
X65806Y38200D01*
X66864Y37762D01*
X68000Y37613D01*
X69136Y37762D01*
X70194Y38200D01*
X71102Y38897D01*
X71800Y39806D01*
X72238Y40864D01*
X72387Y42000D01*
X72238Y43136D01*
X71800Y44194D01*
X71102Y45103D01*
X70194Y45800D01*
X69136Y46238D01*
X68000Y46387D01*
D02*
G37*
G36*
X180500Y45888D02*
X179364Y45738D01*
X178306Y45300D01*
X177398Y44603D01*
X176700Y43694D01*
X176262Y42636D01*
X176112Y41500D01*
X176262Y40364D01*
X176700Y39306D01*
X177398Y38397D01*
X178306Y37700D01*
X179364Y37262D01*
X180500Y37113D01*
X181636Y37262D01*
X182694Y37700D01*
X183602Y38397D01*
X184300Y39306D01*
X184738Y40364D01*
X184888Y41500D01*
X184738Y42636D01*
X184300Y43694D01*
X183602Y44603D01*
X182694Y45300D01*
X181636Y45738D01*
X180500Y45888D01*
D02*
G37*
G36*
X88000Y51043D02*
X86236Y50870D01*
X84539Y50355D01*
X82976Y49519D01*
X81605Y48395D01*
X80481Y47024D01*
X79645Y45461D01*
X79130Y43764D01*
X78956Y42000D01*
X79130Y40236D01*
X79645Y38539D01*
X80481Y36976D01*
X81605Y35605D01*
X82976Y34481D01*
X84539Y33645D01*
X86236Y33130D01*
X88000Y32956D01*
X89764Y33130D01*
X91461Y33645D01*
X93024Y34481D01*
X94395Y35605D01*
X95519Y36976D01*
X96355Y38539D01*
X96870Y40236D01*
X97044Y42000D01*
X96870Y43764D01*
X96355Y45461D01*
X95519Y47024D01*
X94395Y48395D01*
X93024Y49519D01*
X91461Y50355D01*
X89764Y50870D01*
X88000Y51043D01*
D02*
G37*
G36*
X200500Y50543D02*
X198736Y50370D01*
X197039Y49855D01*
X195476Y49019D01*
X194105Y47895D01*
X192981Y46524D01*
X192145Y44961D01*
X191630Y43264D01*
X191456Y41500D01*
X191630Y39736D01*
X192145Y38039D01*
X192981Y36476D01*
X194105Y35105D01*
X195476Y33981D01*
X197039Y33145D01*
X198736Y32630D01*
X200500Y32456D01*
X202264Y32630D01*
X203961Y33145D01*
X205524Y33981D01*
X206895Y35105D01*
X208019Y36476D01*
X208855Y38039D01*
X209370Y39736D01*
X209544Y41500D01*
X209370Y43264D01*
X208855Y44961D01*
X208019Y46524D01*
X206895Y47895D01*
X205524Y49019D01*
X203961Y49855D01*
X202264Y50370D01*
X200500Y50543D01*
D02*
G37*
G36*
X190500Y28439D02*
X189146Y28306D01*
X187845Y27911D01*
X186645Y27270D01*
X185593Y26407D01*
X184731Y25355D01*
X184089Y24155D01*
X183694Y22854D01*
X183561Y21500D01*
X183694Y20146D01*
X184089Y18845D01*
X184731Y17645D01*
X185593Y16593D01*
X186645Y15731D01*
X187845Y15089D01*
X189146Y14694D01*
X190500Y14561D01*
X191854Y14694D01*
X193155Y15089D01*
X194355Y15731D01*
X195407Y16593D01*
X196270Y17645D01*
X196911Y18845D01*
X197306Y20146D01*
X197439Y21500D01*
X197306Y22854D01*
X196911Y24155D01*
X196270Y25355D01*
X195407Y26407D01*
X194355Y27270D01*
X193155Y27911D01*
X191854Y28306D01*
X190500Y28439D01*
D02*
G37*
G36*
X297500Y47845D02*
X248500D01*
X247603Y47667D01*
X246842Y47158D01*
X246333Y46397D01*
X246155Y45500D01*
Y41345D01*
X245000D01*
X244103Y41167D01*
X243342Y40658D01*
X242833Y39897D01*
X242655Y39000D01*
Y26000D01*
X242833Y25103D01*
X243342Y24342D01*
X244103Y23833D01*
X245000Y23655D01*
X246155D01*
Y19000D01*
X246333Y18103D01*
X246842Y17342D01*
X247603Y16833D01*
X248500Y16655D01*
X271155D01*
Y16000D01*
X271333Y15103D01*
X271842Y14342D01*
X272603Y13833D01*
X273500Y13655D01*
X284500D01*
X285397Y13833D01*
X286158Y14342D01*
X286667Y15103D01*
X286845Y16000D01*
Y16655D01*
X297500D01*
X298397Y16833D01*
X299158Y17342D01*
X299667Y18103D01*
X299845Y19000D01*
Y23655D01*
X301000D01*
X301897Y23833D01*
X302658Y24342D01*
X303167Y25103D01*
X303345Y26000D01*
Y39000D01*
X303167Y39897D01*
X302658Y40658D01*
X301897Y41167D01*
X301000Y41345D01*
X299845D01*
Y45500D01*
X299667Y46397D01*
X299158Y47158D01*
X298397Y47667D01*
X297500Y47845D01*
D02*
G37*
G36*
X141500Y69845D02*
X128000D01*
X127103Y69666D01*
X126342Y69158D01*
X125833Y68397D01*
X125655Y67500D01*
Y65845D01*
X121500D01*
X120603Y65667D01*
X119842Y65158D01*
X119333Y64397D01*
X119155Y63500D01*
Y15000D01*
X119333Y14103D01*
X119842Y13342D01*
X120603Y12833D01*
X121500Y12655D01*
X125655D01*
Y11000D01*
X125833Y10103D01*
X126342Y9342D01*
X127103Y8833D01*
X128000Y8655D01*
X141500D01*
X142397Y8833D01*
X143158Y9342D01*
X143667Y10103D01*
X143845Y11000D01*
Y12655D01*
X148000D01*
X148897Y12833D01*
X149658Y13342D01*
X150167Y14103D01*
X150345Y15000D01*
Y37155D01*
X151500D01*
X152397Y37333D01*
X153158Y37842D01*
X153667Y38603D01*
X153845Y39500D01*
Y51000D01*
X153667Y51897D01*
X153158Y52658D01*
X152397Y53167D01*
X151500Y53345D01*
X150345D01*
Y63500D01*
X150167Y64397D01*
X149658Y65158D01*
X148897Y65667D01*
X148000Y65845D01*
X143845D01*
Y67500D01*
X143667Y68397D01*
X143158Y69158D01*
X142397Y69666D01*
X141500Y69845D01*
D02*
G37*
G36*
X359252Y23083D02*
X357821Y22942D01*
X356445Y22524D01*
X355177Y21847D01*
X354066Y20934D01*
X353153Y19823D01*
X352476Y18555D01*
X352058Y17179D01*
X351917Y15748D01*
X352058Y14317D01*
X352476Y12941D01*
X353153Y11673D01*
X354066Y10562D01*
X355177Y9650D01*
X356445Y8972D01*
X357821Y8554D01*
X359252Y8414D01*
X360683Y8554D01*
X362059Y8972D01*
X363327Y9650D01*
X364438Y10562D01*
X365350Y11673D01*
X366028Y12941D01*
X366446Y14317D01*
X366586Y15748D01*
X366446Y17179D01*
X366028Y18555D01*
X365350Y19823D01*
X364438Y20934D01*
X363327Y21847D01*
X362059Y22524D01*
X360683Y22942D01*
X359252Y23083D01*
D02*
G37*
G36*
X16500Y21835D02*
X15069Y21694D01*
X13693Y21276D01*
X12425Y20598D01*
X11314Y19686D01*
X10402Y18575D01*
X9724Y17307D01*
X9306Y15931D01*
X9166Y14500D01*
X9306Y13069D01*
X9724Y11693D01*
X10402Y10425D01*
X11314Y9314D01*
X12425Y8402D01*
X13693Y7724D01*
X15069Y7306D01*
X16500Y7165D01*
X17931Y7306D01*
X19307Y7724D01*
X20575Y8402D01*
X21686Y9314D01*
X22598Y10425D01*
X23276Y11693D01*
X23694Y13069D01*
X23834Y14500D01*
X23694Y15931D01*
X23276Y17307D01*
X22598Y18575D01*
X21686Y19686D01*
X20575Y20598D01*
X19307Y21276D01*
X17931Y21694D01*
X16500Y21835D01*
D02*
G37*
%LPD*%
D10*
X304938Y203000D02*
X325642Y182295D01*
X253500Y203000D02*
X304938D01*
X235000Y221500D02*
X253500Y203000D01*
X352700Y91232D02*
Y114200D01*
X339929Y78461D02*
X352700Y91232D01*
Y114200D02*
X356000Y117500D01*
X235000Y221500D02*
Y267500D01*
X99000Y94500D02*
Y123500D01*
Y94500D02*
X107500Y86000D01*
X99000Y123500D02*
X107500Y132000D01*
X296500Y160500D02*
X300000Y157000D01*
X285500Y160500D02*
X296500D01*
X318000Y245500D02*
X319500Y244000D01*
X285500Y245500D02*
X318000D01*
X280000Y240000D02*
X285500Y245500D01*
X286096Y248500D02*
X313500D01*
X271500Y240000D02*
X280000D01*
X279296Y241700D02*
X286096Y248500D01*
X270796Y241700D02*
X279296D01*
X252596Y223500D02*
X270796Y241700D01*
X251000Y219500D02*
X271500Y240000D01*
X241000Y223500D02*
X252596D01*
X251000Y216000D02*
Y219500D01*
X315500Y255000D02*
Y271000D01*
X339929Y78362D02*
Y78461D01*
X338598Y77031D02*
X339929Y78362D01*
X330500Y77031D02*
X330598D01*
X339968Y86500D02*
X343000D01*
X331929Y78461D02*
X339968Y86500D01*
X331929Y78362D02*
Y78461D01*
X330598Y77031D02*
X331929Y78362D01*
X343000Y86500D02*
X349000Y92500D01*
Y100500D01*
X338500Y77031D02*
X338598D01*
X237000Y97000D02*
X241500D01*
X230500Y103500D02*
X237000Y97000D01*
X230500Y103500D02*
Y286500D01*
X237000Y293000D01*
X241000D01*
X242500Y291500D01*
Y286500D02*
Y291500D01*
X239500Y283500D02*
X242500Y286500D01*
X239500Y272500D02*
Y283500D01*
X244500Y246500D02*
X251000Y253000D01*
X269500D01*
X271000Y254500D01*
Y258500D01*
X269500Y260000D02*
X271000Y258500D01*
X244000Y260000D02*
X269500D01*
X239500Y264500D02*
X244000Y260000D01*
X237700Y263896D02*
Y268618D01*
Y263896D02*
X245096Y256500D01*
X266500D01*
X239500Y264500D02*
Y272500D01*
X235000Y271318D02*
X237700Y268618D01*
X235000Y271318D02*
Y286000D01*
X238500Y289500D01*
X182000Y86500D02*
Y106000D01*
X186500Y110500D01*
Y124500D01*
X182000Y129000D02*
X186500Y124500D01*
X182000Y129000D02*
Y160000D01*
Y179500D01*
X185500Y183000D01*
Y197000D01*
X183000Y199500D02*
X185500Y197000D01*
X183000Y199500D02*
Y235000D01*
Y254500D01*
X187000Y258500D01*
Y274000D01*
X183600Y277400D02*
X187000Y274000D01*
X183600Y277400D02*
Y310600D01*
X164000Y29000D02*
X182000Y11000D01*
X164000Y29000D02*
Y67000D01*
X155500Y75500D02*
X164000Y67000D01*
X118000Y75500D02*
X155500D01*
X107500Y86000D02*
X118000Y75500D01*
X107500Y132000D02*
Y161000D01*
Y179000D01*
X111500Y183000D01*
Y198500D01*
X107750Y202250D02*
X111500Y198500D01*
X107750Y202250D02*
Y233250D01*
X96500Y244500D02*
X107750Y233250D01*
X96500Y244500D02*
Y298500D01*
X108600Y310600D01*
X296000Y50500D02*
X305000Y59500D01*
X253500Y50500D02*
X296000D01*
X233500Y70500D02*
X253500Y50500D01*
X130000Y95500D02*
Y97500D01*
X113000Y114500D02*
X130000Y97500D01*
X113000Y114500D02*
Y117500D01*
X70500Y11000D02*
X71500Y10000D01*
X70500Y11000D02*
Y27500D01*
X58000Y40000D02*
X70500Y27500D01*
X58000Y40000D02*
Y64500D01*
X49000Y73500D02*
X58000Y64500D01*
X43500Y73500D02*
X49000D01*
X35500Y81500D02*
X43500Y73500D01*
X33395Y83605D02*
X35500Y81500D01*
X33395Y83605D02*
Y103394D01*
X38000Y108000D01*
Y119000D01*
X34000Y123000D02*
X38000Y119000D01*
X34000Y123000D02*
Y164500D01*
X18000Y236000D02*
Y277000D01*
X32500Y291500D01*
Y303000D01*
X325642Y182295D02*
X326626D01*
X328095Y180827D01*
Y179842D02*
Y180827D01*
X335000Y335500D02*
Y343000D01*
D13*
X339905Y160158D02*
D03*
X328095D02*
D03*
Y179842D02*
D03*
X339905D02*
D03*
Y129157D02*
D03*
X328095D02*
D03*
Y148843D02*
D03*
X339905D02*
D03*
Y98158D02*
D03*
X328095D02*
D03*
Y117842D02*
D03*
X339905D02*
D03*
D14*
X330500Y70969D02*
D03*
Y77031D02*
D03*
X338500Y70969D02*
D03*
Y77031D02*
D03*
D25*
X236000Y199000D02*
X299000D01*
X301000Y197000D01*
X334000Y175000D02*
Y204157D01*
X336343Y206500D01*
X337500D01*
X325500Y172500D02*
X331500D01*
X301000Y197000D02*
X325500Y172500D01*
X88500Y346000D02*
Y351500D01*
Y281500D02*
Y346000D01*
Y276500D02*
Y281500D01*
Y272500D02*
Y276500D01*
Y208000D02*
Y272500D01*
Y202500D02*
Y208000D01*
Y198500D02*
Y202500D01*
Y127500D02*
Y198500D01*
X331500Y172500D02*
X334000Y175000D01*
X105000Y59800D02*
Y78000D01*
X88500Y94500D02*
X105000Y78000D01*
X88500Y94500D02*
Y127500D01*
D26*
X354200Y120700D02*
X357326D01*
X339905Y103279D02*
X350500Y113874D01*
Y117000D01*
X354200Y120700D01*
X357326D02*
X357334Y120691D01*
X358309D01*
X358500Y120500D01*
X336500Y113385D02*
X336885D01*
X338936Y115436D01*
X339905Y98158D02*
Y103279D01*
X217000Y59000D02*
Y67500D01*
X230500Y81000D01*
X242500D01*
X338936Y115436D02*
Y116874D01*
X339905Y117842D01*
X345468Y70969D02*
X361000Y86500D01*
Y100500D01*
X338500Y70969D02*
X345468D01*
X341858Y146890D02*
X344500Y144247D01*
Y122438D02*
Y144247D01*
X341858Y119795D02*
X344500Y122438D01*
X329000Y240000D02*
X336500D01*
X322750Y233750D02*
X329000Y240000D01*
X322750Y220750D02*
Y233750D01*
X329000Y231500D02*
X334000Y236500D01*
X329000Y227000D02*
Y231500D01*
X330500Y70969D02*
X338500D01*
X340874Y119795D02*
X341858D01*
X339905Y118827D02*
X340874Y119795D01*
X339905Y117842D02*
Y118827D01*
X340874Y146890D02*
X341858D01*
X339905Y147858D02*
X340874Y146890D01*
X339905Y147858D02*
Y148843D01*
X341858Y150795D02*
X345000Y153937D01*
X340874Y150795D02*
X341858D01*
X339905Y149827D02*
X340874Y150795D01*
X339905Y148843D02*
Y149827D01*
X345000Y153937D02*
Y174748D01*
X341858Y177890D02*
X345000Y174748D01*
X340874Y177890D02*
X341858D01*
X339905Y178858D02*
X340874Y177890D01*
X339905Y178858D02*
Y179842D01*
X328095Y117842D02*
Y118827D01*
X329064Y119795D01*
X330048D01*
X337457Y127205D01*
X338936D01*
X339905Y128173D01*
Y129157D01*
X328095Y148843D02*
Y149827D01*
X329064Y150795D01*
X330543D01*
X337952Y158205D01*
X338936D01*
X339905Y159173D01*
Y160158D01*
D27*
X104400Y59200D02*
X105000Y59800D01*
D28*
X354349Y274651D02*
X368690D01*
X368770Y274730D01*
D29*
X236000Y200000D02*
D03*
D30*
X104500Y55500D02*
D03*
D31*
X88750Y128750D02*
D03*
D32*
X88500Y276250D02*
D03*
D33*
Y350500D02*
D03*
D34*
Y204000D02*
D03*
D35*
X234000Y203000D02*
D03*
D36*
X340250Y206250D02*
D03*
D37*
X347375Y356508D02*
D03*
Y322492D02*
D03*
D38*
X363831D02*
D03*
Y356508D02*
D03*
D39*
X349462Y328122D02*
D03*
Y350878D02*
D03*
D40*
X200500Y41500D02*
D03*
X88000Y42000D02*
D03*
X200500Y117000D02*
D03*
X125500D02*
D03*
X50500D02*
D03*
X200500Y191500D02*
D03*
X125500Y192000D02*
D03*
X50500D02*
D03*
X125500Y342000D02*
D03*
X200500Y267000D02*
D03*
X125500D02*
D03*
X50500D02*
D03*
Y342000D02*
D03*
X275500Y229500D02*
D03*
Y79500D02*
D03*
Y342000D02*
D03*
X200500D02*
D03*
D41*
X220500Y41500D02*
D03*
X180500D02*
D03*
X108000Y42000D02*
D03*
X68000D02*
D03*
X220500Y117000D02*
D03*
X180500D02*
D03*
X145500D02*
D03*
X105500D02*
D03*
X70500D02*
D03*
X30500D02*
D03*
X220500Y191500D02*
D03*
X180500D02*
D03*
X145500Y192000D02*
D03*
X105500D02*
D03*
X70500D02*
D03*
X30500D02*
D03*
X145500Y342000D02*
D03*
X105500D02*
D03*
X220500Y267000D02*
D03*
X180500D02*
D03*
X145500D02*
D03*
X105500D02*
D03*
X70500D02*
D03*
X30500D02*
D03*
X70500Y342000D02*
D03*
X30500D02*
D03*
X275500Y209500D02*
D03*
Y249500D02*
D03*
Y59500D02*
D03*
Y99500D02*
D03*
X255500Y342000D02*
D03*
X295500D02*
D03*
X180500D02*
D03*
X220500D02*
D03*
D42*
X234000Y198000D02*
D03*
X301000Y197000D02*
D03*
X356000Y104000D02*
D03*
X336500Y113385D02*
D03*
X341500Y112500D02*
D03*
X325500Y111500D02*
D03*
X215500Y215000D02*
D03*
X340500Y356500D02*
D03*
X335500Y142500D02*
D03*
X320500Y148000D02*
D03*
X320000Y139500D02*
D03*
X317000Y101000D02*
D03*
X320500Y93500D02*
D03*
X327000Y89500D02*
D03*
X352500Y85000D02*
D03*
X356500Y89500D02*
D03*
X348000Y104500D02*
D03*
X348500Y125000D02*
D03*
X354500Y141500D02*
D03*
X348000Y143000D02*
D03*
X329500Y297500D02*
D03*
X333500Y290500D02*
D03*
X339500Y289500D02*
D03*
Y312000D02*
D03*
X337000Y319000D02*
D03*
X334500Y324000D02*
D03*
X356500Y361000D02*
D03*
X348500Y364000D02*
D03*
X342000Y368500D02*
D03*
X317000Y348500D02*
D03*
X325000Y356500D02*
D03*
X323000Y361000D02*
D03*
X299000Y214500D02*
D03*
X313000Y235000D02*
D03*
X305500Y99000D02*
D03*
X298500Y64000D02*
D03*
X113000Y69500D02*
D03*
X227000Y64500D02*
D03*
X68000Y76000D02*
D03*
X182000Y73500D02*
D03*
X215500Y140000D02*
D03*
X185500Y141500D02*
D03*
X154000Y139500D02*
D03*
X103500Y145500D02*
D03*
X77500Y139000D02*
D03*
X29500Y142000D02*
D03*
X78500Y366000D02*
D03*
X155500D02*
D03*
X228000D02*
D03*
X301000Y370000D02*
D03*
X227000Y290500D02*
D03*
X155000D02*
D03*
X78000Y289000D02*
D03*
X79000Y216000D02*
D03*
X154500Y212500D02*
D03*
X176500Y222000D02*
D03*
X105500Y217000D02*
D03*
X35500Y214500D02*
D03*
X181000Y297500D02*
D03*
X104500Y295000D02*
D03*
X23500Y294500D02*
D03*
X30500Y362000D02*
D03*
X106500Y376500D02*
D03*
X179500Y375500D02*
D03*
X240500D02*
D03*
X253000Y375000D02*
D03*
X104500Y52000D02*
D03*
X94000Y128500D02*
D03*
X83000D02*
D03*
X88500Y272500D02*
D03*
Y281500D02*
D03*
Y356000D02*
D03*
Y346000D02*
D03*
Y198500D02*
D03*
Y208000D02*
D03*
X234000Y205000D02*
D03*
X341500Y206000D02*
D03*
X337500Y206500D02*
D03*
X233500Y201500D02*
D03*
X217000Y59000D02*
D03*
X242500Y81000D02*
D03*
X104400Y59200D02*
D03*
X88500Y127500D02*
D03*
Y202500D02*
D03*
Y276500D02*
D03*
Y351500D02*
D03*
X300750Y157000D02*
D03*
X285500Y160500D02*
D03*
X319500Y244000D02*
D03*
X251000Y216000D02*
D03*
X313500Y248500D02*
D03*
X241000Y223500D02*
D03*
X315500Y255000D02*
D03*
Y271000D02*
D03*
X354349Y274651D02*
D03*
X368770Y274730D02*
D03*
X356000Y117500D02*
D03*
X358500Y120500D02*
D03*
X361000Y100500D02*
D03*
X345468Y70969D02*
D03*
X349000Y100500D02*
D03*
X336500Y240000D02*
D03*
X322750Y220750D02*
D03*
X334000Y236500D02*
D03*
X329000Y227000D02*
D03*
X241500Y97000D02*
D03*
X244500Y246500D02*
D03*
X239500Y272500D02*
D03*
X182000Y86500D02*
D03*
Y160000D02*
D03*
X183000Y235000D02*
D03*
X183600Y310600D02*
D03*
X182000Y11000D02*
D03*
X107500Y86000D02*
D03*
Y161000D02*
D03*
X107750Y233250D02*
D03*
X108600Y310600D02*
D03*
X305000Y59500D02*
D03*
X233500Y70500D02*
D03*
X130000Y95500D02*
D03*
X113000Y117500D02*
D03*
X71500Y10000D02*
D03*
X35500Y81500D02*
D03*
X34000Y164500D02*
D03*
X18000Y236000D02*
D03*
X32500Y303000D02*
D03*
X235000Y267500D02*
D03*
X266500Y256500D02*
D03*
X238500Y289500D02*
D03*
X335000Y335500D02*
D03*
Y343000D02*
D03*
M02*
