G04*
G04 #@! TF.GenerationSoftware,Altium Limited,Altium Designer,19.1.2 (11)*
G04*
G04 Layer_Color=8388736*
%FSLAX25Y25*%
%MOIN*%
G70*
G01*
G75*
%ADD15R,0.04737X0.06706*%
%ADD16R,0.04658X0.04461*%
%ADD17O,0.08674X0.05524*%
%ADD18O,0.07887X0.05524*%
%ADD19C,0.03753*%
%ADD20C,0.00800*%
%ADD21R,0.00800X0.00800*%
%ADD22C,0.16800*%
%ADD23C,0.07500*%
%ADD24R,0.00800X0.00800*%
D15*
X339905Y160158D02*
D03*
X328095D02*
D03*
Y179842D02*
D03*
X339905D02*
D03*
Y129157D02*
D03*
X328095D02*
D03*
Y148843D02*
D03*
X339905D02*
D03*
Y98158D02*
D03*
X328095D02*
D03*
Y117842D02*
D03*
X339905D02*
D03*
D16*
X330500Y70969D02*
D03*
Y77031D02*
D03*
X338500Y70969D02*
D03*
Y77031D02*
D03*
D17*
X347375Y356508D02*
D03*
Y322492D02*
D03*
D18*
X363831D02*
D03*
Y356508D02*
D03*
D19*
X349462Y328122D02*
D03*
Y350878D02*
D03*
D20*
X210100Y74000D02*
D03*
X190300D02*
D03*
Y55200D02*
D03*
X210100D02*
D03*
X190500Y21500D02*
D03*
X215500Y31500D02*
D03*
X97600Y74500D02*
D03*
X77800D02*
D03*
Y55700D02*
D03*
X97600D02*
D03*
X78000Y22000D02*
D03*
X103000Y32000D02*
D03*
X210100Y149500D02*
D03*
X190300D02*
D03*
Y130700D02*
D03*
X210100D02*
D03*
X190500Y97000D02*
D03*
X215500Y107000D02*
D03*
X135100Y149500D02*
D03*
X115300D02*
D03*
Y130700D02*
D03*
X135100D02*
D03*
X115500Y97000D02*
D03*
X140500Y107000D02*
D03*
X60100Y149500D02*
D03*
X40300D02*
D03*
Y130700D02*
D03*
X60100D02*
D03*
X40500Y97000D02*
D03*
X65500Y107000D02*
D03*
X210100Y224000D02*
D03*
X190300D02*
D03*
Y205200D02*
D03*
X210100D02*
D03*
X190500Y171500D02*
D03*
X215500Y181500D02*
D03*
X135100Y224500D02*
D03*
X115300D02*
D03*
Y205700D02*
D03*
X135100D02*
D03*
X115500Y172000D02*
D03*
X140500Y182000D02*
D03*
X60100Y224500D02*
D03*
X40300D02*
D03*
Y205700D02*
D03*
X60100D02*
D03*
X40500Y172000D02*
D03*
X65500Y182000D02*
D03*
X135100Y374500D02*
D03*
X115300D02*
D03*
Y355700D02*
D03*
X135100D02*
D03*
X115500Y322000D02*
D03*
X140500Y332000D02*
D03*
X210100Y299500D02*
D03*
X190300D02*
D03*
Y280700D02*
D03*
X210100D02*
D03*
X190500Y247000D02*
D03*
X215500Y257000D02*
D03*
X135100Y299500D02*
D03*
X115300D02*
D03*
Y280700D02*
D03*
X135100D02*
D03*
X115500Y247000D02*
D03*
X140500Y257000D02*
D03*
X60100Y299500D02*
D03*
X40300D02*
D03*
Y280700D02*
D03*
X60100D02*
D03*
X40500Y247000D02*
D03*
X65500Y257000D02*
D03*
X60100Y374500D02*
D03*
X40300D02*
D03*
Y355700D02*
D03*
X60100D02*
D03*
X40500Y322000D02*
D03*
X65500Y332000D02*
D03*
X308000Y219900D02*
D03*
Y239700D02*
D03*
X289200D02*
D03*
Y219900D02*
D03*
X255500Y239500D02*
D03*
X265500Y214500D02*
D03*
X308000Y69900D02*
D03*
Y89700D02*
D03*
X289200D02*
D03*
Y69900D02*
D03*
X255500Y89500D02*
D03*
X265500Y64500D02*
D03*
X359252Y377252D02*
D03*
X16500Y378500D02*
D03*
Y14500D02*
D03*
X359252Y15748D02*
D03*
X141220Y306000D02*
D03*
X15500D02*
D03*
Y209500D02*
D03*
X290500Y332000D02*
D03*
X265500Y322000D02*
D03*
X285100Y355700D02*
D03*
X265300D02*
D03*
Y374500D02*
D03*
X285100D02*
D03*
X215500Y332000D02*
D03*
X190500Y322000D02*
D03*
X210100Y355700D02*
D03*
X190300D02*
D03*
Y374500D02*
D03*
X210100D02*
D03*
D21*
X200200Y64500D02*
D03*
X87700Y65000D02*
D03*
X200200Y140000D02*
D03*
X125200D02*
D03*
X50200D02*
D03*
X200200Y214500D02*
D03*
X125200Y215000D02*
D03*
X50200D02*
D03*
X125200Y365000D02*
D03*
X200200Y290000D02*
D03*
X125200D02*
D03*
X50200D02*
D03*
Y365000D02*
D03*
X275200D02*
D03*
X200200D02*
D03*
D22*
X200500Y41500D02*
D03*
X88000Y42000D02*
D03*
X200500Y117000D02*
D03*
X125500D02*
D03*
X50500D02*
D03*
X200500Y191500D02*
D03*
X125500Y192000D02*
D03*
X50500D02*
D03*
X125500Y342000D02*
D03*
X200500Y267000D02*
D03*
X125500D02*
D03*
X50500D02*
D03*
Y342000D02*
D03*
X275500Y229500D02*
D03*
Y79500D02*
D03*
Y342000D02*
D03*
X200500D02*
D03*
D23*
X220500Y41500D02*
D03*
X180500D02*
D03*
X108000Y42000D02*
D03*
X68000D02*
D03*
X220500Y117000D02*
D03*
X180500D02*
D03*
X145500D02*
D03*
X105500D02*
D03*
X70500D02*
D03*
X30500D02*
D03*
X220500Y191500D02*
D03*
X180500D02*
D03*
X145500Y192000D02*
D03*
X105500D02*
D03*
X70500D02*
D03*
X30500D02*
D03*
X145500Y342000D02*
D03*
X105500D02*
D03*
X220500Y267000D02*
D03*
X180500D02*
D03*
X145500D02*
D03*
X105500D02*
D03*
X70500D02*
D03*
X30500D02*
D03*
X70500Y342000D02*
D03*
X30500D02*
D03*
X275500Y209500D02*
D03*
Y249500D02*
D03*
Y59500D02*
D03*
Y99500D02*
D03*
X255500Y342000D02*
D03*
X295500D02*
D03*
X180500D02*
D03*
X220500D02*
D03*
D24*
X298500Y229800D02*
D03*
Y79800D02*
D03*
M02*
