G04*
G04 #@! TF.GenerationSoftware,Altium Limited,Altium Designer,19.1.2 (11)*
G04*
G04 Layer_Color=16711935*
%FSLAX25Y25*%
%MOIN*%
G70*
G01*
G75*
%ADD16R,0.04658X0.04461*%
%ADD17O,0.08674X0.05524*%
%ADD18O,0.07887X0.05524*%
%ADD19C,0.03753*%
%ADD20C,0.00800*%
%ADD21R,0.00800X0.00800*%
%ADD22C,0.16800*%
%ADD23C,0.07500*%
%ADD24R,0.00800X0.00800*%
%ADD74R,0.06587X0.05367*%
%ADD75R,0.02769X0.06706*%
%ADD76R,0.09068X0.12611*%
%ADD77R,0.05249X0.07887*%
%ADD78R,0.03359X0.05328*%
%ADD79R,0.12611X0.09068*%
%ADD80R,0.06706X0.02769*%
%ADD81R,0.03162X0.05131*%
%ADD82R,0.04461X0.04658*%
%ADD83R,0.06706X0.01981*%
%ADD84R,0.13792X0.09461*%
%ADD85R,0.05918X0.01981*%
%ADD86R,0.10839X0.10642*%
%ADD87R,0.04737X0.04737*%
%ADD88R,0.04737X0.05524*%
%ADD89R,0.04343X0.04383*%
%ADD90R,0.10642X0.10839*%
%ADD91R,0.04737X0.04737*%
%ADD92R,0.05524X0.04737*%
%ADD93R,0.04383X0.04343*%
%ADD94R,0.03556X0.05918*%
%ADD95R,0.10642X0.08674*%
D16*
X319000Y117532D02*
D03*
Y111469D02*
D03*
X361000Y106468D02*
D03*
Y112531D02*
D03*
X358500Y199469D02*
D03*
Y205532D02*
D03*
X329500Y359032D02*
D03*
Y352969D02*
D03*
D17*
X347375Y356508D02*
D03*
Y322492D02*
D03*
D18*
X363831D02*
D03*
Y356508D02*
D03*
D19*
X349462Y328122D02*
D03*
Y350878D02*
D03*
D20*
X210100Y74000D02*
D03*
X190300D02*
D03*
Y55200D02*
D03*
X210100D02*
D03*
X190500Y21500D02*
D03*
X215500Y31500D02*
D03*
X97600Y74500D02*
D03*
X77800D02*
D03*
Y55700D02*
D03*
X97600D02*
D03*
X78000Y22000D02*
D03*
X103000Y32000D02*
D03*
X210100Y149500D02*
D03*
X190300D02*
D03*
Y130700D02*
D03*
X210100D02*
D03*
X190500Y97000D02*
D03*
X215500Y107000D02*
D03*
X135100Y149500D02*
D03*
X115300D02*
D03*
Y130700D02*
D03*
X135100D02*
D03*
X115500Y97000D02*
D03*
X140500Y107000D02*
D03*
X60100Y149500D02*
D03*
X40300D02*
D03*
Y130700D02*
D03*
X60100D02*
D03*
X40500Y97000D02*
D03*
X65500Y107000D02*
D03*
X210100Y224000D02*
D03*
X190300D02*
D03*
Y205200D02*
D03*
X210100D02*
D03*
X190500Y171500D02*
D03*
X215500Y181500D02*
D03*
X135100Y224500D02*
D03*
X115300D02*
D03*
Y205700D02*
D03*
X135100D02*
D03*
X115500Y172000D02*
D03*
X140500Y182000D02*
D03*
X60100Y224500D02*
D03*
X40300D02*
D03*
Y205700D02*
D03*
X60100D02*
D03*
X40500Y172000D02*
D03*
X65500Y182000D02*
D03*
X135100Y374500D02*
D03*
X115300D02*
D03*
Y355700D02*
D03*
X135100D02*
D03*
X115500Y322000D02*
D03*
X140500Y332000D02*
D03*
X210100Y299500D02*
D03*
X190300D02*
D03*
Y280700D02*
D03*
X210100D02*
D03*
X190500Y247000D02*
D03*
X215500Y257000D02*
D03*
X135100Y299500D02*
D03*
X115300D02*
D03*
Y280700D02*
D03*
X135100D02*
D03*
X115500Y247000D02*
D03*
X140500Y257000D02*
D03*
X60100Y299500D02*
D03*
X40300D02*
D03*
Y280700D02*
D03*
X60100D02*
D03*
X40500Y247000D02*
D03*
X65500Y257000D02*
D03*
X60100Y374500D02*
D03*
X40300D02*
D03*
Y355700D02*
D03*
X60100D02*
D03*
X40500Y322000D02*
D03*
X65500Y332000D02*
D03*
X308000Y219900D02*
D03*
Y239700D02*
D03*
X289200D02*
D03*
Y219900D02*
D03*
X255500Y239500D02*
D03*
X265500Y214500D02*
D03*
X308000Y69900D02*
D03*
Y89700D02*
D03*
X289200D02*
D03*
Y69900D02*
D03*
X255500Y89500D02*
D03*
X265500Y64500D02*
D03*
X359252Y377252D02*
D03*
X16500Y378500D02*
D03*
Y14500D02*
D03*
X359252Y15748D02*
D03*
X141220Y306000D02*
D03*
X15500D02*
D03*
Y209500D02*
D03*
X290500Y332000D02*
D03*
X265500Y322000D02*
D03*
X285100Y355700D02*
D03*
X265300D02*
D03*
Y374500D02*
D03*
X285100D02*
D03*
X215500Y332000D02*
D03*
X190500Y322000D02*
D03*
X210100Y355700D02*
D03*
X190300D02*
D03*
Y374500D02*
D03*
X210100D02*
D03*
D21*
X200200Y64500D02*
D03*
X87700Y65000D02*
D03*
X200200Y140000D02*
D03*
X125200D02*
D03*
X50200D02*
D03*
X200200Y214500D02*
D03*
X125200Y215000D02*
D03*
X50200D02*
D03*
X125200Y365000D02*
D03*
X200200Y290000D02*
D03*
X125200D02*
D03*
X50200D02*
D03*
Y365000D02*
D03*
X275200D02*
D03*
X200200D02*
D03*
D22*
X200500Y41500D02*
D03*
X88000Y42000D02*
D03*
X200500Y117000D02*
D03*
X125500D02*
D03*
X50500D02*
D03*
X200500Y191500D02*
D03*
X125500Y192000D02*
D03*
X50500D02*
D03*
X125500Y342000D02*
D03*
X200500Y267000D02*
D03*
X125500D02*
D03*
X50500D02*
D03*
Y342000D02*
D03*
X275500Y229500D02*
D03*
Y79500D02*
D03*
Y342000D02*
D03*
X200500D02*
D03*
D23*
X220500Y41500D02*
D03*
X180500D02*
D03*
X108000Y42000D02*
D03*
X68000D02*
D03*
X220500Y117000D02*
D03*
X180500D02*
D03*
X145500D02*
D03*
X105500D02*
D03*
X70500D02*
D03*
X30500D02*
D03*
X220500Y191500D02*
D03*
X180500D02*
D03*
X145500Y192000D02*
D03*
X105500D02*
D03*
X70500D02*
D03*
X30500D02*
D03*
X145500Y342000D02*
D03*
X105500D02*
D03*
X220500Y267000D02*
D03*
X180500D02*
D03*
X145500D02*
D03*
X105500D02*
D03*
X70500D02*
D03*
X30500D02*
D03*
X70500Y342000D02*
D03*
X30500D02*
D03*
X275500Y209500D02*
D03*
Y249500D02*
D03*
Y59500D02*
D03*
Y99500D02*
D03*
X255500Y342000D02*
D03*
X295500D02*
D03*
X180500D02*
D03*
X220500D02*
D03*
D24*
X298500Y229800D02*
D03*
Y79800D02*
D03*
D74*
X351000Y312504D02*
D03*
Y305496D02*
D03*
D75*
X332000Y5500D02*
D03*
X327079D02*
D03*
D76*
X342854Y17000D02*
D03*
X316224D02*
D03*
D77*
X333866Y128500D02*
D03*
X322134D02*
D03*
X343134Y97500D02*
D03*
X354866D02*
D03*
D78*
X331500Y107193D02*
D03*
X335240Y118807D02*
D03*
X327760D02*
D03*
D79*
X366500Y76776D02*
D03*
Y50146D02*
D03*
D80*
X355000Y65921D02*
D03*
Y61000D02*
D03*
D81*
X351740Y108488D02*
D03*
X348000D02*
D03*
X344260D02*
D03*
Y119512D02*
D03*
X348000D02*
D03*
X351740D02*
D03*
D82*
X350532Y130000D02*
D03*
X344468D02*
D03*
X344468Y137000D02*
D03*
X350532D02*
D03*
D83*
X347522Y292445D02*
D03*
Y290480D02*
D03*
Y288510D02*
D03*
Y286540D02*
D03*
Y284570D02*
D03*
Y282600D02*
D03*
Y280630D02*
D03*
Y278665D02*
D03*
Y276700D02*
D03*
Y274730D02*
D03*
Y272760D02*
D03*
Y270790D02*
D03*
Y268820D02*
D03*
Y266855D02*
D03*
Y264885D02*
D03*
Y262920D02*
D03*
Y260950D02*
D03*
Y258980D02*
D03*
Y257010D02*
D03*
Y255040D02*
D03*
Y253070D02*
D03*
Y251110D02*
D03*
Y249140D02*
D03*
Y247170D02*
D03*
Y245200D02*
D03*
Y243230D02*
D03*
Y241260D02*
D03*
Y239295D02*
D03*
Y237330D02*
D03*
Y235360D02*
D03*
Y233390D02*
D03*
Y231420D02*
D03*
X347533Y229450D02*
D03*
Y227480D02*
D03*
Y225510D02*
D03*
X347522Y223550D02*
D03*
D84*
X338468Y298740D02*
D03*
Y217260D02*
D03*
D85*
X343173Y326311D02*
D03*
Y327492D02*
D03*
X343172Y329460D02*
D03*
Y330642D02*
D03*
X343173Y332610D02*
D03*
X343168Y334580D02*
D03*
X343173Y336547D02*
D03*
Y338516D02*
D03*
Y340484D02*
D03*
Y342453D02*
D03*
Y344421D02*
D03*
X343168Y346390D02*
D03*
X343173Y348358D02*
D03*
Y349539D02*
D03*
Y351508D02*
D03*
Y352689D02*
D03*
D86*
X229500Y31500D02*
D03*
X176000Y21500D02*
D03*
X117000Y32000D02*
D03*
X63500Y22000D02*
D03*
X229500Y107000D02*
D03*
X176000Y97000D02*
D03*
X154500Y107000D02*
D03*
X101000Y97000D02*
D03*
X79500Y107000D02*
D03*
X26000Y97000D02*
D03*
X229500Y181500D02*
D03*
X176000Y171500D02*
D03*
X154500Y182000D02*
D03*
X101000Y172000D02*
D03*
X79500Y182000D02*
D03*
X26000Y172000D02*
D03*
X154500Y332000D02*
D03*
X101000Y322000D02*
D03*
X229500Y257000D02*
D03*
X176000Y247000D02*
D03*
X154500Y257000D02*
D03*
X101000Y247000D02*
D03*
X79500Y257000D02*
D03*
X26000Y247000D02*
D03*
X79500Y332000D02*
D03*
X26000Y322000D02*
D03*
X251000D02*
D03*
X304500Y332000D02*
D03*
X176000Y322000D02*
D03*
X229500Y332000D02*
D03*
D87*
X212400Y70500D02*
D03*
X187900D02*
D03*
X212600Y58700D02*
D03*
X187900D02*
D03*
X99900Y71000D02*
D03*
X75400D02*
D03*
X100100Y59200D02*
D03*
X75400D02*
D03*
X212400Y146000D02*
D03*
X187900D02*
D03*
X212600Y134200D02*
D03*
X187900D02*
D03*
X137400Y146000D02*
D03*
X112900D02*
D03*
X137600Y134200D02*
D03*
X112900D02*
D03*
X62400Y146000D02*
D03*
X37900D02*
D03*
X62600Y134200D02*
D03*
X37900D02*
D03*
X212400Y220500D02*
D03*
X187900D02*
D03*
X212600Y208700D02*
D03*
X187900D02*
D03*
X137400Y221000D02*
D03*
X112900D02*
D03*
X137600Y209200D02*
D03*
X112900D02*
D03*
X62400Y221000D02*
D03*
X37900D02*
D03*
X62600Y209200D02*
D03*
X37900D02*
D03*
X137400Y371000D02*
D03*
X112900D02*
D03*
X137600Y359200D02*
D03*
X112900D02*
D03*
X212400Y296000D02*
D03*
X187900D02*
D03*
X212600Y284200D02*
D03*
X187900D02*
D03*
X137400Y296000D02*
D03*
X112900D02*
D03*
X137600Y284200D02*
D03*
X112900D02*
D03*
X62400Y296000D02*
D03*
X37900D02*
D03*
X62600Y284200D02*
D03*
X37900D02*
D03*
X62400Y371000D02*
D03*
X37900D02*
D03*
X62600Y359200D02*
D03*
X37900D02*
D03*
X262900D02*
D03*
X287600D02*
D03*
X262900Y371000D02*
D03*
X287400D02*
D03*
X187900Y359200D02*
D03*
X212600D02*
D03*
X187900Y371000D02*
D03*
X212400D02*
D03*
D88*
X189614Y10100D02*
D03*
X176386D02*
D03*
X77114Y10600D02*
D03*
X63886D02*
D03*
X189614Y85600D02*
D03*
X176386D02*
D03*
X114614D02*
D03*
X101386D02*
D03*
X39614D02*
D03*
X26386D02*
D03*
X189614Y160100D02*
D03*
X176386D02*
D03*
X114614Y160600D02*
D03*
X101386D02*
D03*
X39614D02*
D03*
X26386D02*
D03*
X114614Y310600D02*
D03*
X101386D02*
D03*
X189614Y235600D02*
D03*
X176386D02*
D03*
X114614D02*
D03*
X101386D02*
D03*
X39614D02*
D03*
X26386D02*
D03*
X39614Y310600D02*
D03*
X26386D02*
D03*
X251386D02*
D03*
X264614D02*
D03*
X176386D02*
D03*
X189614D02*
D03*
D89*
X221200Y58700D02*
D03*
X221200Y64999D02*
D03*
X108700Y59200D02*
D03*
X108700Y65499D02*
D03*
X221200Y134200D02*
D03*
X221200Y140499D02*
D03*
X146200Y134200D02*
D03*
X146200Y140499D02*
D03*
X71200Y134200D02*
D03*
X71200Y140499D02*
D03*
X221200Y208700D02*
D03*
X221200Y214999D02*
D03*
X146200Y209200D02*
D03*
X146200Y215499D02*
D03*
X71200Y209200D02*
D03*
X71200Y215499D02*
D03*
X146200Y359200D02*
D03*
X146200Y365499D02*
D03*
X221200Y284200D02*
D03*
X221200Y290499D02*
D03*
X146200Y284200D02*
D03*
X146200Y290499D02*
D03*
X71200Y284200D02*
D03*
X71200Y290499D02*
D03*
X71200Y359200D02*
D03*
X71200Y365499D02*
D03*
X296200D02*
D03*
X296200Y359200D02*
D03*
X221200Y365499D02*
D03*
X221200Y359200D02*
D03*
D90*
X265500Y200500D02*
D03*
X255500Y254000D02*
D03*
X265500Y50500D02*
D03*
X255500Y104000D02*
D03*
D91*
X304500Y217600D02*
D03*
Y242100D02*
D03*
X292700Y217400D02*
D03*
Y242100D02*
D03*
X304500Y67600D02*
D03*
Y92100D02*
D03*
X292700Y67400D02*
D03*
Y92100D02*
D03*
D92*
X244100Y240386D02*
D03*
Y253614D02*
D03*
Y90386D02*
D03*
Y103614D02*
D03*
D93*
X292700Y208800D02*
D03*
X298999Y208800D02*
D03*
X292700Y58800D02*
D03*
X298999Y58800D02*
D03*
D94*
X321000Y353500D02*
D03*
X313500D02*
D03*
X313520Y343051D02*
D03*
X317260D02*
D03*
X321000D02*
D03*
X317240Y353500D02*
D03*
D95*
X364000Y306161D02*
D03*
Y288839D02*
D03*
M02*
