G04*
G04 #@! TF.GenerationSoftware,Altium Limited,Altium Designer,19.1.2 (11)*
G04*
G04 Layer_Color=65535*
%FSLAX25Y25*%
%MOIN*%
G70*
G01*
G75*
%ADD10C,0.01000*%
%ADD11C,0.01181*%
%ADD12C,0.00787*%
%ADD13C,0.00787*%
%ADD14C,0.01181*%
%ADD15C,0.00984*%
%ADD16C,0.00800*%
%ADD17C,0.00787*%
%ADD18C,0.00394*%
%ADD19C,0.00600*%
G36*
X131220Y80000D02*
X132720Y78500D01*
Y81500D01*
X131220Y80000D01*
D02*
G37*
G36*
X32786Y27647D02*
X32837Y27633D01*
X32860Y27624D01*
X32878Y27610D01*
X32888Y27601D01*
X32892Y27592D01*
X32901Y27573D01*
X32911Y27555D01*
X32915Y27527D01*
X32925Y27495D01*
Y27453D01*
Y27449D01*
Y27435D01*
Y27416D01*
X32920Y27389D01*
X32906Y27338D01*
X32892Y27315D01*
X32878Y27296D01*
X32869Y27292D01*
X32860Y27282D01*
X32841Y27278D01*
X32823Y27268D01*
X32790Y27259D01*
X32758Y27255D01*
X32680D01*
X32652Y27259D01*
X32601Y27268D01*
X32578Y27278D01*
X32559Y27292D01*
X32555Y27301D01*
X32546Y27310D01*
X32541Y27329D01*
X32532Y27347D01*
X32522Y27375D01*
X32518Y27407D01*
Y27449D01*
Y27453D01*
Y27467D01*
X32522Y27486D01*
Y27513D01*
X32536Y27564D01*
X32546Y27587D01*
X32559Y27606D01*
X32569Y27615D01*
X32578Y27619D01*
X32596Y27629D01*
X32620Y27638D01*
X32647Y27643D01*
X32680Y27652D01*
X32758D01*
X32786Y27647D01*
D02*
G37*
G36*
X32093Y27592D02*
X32121Y27587D01*
X32125D01*
X32139Y27583D01*
X32157Y27578D01*
X32171Y27569D01*
Y27564D01*
X32176Y27560D01*
X32181Y27546D01*
Y27527D01*
Y27523D01*
Y27509D01*
X32171Y27490D01*
X32162Y27458D01*
X31321Y25055D01*
Y25051D01*
X31317Y25042D01*
X31298Y25019D01*
X31294D01*
X31289Y25009D01*
X31275Y25005D01*
X31257Y25000D01*
X31252D01*
X31238Y24995D01*
X31220D01*
X31192Y24991D01*
X31164D01*
X31137Y24986D01*
X31044D01*
X31021Y24991D01*
X30984D01*
X30961Y24995D01*
X30956D01*
X30947Y25000D01*
X30919D01*
X30910Y25005D01*
X30892Y25009D01*
X30887Y25014D01*
X30873Y25028D01*
Y25032D01*
X30869Y25037D01*
X30859Y25060D01*
X30018Y27463D01*
X30014Y27472D01*
X30009Y27486D01*
X30005Y27509D01*
X30000Y27532D01*
Y27536D01*
Y27546D01*
X30005Y27560D01*
X30014Y27573D01*
X30018Y27578D01*
X30028Y27583D01*
X30046Y27587D01*
X30074Y27592D01*
X30083D01*
X30102Y27596D01*
X30245D01*
X30273Y27592D01*
X30277D01*
X30291Y27587D01*
X30310Y27583D01*
X30323Y27578D01*
X30328D01*
X30333Y27573D01*
X30342Y27569D01*
X30347Y27560D01*
X30351Y27550D01*
X30365Y27527D01*
X31109Y25351D01*
X31113D01*
X31834Y27523D01*
Y27527D01*
X31839Y27536D01*
X31843Y27560D01*
Y27564D01*
X31853Y27569D01*
X31871Y27578D01*
X31876D01*
X31885Y27583D01*
X31903Y27587D01*
X31927Y27592D01*
X31931D01*
X31954Y27596D01*
X32061D01*
X32093Y27592D01*
D02*
G37*
G36*
X32800Y26903D02*
X32804D01*
X32818Y26899D01*
X32837Y26894D01*
X32851Y26890D01*
X32855D01*
X32860Y26885D01*
X32878Y26866D01*
X32883Y26862D01*
X32888Y26843D01*
Y25046D01*
Y25042D01*
Y25037D01*
X32878Y25019D01*
X32874Y25014D01*
X32851Y25000D01*
X32846D01*
X32837Y24995D01*
X32823D01*
X32800Y24991D01*
X32781D01*
X32754Y24986D01*
X32666D01*
X32638Y24991D01*
X32633D01*
X32624Y24995D01*
X32592Y25000D01*
X32587D01*
X32583Y25005D01*
X32564Y25019D01*
Y25028D01*
X32559Y25046D01*
Y26843D01*
Y26848D01*
Y26853D01*
X32564Y26866D01*
Y26871D01*
X32573Y26876D01*
X32592Y26890D01*
X32596D01*
X32606Y26894D01*
X32620Y26899D01*
X32638Y26903D01*
X32643D01*
X32661Y26908D01*
X32777D01*
X32800Y26903D01*
D02*
G37*
G36*
X162581Y52073D02*
X162585D01*
X162590Y52069D01*
X162604Y52046D01*
Y52041D01*
X162608Y52032D01*
X162613Y52018D01*
X162618Y51999D01*
Y51995D01*
X162622Y51981D01*
X162627Y51958D01*
Y51930D01*
Y51925D01*
Y51921D01*
X162622Y51889D01*
X162618Y51856D01*
X162604Y51819D01*
X162599Y51815D01*
X162590Y51801D01*
X162576Y51787D01*
X162553Y51782D01*
X161634D01*
Y51052D01*
X161638D01*
X161643Y51057D01*
X161657D01*
X161675Y51062D01*
X161717Y51066D01*
X161795D01*
X161814Y51071D01*
X161966D01*
X162008Y51066D01*
X162058D01*
X162114Y51057D01*
X162179Y51048D01*
X162243Y51034D01*
X162303Y51015D01*
X162313D01*
X162331Y51006D01*
X162359Y50992D01*
X162396Y50978D01*
X162442Y50955D01*
X162484Y50932D01*
X162530Y50900D01*
X162571Y50867D01*
X162576Y50863D01*
X162590Y50849D01*
X162608Y50831D01*
X162631Y50803D01*
X162659Y50766D01*
X162687Y50729D01*
X162710Y50683D01*
X162733Y50632D01*
X162738Y50627D01*
X162742Y50609D01*
X162751Y50581D01*
X162761Y50544D01*
X162770Y50498D01*
X162779Y50447D01*
X162788Y50387D01*
Y50327D01*
Y50318D01*
Y50290D01*
X162784Y50253D01*
X162779Y50202D01*
X162770Y50147D01*
X162756Y50082D01*
X162738Y50022D01*
X162715Y49957D01*
X162710Y49948D01*
X162701Y49930D01*
X162687Y49902D01*
X162664Y49865D01*
X162636Y49819D01*
X162604Y49773D01*
X162562Y49726D01*
X162516Y49685D01*
X162511Y49680D01*
X162493Y49666D01*
X162465Y49648D01*
X162433Y49625D01*
X162387Y49597D01*
X162336Y49569D01*
X162276Y49542D01*
X162211Y49518D01*
X162202D01*
X162179Y49509D01*
X162146Y49500D01*
X162095Y49491D01*
X162040Y49481D01*
X161975Y49472D01*
X161901Y49468D01*
X161823Y49463D01*
X161781D01*
X161749Y49468D01*
X161712D01*
X161675Y49472D01*
X161592Y49481D01*
X161587D01*
X161573Y49486D01*
X161555Y49491D01*
X161527Y49495D01*
X161467Y49509D01*
X161402Y49523D01*
X161398D01*
X161389Y49528D01*
X161375Y49532D01*
X161356Y49537D01*
X161310Y49551D01*
X161264Y49569D01*
X161255Y49574D01*
X161236Y49583D01*
X161213Y49597D01*
X161195Y49606D01*
Y49611D01*
X161185Y49615D01*
X161176Y49629D01*
Y49634D01*
X161171Y49639D01*
X161162Y49662D01*
Y49666D01*
Y49676D01*
X161158Y49703D01*
Y49708D01*
Y49722D01*
Y49740D01*
Y49768D01*
Y49773D01*
Y49786D01*
Y49805D01*
Y49828D01*
Y49833D01*
X161162Y49842D01*
Y49856D01*
X161167Y49870D01*
Y49874D01*
X161171Y49879D01*
X161185Y49897D01*
X161190D01*
X161195Y49902D01*
X161213Y49907D01*
X161218D01*
X161227Y49902D01*
X161245Y49897D01*
X161273Y49879D01*
X161282Y49874D01*
X161301Y49865D01*
X161338Y49847D01*
X161384Y49823D01*
X161389D01*
X161398Y49819D01*
X161412Y49814D01*
X161435Y49805D01*
X161458Y49796D01*
X161490Y49786D01*
X161560Y49768D01*
X161564D01*
X161578Y49763D01*
X161601Y49759D01*
X161629D01*
X161666Y49754D01*
X161712Y49749D01*
X161758Y49745D01*
X161855D01*
X161892Y49749D01*
X161929D01*
X161971Y49759D01*
X162054Y49773D01*
X162058D01*
X162072Y49777D01*
X162095Y49786D01*
X162123Y49796D01*
X162183Y49828D01*
X162248Y49874D01*
X162253Y49879D01*
X162262Y49888D01*
X162276Y49902D01*
X162294Y49920D01*
X162317Y49948D01*
X162336Y49976D01*
X162377Y50045D01*
Y50050D01*
X162387Y50064D01*
X162391Y50087D01*
X162400Y50115D01*
X162410Y50151D01*
X162414Y50193D01*
X162424Y50244D01*
Y50295D01*
Y50299D01*
Y50318D01*
Y50341D01*
X162419Y50369D01*
X162405Y50438D01*
X162382Y50512D01*
Y50516D01*
X162377Y50530D01*
X162368Y50544D01*
X162354Y50567D01*
X162317Y50618D01*
X162262Y50669D01*
X162257Y50674D01*
X162248Y50678D01*
X162230Y50692D01*
X162206Y50706D01*
X162179Y50720D01*
X162142Y50738D01*
X162105Y50752D01*
X162058Y50766D01*
X162054D01*
X162035Y50770D01*
X162012Y50775D01*
X161975Y50784D01*
X161934Y50789D01*
X161883Y50794D01*
X161823Y50798D01*
X161694D01*
X161624Y50794D01*
X161555Y50784D01*
X161541D01*
X161523Y50780D01*
X161504D01*
X161449Y50775D01*
X161393Y50770D01*
X161384D01*
X161361Y50775D01*
X161338Y50784D01*
X161315Y50798D01*
X161310Y50803D01*
X161305Y50821D01*
X161296Y50854D01*
X161292Y50900D01*
Y51949D01*
Y51953D01*
Y51958D01*
X161296Y51986D01*
X161305Y52022D01*
X161319Y52050D01*
X161324Y52055D01*
X161342Y52069D01*
X161370Y52078D01*
X161407Y52083D01*
X162557D01*
X162581Y52073D01*
D02*
G37*
G36*
X156852D02*
X156856D01*
X156861Y52069D01*
X156875Y52046D01*
Y52041D01*
X156879Y52032D01*
X156884Y52018D01*
X156889Y51999D01*
Y51995D01*
X156893Y51981D01*
X156898Y51958D01*
Y51930D01*
Y51925D01*
Y51921D01*
X156893Y51889D01*
X156889Y51856D01*
X156875Y51819D01*
X156870Y51815D01*
X156861Y51801D01*
X156847Y51787D01*
X156824Y51782D01*
X155905D01*
Y51052D01*
X155909D01*
X155914Y51057D01*
X155928D01*
X155946Y51062D01*
X155988Y51066D01*
X156066D01*
X156085Y51071D01*
X156237D01*
X156279Y51066D01*
X156330D01*
X156385Y51057D01*
X156450Y51048D01*
X156515Y51034D01*
X156575Y51015D01*
X156584D01*
X156602Y51006D01*
X156630Y50992D01*
X156667Y50978D01*
X156713Y50955D01*
X156755Y50932D01*
X156801Y50900D01*
X156843Y50867D01*
X156847Y50863D01*
X156861Y50849D01*
X156879Y50831D01*
X156903Y50803D01*
X156930Y50766D01*
X156958Y50729D01*
X156981Y50683D01*
X157004Y50632D01*
X157009Y50627D01*
X157013Y50609D01*
X157023Y50581D01*
X157032Y50544D01*
X157041Y50498D01*
X157051Y50447D01*
X157060Y50387D01*
Y50327D01*
Y50318D01*
Y50290D01*
X157055Y50253D01*
X157051Y50202D01*
X157041Y50147D01*
X157027Y50082D01*
X157009Y50022D01*
X156986Y49957D01*
X156981Y49948D01*
X156972Y49930D01*
X156958Y49902D01*
X156935Y49865D01*
X156907Y49819D01*
X156875Y49773D01*
X156833Y49726D01*
X156787Y49685D01*
X156782Y49680D01*
X156764Y49666D01*
X156736Y49648D01*
X156704Y49625D01*
X156658Y49597D01*
X156607Y49569D01*
X156547Y49542D01*
X156482Y49518D01*
X156473D01*
X156450Y49509D01*
X156418Y49500D01*
X156367Y49491D01*
X156311Y49481D01*
X156247Y49472D01*
X156173Y49468D01*
X156094Y49463D01*
X156052D01*
X156020Y49468D01*
X155983D01*
X155946Y49472D01*
X155863Y49481D01*
X155859D01*
X155845Y49486D01*
X155826Y49491D01*
X155798Y49495D01*
X155738Y49509D01*
X155674Y49523D01*
X155669D01*
X155660Y49528D01*
X155646Y49532D01*
X155628Y49537D01*
X155581Y49551D01*
X155535Y49569D01*
X155526Y49574D01*
X155507Y49583D01*
X155484Y49597D01*
X155466Y49606D01*
Y49611D01*
X155457Y49615D01*
X155447Y49629D01*
Y49634D01*
X155443Y49639D01*
X155433Y49662D01*
Y49666D01*
Y49676D01*
X155429Y49703D01*
Y49708D01*
Y49722D01*
Y49740D01*
Y49768D01*
Y49773D01*
Y49786D01*
Y49805D01*
Y49828D01*
Y49833D01*
X155433Y49842D01*
Y49856D01*
X155438Y49870D01*
Y49874D01*
X155443Y49879D01*
X155457Y49897D01*
X155461D01*
X155466Y49902D01*
X155484Y49907D01*
X155489D01*
X155498Y49902D01*
X155517Y49897D01*
X155544Y49879D01*
X155554Y49874D01*
X155572Y49865D01*
X155609Y49847D01*
X155655Y49823D01*
X155660D01*
X155669Y49819D01*
X155683Y49814D01*
X155706Y49805D01*
X155729Y49796D01*
X155762Y49786D01*
X155831Y49768D01*
X155835D01*
X155849Y49763D01*
X155872Y49759D01*
X155900D01*
X155937Y49754D01*
X155983Y49749D01*
X156029Y49745D01*
X156126D01*
X156163Y49749D01*
X156200D01*
X156242Y49759D01*
X156325Y49773D01*
X156330D01*
X156344Y49777D01*
X156367Y49786D01*
X156394Y49796D01*
X156455Y49828D01*
X156519Y49874D01*
X156524Y49879D01*
X156533Y49888D01*
X156547Y49902D01*
X156565Y49920D01*
X156588Y49948D01*
X156607Y49976D01*
X156649Y50045D01*
Y50050D01*
X156658Y50064D01*
X156662Y50087D01*
X156672Y50115D01*
X156681Y50151D01*
X156685Y50193D01*
X156695Y50244D01*
Y50295D01*
Y50299D01*
Y50318D01*
Y50341D01*
X156690Y50369D01*
X156676Y50438D01*
X156653Y50512D01*
Y50516D01*
X156649Y50530D01*
X156639Y50544D01*
X156625Y50567D01*
X156588Y50618D01*
X156533Y50669D01*
X156528Y50674D01*
X156519Y50678D01*
X156501Y50692D01*
X156478Y50706D01*
X156450Y50720D01*
X156413Y50738D01*
X156376Y50752D01*
X156330Y50766D01*
X156325D01*
X156307Y50770D01*
X156283Y50775D01*
X156247Y50784D01*
X156205Y50789D01*
X156154Y50794D01*
X156094Y50798D01*
X155965D01*
X155895Y50794D01*
X155826Y50784D01*
X155812D01*
X155794Y50780D01*
X155775D01*
X155720Y50775D01*
X155665Y50770D01*
X155655D01*
X155632Y50775D01*
X155609Y50784D01*
X155586Y50798D01*
X155581Y50803D01*
X155577Y50821D01*
X155567Y50854D01*
X155563Y50900D01*
Y51949D01*
Y51953D01*
Y51958D01*
X155567Y51986D01*
X155577Y52022D01*
X155590Y52050D01*
X155595Y52055D01*
X155614Y52069D01*
X155641Y52078D01*
X155678Y52083D01*
X156829D01*
X156852Y52073D01*
D02*
G37*
G36*
X150619Y52115D02*
X150666Y52110D01*
X150712Y52101D01*
X150809Y52078D01*
X150813D01*
X150832Y52069D01*
X150855Y52060D01*
X150883Y52046D01*
X150952Y52009D01*
X151026Y51958D01*
X151031Y51953D01*
X151040Y51944D01*
X151058Y51930D01*
X151081Y51907D01*
X151104Y51879D01*
X151128Y51847D01*
X151178Y51773D01*
X151183Y51768D01*
X151188Y51755D01*
X151201Y51731D01*
X151215Y51704D01*
X151234Y51667D01*
X151248Y51625D01*
X151266Y51579D01*
X151280Y51528D01*
Y51524D01*
X151289Y51505D01*
X151294Y51477D01*
X151303Y51440D01*
X151312Y51394D01*
X151322Y51343D01*
X151331Y51288D01*
X151340Y51228D01*
Y51219D01*
X151345Y51200D01*
Y51168D01*
X151349Y51126D01*
X151354Y51075D01*
Y51015D01*
X151359Y50955D01*
Y50891D01*
Y50881D01*
Y50863D01*
Y50831D01*
X151354Y50784D01*
Y50734D01*
X151349Y50678D01*
X151336Y50553D01*
Y50544D01*
X151331Y50526D01*
X151326Y50489D01*
X151322Y50447D01*
X151312Y50396D01*
X151299Y50341D01*
X151266Y50221D01*
Y50216D01*
X151257Y50193D01*
X151248Y50165D01*
X151234Y50124D01*
X151215Y50077D01*
X151192Y50031D01*
X151137Y49925D01*
X151132Y49920D01*
X151123Y49902D01*
X151104Y49874D01*
X151081Y49842D01*
X151054Y49805D01*
X151017Y49763D01*
X150980Y49722D01*
X150934Y49680D01*
X150929Y49676D01*
X150910Y49662D01*
X150887Y49643D01*
X150850Y49620D01*
X150809Y49597D01*
X150758Y49569D01*
X150703Y49542D01*
X150643Y49518D01*
X150633D01*
X150615Y49509D01*
X150578Y49500D01*
X150532Y49491D01*
X150476Y49481D01*
X150407Y49472D01*
X150333Y49468D01*
X150254Y49463D01*
X150199D01*
X150144Y49468D01*
X150083Y49477D01*
X150070D01*
X150056Y49481D01*
X150037D01*
X149991Y49491D01*
X149940Y49500D01*
X149936D01*
X149931Y49505D01*
X149903Y49509D01*
X149866Y49518D01*
X149829Y49532D01*
X149825Y49537D01*
X149806Y49546D01*
X149783Y49555D01*
X149765Y49569D01*
X149760Y49574D01*
X149756Y49583D01*
X149746Y49597D01*
X149737Y49615D01*
Y49620D01*
Y49639D01*
X149732Y49666D01*
Y49699D01*
Y49708D01*
Y49726D01*
Y49749D01*
Y49768D01*
Y49773D01*
X149737Y49782D01*
Y49796D01*
X149742Y49810D01*
Y49814D01*
X149746Y49819D01*
X149756Y49828D01*
X149760D01*
X149765Y49833D01*
X149802D01*
X149820Y49828D01*
X149848Y49819D01*
X149857D01*
X149876Y49810D01*
X149908Y49800D01*
X149950Y49786D01*
X149954D01*
X149959Y49782D01*
X149973D01*
X149991Y49777D01*
X150033Y49763D01*
X150088Y49754D01*
X150102D01*
X150120Y49749D01*
X150144D01*
X150171Y49745D01*
X150204D01*
X150273Y49740D01*
X150305D01*
X150342Y49745D01*
X150388Y49749D01*
X150439Y49759D01*
X150495Y49773D01*
X150550Y49791D01*
X150606Y49814D01*
X150610Y49819D01*
X150629Y49828D01*
X150656Y49847D01*
X150684Y49865D01*
X150721Y49897D01*
X150758Y49930D01*
X150795Y49967D01*
X150832Y50013D01*
X150837Y50017D01*
X150846Y50036D01*
X150864Y50059D01*
X150883Y50096D01*
X150901Y50138D01*
X150924Y50188D01*
X150943Y50244D01*
X150961Y50304D01*
Y50313D01*
X150970Y50332D01*
X150975Y50369D01*
X150984Y50410D01*
X150994Y50461D01*
X151003Y50521D01*
X151007Y50586D01*
X151012Y50655D01*
X151007Y50650D01*
X150994Y50646D01*
X150970Y50632D01*
X150943Y50618D01*
X150901Y50600D01*
X150860Y50581D01*
X150813Y50563D01*
X150758Y50544D01*
X150753D01*
X150730Y50535D01*
X150703Y50530D01*
X150661Y50521D01*
X150610Y50512D01*
X150555Y50507D01*
X150490Y50498D01*
X150384D01*
X150342Y50503D01*
X150296Y50507D01*
X150236Y50512D01*
X150176Y50521D01*
X150116Y50535D01*
X150056Y50553D01*
X150051Y50558D01*
X150033Y50563D01*
X150005Y50577D01*
X149973Y50595D01*
X149936Y50618D01*
X149894Y50646D01*
X149857Y50678D01*
X149820Y50715D01*
X149815Y50720D01*
X149806Y50734D01*
X149792Y50757D01*
X149774Y50784D01*
X149751Y50817D01*
X149732Y50858D01*
X149709Y50905D01*
X149695Y50955D01*
Y50960D01*
X149691Y50978D01*
X149686Y51006D01*
X149677Y51048D01*
X149672Y51089D01*
X149663Y51145D01*
X149659Y51200D01*
Y51260D01*
Y51270D01*
Y51288D01*
X149663Y51320D01*
Y51367D01*
X149668Y51413D01*
X149677Y51468D01*
X149705Y51584D01*
X149709Y51593D01*
X149714Y51611D01*
X149728Y51639D01*
X149742Y51676D01*
X149765Y51718D01*
X149792Y51764D01*
X149825Y51810D01*
X149862Y51856D01*
X149866Y51861D01*
X149880Y51875D01*
X149903Y51898D01*
X149936Y51925D01*
X149973Y51953D01*
X150019Y51986D01*
X150070Y52018D01*
X150130Y52046D01*
X150139Y52050D01*
X150157Y52060D01*
X150194Y52069D01*
X150241Y52083D01*
X150301Y52096D01*
X150365Y52110D01*
X150439Y52115D01*
X150522Y52119D01*
X150583D01*
X150619Y52115D01*
D02*
G37*
G36*
X159924D02*
X159966D01*
X160017Y52106D01*
X160072Y52096D01*
X160127Y52083D01*
X160183Y52064D01*
X160187D01*
X160206Y52055D01*
X160234Y52041D01*
X160266Y52027D01*
X160345Y51981D01*
X160381Y51953D01*
X160418Y51921D01*
X160423Y51916D01*
X160432Y51902D01*
X160451Y51884D01*
X160474Y51861D01*
X160497Y51828D01*
X160520Y51792D01*
X160543Y51750D01*
X160562Y51704D01*
Y51699D01*
X160571Y51685D01*
X160575Y51657D01*
X160585Y51625D01*
X160594Y51588D01*
X160599Y51542D01*
X160608Y51445D01*
Y51440D01*
Y51427D01*
Y51399D01*
X160603Y51371D01*
Y51334D01*
X160599Y51293D01*
X160585Y51200D01*
Y51196D01*
X160580Y51177D01*
X160575Y51154D01*
X160566Y51122D01*
X160552Y51080D01*
X160534Y51034D01*
X160515Y50983D01*
X160488Y50932D01*
X160483Y50928D01*
X160474Y50909D01*
X160460Y50881D01*
X160437Y50840D01*
X160409Y50794D01*
X160372Y50743D01*
X160331Y50683D01*
X160284Y50618D01*
X160280Y50609D01*
X160261Y50586D01*
X160229Y50549D01*
X160192Y50503D01*
X160137Y50442D01*
X160077Y50373D01*
X160007Y50299D01*
X159929Y50216D01*
X159522Y49791D01*
X160654D01*
X160672Y49782D01*
X160677D01*
X160682Y49777D01*
X160700Y49754D01*
Y49749D01*
X160705Y49740D01*
X160710Y49726D01*
X160714Y49708D01*
Y49703D01*
X160719Y49689D01*
X160723Y49671D01*
Y49643D01*
Y49639D01*
Y49625D01*
X160719Y49606D01*
X160714Y49583D01*
Y49578D01*
X160710Y49565D01*
X160700Y49532D01*
Y49528D01*
X160696Y49523D01*
X160677Y49505D01*
X160668D01*
X160645Y49500D01*
X159199D01*
X159166Y49505D01*
X159162D01*
X159157Y49509D01*
X159134Y49528D01*
Y49532D01*
X159125Y49537D01*
X159120Y49551D01*
X159111Y49569D01*
Y49574D01*
Y49592D01*
X159106Y49615D01*
Y49648D01*
Y49657D01*
Y49671D01*
Y49694D01*
Y49717D01*
Y49722D01*
X159111Y49736D01*
X159120Y49768D01*
Y49773D01*
X159125Y49782D01*
X159143Y49814D01*
X159148Y49819D01*
X159157Y49828D01*
X159171Y49847D01*
X159185Y49865D01*
X159702Y50396D01*
X159712Y50406D01*
X159730Y50429D01*
X159767Y50461D01*
X159804Y50503D01*
X159850Y50553D01*
X159901Y50609D01*
X159947Y50664D01*
X159989Y50720D01*
X159993Y50724D01*
X160007Y50743D01*
X160026Y50775D01*
X160054Y50807D01*
X160077Y50849D01*
X160104Y50895D01*
X160132Y50941D01*
X160155Y50988D01*
X160160Y50992D01*
X160164Y51006D01*
X160174Y51029D01*
X160187Y51062D01*
X160215Y51131D01*
X160234Y51205D01*
Y51209D01*
X160238Y51223D01*
X160243Y51242D01*
X160248Y51265D01*
X160252Y51325D01*
X160257Y51390D01*
Y51394D01*
Y51403D01*
Y51422D01*
X160252Y51445D01*
X160243Y51496D01*
X160224Y51551D01*
Y51556D01*
X160220Y51565D01*
X160215Y51579D01*
X160206Y51597D01*
X160178Y51639D01*
X160141Y51685D01*
X160137Y51690D01*
X160132Y51695D01*
X160104Y51718D01*
X160058Y51750D01*
X160003Y51778D01*
X159998D01*
X159989Y51782D01*
X159970Y51792D01*
X159947Y51796D01*
X159920Y51805D01*
X159887Y51810D01*
X159813Y51815D01*
X159767D01*
X159739Y51810D01*
X159702Y51805D01*
X159665Y51801D01*
X159587Y51778D01*
X159582D01*
X159568Y51773D01*
X159550Y51764D01*
X159527Y51755D01*
X159471Y51731D01*
X159411Y51704D01*
X159407D01*
X159397Y51699D01*
X159384Y51690D01*
X159370Y51681D01*
X159328Y51653D01*
X159286Y51630D01*
X159277Y51625D01*
X159259Y51616D01*
X159231Y51602D01*
X159208Y51597D01*
X159199D01*
X159180Y51602D01*
X159176Y51611D01*
X159162Y51630D01*
Y51634D01*
X159157Y51644D01*
Y51657D01*
X159153Y51676D01*
Y51681D01*
Y51699D01*
Y51722D01*
Y51750D01*
Y51755D01*
Y51768D01*
Y51801D01*
Y51805D01*
Y51815D01*
X159157Y51838D01*
Y51842D01*
X159162Y51847D01*
X159171Y51870D01*
Y51875D01*
X159180Y51879D01*
X159189Y51889D01*
X159203Y51902D01*
X159208Y51907D01*
X159222Y51921D01*
X159250Y51939D01*
X159286Y51963D01*
X159291D01*
X159296Y51967D01*
X159310Y51976D01*
X159328Y51986D01*
X159374Y52009D01*
X159434Y52032D01*
X159439D01*
X159453Y52036D01*
X159471Y52046D01*
X159494Y52055D01*
X159522Y52064D01*
X159559Y52073D01*
X159633Y52092D01*
X159638D01*
X159652Y52096D01*
X159675Y52101D01*
X159702Y52106D01*
X159735Y52110D01*
X159772Y52115D01*
X159855Y52119D01*
X159887D01*
X159924Y52115D01*
D02*
G37*
G36*
X148651Y52096D02*
X148656D01*
X148670Y52092D01*
X148688Y52087D01*
X148702Y52083D01*
X148707D01*
X148711Y52078D01*
X148721Y52073D01*
X148725Y52064D01*
X148730Y52060D01*
X148734Y52041D01*
Y49777D01*
X149210D01*
X149229Y49768D01*
X149233D01*
X149238Y49763D01*
X149252Y49740D01*
Y49736D01*
X149257Y49726D01*
X149261Y49712D01*
X149266Y49694D01*
Y49689D01*
X149270Y49680D01*
X149275Y49657D01*
Y49634D01*
Y49629D01*
Y49611D01*
X149270Y49592D01*
X149266Y49569D01*
Y49565D01*
X149261Y49555D01*
X149252Y49528D01*
X149247Y49518D01*
X149229Y49505D01*
X149220D01*
X149201Y49500D01*
X147843D01*
X147824Y49505D01*
X147820Y49509D01*
X147801Y49528D01*
Y49532D01*
X147797Y49542D01*
X147787Y49569D01*
Y49574D01*
Y49588D01*
X147783Y49606D01*
Y49634D01*
Y49639D01*
Y49657D01*
Y49676D01*
X147787Y49694D01*
Y49699D01*
X147792Y49712D01*
X147801Y49740D01*
Y49745D01*
X147806Y49749D01*
X147824Y49768D01*
X147829D01*
X147834Y49773D01*
X147852Y49777D01*
X148393D01*
Y51741D01*
X147894Y51445D01*
X147889Y51440D01*
X147871Y51431D01*
X147852Y51422D01*
X147834Y51417D01*
X147810D01*
X147797Y51427D01*
Y51431D01*
X147787Y51436D01*
X147783Y51450D01*
X147778Y51468D01*
Y51473D01*
Y51491D01*
X147774Y51514D01*
Y51547D01*
Y51551D01*
Y51565D01*
Y51602D01*
Y51607D01*
X147778Y51616D01*
Y51630D01*
X147783Y51644D01*
Y51648D01*
X147787Y51653D01*
X147797Y51671D01*
X147801Y51676D01*
X147806Y51681D01*
X147829Y51695D01*
X148420Y52073D01*
X148425Y52078D01*
X148439Y52083D01*
X148443D01*
X148448Y52087D01*
X148471Y52092D01*
X148476D01*
X148485Y52096D01*
X148517D01*
X148531Y52101D01*
X148624D01*
X148651Y52096D01*
D02*
G37*
G36*
X144318Y52115D02*
X144359D01*
X144410Y52106D01*
X144466Y52096D01*
X144521Y52083D01*
X144577Y52064D01*
X144581D01*
X144600Y52055D01*
X144627Y52041D01*
X144660Y52027D01*
X144738Y51981D01*
X144775Y51953D01*
X144812Y51921D01*
X144817Y51916D01*
X144826Y51902D01*
X144844Y51884D01*
X144868Y51861D01*
X144891Y51828D01*
X144914Y51792D01*
X144937Y51750D01*
X144955Y51704D01*
Y51699D01*
X144965Y51685D01*
X144969Y51657D01*
X144978Y51625D01*
X144988Y51588D01*
X144992Y51542D01*
X145001Y51445D01*
Y51440D01*
Y51427D01*
Y51399D01*
X144997Y51371D01*
Y51334D01*
X144992Y51293D01*
X144978Y51200D01*
Y51196D01*
X144974Y51177D01*
X144969Y51154D01*
X144960Y51122D01*
X144946Y51080D01*
X144928Y51034D01*
X144909Y50983D01*
X144881Y50932D01*
X144877Y50928D01*
X144868Y50909D01*
X144854Y50881D01*
X144831Y50840D01*
X144803Y50794D01*
X144766Y50743D01*
X144724Y50683D01*
X144678Y50618D01*
X144674Y50609D01*
X144655Y50586D01*
X144623Y50549D01*
X144586Y50503D01*
X144530Y50442D01*
X144470Y50373D01*
X144401Y50299D01*
X144322Y50216D01*
X143916Y49791D01*
X145048D01*
X145066Y49782D01*
X145071D01*
X145075Y49777D01*
X145094Y49754D01*
Y49749D01*
X145098Y49740D01*
X145103Y49726D01*
X145108Y49708D01*
Y49703D01*
X145112Y49689D01*
X145117Y49671D01*
Y49643D01*
Y49639D01*
Y49625D01*
X145112Y49606D01*
X145108Y49583D01*
Y49578D01*
X145103Y49565D01*
X145094Y49532D01*
Y49528D01*
X145089Y49523D01*
X145071Y49505D01*
X145062D01*
X145038Y49500D01*
X143592D01*
X143560Y49505D01*
X143555D01*
X143551Y49509D01*
X143528Y49528D01*
Y49532D01*
X143518Y49537D01*
X143514Y49551D01*
X143505Y49569D01*
Y49574D01*
Y49592D01*
X143500Y49615D01*
Y49648D01*
Y49657D01*
Y49671D01*
Y49694D01*
Y49717D01*
Y49722D01*
X143505Y49736D01*
X143514Y49768D01*
Y49773D01*
X143518Y49782D01*
X143537Y49814D01*
X143542Y49819D01*
X143551Y49828D01*
X143565Y49847D01*
X143579Y49865D01*
X144096Y50396D01*
X144105Y50406D01*
X144124Y50429D01*
X144161Y50461D01*
X144198Y50503D01*
X144244Y50553D01*
X144295Y50609D01*
X144341Y50664D01*
X144382Y50720D01*
X144387Y50724D01*
X144401Y50743D01*
X144419Y50775D01*
X144447Y50807D01*
X144470Y50849D01*
X144498Y50895D01*
X144526Y50941D01*
X144549Y50988D01*
X144553Y50992D01*
X144558Y51006D01*
X144567Y51029D01*
X144581Y51062D01*
X144609Y51131D01*
X144627Y51205D01*
Y51209D01*
X144632Y51223D01*
X144636Y51242D01*
X144641Y51265D01*
X144646Y51325D01*
X144650Y51390D01*
Y51394D01*
Y51403D01*
Y51422D01*
X144646Y51445D01*
X144636Y51496D01*
X144618Y51551D01*
Y51556D01*
X144613Y51565D01*
X144609Y51579D01*
X144600Y51597D01*
X144572Y51639D01*
X144535Y51685D01*
X144530Y51690D01*
X144526Y51695D01*
X144498Y51718D01*
X144452Y51750D01*
X144396Y51778D01*
X144392D01*
X144382Y51782D01*
X144364Y51792D01*
X144341Y51796D01*
X144313Y51805D01*
X144281Y51810D01*
X144207Y51815D01*
X144161D01*
X144133Y51810D01*
X144096Y51805D01*
X144059Y51801D01*
X143981Y51778D01*
X143976D01*
X143962Y51773D01*
X143944Y51764D01*
X143920Y51755D01*
X143865Y51731D01*
X143805Y51704D01*
X143800D01*
X143791Y51699D01*
X143777Y51690D01*
X143763Y51681D01*
X143722Y51653D01*
X143680Y51630D01*
X143671Y51625D01*
X143652Y51616D01*
X143625Y51602D01*
X143602Y51597D01*
X143592D01*
X143574Y51602D01*
X143569Y51611D01*
X143555Y51630D01*
Y51634D01*
X143551Y51644D01*
Y51657D01*
X143546Y51676D01*
Y51681D01*
Y51699D01*
Y51722D01*
Y51750D01*
Y51755D01*
Y51768D01*
Y51801D01*
Y51805D01*
Y51815D01*
X143551Y51838D01*
Y51842D01*
X143555Y51847D01*
X143565Y51870D01*
Y51875D01*
X143574Y51879D01*
X143583Y51889D01*
X143597Y51902D01*
X143602Y51907D01*
X143615Y51921D01*
X143643Y51939D01*
X143680Y51963D01*
X143685D01*
X143689Y51967D01*
X143703Y51976D01*
X143722Y51986D01*
X143768Y52009D01*
X143828Y52032D01*
X143833D01*
X143846Y52036D01*
X143865Y52046D01*
X143888Y52055D01*
X143916Y52064D01*
X143953Y52073D01*
X144027Y52092D01*
X144031D01*
X144045Y52096D01*
X144068Y52101D01*
X144096Y52106D01*
X144128Y52110D01*
X144165Y52115D01*
X144248Y52119D01*
X144281D01*
X144318Y52115D01*
D02*
G37*
G36*
X154297D02*
X154357Y52110D01*
X154422Y52096D01*
X154491Y52083D01*
X154560Y52060D01*
X154625Y52032D01*
X154634Y52027D01*
X154653Y52013D01*
X154685Y51995D01*
X154722Y51967D01*
X154764Y51930D01*
X154810Y51884D01*
X154851Y51833D01*
X154893Y51773D01*
X154897Y51764D01*
X154911Y51745D01*
X154925Y51708D01*
X154948Y51657D01*
X154972Y51597D01*
X154995Y51528D01*
X155018Y51445D01*
X155036Y51357D01*
Y51353D01*
Y51348D01*
X155041Y51334D01*
X155045Y51316D01*
Y51293D01*
X155050Y51265D01*
X155059Y51196D01*
X155069Y51112D01*
X155073Y51015D01*
X155082Y50909D01*
Y50794D01*
Y50789D01*
Y50780D01*
Y50766D01*
Y50743D01*
Y50720D01*
X155078Y50687D01*
Y50613D01*
X155069Y50530D01*
X155059Y50442D01*
X155050Y50345D01*
X155032Y50253D01*
Y50248D01*
Y50244D01*
X155027Y50230D01*
X155022Y50212D01*
X155013Y50165D01*
X154995Y50110D01*
X154972Y50041D01*
X154944Y49971D01*
X154911Y49897D01*
X154874Y49828D01*
X154870Y49819D01*
X154856Y49800D01*
X154833Y49768D01*
X154800Y49726D01*
X154759Y49685D01*
X154713Y49639D01*
X154657Y49597D01*
X154593Y49555D01*
X154583Y49551D01*
X154560Y49542D01*
X154523Y49528D01*
X154472Y49509D01*
X154408Y49491D01*
X154334Y49477D01*
X154251Y49468D01*
X154158Y49463D01*
X154117D01*
X154071Y49468D01*
X154015Y49472D01*
X153950Y49481D01*
X153881Y49500D01*
X153812Y49518D01*
X153747Y49546D01*
X153738Y49551D01*
X153719Y49565D01*
X153687Y49583D01*
X153650Y49611D01*
X153609Y49648D01*
X153562Y49689D01*
X153521Y49740D01*
X153479Y49800D01*
X153475Y49810D01*
X153461Y49833D01*
X153447Y49870D01*
X153424Y49916D01*
X153401Y49976D01*
X153378Y50050D01*
X153355Y50128D01*
X153336Y50216D01*
Y50221D01*
Y50225D01*
X153331Y50239D01*
Y50262D01*
X153327Y50285D01*
X153322Y50313D01*
X153317Y50382D01*
X153308Y50466D01*
X153299Y50563D01*
X153294Y50669D01*
Y50784D01*
Y50789D01*
Y50798D01*
Y50812D01*
Y50835D01*
Y50858D01*
X153299Y50891D01*
Y50964D01*
X153304Y51048D01*
X153313Y51135D01*
X153327Y51232D01*
X153341Y51325D01*
Y51329D01*
X153345Y51334D01*
Y51348D01*
X153350Y51367D01*
X153359Y51413D01*
X153378Y51468D01*
X153396Y51537D01*
X153424Y51607D01*
X153456Y51676D01*
X153493Y51745D01*
X153498Y51755D01*
X153512Y51773D01*
X153539Y51805D01*
X153572Y51847D01*
X153613Y51893D01*
X153659Y51939D01*
X153715Y51981D01*
X153779Y52022D01*
X153789Y52027D01*
X153812Y52036D01*
X153849Y52055D01*
X153900Y52073D01*
X153960Y52087D01*
X154034Y52106D01*
X154117Y52115D01*
X154209Y52119D01*
X154251D01*
X154297Y52115D01*
D02*
G37*
G36*
X146494D02*
X146554Y52110D01*
X146618Y52096D01*
X146688Y52083D01*
X146757Y52060D01*
X146822Y52032D01*
X146831Y52027D01*
X146850Y52013D01*
X146882Y51995D01*
X146919Y51967D01*
X146960Y51930D01*
X147007Y51884D01*
X147048Y51833D01*
X147090Y51773D01*
X147094Y51764D01*
X147108Y51745D01*
X147122Y51708D01*
X147145Y51657D01*
X147168Y51597D01*
X147191Y51528D01*
X147214Y51445D01*
X147233Y51357D01*
Y51353D01*
Y51348D01*
X147238Y51334D01*
X147242Y51316D01*
Y51293D01*
X147247Y51265D01*
X147256Y51196D01*
X147265Y51112D01*
X147270Y51015D01*
X147279Y50909D01*
Y50794D01*
Y50789D01*
Y50780D01*
Y50766D01*
Y50743D01*
Y50720D01*
X147274Y50687D01*
Y50613D01*
X147265Y50530D01*
X147256Y50442D01*
X147247Y50345D01*
X147228Y50253D01*
Y50248D01*
Y50244D01*
X147224Y50230D01*
X147219Y50212D01*
X147210Y50165D01*
X147191Y50110D01*
X147168Y50041D01*
X147141Y49971D01*
X147108Y49897D01*
X147071Y49828D01*
X147067Y49819D01*
X147053Y49800D01*
X147030Y49768D01*
X146997Y49726D01*
X146956Y49685D01*
X146910Y49639D01*
X146854Y49597D01*
X146789Y49555D01*
X146780Y49551D01*
X146757Y49542D01*
X146720Y49528D01*
X146669Y49509D01*
X146605Y49491D01*
X146531Y49477D01*
X146448Y49468D01*
X146355Y49463D01*
X146314D01*
X146267Y49468D01*
X146212Y49472D01*
X146147Y49481D01*
X146078Y49500D01*
X146009Y49518D01*
X145944Y49546D01*
X145935Y49551D01*
X145916Y49565D01*
X145884Y49583D01*
X145847Y49611D01*
X145805Y49648D01*
X145759Y49689D01*
X145718Y49740D01*
X145676Y49800D01*
X145671Y49810D01*
X145658Y49833D01*
X145644Y49870D01*
X145621Y49916D01*
X145598Y49976D01*
X145574Y50050D01*
X145551Y50128D01*
X145533Y50216D01*
Y50221D01*
Y50225D01*
X145528Y50239D01*
Y50262D01*
X145524Y50285D01*
X145519Y50313D01*
X145514Y50382D01*
X145505Y50466D01*
X145496Y50563D01*
X145491Y50669D01*
Y50784D01*
Y50789D01*
Y50798D01*
Y50812D01*
Y50835D01*
Y50858D01*
X145496Y50891D01*
Y50964D01*
X145501Y51048D01*
X145510Y51135D01*
X145524Y51232D01*
X145537Y51325D01*
Y51329D01*
X145542Y51334D01*
Y51348D01*
X145547Y51367D01*
X145556Y51413D01*
X145574Y51468D01*
X145593Y51537D01*
X145621Y51607D01*
X145653Y51676D01*
X145690Y51745D01*
X145694Y51755D01*
X145708Y51773D01*
X145736Y51805D01*
X145768Y51847D01*
X145810Y51893D01*
X145856Y51939D01*
X145912Y51981D01*
X145976Y52022D01*
X145986Y52027D01*
X146009Y52036D01*
X146046Y52055D01*
X146096Y52073D01*
X146157Y52087D01*
X146230Y52106D01*
X146314Y52115D01*
X146406Y52119D01*
X146448D01*
X146494Y52115D01*
D02*
G37*
G36*
X158746Y52429D02*
X158774Y52425D01*
X158778D01*
X158792Y52420D01*
X158811Y52411D01*
X158825Y52401D01*
X158829D01*
X158834Y52397D01*
X158843Y52387D01*
X158848Y52374D01*
Y52369D01*
Y52360D01*
Y52346D01*
X158843Y52327D01*
X157633Y49024D01*
Y49020D01*
X157628Y49010D01*
X157619Y48996D01*
X157609Y48983D01*
X157600Y48973D01*
X157591Y48969D01*
X157577Y48959D01*
X157572D01*
X157563Y48955D01*
X157549Y48950D01*
X157531Y48946D01*
X157512D01*
X157489Y48941D01*
X157434D01*
X157402Y48946D01*
X157374Y48950D01*
X157369D01*
X157355Y48955D01*
X157337Y48964D01*
X157323Y48973D01*
X157314Y48983D01*
X157305Y49001D01*
Y49006D01*
Y49015D01*
Y49029D01*
X157314Y49047D01*
X158520Y52350D01*
Y52355D01*
X158524Y52364D01*
X158534Y52378D01*
X158538Y52392D01*
X158543Y52397D01*
X158547Y52401D01*
X158570Y52415D01*
X158575D01*
X158584Y52420D01*
X158603Y52425D01*
X158621Y52429D01*
X158626D01*
X158640Y52434D01*
X158723D01*
X158746Y52429D01*
D02*
G37*
G36*
X153017D02*
X153045Y52425D01*
X153050D01*
X153063Y52420D01*
X153082Y52411D01*
X153096Y52401D01*
X153100D01*
X153105Y52397D01*
X153114Y52387D01*
X153119Y52374D01*
Y52369D01*
Y52360D01*
Y52346D01*
X153114Y52327D01*
X151904Y49024D01*
Y49020D01*
X151899Y49010D01*
X151890Y48996D01*
X151881Y48983D01*
X151871Y48973D01*
X151862Y48969D01*
X151848Y48959D01*
X151844D01*
X151834Y48955D01*
X151821Y48950D01*
X151802Y48946D01*
X151784D01*
X151761Y48941D01*
X151705D01*
X151673Y48946D01*
X151645Y48950D01*
X151640D01*
X151627Y48955D01*
X151608Y48964D01*
X151594Y48973D01*
X151585Y48983D01*
X151576Y49001D01*
Y49006D01*
Y49015D01*
Y49029D01*
X151585Y49047D01*
X152791Y52350D01*
Y52355D01*
X152795Y52364D01*
X152805Y52378D01*
X152809Y52392D01*
X152814Y52397D01*
X152819Y52401D01*
X152842Y52415D01*
X152846D01*
X152856Y52420D01*
X152874Y52425D01*
X152892Y52429D01*
X152897D01*
X152911Y52434D01*
X152994D01*
X153017Y52429D01*
D02*
G37*
G36*
X143449Y56636D02*
X143487D01*
X143532Y56630D01*
X143626Y56613D01*
X143632D01*
X143648Y56608D01*
X143671Y56602D01*
X143704Y56597D01*
X143776Y56575D01*
X143859Y56547D01*
X143865D01*
X143876Y56541D01*
X143898Y56530D01*
X143926Y56519D01*
X143987Y56491D01*
X144053Y56458D01*
X144059D01*
X144065Y56453D01*
X144098Y56430D01*
X144137Y56403D01*
X144170Y56375D01*
X144176Y56369D01*
X144187Y56358D01*
X144203Y56342D01*
X144209Y56325D01*
X144214Y56314D01*
X144226Y56286D01*
Y56281D01*
X144231Y56269D01*
Y56253D01*
X144237Y56231D01*
Y56225D01*
X144242Y56214D01*
Y56186D01*
Y56159D01*
Y56153D01*
Y56131D01*
Y56108D01*
X144237Y56081D01*
Y56075D01*
X144231Y56059D01*
X144220Y56020D01*
Y56014D01*
X144214Y56009D01*
X144198Y55986D01*
X144192D01*
X144165Y55981D01*
X144159D01*
X144142Y55986D01*
X144109Y55998D01*
X144070Y56025D01*
X144059Y56031D01*
X144026Y56053D01*
X143981Y56086D01*
X143915Y56125D01*
X143909Y56131D01*
X143898Y56136D01*
X143876Y56147D01*
X143848Y56164D01*
X143815Y56181D01*
X143776Y56197D01*
X143682Y56231D01*
X143676D01*
X143659Y56236D01*
X143632Y56247D01*
X143593Y56258D01*
X143543Y56264D01*
X143487Y56275D01*
X143426Y56281D01*
X143321D01*
X143282Y56275D01*
X143232Y56269D01*
X143171Y56258D01*
X143110Y56247D01*
X143043Y56225D01*
X142977Y56197D01*
X142971Y56192D01*
X142949Y56181D01*
X142916Y56164D01*
X142877Y56136D01*
X142833Y56103D01*
X142782Y56059D01*
X142738Y56009D01*
X142688Y55953D01*
X142683Y55948D01*
X142666Y55925D01*
X142644Y55892D01*
X142622Y55842D01*
X142588Y55787D01*
X142555Y55720D01*
X142527Y55642D01*
X142499Y55559D01*
Y55548D01*
X142488Y55520D01*
X142483Y55470D01*
X142472Y55409D01*
X142461Y55331D01*
X142449Y55243D01*
X142444Y55143D01*
X142438Y55032D01*
Y55026D01*
Y55021D01*
Y55004D01*
Y54982D01*
X142444Y54926D01*
Y54854D01*
X142455Y54777D01*
X142466Y54688D01*
X142477Y54599D01*
X142499Y54510D01*
X142505Y54499D01*
X142511Y54471D01*
X142527Y54432D01*
X142550Y54377D01*
X142572Y54316D01*
X142605Y54255D01*
X142644Y54194D01*
X142683Y54133D01*
X142688Y54127D01*
X142705Y54110D01*
X142733Y54083D01*
X142766Y54049D01*
X142810Y54011D01*
X142860Y53972D01*
X142916Y53939D01*
X142977Y53905D01*
X142982Y53900D01*
X143010Y53894D01*
X143043Y53883D01*
X143093Y53866D01*
X143149Y53850D01*
X143216Y53838D01*
X143288Y53833D01*
X143371Y53827D01*
X143437D01*
X143482Y53833D01*
X143532Y53838D01*
X143582Y53844D01*
X143693Y53872D01*
X143698D01*
X143715Y53877D01*
X143743Y53888D01*
X143776Y53900D01*
X143848Y53933D01*
X143926Y53972D01*
X143931D01*
X143942Y53983D01*
X143959Y53994D01*
X143981Y54005D01*
X144037Y54038D01*
X144087Y54072D01*
X144092D01*
X144098Y54077D01*
X144126Y54099D01*
X144159Y54116D01*
X144187Y54122D01*
X144198D01*
X144214Y54110D01*
X144220D01*
X144226Y54105D01*
X144231Y54099D01*
X144237Y54083D01*
Y54077D01*
X144242Y54072D01*
Y54055D01*
X144248Y54027D01*
Y54022D01*
X144253Y54005D01*
Y53977D01*
Y53939D01*
Y53933D01*
Y53916D01*
Y53894D01*
X144248Y53866D01*
Y53861D01*
Y53850D01*
X144237Y53816D01*
X144231Y53805D01*
X144220Y53783D01*
Y53777D01*
X144214Y53772D01*
X144203Y53755D01*
X144187Y53739D01*
X144181Y53733D01*
X144165Y53722D01*
X144137Y53700D01*
X144087Y53667D01*
X144081D01*
X144076Y53655D01*
X144059Y53650D01*
X144037Y53633D01*
X143976Y53605D01*
X143898Y53567D01*
X143893D01*
X143876Y53561D01*
X143854Y53550D01*
X143826Y53539D01*
X143787Y53528D01*
X143743Y53517D01*
X143637Y53494D01*
X143632D01*
X143609Y53489D01*
X143582Y53483D01*
X143543Y53478D01*
X143493Y53472D01*
X143437Y53467D01*
X143315Y53461D01*
X143265D01*
X143204Y53467D01*
X143132Y53472D01*
X143049Y53483D01*
X142955Y53506D01*
X142860Y53528D01*
X142766Y53561D01*
X142755Y53567D01*
X142727Y53578D01*
X142683Y53605D01*
X142627Y53633D01*
X142561Y53678D01*
X142494Y53728D01*
X142422Y53789D01*
X142355Y53855D01*
X142350Y53866D01*
X142327Y53888D01*
X142294Y53933D01*
X142255Y53994D01*
X142217Y54061D01*
X142172Y54144D01*
X142128Y54238D01*
X142089Y54344D01*
Y54349D01*
X142083Y54355D01*
Y54371D01*
X142078Y54394D01*
X142067Y54421D01*
X142061Y54455D01*
X142044Y54538D01*
X142028Y54632D01*
X142017Y54749D01*
X142006Y54871D01*
X142000Y55010D01*
Y55015D01*
Y55026D01*
Y55049D01*
Y55076D01*
X142006Y55110D01*
Y55148D01*
X142011Y55237D01*
X142022Y55343D01*
X142039Y55459D01*
X142061Y55576D01*
X142094Y55692D01*
Y55698D01*
X142100Y55703D01*
X142105Y55720D01*
X142111Y55742D01*
X142133Y55798D01*
X142166Y55870D01*
X142205Y55953D01*
X142255Y56036D01*
X142311Y56125D01*
X142372Y56208D01*
X142383Y56220D01*
X142405Y56242D01*
X142444Y56281D01*
X142494Y56331D01*
X142561Y56380D01*
X142633Y56436D01*
X142716Y56486D01*
X142805Y56530D01*
X142810D01*
X142816Y56536D01*
X142849Y56547D01*
X142899Y56564D01*
X142971Y56586D01*
X143054Y56608D01*
X143149Y56625D01*
X143254Y56636D01*
X143365Y56641D01*
X143415D01*
X143449Y56636D01*
D02*
G37*
G36*
X157745Y56613D02*
X157779Y56608D01*
X157784D01*
X157801Y56602D01*
X157823Y56597D01*
X157840Y56586D01*
Y56580D01*
X157845Y56575D01*
X157851Y56558D01*
Y56536D01*
Y56530D01*
Y56514D01*
X157840Y56491D01*
X157829Y56453D01*
X156818Y53567D01*
Y53561D01*
X156813Y53550D01*
X156791Y53522D01*
X156785D01*
X156780Y53511D01*
X156763Y53506D01*
X156741Y53500D01*
X156735D01*
X156719Y53494D01*
X156696D01*
X156663Y53489D01*
X156630D01*
X156597Y53483D01*
X156485D01*
X156458Y53489D01*
X156413D01*
X156386Y53494D01*
X156380D01*
X156369Y53500D01*
X156336D01*
X156325Y53506D01*
X156302Y53511D01*
X156297Y53517D01*
X156280Y53533D01*
Y53539D01*
X156275Y53544D01*
X156263Y53572D01*
X155253Y56458D01*
X155248Y56469D01*
X155242Y56486D01*
X155237Y56514D01*
X155231Y56541D01*
Y56547D01*
Y56558D01*
X155237Y56575D01*
X155248Y56591D01*
X155253Y56597D01*
X155264Y56602D01*
X155287Y56608D01*
X155320Y56613D01*
X155331D01*
X155353Y56619D01*
X155525D01*
X155559Y56613D01*
X155564D01*
X155581Y56608D01*
X155603Y56602D01*
X155620Y56597D01*
X155625D01*
X155631Y56591D01*
X155642Y56586D01*
X155648Y56575D01*
X155653Y56564D01*
X155670Y56536D01*
X156563Y53922D01*
X156569D01*
X157434Y56530D01*
Y56536D01*
X157440Y56547D01*
X157446Y56575D01*
Y56580D01*
X157457Y56586D01*
X157479Y56597D01*
X157484D01*
X157496Y56602D01*
X157518Y56608D01*
X157546Y56613D01*
X157551D01*
X157579Y56619D01*
X157706D01*
X157745Y56613D01*
D02*
G37*
G36*
X159416Y56619D02*
X159422D01*
X159438Y56613D01*
X159460Y56608D01*
X159477Y56602D01*
X159483D01*
X159488Y56597D01*
X159499Y56591D01*
X159505Y56580D01*
X159510Y56575D01*
X159516Y56552D01*
Y53833D01*
X160087D01*
X160110Y53822D01*
X160115D01*
X160121Y53816D01*
X160137Y53789D01*
Y53783D01*
X160143Y53772D01*
X160149Y53755D01*
X160154Y53733D01*
Y53728D01*
X160160Y53716D01*
X160165Y53689D01*
Y53661D01*
Y53655D01*
Y53633D01*
X160160Y53611D01*
X160154Y53583D01*
Y53578D01*
X160149Y53567D01*
X160137Y53533D01*
X160132Y53522D01*
X160110Y53506D01*
X160099D01*
X160076Y53500D01*
X158445D01*
X158423Y53506D01*
X158417Y53511D01*
X158395Y53533D01*
Y53539D01*
X158389Y53550D01*
X158378Y53583D01*
Y53589D01*
Y53605D01*
X158372Y53628D01*
Y53661D01*
Y53667D01*
Y53689D01*
Y53711D01*
X158378Y53733D01*
Y53739D01*
X158384Y53755D01*
X158395Y53789D01*
Y53794D01*
X158400Y53800D01*
X158423Y53822D01*
X158428D01*
X158433Y53827D01*
X158456Y53833D01*
X159105D01*
Y56192D01*
X158506Y55836D01*
X158500Y55831D01*
X158478Y55820D01*
X158456Y55809D01*
X158433Y55803D01*
X158406D01*
X158389Y55814D01*
Y55820D01*
X158378Y55826D01*
X158372Y55842D01*
X158367Y55864D01*
Y55870D01*
Y55892D01*
X158361Y55920D01*
Y55959D01*
Y55964D01*
Y55981D01*
Y56025D01*
Y56031D01*
X158367Y56042D01*
Y56059D01*
X158372Y56075D01*
Y56081D01*
X158378Y56086D01*
X158389Y56108D01*
X158395Y56114D01*
X158400Y56120D01*
X158428Y56136D01*
X159138Y56591D01*
X159144Y56597D01*
X159161Y56602D01*
X159166D01*
X159172Y56608D01*
X159200Y56613D01*
X159205D01*
X159216Y56619D01*
X159255D01*
X159272Y56625D01*
X159383D01*
X159416Y56619D01*
D02*
G37*
G36*
X152378Y56591D02*
X152384D01*
X152390Y56586D01*
X152401Y56558D01*
Y56552D01*
X152406Y56541D01*
X152412Y56525D01*
X152417Y56502D01*
Y56497D01*
X152423Y56480D01*
X152428Y56458D01*
Y56425D01*
Y56419D01*
Y56397D01*
X152423Y56375D01*
X152417Y56347D01*
Y56342D01*
X152412Y56331D01*
X152401Y56292D01*
X152395Y56281D01*
X152378Y56264D01*
X152367D01*
X152345Y56258D01*
X151130D01*
Y55287D01*
X152179D01*
X152201Y55276D01*
X152206D01*
X152212Y55270D01*
X152229Y55243D01*
Y55237D01*
X152234Y55232D01*
X152240Y55215D01*
X152245Y55193D01*
Y55187D01*
X152251Y55171D01*
Y55143D01*
Y55110D01*
Y55104D01*
Y55087D01*
Y55065D01*
X152245Y55037D01*
Y55032D01*
X152240Y55021D01*
X152234Y55004D01*
X152229Y54987D01*
X152223Y54976D01*
X152201Y54960D01*
X152190D01*
X152168Y54954D01*
X151130D01*
Y53844D01*
X152367D01*
X152390Y53833D01*
X152395D01*
X152401Y53827D01*
X152417Y53800D01*
X152423Y53794D01*
X152428Y53789D01*
X152434Y53772D01*
X152440Y53750D01*
Y53744D01*
X152445Y53728D01*
Y53700D01*
Y53667D01*
Y53661D01*
Y53639D01*
Y53616D01*
X152440Y53589D01*
Y53583D01*
X152434Y53572D01*
X152417Y53539D01*
Y53533D01*
X152412Y53528D01*
X152390Y53506D01*
X152384D01*
X152356Y53500D01*
X150858D01*
X150836Y53506D01*
X150802Y53517D01*
X150763Y53533D01*
X150758Y53539D01*
X150741Y53567D01*
X150725Y53605D01*
X150719Y53667D01*
Y56430D01*
Y56436D01*
Y56447D01*
X150725Y56480D01*
X150736Y56525D01*
X150763Y56564D01*
X150775Y56569D01*
X150797Y56586D01*
X150830Y56597D01*
X150869Y56602D01*
X152356D01*
X152378Y56591D01*
D02*
G37*
G36*
X148993Y56597D02*
X149054Y56591D01*
X149065D01*
X149104Y56586D01*
X149148D01*
X149198Y56580D01*
X149204D01*
X149226Y56575D01*
X149259Y56569D01*
X149304Y56558D01*
X149354Y56541D01*
X149409Y56525D01*
X149515Y56480D01*
X149520Y56475D01*
X149537Y56469D01*
X149565Y56453D01*
X149598Y56436D01*
X149670Y56380D01*
X149748Y56308D01*
X149753Y56303D01*
X149765Y56292D01*
X149781Y56269D01*
X149803Y56242D01*
X149826Y56208D01*
X149848Y56170D01*
X149887Y56075D01*
Y56070D01*
X149892Y56053D01*
X149903Y56025D01*
X149914Y55986D01*
X149920Y55948D01*
X149931Y55898D01*
X149936Y55781D01*
Y55775D01*
Y55753D01*
Y55726D01*
X149931Y55687D01*
X149925Y55642D01*
X149920Y55598D01*
X149892Y55498D01*
Y55492D01*
X149887Y55476D01*
X149875Y55454D01*
X149859Y55426D01*
X149820Y55354D01*
X149770Y55282D01*
X149765Y55276D01*
X149759Y55265D01*
X149742Y55248D01*
X149720Y55226D01*
X149659Y55171D01*
X149581Y55115D01*
X149576D01*
X149565Y55104D01*
X149537Y55093D01*
X149509Y55076D01*
X149470Y55060D01*
X149431Y55043D01*
X149331Y55004D01*
X149337D01*
X149343Y54998D01*
X149376Y54976D01*
X149420Y54949D01*
X149470Y54915D01*
X149476D01*
X149481Y54904D01*
X149509Y54882D01*
X149548Y54843D01*
X149587Y54793D01*
Y54788D01*
X149598Y54782D01*
X149609Y54765D01*
X149620Y54743D01*
X149653Y54693D01*
X149687Y54627D01*
Y54621D01*
X149698Y54610D01*
X149703Y54593D01*
X149720Y54566D01*
X149748Y54499D01*
X149787Y54416D01*
X150064Y53733D01*
Y53728D01*
X150070Y53716D01*
X150081Y53683D01*
X150098Y53644D01*
X150103Y53611D01*
Y53605D01*
X150109Y53594D01*
X150114Y53556D01*
Y53544D01*
X150109Y53522D01*
X150103Y53517D01*
X150092Y53511D01*
X150075Y53500D01*
X150070D01*
X150059Y53494D01*
X150036D01*
X150009Y53489D01*
X149981D01*
X149948Y53483D01*
X149826D01*
X149792Y53489D01*
X149787D01*
X149770Y53494D01*
X149748D01*
X149731Y53500D01*
X149726D01*
X149720Y53506D01*
X149692Y53528D01*
Y53533D01*
X149687Y53544D01*
X149670Y53578D01*
X149387Y54310D01*
Y54316D01*
X149376Y54333D01*
X149370Y54355D01*
X149354Y54388D01*
X149320Y54460D01*
X149282Y54538D01*
Y54543D01*
X149270Y54554D01*
X149259Y54577D01*
X149243Y54599D01*
X149204Y54660D01*
X149148Y54715D01*
X149143Y54721D01*
X149137Y54726D01*
X149121Y54743D01*
X149099Y54760D01*
X149043Y54799D01*
X148976Y54838D01*
X148971D01*
X148960Y54843D01*
X148937Y54854D01*
X148910Y54860D01*
X148871Y54871D01*
X148832Y54876D01*
X148732Y54882D01*
X148460D01*
Y53556D01*
Y53544D01*
X148449Y53522D01*
X148438Y53517D01*
X148427Y53511D01*
X148410Y53506D01*
X148405D01*
X148394Y53500D01*
X148377D01*
X148349Y53494D01*
X148344D01*
X148321Y53489D01*
X148294Y53483D01*
X148222D01*
X148188Y53489D01*
X148155Y53494D01*
X148149D01*
X148133Y53500D01*
X148088Y53506D01*
X148083D01*
X148077Y53511D01*
X148055Y53522D01*
Y53528D01*
Y53533D01*
X148049Y53556D01*
Y56430D01*
Y56436D01*
Y56447D01*
X148055Y56480D01*
X148066Y56525D01*
X148094Y56564D01*
X148105Y56569D01*
X148127Y56586D01*
X148161Y56597D01*
X148199Y56602D01*
X148926D01*
X148993Y56597D01*
D02*
G37*
G36*
X161131Y54033D02*
X161197Y54016D01*
X161225Y54000D01*
X161247Y53983D01*
X161258Y53972D01*
X161264Y53955D01*
X161275Y53933D01*
X161286Y53905D01*
X161292Y53866D01*
X161303Y53816D01*
Y53761D01*
Y53755D01*
Y53733D01*
Y53705D01*
X161297Y53667D01*
X161281Y53594D01*
X161264Y53561D01*
X161247Y53533D01*
X161236Y53522D01*
X161220Y53517D01*
X161203Y53506D01*
X161175Y53494D01*
X161136Y53489D01*
X161092Y53478D01*
X161020D01*
X160992Y53483D01*
X160964D01*
X160898Y53500D01*
X160864Y53511D01*
X160842Y53528D01*
Y53533D01*
X160837Y53539D01*
X160826Y53556D01*
X160820Y53578D01*
X160809Y53605D01*
X160798Y53644D01*
X160792Y53694D01*
Y53750D01*
Y53755D01*
Y53777D01*
X160798Y53805D01*
Y53844D01*
X160814Y53916D01*
X160831Y53949D01*
X160848Y53977D01*
X160853Y53983D01*
X160859Y53988D01*
X160875Y54000D01*
X160892Y54011D01*
X160920Y54022D01*
X160959Y54027D01*
X161003Y54038D01*
X161103D01*
X161131Y54033D01*
D02*
G37*
G36*
X163046Y56641D02*
X163118Y56636D01*
X163196Y56619D01*
X163279Y56602D01*
X163362Y56575D01*
X163440Y56541D01*
X163451Y56536D01*
X163473Y56519D01*
X163512Y56497D01*
X163556Y56464D01*
X163606Y56419D01*
X163662Y56364D01*
X163712Y56303D01*
X163762Y56231D01*
X163767Y56220D01*
X163784Y56197D01*
X163800Y56153D01*
X163828Y56092D01*
X163856Y56020D01*
X163884Y55936D01*
X163911Y55836D01*
X163934Y55731D01*
Y55726D01*
Y55720D01*
X163939Y55703D01*
X163945Y55681D01*
Y55653D01*
X163950Y55620D01*
X163961Y55537D01*
X163972Y55437D01*
X163978Y55320D01*
X163989Y55193D01*
Y55054D01*
Y55049D01*
Y55037D01*
Y55021D01*
Y54993D01*
Y54965D01*
X163984Y54926D01*
Y54838D01*
X163972Y54738D01*
X163961Y54632D01*
X163950Y54516D01*
X163928Y54405D01*
Y54399D01*
Y54394D01*
X163923Y54377D01*
X163917Y54355D01*
X163906Y54299D01*
X163884Y54233D01*
X163856Y54149D01*
X163823Y54066D01*
X163784Y53977D01*
X163739Y53894D01*
X163734Y53883D01*
X163717Y53861D01*
X163689Y53822D01*
X163651Y53772D01*
X163601Y53722D01*
X163545Y53667D01*
X163479Y53616D01*
X163401Y53567D01*
X163390Y53561D01*
X163362Y53550D01*
X163318Y53533D01*
X163257Y53511D01*
X163179Y53489D01*
X163090Y53472D01*
X162990Y53461D01*
X162879Y53456D01*
X162829D01*
X162774Y53461D01*
X162707Y53467D01*
X162629Y53478D01*
X162546Y53500D01*
X162463Y53522D01*
X162385Y53556D01*
X162374Y53561D01*
X162352Y53578D01*
X162313Y53600D01*
X162269Y53633D01*
X162219Y53678D01*
X162163Y53728D01*
X162113Y53789D01*
X162063Y53861D01*
X162058Y53872D01*
X162041Y53900D01*
X162024Y53944D01*
X161997Y54000D01*
X161969Y54072D01*
X161941Y54160D01*
X161913Y54255D01*
X161891Y54360D01*
Y54366D01*
Y54371D01*
X161886Y54388D01*
Y54416D01*
X161880Y54444D01*
X161874Y54477D01*
X161869Y54560D01*
X161858Y54660D01*
X161847Y54777D01*
X161841Y54904D01*
Y55043D01*
Y55049D01*
Y55060D01*
Y55076D01*
Y55104D01*
Y55132D01*
X161847Y55171D01*
Y55259D01*
X161852Y55359D01*
X161863Y55465D01*
X161880Y55581D01*
X161897Y55692D01*
Y55698D01*
X161902Y55703D01*
Y55720D01*
X161908Y55742D01*
X161919Y55798D01*
X161941Y55864D01*
X161963Y55948D01*
X161997Y56031D01*
X162036Y56114D01*
X162080Y56197D01*
X162085Y56208D01*
X162102Y56231D01*
X162135Y56269D01*
X162174Y56319D01*
X162224Y56375D01*
X162280Y56430D01*
X162346Y56480D01*
X162424Y56530D01*
X162435Y56536D01*
X162463Y56547D01*
X162507Y56569D01*
X162568Y56591D01*
X162641Y56608D01*
X162729Y56630D01*
X162829Y56641D01*
X162940Y56647D01*
X162990D01*
X163046Y56641D01*
D02*
G37*
G36*
X146162D02*
X146246Y56636D01*
X146340Y56619D01*
X146440Y56602D01*
X146540Y56575D01*
X146640Y56541D01*
X146645D01*
X146651Y56536D01*
X146684Y56525D01*
X146729Y56497D01*
X146790Y56464D01*
X146856Y56419D01*
X146928Y56369D01*
X146995Y56308D01*
X147062Y56236D01*
X147067Y56225D01*
X147089Y56203D01*
X147123Y56159D01*
X147156Y56103D01*
X147200Y56031D01*
X147245Y55948D01*
X147284Y55853D01*
X147317Y55748D01*
Y55742D01*
X147322Y55737D01*
Y55720D01*
X147328Y55698D01*
X147339Y55670D01*
X147345Y55637D01*
X147361Y55559D01*
X147372Y55459D01*
X147389Y55343D01*
X147395Y55221D01*
X147400Y55082D01*
Y55076D01*
Y55065D01*
Y55043D01*
Y55021D01*
Y54987D01*
X147395Y54949D01*
X147389Y54860D01*
X147378Y54754D01*
X147361Y54638D01*
X147339Y54521D01*
X147311Y54405D01*
Y54399D01*
X147306Y54394D01*
X147300Y54377D01*
X147295Y54355D01*
X147273Y54299D01*
X147245Y54227D01*
X147206Y54149D01*
X147161Y54061D01*
X147106Y53977D01*
X147045Y53894D01*
X147039Y53883D01*
X147012Y53861D01*
X146973Y53822D01*
X146923Y53772D01*
X146856Y53722D01*
X146784Y53667D01*
X146695Y53616D01*
X146601Y53567D01*
X146595D01*
X146590Y53561D01*
X146573Y53556D01*
X146556Y53550D01*
X146495Y53533D01*
X146423Y53511D01*
X146335Y53489D01*
X146229Y53472D01*
X146107Y53461D01*
X145979Y53456D01*
X145918D01*
X145891Y53461D01*
X145857D01*
X145774Y53467D01*
X145680Y53478D01*
X145574Y53500D01*
X145474Y53522D01*
X145374Y53556D01*
X145363Y53561D01*
X145330Y53578D01*
X145286Y53600D01*
X145224Y53633D01*
X145158Y53678D01*
X145091Y53728D01*
X145019Y53789D01*
X144953Y53861D01*
X144947Y53872D01*
X144925Y53894D01*
X144897Y53939D01*
X144858Y54000D01*
X144819Y54072D01*
X144775Y54155D01*
X144736Y54249D01*
X144703Y54355D01*
Y54360D01*
X144697Y54366D01*
Y54382D01*
X144692Y54405D01*
X144686Y54432D01*
X144681Y54466D01*
X144664Y54549D01*
X144647Y54649D01*
X144636Y54765D01*
X144631Y54893D01*
X144625Y55032D01*
Y55037D01*
Y55049D01*
Y55065D01*
Y55093D01*
Y55126D01*
X144631Y55165D01*
X144636Y55254D01*
X144647Y55354D01*
X144658Y55470D01*
X144681Y55581D01*
X144708Y55698D01*
Y55703D01*
X144714Y55709D01*
X144720Y55726D01*
X144725Y55748D01*
X144747Y55803D01*
X144775Y55875D01*
X144814Y55953D01*
X144858Y56036D01*
X144914Y56120D01*
X144975Y56203D01*
X144986Y56214D01*
X145008Y56236D01*
X145047Y56275D01*
X145097Y56325D01*
X145164Y56375D01*
X145236Y56430D01*
X145325Y56480D01*
X145419Y56530D01*
X145424D01*
X145430Y56536D01*
X145447Y56541D01*
X145469Y56547D01*
X145524Y56569D01*
X145596Y56591D01*
X145685Y56608D01*
X145796Y56630D01*
X145913Y56641D01*
X146040Y56647D01*
X146096D01*
X146162Y56641D01*
D02*
G37*
G36*
X155104Y52934D02*
X155126Y52928D01*
X155142Y52906D01*
X155148Y52901D01*
X155154Y52878D01*
X155159Y52839D01*
X155165Y52784D01*
Y52779D01*
Y52773D01*
Y52740D01*
X155154Y52695D01*
X155142Y52662D01*
X155137Y52656D01*
X155131Y52645D01*
X155109Y52629D01*
X155081Y52623D01*
X152767D01*
X152750Y52629D01*
X152728Y52640D01*
X152706Y52662D01*
Y52667D01*
X152700Y52690D01*
X152695Y52723D01*
X152689Y52779D01*
Y52784D01*
Y52790D01*
Y52823D01*
X152695Y52867D01*
X152706Y52901D01*
X152711Y52906D01*
X152723Y52923D01*
X152745Y52934D01*
X152773Y52939D01*
X155087D01*
X155104Y52934D01*
D02*
G37*
%LPC*%
G36*
X150536Y51847D02*
X150467D01*
X150444Y51842D01*
X150416D01*
X150342Y51824D01*
X150305Y51815D01*
X150268Y51796D01*
X150264D01*
X150254Y51787D01*
X150236Y51778D01*
X150213Y51764D01*
X150167Y51722D01*
X150116Y51671D01*
Y51667D01*
X150107Y51657D01*
X150097Y51639D01*
X150083Y51621D01*
X150070Y51593D01*
X150056Y51560D01*
X150033Y51491D01*
Y51487D01*
X150028Y51473D01*
X150023Y51454D01*
X150019Y51431D01*
X150014Y51399D01*
X150010Y51367D01*
X150005Y51288D01*
Y51283D01*
Y51270D01*
Y51246D01*
X150010Y51214D01*
X150014Y51145D01*
X150028Y51071D01*
Y51066D01*
X150033Y51057D01*
X150037Y51038D01*
X150047Y51015D01*
X150070Y50960D01*
X150107Y50905D01*
X150111Y50900D01*
X150116Y50895D01*
X150130Y50881D01*
X150144Y50867D01*
X150190Y50835D01*
X150250Y50803D01*
X150254D01*
X150268Y50798D01*
X150287Y50794D01*
X150314Y50784D01*
X150347Y50780D01*
X150384Y50770D01*
X150430Y50766D01*
X150504D01*
X150532Y50770D01*
X150569D01*
X150610Y50775D01*
X150661Y50784D01*
X150763Y50807D01*
X150767D01*
X150786Y50817D01*
X150813Y50826D01*
X150846Y50840D01*
X150887Y50858D01*
X150924Y50877D01*
X151007Y50928D01*
Y50932D01*
Y50937D01*
Y50951D01*
Y50969D01*
Y51015D01*
X151003Y51075D01*
X150998Y51145D01*
X150994Y51214D01*
X150984Y51288D01*
X150970Y51357D01*
Y51367D01*
X150966Y51385D01*
X150957Y51417D01*
X150947Y51459D01*
X150934Y51505D01*
X150915Y51551D01*
X150892Y51597D01*
X150869Y51639D01*
X150864Y51644D01*
X150860Y51657D01*
X150841Y51676D01*
X150823Y51699D01*
X150772Y51755D01*
X150744Y51778D01*
X150707Y51796D01*
X150703Y51801D01*
X150689Y51805D01*
X150670Y51815D01*
X150647Y51824D01*
X150615Y51833D01*
X150578Y51838D01*
X150536Y51847D01*
D02*
G37*
G36*
X154191Y51838D02*
X154163D01*
X154131Y51833D01*
X154094Y51828D01*
X154048Y51819D01*
X154001Y51801D01*
X153955Y51782D01*
X153913Y51755D01*
X153909Y51750D01*
X153895Y51741D01*
X153876Y51722D01*
X153853Y51699D01*
X153826Y51667D01*
X153798Y51630D01*
X153770Y51588D01*
X153747Y51537D01*
X153743Y51533D01*
X153738Y51514D01*
X153729Y51482D01*
X153715Y51445D01*
X153701Y51399D01*
X153687Y51339D01*
X153673Y51279D01*
X153664Y51209D01*
Y51200D01*
X153659Y51177D01*
Y51140D01*
X153655Y51089D01*
X153650Y51029D01*
Y50960D01*
X153646Y50886D01*
Y50807D01*
Y50803D01*
Y50794D01*
Y50780D01*
Y50761D01*
Y50706D01*
X153650Y50637D01*
Y50558D01*
X153659Y50475D01*
X153664Y50392D01*
X153673Y50313D01*
Y50304D01*
X153678Y50281D01*
X153687Y50244D01*
X153696Y50198D01*
X153710Y50147D01*
X153724Y50091D01*
X153743Y50036D01*
X153766Y49985D01*
X153770Y49981D01*
X153779Y49967D01*
X153793Y49944D01*
X153812Y49916D01*
X153867Y49856D01*
X153895Y49823D01*
X153932Y49800D01*
X153937D01*
X153950Y49791D01*
X153973Y49782D01*
X154001Y49773D01*
X154038Y49763D01*
X154080Y49754D01*
X154126Y49749D01*
X154177Y49745D01*
X154218D01*
X154246Y49749D01*
X154311Y49759D01*
X154376Y49777D01*
X154380D01*
X154389Y49786D01*
X154408Y49791D01*
X154426Y49805D01*
X154477Y49837D01*
X154523Y49879D01*
X154528Y49883D01*
X154533Y49893D01*
X154546Y49907D01*
X154560Y49925D01*
X154588Y49976D01*
X154620Y50041D01*
Y50045D01*
X154630Y50059D01*
X154634Y50077D01*
X154643Y50101D01*
X154653Y50133D01*
X154666Y50165D01*
X154685Y50248D01*
Y50253D01*
X154690Y50267D01*
X154694Y50290D01*
X154699Y50322D01*
X154708Y50359D01*
X154713Y50401D01*
X154722Y50493D01*
Y50498D01*
Y50516D01*
X154727Y50544D01*
Y50577D01*
Y50618D01*
X154731Y50669D01*
Y50770D01*
Y50780D01*
Y50803D01*
Y50840D01*
Y50886D01*
X154727Y50941D01*
X154722Y50997D01*
X154713Y51117D01*
Y51122D01*
X154708Y51145D01*
Y51172D01*
X154703Y51209D01*
X154699Y51251D01*
X154690Y51293D01*
X154671Y51385D01*
Y51390D01*
X154666Y51403D01*
X154662Y51427D01*
X154653Y51454D01*
X154634Y51524D01*
X154602Y51588D01*
Y51593D01*
X154593Y51602D01*
X154583Y51621D01*
X154574Y51639D01*
X154542Y51685D01*
X154500Y51731D01*
X154496Y51736D01*
X154491Y51741D01*
X154477Y51750D01*
X154459Y51764D01*
X154417Y51787D01*
X154362Y51810D01*
X154357D01*
X154348Y51815D01*
X154334Y51819D01*
X154311Y51824D01*
X154260Y51833D01*
X154191Y51838D01*
D02*
G37*
G36*
X146388D02*
X146360D01*
X146327Y51833D01*
X146291Y51828D01*
X146244Y51819D01*
X146198Y51801D01*
X146152Y51782D01*
X146110Y51755D01*
X146106Y51750D01*
X146092Y51741D01*
X146073Y51722D01*
X146050Y51699D01*
X146022Y51667D01*
X145995Y51630D01*
X145967Y51588D01*
X145944Y51537D01*
X145939Y51533D01*
X145935Y51514D01*
X145925Y51482D01*
X145912Y51445D01*
X145898Y51399D01*
X145884Y51339D01*
X145870Y51279D01*
X145861Y51209D01*
Y51200D01*
X145856Y51177D01*
Y51140D01*
X145852Y51089D01*
X145847Y51029D01*
Y50960D01*
X145842Y50886D01*
Y50807D01*
Y50803D01*
Y50794D01*
Y50780D01*
Y50761D01*
Y50706D01*
X145847Y50637D01*
Y50558D01*
X145856Y50475D01*
X145861Y50392D01*
X145870Y50313D01*
Y50304D01*
X145875Y50281D01*
X145884Y50244D01*
X145893Y50198D01*
X145907Y50147D01*
X145921Y50091D01*
X145939Y50036D01*
X145963Y49985D01*
X145967Y49981D01*
X145976Y49967D01*
X145990Y49944D01*
X146009Y49916D01*
X146064Y49856D01*
X146092Y49823D01*
X146129Y49800D01*
X146133D01*
X146147Y49791D01*
X146170Y49782D01*
X146198Y49773D01*
X146235Y49763D01*
X146277Y49754D01*
X146323Y49749D01*
X146374Y49745D01*
X146415D01*
X146443Y49749D01*
X146508Y49759D01*
X146572Y49777D01*
X146577D01*
X146586Y49786D01*
X146605Y49791D01*
X146623Y49805D01*
X146674Y49837D01*
X146720Y49879D01*
X146725Y49883D01*
X146729Y49893D01*
X146743Y49907D01*
X146757Y49925D01*
X146785Y49976D01*
X146817Y50041D01*
Y50045D01*
X146826Y50059D01*
X146831Y50077D01*
X146840Y50101D01*
X146850Y50133D01*
X146863Y50165D01*
X146882Y50248D01*
Y50253D01*
X146887Y50267D01*
X146891Y50290D01*
X146896Y50322D01*
X146905Y50359D01*
X146910Y50401D01*
X146919Y50493D01*
Y50498D01*
Y50516D01*
X146923Y50544D01*
Y50577D01*
Y50618D01*
X146928Y50669D01*
Y50770D01*
Y50780D01*
Y50803D01*
Y50840D01*
Y50886D01*
X146923Y50941D01*
X146919Y50997D01*
X146910Y51117D01*
Y51122D01*
X146905Y51145D01*
Y51172D01*
X146900Y51209D01*
X146896Y51251D01*
X146887Y51293D01*
X146868Y51385D01*
Y51390D01*
X146863Y51403D01*
X146859Y51427D01*
X146850Y51454D01*
X146831Y51524D01*
X146799Y51588D01*
Y51593D01*
X146789Y51602D01*
X146780Y51621D01*
X146771Y51639D01*
X146739Y51685D01*
X146697Y51731D01*
X146692Y51736D01*
X146688Y51741D01*
X146674Y51750D01*
X146655Y51764D01*
X146614Y51787D01*
X146558Y51810D01*
X146554D01*
X146545Y51815D01*
X146531Y51819D01*
X146508Y51824D01*
X146457Y51833D01*
X146388Y51838D01*
D02*
G37*
G36*
X148888Y56264D02*
X148460D01*
Y55215D01*
X148921D01*
X148960Y55221D01*
X149048Y55232D01*
X149143Y55254D01*
X149148D01*
X149165Y55259D01*
X149187Y55270D01*
X149215Y55282D01*
X149282Y55315D01*
X149343Y55359D01*
X149348Y55365D01*
X149354Y55370D01*
X149370Y55387D01*
X149387Y55409D01*
X149426Y55459D01*
X149459Y55526D01*
Y55531D01*
X149465Y55542D01*
X149470Y55565D01*
X149481Y55592D01*
X149493Y55659D01*
X149498Y55737D01*
Y55742D01*
Y55770D01*
X149493Y55803D01*
X149487Y55842D01*
X149476Y55892D01*
X149465Y55948D01*
X149443Y55998D01*
X149415Y56047D01*
X149409Y56053D01*
X149398Y56070D01*
X149376Y56092D01*
X149348Y56120D01*
X149309Y56147D01*
X149265Y56181D01*
X149204Y56208D01*
X149137Y56231D01*
X149126Y56236D01*
X149099Y56242D01*
X149060Y56247D01*
X149004Y56253D01*
X148993D01*
X148971Y56258D01*
X148921D01*
X148888Y56264D01*
D02*
G37*
G36*
X162918Y56308D02*
X162885D01*
X162846Y56303D01*
X162801Y56297D01*
X162746Y56286D01*
X162690Y56264D01*
X162635Y56242D01*
X162585Y56208D01*
X162579Y56203D01*
X162563Y56192D01*
X162541Y56170D01*
X162513Y56142D01*
X162479Y56103D01*
X162446Y56059D01*
X162413Y56009D01*
X162385Y55948D01*
X162380Y55942D01*
X162374Y55920D01*
X162363Y55881D01*
X162346Y55836D01*
X162330Y55781D01*
X162313Y55709D01*
X162296Y55637D01*
X162285Y55554D01*
Y55542D01*
X162280Y55515D01*
Y55470D01*
X162274Y55409D01*
X162269Y55337D01*
Y55254D01*
X162263Y55165D01*
Y55071D01*
Y55065D01*
Y55054D01*
Y55037D01*
Y55015D01*
Y54949D01*
X162269Y54865D01*
Y54771D01*
X162280Y54671D01*
X162285Y54571D01*
X162296Y54477D01*
Y54466D01*
X162302Y54438D01*
X162313Y54394D01*
X162324Y54338D01*
X162341Y54277D01*
X162357Y54210D01*
X162380Y54144D01*
X162407Y54083D01*
X162413Y54077D01*
X162424Y54061D01*
X162441Y54033D01*
X162463Y54000D01*
X162529Y53927D01*
X162563Y53888D01*
X162607Y53861D01*
X162613D01*
X162629Y53850D01*
X162657Y53838D01*
X162690Y53827D01*
X162735Y53816D01*
X162785Y53805D01*
X162840Y53800D01*
X162901Y53794D01*
X162951D01*
X162985Y53800D01*
X163062Y53811D01*
X163140Y53833D01*
X163145D01*
X163157Y53844D01*
X163179Y53850D01*
X163201Y53866D01*
X163262Y53905D01*
X163318Y53955D01*
X163323Y53961D01*
X163329Y53972D01*
X163345Y53988D01*
X163362Y54011D01*
X163395Y54072D01*
X163434Y54149D01*
Y54155D01*
X163445Y54172D01*
X163451Y54194D01*
X163462Y54221D01*
X163473Y54260D01*
X163490Y54299D01*
X163512Y54399D01*
Y54405D01*
X163517Y54421D01*
X163523Y54449D01*
X163528Y54488D01*
X163540Y54532D01*
X163545Y54582D01*
X163556Y54693D01*
Y54699D01*
Y54721D01*
X163562Y54754D01*
Y54793D01*
Y54843D01*
X163567Y54904D01*
Y55026D01*
Y55037D01*
Y55065D01*
Y55110D01*
Y55165D01*
X163562Y55232D01*
X163556Y55298D01*
X163545Y55443D01*
Y55448D01*
X163540Y55476D01*
Y55509D01*
X163534Y55554D01*
X163528Y55603D01*
X163517Y55653D01*
X163495Y55764D01*
Y55770D01*
X163490Y55787D01*
X163484Y55814D01*
X163473Y55848D01*
X163451Y55931D01*
X163412Y56009D01*
Y56014D01*
X163401Y56025D01*
X163390Y56047D01*
X163379Y56070D01*
X163340Y56125D01*
X163290Y56181D01*
X163284Y56186D01*
X163279Y56192D01*
X163262Y56203D01*
X163240Y56220D01*
X163190Y56247D01*
X163123Y56275D01*
X163118D01*
X163107Y56281D01*
X163090Y56286D01*
X163062Y56292D01*
X163001Y56303D01*
X162918Y56308D01*
D02*
G37*
G36*
X146018Y56292D02*
X145974D01*
X145924Y56286D01*
X145863Y56281D01*
X145791Y56264D01*
X145719Y56247D01*
X145641Y56220D01*
X145569Y56186D01*
X145563Y56181D01*
X145541Y56170D01*
X145502Y56147D01*
X145463Y56114D01*
X145413Y56075D01*
X145363Y56031D01*
X145313Y55981D01*
X145269Y55920D01*
X145263Y55914D01*
X145252Y55892D01*
X145230Y55853D01*
X145208Y55809D01*
X145180Y55753D01*
X145152Y55681D01*
X145130Y55609D01*
X145108Y55526D01*
Y55515D01*
X145102Y55487D01*
X145097Y55443D01*
X145086Y55387D01*
X145080Y55315D01*
X145069Y55237D01*
X145064Y55148D01*
Y55060D01*
Y55054D01*
Y55049D01*
Y55015D01*
Y54960D01*
X145069Y54893D01*
X145075Y54815D01*
X145080Y54732D01*
X145108Y54554D01*
Y54543D01*
X145119Y54516D01*
X145130Y54471D01*
X145141Y54421D01*
X145164Y54360D01*
X145191Y54294D01*
X145219Y54227D01*
X145258Y54160D01*
X145263Y54155D01*
X145280Y54133D01*
X145302Y54105D01*
X145335Y54066D01*
X145380Y54022D01*
X145424Y53983D01*
X145485Y53939D01*
X145546Y53900D01*
X145557Y53894D01*
X145580Y53888D01*
X145619Y53872D01*
X145674Y53855D01*
X145741Y53838D01*
X145818Y53827D01*
X145902Y53816D01*
X146002Y53811D01*
X146046D01*
X146096Y53816D01*
X146157Y53822D01*
X146229Y53833D01*
X146301Y53855D01*
X146379Y53877D01*
X146451Y53911D01*
X146462Y53916D01*
X146484Y53927D01*
X146518Y53949D01*
X146562Y53983D01*
X146607Y54022D01*
X146656Y54066D01*
X146706Y54116D01*
X146751Y54177D01*
X146756Y54183D01*
X146767Y54210D01*
X146790Y54244D01*
X146812Y54294D01*
X146840Y54349D01*
X146867Y54416D01*
X146890Y54493D01*
X146912Y54577D01*
Y54588D01*
X146917Y54615D01*
X146928Y54660D01*
X146940Y54721D01*
X146945Y54793D01*
X146956Y54876D01*
X146962Y54960D01*
Y55054D01*
Y55060D01*
Y55065D01*
Y55098D01*
Y55148D01*
X146956Y55215D01*
X146951Y55287D01*
X146940Y55370D01*
X146912Y55542D01*
Y55554D01*
X146901Y55581D01*
X146890Y55626D01*
X146878Y55676D01*
X146856Y55737D01*
X146828Y55803D01*
X146795Y55870D01*
X146756Y55936D01*
X146751Y55942D01*
X146740Y55964D01*
X146712Y55992D01*
X146679Y56031D01*
X146640Y56075D01*
X146590Y56120D01*
X146534Y56159D01*
X146468Y56197D01*
X146462Y56203D01*
X146434Y56214D01*
X146396Y56225D01*
X146346Y56247D01*
X146279Y56264D01*
X146201Y56275D01*
X146113Y56286D01*
X146018Y56292D01*
D02*
G37*
%LPD*%
D10*
X163913Y8000D02*
G03*
X163913Y8000I-6693J0D01*
G01*
Y104500D02*
G03*
X163913Y104500I-6693J0D01*
G01*
X38193Y8000D02*
G03*
X38193Y8000I-6693J0D01*
G01*
Y104500D02*
G03*
X38193Y104500I-6693J0D01*
G01*
X106642Y85547D02*
G03*
X106642Y91453I-2932J2953D01*
G01*
X96799D02*
G03*
X96799Y85547I2902J-2953D01*
G01*
X103736Y104000D02*
G03*
X105705Y104000I984J124D01*
G01*
X121721Y53984D02*
G03*
X121721Y52016I124J-984D01*
G01*
X103295Y96000D02*
G03*
X100146Y96000I-1575J-199D01*
G01*
X102898Y14622D02*
Y18953D01*
X105654D01*
X112346D02*
X115102D01*
Y14622D02*
Y18953D01*
X107819Y10095D02*
X110181D01*
X103098Y85547D02*
X106642D01*
X103098Y91453D02*
X106642D01*
X96799Y85547D02*
X100343D01*
X96799Y91453D02*
X100343D01*
X98618Y106953D02*
X103342D01*
X98618Y101047D02*
Y106953D01*
Y101047D02*
X103342D01*
X106098Y106953D02*
X110823D01*
Y101047D02*
Y106953D01*
X106098Y101047D02*
X110823D01*
X124673Y54378D02*
Y59102D01*
X118768D02*
X124673D01*
X118768Y54378D02*
Y59102D01*
X124673Y46898D02*
Y51622D01*
X118768Y46898D02*
X124673D01*
X118768D02*
Y51622D01*
X103689Y92063D02*
X108807D01*
Y99937D01*
X103689D02*
X108807D01*
X94634Y92063D02*
X99752D01*
X94634D02*
Y99937D01*
X99752D01*
X45630Y35299D02*
X71811Y35299D01*
X45630Y31756D02*
Y35299D01*
X71811Y31756D02*
Y35299D01*
X45630Y22701D02*
Y26244D01*
X71811Y22701D02*
Y26244D01*
X45630Y22701D02*
X71811Y22701D01*
X938Y92920D02*
X24207D01*
X927Y100510D02*
X24238D01*
X927Y19930D02*
X24238D01*
X927Y12490D02*
Y100510D01*
X24238Y12530D02*
Y100510D01*
X927Y12490D02*
X24238D01*
D11*
X120610Y5339D02*
G03*
X120610Y5339I-591J0D01*
G01*
X113279Y41677D02*
G03*
X113279Y41677I-591J0D01*
G01*
D12*
X81398Y27661D02*
G03*
X82264Y28528I0J866D01*
G01*
X77736D02*
G03*
X78602Y27661I866J0D01*
G01*
X82264Y34472D02*
G03*
X81398Y35339I-866J0D01*
G01*
X78602D02*
G03*
X77736Y34472I0J-866D01*
G01*
X38898Y29161D02*
G03*
X39764Y30028I0J866D01*
G01*
X35236D02*
G03*
X36102Y29161I866J0D01*
G01*
X39764Y35972D02*
G03*
X38898Y36839I-866J0D01*
G01*
X36102D02*
G03*
X35236Y35972I0J-866D01*
G01*
X46559Y94898D02*
G03*
X45693Y95764I-866J0D01*
G01*
Y91236D02*
G03*
X46559Y92102I0J866D01*
G01*
X39748Y95764D02*
G03*
X38882Y94898I0J-866D01*
G01*
Y92102D02*
G03*
X39748Y91236I866J0D01*
G01*
X90898Y87161D02*
G03*
X91764Y88028I0J866D01*
G01*
X87236D02*
G03*
X88102Y87161I866J0D01*
G01*
X91764Y93972D02*
G03*
X90898Y94839I-866J0D01*
G01*
X88102D02*
G03*
X87236Y93972I0J-866D01*
G01*
X114108Y63951D02*
G03*
X114974Y64818I0J866D01*
G01*
X110446D02*
G03*
X111312Y63951I866J0D01*
G01*
X114974Y70762D02*
G03*
X114108Y71629I-866J0D01*
G01*
X111312D02*
G03*
X110446Y70762I0J-866D01*
G01*
X97382Y80602D02*
G03*
X98248Y79736I866J0D01*
G01*
Y84264D02*
G03*
X97382Y83398I0J-866D01*
G01*
X104193Y79736D02*
G03*
X105059Y80602I0J866D01*
G01*
Y83398D02*
G03*
X104193Y84264I-866J0D01*
G01*
X122323Y106339D02*
G03*
X121457Y105472I0J-866D01*
G01*
X125984D02*
G03*
X125118Y106339I-866J0D01*
G01*
X121457Y99528D02*
G03*
X122323Y98661I866J0D01*
G01*
X125118D02*
G03*
X125984Y99528I0J866D01*
G01*
X147602Y77839D02*
G03*
X146736Y76972I0J-866D01*
G01*
X151264D02*
G03*
X150398Y77839I-866J0D01*
G01*
X146736Y71028D02*
G03*
X147602Y70161I866J0D01*
G01*
X150398D02*
G03*
X151264Y71028I0J866D01*
G01*
X133602Y81839D02*
G03*
X132736Y80972I0J-866D01*
G01*
X137264D02*
G03*
X136398Y81839I-866J0D01*
G01*
X132736Y75028D02*
G03*
X133602Y74161I866J0D01*
G01*
X136398D02*
G03*
X137264Y75028I0J866D01*
G01*
X145898Y74161D02*
G03*
X146764Y75028I0J866D01*
G01*
X142236D02*
G03*
X143102Y74161I866J0D01*
G01*
X146764Y80972D02*
G03*
X145898Y81839I-866J0D01*
G01*
X143102D02*
G03*
X142236Y80972I0J-866D01*
G01*
X97382Y75602D02*
G03*
X98248Y74736I866J0D01*
G01*
Y79264D02*
G03*
X97382Y78398I0J-866D01*
G01*
X104193Y74736D02*
G03*
X105059Y75602I0J866D01*
G01*
Y78398D02*
G03*
X104193Y79264I-866J0D01*
G01*
X119108Y63951D02*
G03*
X119974Y64818I0J866D01*
G01*
X115446D02*
G03*
X116312Y63951I866J0D01*
G01*
X119974Y70762D02*
G03*
X119108Y71629I-866J0D01*
G01*
X116312D02*
G03*
X115446Y70762I0J-866D01*
G01*
X136608Y63951D02*
G03*
X137474Y64818I0J866D01*
G01*
X132946D02*
G03*
X133812Y63951I866J0D01*
G01*
X137474Y70762D02*
G03*
X136608Y71629I-866J0D01*
G01*
X133812D02*
G03*
X132946Y70762I0J-866D01*
G01*
X147602Y69839D02*
G03*
X146736Y68972I0J-866D01*
G01*
X151264D02*
G03*
X150398Y69839I-866J0D01*
G01*
X146736Y63028D02*
G03*
X147602Y62161I866J0D01*
G01*
X150398D02*
G03*
X151264Y63028I0J866D01*
G01*
X117323Y106339D02*
G03*
X116457Y105472I0J-866D01*
G01*
X120984D02*
G03*
X120118Y106339I-866J0D01*
G01*
X116457Y99528D02*
G03*
X117323Y98661I866J0D01*
G01*
X120118D02*
G03*
X120984Y99528I0J866D01*
G01*
X145618Y87161D02*
G03*
X146484Y88028I0J866D01*
G01*
X141957D02*
G03*
X142823Y87161I866J0D01*
G01*
X146484Y93972D02*
G03*
X145618Y94839I-866J0D01*
G01*
X142823D02*
G03*
X141957Y93972I0J-866D01*
G01*
X142823Y102839D02*
G03*
X141957Y101972I0J-866D01*
G01*
X146484D02*
G03*
X145618Y102839I-866J0D01*
G01*
X141957Y96028D02*
G03*
X142823Y95161I866J0D01*
G01*
X145618D02*
G03*
X146484Y96028I0J866D01*
G01*
X101339Y47898D02*
G03*
X100472Y48764I-866J0D01*
G01*
Y44236D02*
G03*
X101339Y45102I0J866D01*
G01*
X94528Y48764D02*
G03*
X93661Y47898I0J-866D01*
G01*
Y45102D02*
G03*
X94528Y44236I866J0D01*
G01*
X98469Y1890D02*
G03*
X100043Y3465I-0J1575D01*
G01*
Y6535D02*
G03*
X98469Y8110I-1575J0D01*
G01*
X89531Y8110D02*
G03*
X87957Y6535I0J-1575D01*
G01*
X87957Y3465D02*
G03*
X89531Y1890I1575J0D01*
G01*
X91252Y29110D02*
G03*
X89677Y27535I0J-1575D01*
G01*
Y24465D02*
G03*
X91252Y22890I1575J0D01*
G01*
X100189Y22890D02*
G03*
X101764Y24465I-0J1575D01*
G01*
X101764Y27535D02*
G03*
X100189Y29110I-1575J0D01*
G01*
X76618Y27661D02*
G03*
X77484Y28528I0J866D01*
G01*
X72957D02*
G03*
X73823Y27661I866J0D01*
G01*
X77484Y34472D02*
G03*
X76618Y35339I-866J0D01*
G01*
X73823D02*
G03*
X72957Y34472I0J-866D01*
G01*
X48882Y17602D02*
G03*
X49748Y16736I866J0D01*
G01*
Y21264D02*
G03*
X48882Y20398I0J-866D01*
G01*
X55693Y16736D02*
G03*
X56559Y17602I0J866D01*
G01*
Y20398D02*
G03*
X55693Y21264I-866J0D01*
G01*
X66059Y20398D02*
G03*
X65193Y21264I-866J0D01*
G01*
Y16736D02*
G03*
X66059Y17602I0J866D01*
G01*
X59248Y21264D02*
G03*
X58382Y20398I0J-866D01*
G01*
Y17602D02*
G03*
X59248Y16736I866J0D01*
G01*
X114323Y54339D02*
G03*
X113457Y53472I0J-866D01*
G01*
X117984D02*
G03*
X117118Y54339I-866J0D01*
G01*
X113457Y47528D02*
G03*
X114323Y46661I866J0D01*
G01*
X117118D02*
G03*
X117984Y47528I0J866D01*
G01*
X129118Y46661D02*
G03*
X129984Y47528I0J866D01*
G01*
X125457D02*
G03*
X126323Y46661I866J0D01*
G01*
X129984Y53472D02*
G03*
X129118Y54339I-866J0D01*
G01*
X126323D02*
G03*
X125457Y53472I0J-866D01*
G01*
X134118Y46661D02*
G03*
X134984Y47528I0J866D01*
G01*
X130457D02*
G03*
X131323Y46661I866J0D01*
G01*
X134984Y53472D02*
G03*
X134118Y54339I-866J0D01*
G01*
X131323D02*
G03*
X130457Y53472I0J-866D01*
G01*
X148898Y25161D02*
G03*
X149764Y26028I0J866D01*
G01*
X145236D02*
G03*
X146102Y25161I866J0D01*
G01*
X149764Y31972D02*
G03*
X148898Y32839I-866J0D01*
G01*
X146102D02*
G03*
X145236Y31972I0J-866D01*
G01*
X146102Y24839D02*
G03*
X145236Y23972I0J-866D01*
G01*
X149764D02*
G03*
X148898Y24839I-866J0D01*
G01*
X145236Y18028D02*
G03*
X146102Y17161I866J0D01*
G01*
X148898D02*
G03*
X149764Y18028I0J866D01*
G01*
X136602Y28839D02*
G03*
X135736Y27972I0J-866D01*
G01*
X140264D02*
G03*
X139398Y28839I-866J0D01*
G01*
X135736Y22028D02*
G03*
X136602Y21161I866J0D01*
G01*
X139398D02*
G03*
X140264Y22028I0J866D01*
G01*
X141102Y24839D02*
G03*
X140236Y23972I0J-866D01*
G01*
X144764D02*
G03*
X143898Y24839I-866J0D01*
G01*
X140236Y18028D02*
G03*
X141102Y17161I866J0D01*
G01*
X143898D02*
G03*
X144764Y18028I0J866D01*
G01*
X128339Y5898D02*
G03*
X127472Y6764I-866J0D01*
G01*
Y2236D02*
G03*
X128339Y3102I0J866D01*
G01*
X121528Y6764D02*
G03*
X120661Y5898I0J-866D01*
G01*
Y3102D02*
G03*
X121528Y2236I866J0D01*
G01*
X137602Y14839D02*
G03*
X136736Y13972I0J-866D01*
G01*
X141264D02*
G03*
X140398Y14839I-866J0D01*
G01*
X136736Y8028D02*
G03*
X137602Y7161I866J0D01*
G01*
X140398D02*
G03*
X141264Y8028I0J866D01*
G01*
X157231Y66336D02*
G03*
X157235Y70669I3269J2164D01*
G01*
X156731Y23836D02*
G03*
X156735Y28169I3269J2164D01*
G01*
X44764Y34181D02*
Y36839D01*
Y29161D02*
Y31819D01*
X40236Y34181D02*
Y36839D01*
Y29161D02*
Y31819D01*
Y36839D02*
X44764D01*
X40236Y29161D02*
X44764D01*
X78602Y27661D02*
X81398D01*
X82264Y28547D02*
Y30319D01*
X77736Y28547D02*
Y30319D01*
X82264Y32681D02*
Y34453D01*
X77736Y32681D02*
Y34453D01*
X78602Y35339D02*
X81398D01*
X105161Y2236D02*
Y6764D01*
X112839Y2236D02*
Y6764D01*
X105161D02*
X107819D01*
X110181D02*
X112839D01*
X105161Y2236D02*
X107819D01*
X110181D02*
X112839D01*
X93661Y31236D02*
Y35764D01*
X101339Y31236D02*
Y35764D01*
X93661D02*
X96319D01*
X98681D02*
X101339D01*
X93661Y31236D02*
X96319D01*
X98681D02*
X101339D01*
X102236Y35161D02*
X106764D01*
X102236Y42839D02*
X106764D01*
X102236Y35161D02*
Y37819D01*
Y40181D02*
Y42839D01*
X106764Y35161D02*
Y37819D01*
Y40181D02*
Y42839D01*
X93661Y36236D02*
Y40764D01*
X101339Y36236D02*
Y40764D01*
X93661D02*
X96319D01*
X98681D02*
X101339D01*
X93661Y36236D02*
X96319D01*
X98681D02*
X101339D01*
X36102Y29161D02*
X38898D01*
X39764Y30047D02*
Y31819D01*
X35236Y30047D02*
Y31819D01*
X39764Y34181D02*
Y35953D01*
X35236Y34181D02*
Y35953D01*
X36102Y36839D02*
X38898D01*
X46559Y92102D02*
Y94898D01*
X43902Y95764D02*
X45673D01*
X43902Y91236D02*
X45673D01*
X39768Y95764D02*
X41539D01*
X39768Y91236D02*
X41539D01*
X38882Y92102D02*
Y94898D01*
X88102Y87161D02*
X90898D01*
X91764Y88047D02*
Y89819D01*
X87236Y88047D02*
Y89819D01*
X91764Y92181D02*
Y93953D01*
X87236Y92181D02*
Y93953D01*
X88102Y94839D02*
X90898D01*
X111312Y63951D02*
X114108D01*
X114974Y64837D02*
Y66609D01*
X110446Y64837D02*
Y66609D01*
X114974Y68971D02*
Y70743D01*
X110446Y68971D02*
Y70743D01*
X111312Y71629D02*
X114108D01*
X97382Y80602D02*
Y83398D01*
X98268Y79736D02*
X100039D01*
X98268Y84264D02*
X100039D01*
X102402Y79736D02*
X104173D01*
X102401Y84264D02*
X104173D01*
X105059Y80602D02*
Y83398D01*
X122323Y106339D02*
X125118D01*
X121457Y103681D02*
Y105453D01*
X125984Y103681D02*
Y105453D01*
X121457Y99547D02*
Y101319D01*
X125984Y99547D02*
Y101319D01*
X122323Y98661D02*
X125118D01*
X147602Y77839D02*
X150398D01*
X146736Y75181D02*
Y76953D01*
X151264Y75181D02*
Y76953D01*
X146736Y71047D02*
Y72819D01*
X151264Y71047D02*
Y72819D01*
X147602Y70161D02*
X150398D01*
X133602Y81839D02*
X136398D01*
X132736Y79181D02*
Y80953D01*
X137264Y79181D02*
Y80953D01*
X132736Y75047D02*
Y76819D01*
X137264Y75047D02*
Y76819D01*
X133602Y74161D02*
X136398D01*
X143102Y74161D02*
X145898D01*
X146764Y75047D02*
Y76819D01*
X142236Y75047D02*
Y76819D01*
X146764Y79181D02*
Y80953D01*
X142236Y79181D02*
Y80953D01*
X143102Y81839D02*
X145898D01*
X97382Y75602D02*
Y78398D01*
X98268Y74736D02*
X100039D01*
X98268Y79264D02*
X100039D01*
X102402Y74736D02*
X104173D01*
X102401Y79264D02*
X104173D01*
X105059Y75602D02*
Y78398D01*
X116312Y63951D02*
X119108D01*
X119974Y64837D02*
Y66609D01*
X115446Y64837D02*
Y66609D01*
X119974Y68971D02*
Y70743D01*
X115446Y68971D02*
Y70743D01*
X116312Y71629D02*
X119108D01*
X133812Y63951D02*
X136608D01*
X137474Y64837D02*
Y66609D01*
X132946Y64837D02*
Y66609D01*
X137474Y68971D02*
Y70743D01*
X132946Y68971D02*
Y70743D01*
X133812Y71629D02*
X136608D01*
X147602Y69839D02*
X150398D01*
X146736Y67181D02*
Y68953D01*
X151264Y67181D02*
Y68953D01*
X146736Y63047D02*
Y64819D01*
X151264Y63047D02*
Y64819D01*
X147602Y62161D02*
X150398D01*
X117323Y106339D02*
X120118D01*
X116457Y103681D02*
Y105453D01*
X120984Y103681D02*
Y105453D01*
X116457Y99547D02*
Y101319D01*
X120984Y99547D02*
Y101319D01*
X117323Y98661D02*
X120118D01*
X142823Y87161D02*
X145618D01*
X146484Y88047D02*
Y89819D01*
X141957Y88047D02*
Y89819D01*
X146484Y92181D02*
Y93953D01*
X141957Y92181D02*
Y93953D01*
X142823Y94839D02*
X145618D01*
X142823Y102839D02*
X145618D01*
X141957Y100181D02*
Y101953D01*
X146484Y100181D02*
Y101953D01*
X141957Y96047D02*
Y97819D01*
X146484Y96047D02*
Y97819D01*
X142823Y95161D02*
X145618D01*
X101339Y45102D02*
Y47898D01*
X98681Y48764D02*
X100453D01*
X98681Y44236D02*
X100453D01*
X94547Y48764D02*
X96319D01*
X94547Y44236D02*
X96319D01*
X93661Y45102D02*
Y47898D01*
X95575Y8110D02*
X98469D01*
X89531Y8110D02*
X92425D01*
X89531Y1890D02*
X92425D01*
X100043Y3465D02*
Y6535D01*
X87957Y3465D02*
Y6535D01*
X95575Y1890D02*
X98469D01*
X91252Y22890D02*
X94146D01*
X97295Y22890D02*
X100189D01*
X97295Y29110D02*
X100189D01*
X89677Y24465D02*
Y27535D01*
X101764Y24465D02*
Y27535D01*
X91252Y29110D02*
X94146D01*
X73823Y27661D02*
X76618D01*
X77484Y28547D02*
Y30319D01*
X72957Y28547D02*
Y30319D01*
X77484Y32681D02*
Y34453D01*
X72957Y32681D02*
Y34453D01*
X73823Y35339D02*
X76618D01*
X48882Y17602D02*
Y20398D01*
X49768Y16736D02*
X51539D01*
X49768Y21264D02*
X51539D01*
X53902Y16736D02*
X55673D01*
X53901Y21264D02*
X55673D01*
X56559Y17602D02*
Y20398D01*
X66059Y17602D02*
Y20398D01*
X63402Y21264D02*
X65173D01*
X63402Y16736D02*
X65173D01*
X59268Y21264D02*
X61039D01*
X59268Y16736D02*
X61039D01*
X58382Y17602D02*
Y20398D01*
X114323Y54339D02*
X117118D01*
X113457Y51681D02*
Y53453D01*
X117984Y51681D02*
Y53453D01*
X113457Y47547D02*
Y49319D01*
X117984Y47547D02*
Y49319D01*
X114323Y46661D02*
X117118D01*
X126323Y46661D02*
X129118D01*
X129984Y47547D02*
Y49319D01*
X125457Y47547D02*
Y49319D01*
X129984Y51681D02*
Y53453D01*
X125457Y51681D02*
Y53453D01*
X126323Y54339D02*
X129118D01*
X131323Y46661D02*
X134118D01*
X134984Y47547D02*
Y49319D01*
X130457Y47547D02*
Y49319D01*
X134984Y51681D02*
Y53453D01*
X130457Y51681D02*
Y53453D01*
X131323Y54339D02*
X134118D01*
X146102Y25161D02*
X148898D01*
X149764Y26047D02*
Y27819D01*
X145236Y26047D02*
Y27819D01*
X149764Y30181D02*
Y31953D01*
X145236Y30181D02*
Y31953D01*
X146102Y32839D02*
X148898D01*
X146102Y24839D02*
X148898D01*
X145236Y22181D02*
Y23953D01*
X149764Y22181D02*
Y23953D01*
X145236Y18047D02*
Y19819D01*
X149764Y18047D02*
Y19819D01*
X146102Y17161D02*
X148898D01*
X136602Y28839D02*
X139398D01*
X135736Y26181D02*
Y27953D01*
X140264Y26181D02*
Y27953D01*
X135736Y22047D02*
Y23819D01*
X140264Y22047D02*
Y23819D01*
X136602Y21161D02*
X139398D01*
X141102Y24839D02*
X143898D01*
X140236Y22181D02*
Y23953D01*
X144764Y22181D02*
Y23953D01*
X140236Y18047D02*
Y19819D01*
X144764Y18047D02*
Y19819D01*
X141102Y17161D02*
X143898D01*
X128339Y3102D02*
Y5898D01*
X125681Y6764D02*
X127453D01*
X125681Y2236D02*
X127453D01*
X121547Y6764D02*
X123319D01*
X121547Y2236D02*
X123319D01*
X120661Y3102D02*
Y5898D01*
X137602Y14839D02*
X140398D01*
X136736Y12181D02*
Y13953D01*
X141264Y12181D02*
Y13953D01*
X136736Y8047D02*
Y9819D01*
X141264Y8047D02*
Y9819D01*
X137602Y7161D02*
X140398D01*
X132882Y81736D02*
X140559D01*
X132882D02*
Y86264D01*
X140559D01*
Y81736D02*
Y86264D01*
X137236Y74161D02*
Y81839D01*
X141764D01*
Y74161D02*
Y81839D01*
X137236Y74161D02*
X141764D01*
X140382Y37264D02*
X148059D01*
Y32736D02*
Y37264D01*
X140382Y32736D02*
X148059D01*
X140382D02*
Y37264D01*
X140264Y29161D02*
Y36839D01*
X135736Y29161D02*
X140264D01*
X135736D02*
Y36839D01*
X140264D01*
X144984Y25161D02*
Y32839D01*
X140457Y25161D02*
X144984D01*
X140457D02*
Y32839D01*
X144984D01*
X51720Y1276D02*
Y2500D01*
X47221Y1276D02*
Y2500D01*
X71720Y1276D02*
Y2500D01*
X76221D01*
Y1276D02*
Y2500D01*
X83374Y1276D02*
Y15500D01*
X40067Y1276D02*
X83374D01*
X40067D02*
Y15500D01*
X83374D01*
X47221Y2500D02*
X51720D01*
X54220Y96776D02*
Y98000D01*
X49720Y96776D02*
Y98000D01*
X74221Y96776D02*
Y98000D01*
X78720D01*
Y96776D02*
Y98000D01*
X85874Y96776D02*
Y111000D01*
X42567Y96776D02*
X85874D01*
X42567D02*
Y111000D01*
X85874D01*
X49720Y98000D02*
X54220D01*
X155579Y63579D02*
Y73421D01*
X165421D01*
Y63579D02*
Y73421D01*
X155579Y63579D02*
X165421D01*
X155079Y21079D02*
Y30921D01*
X164921D01*
Y21079D02*
Y30921D01*
X155079Y21079D02*
X164921D01*
X72957Y26839D02*
X77484D01*
X72957Y19161D02*
X77484D01*
Y24181D02*
Y26839D01*
Y19161D02*
Y21819D01*
X72957Y24181D02*
Y26839D01*
Y19161D02*
Y21819D01*
X39957Y28339D02*
X44484D01*
X39957Y20661D02*
X44484D01*
Y25681D02*
Y28339D01*
Y20661D02*
Y23319D01*
X39957Y25681D02*
Y28339D01*
Y20661D02*
Y23319D01*
X77957Y26839D02*
X82484D01*
X77957Y19161D02*
X82484D01*
Y24181D02*
Y26839D01*
Y19161D02*
Y21819D01*
X77957Y24181D02*
Y26839D01*
Y19161D02*
Y21819D01*
X97382Y69736D02*
Y74264D01*
X105059Y69736D02*
Y74264D01*
X97382D02*
X100039D01*
X102402D02*
X105059D01*
X97382Y69736D02*
X100039D01*
X102402D02*
X105059D01*
X142236Y66161D02*
X146764D01*
X142236Y73839D02*
X146764D01*
X142236Y66161D02*
Y68819D01*
Y71181D02*
Y73839D01*
X146764Y66161D02*
Y68819D01*
Y71181D02*
Y73839D01*
X135457Y46661D02*
X139984D01*
X135457Y54339D02*
X139984D01*
X135457Y46661D02*
Y49319D01*
Y51681D02*
Y54339D01*
X139984Y46661D02*
Y49319D01*
Y51681D02*
Y54339D01*
X128661Y2236D02*
Y6764D01*
X136339Y2236D02*
Y6764D01*
X128661D02*
X131319D01*
X133681D02*
X136339D01*
X128661Y2236D02*
X131319D01*
X133681D02*
X136339D01*
X114756Y25535D02*
X117217D01*
X114756D02*
Y27996D01*
X129224Y25535D02*
X131685D01*
Y27996D01*
Y40004D02*
Y42465D01*
X129224D02*
X131685D01*
X114756D02*
X117217D01*
X114756Y40004D02*
Y42465D01*
X89957Y18354D02*
Y21602D01*
X95468D01*
X89957Y9398D02*
Y12646D01*
Y9398D02*
X95468D01*
D13*
X45382Y42748D02*
G03*
X45382Y42748I-1409J0D01*
G01*
D14*
X52398Y81573D02*
G03*
X48972Y78148I0J-3425D01*
G01*
Y50358D02*
G03*
X52083Y47248I3110J0D01*
G01*
X79651D02*
G03*
X82486Y50083I0J2834D01*
G01*
X82301Y78423D02*
G03*
X79151Y81573I-3150J0D01*
G01*
X48972Y49770D02*
Y78148D01*
X51898Y81573D02*
X79151D01*
X52083Y47248D02*
X79651D01*
X82486Y49495D02*
Y78423D01*
D15*
X99799Y8315D02*
G03*
X99799Y8315I-492J0D01*
G01*
D16*
X119232Y7307D02*
X135768D01*
X119232D02*
Y20693D01*
X135768Y7307D02*
Y20693D01*
X119232D02*
X135768D01*
D17*
X42035Y14000D02*
X81406D01*
X42035D02*
Y15500D01*
X81406D01*
Y14000D02*
Y15500D01*
X44535Y109500D02*
X83906D01*
X44535D02*
Y111000D01*
X83906D01*
Y109500D02*
Y111000D01*
D18*
X128382Y77626D02*
Y78610D01*
X111256Y77035D02*
X112831D01*
X111256D02*
Y78610D01*
Y92390D02*
Y93965D01*
X112831D01*
X126610D02*
X128185D01*
Y92390D02*
Y93965D01*
X126610Y77035D02*
X127791D01*
X128382Y77626D01*
D19*
X132220Y102921D02*
X141220D01*
X132220Y86921D02*
Y102921D01*
Y86921D02*
X141220D01*
Y102921D01*
X120710Y71790D02*
X132210D01*
Y62290D02*
Y71790D01*
X120710Y62290D02*
X132210D01*
X120710D02*
Y71790D01*
M02*
