G04*
G04 #@! TF.GenerationSoftware,Altium Limited,Altium Designer,19.1.2 (11)*
G04*
G04 Layer_Physical_Order=2*
G04 Layer_Color=8421376*
%FSLAX25Y25*%
%MOIN*%
G70*
G01*
G75*
%ADD16C,0.00800*%
%ADD19C,0.00600*%
%ADD86C,0.01500*%
%ADD88C,0.01200*%
%ADD89C,0.02000*%
%ADD93R,0.03150X0.04724*%
%ADD94O,0.03150X0.04724*%
%ADD95C,0.02000*%
%ADD96C,0.02500*%
%ADD97R,0.03500X0.04500*%
%ADD98R,0.09500X0.05500*%
G36*
X155494Y110096D02*
X155377Y109506D01*
X154532Y109156D01*
X153419Y108302D01*
X152564Y107188D01*
X152027Y105892D01*
X151844Y104500D01*
X152027Y103108D01*
X152564Y101812D01*
X153419Y100698D01*
X154532Y99844D01*
X155829Y99306D01*
X157220Y99123D01*
X158612Y99306D01*
X159909Y99844D01*
X161022Y100698D01*
X161877Y101812D01*
X162414Y103108D01*
X162597Y104500D01*
X162449Y105625D01*
X162933Y105780D01*
X163510Y104701D01*
X164023Y103010D01*
X164196Y101251D01*
X164188Y101164D01*
X164155Y101000D01*
Y11065D01*
X164211Y10781D01*
X164091Y9558D01*
X163578Y7868D01*
X162923Y6641D01*
X162439Y6797D01*
X162597Y8000D01*
X162414Y9392D01*
X161877Y10688D01*
X161022Y11802D01*
X159909Y12656D01*
X158612Y13194D01*
X157220Y13377D01*
X155829Y13194D01*
X154532Y12656D01*
X153419Y11802D01*
X152564Y10688D01*
X152027Y9392D01*
X151844Y8000D01*
X152027Y6608D01*
X152564Y5312D01*
X153419Y4198D01*
X154532Y3344D01*
X155719Y2852D01*
X155665Y2345D01*
X155252Y2304D01*
X155164Y2312D01*
X155000Y2345D01*
X79438D01*
X79059Y2638D01*
Y9362D01*
X78523D01*
Y26640D01*
X83370Y31487D01*
X83500Y31461D01*
X84280Y31616D01*
X84942Y32058D01*
X85384Y32720D01*
X85539Y33500D01*
X85513Y33630D01*
X96345Y44461D01*
X99155D01*
X101461Y42155D01*
Y27711D01*
X101174Y27520D01*
X101000D01*
X100610Y27442D01*
X100279Y27221D01*
X100058Y26890D01*
X99980Y26500D01*
Y22000D01*
X100058Y21610D01*
X100279Y21279D01*
X100610Y21058D01*
X101000Y20980D01*
X101776D01*
X102058Y20558D01*
X102720Y20116D01*
X103500Y19961D01*
X104280Y20116D01*
X104942Y20558D01*
X105384Y21220D01*
X105539Y22000D01*
X105520Y22098D01*
Y23276D01*
X105942Y23558D01*
X105970Y23600D01*
X106467Y23649D01*
X108058Y22058D01*
X108720Y21616D01*
X109500Y21461D01*
X114200D01*
X114980Y21616D01*
X115642Y22058D01*
X117442Y23858D01*
X117442Y23858D01*
X117884Y24520D01*
X118039Y25300D01*
Y53961D01*
X118500D01*
X119280Y54116D01*
X119942Y54558D01*
X120384Y55220D01*
X120539Y56000D01*
X120384Y56780D01*
X119942Y57442D01*
X119280Y57884D01*
X118500Y58039D01*
X116500D01*
X116500Y58039D01*
X116500Y58039D01*
X109985D01*
X106781Y61244D01*
X106972Y61706D01*
X111199D01*
X112077Y61881D01*
X112822Y62378D01*
X116427Y65984D01*
X126176D01*
X127054Y66158D01*
X127798Y66656D01*
X132821Y71679D01*
X133319Y72423D01*
X133493Y73301D01*
X133319Y74179D01*
X132821Y74923D01*
X132077Y75420D01*
X131199Y75595D01*
X130321Y75420D01*
X129577Y74923D01*
X125226Y70572D01*
X115825D01*
Y74539D01*
X115725Y75046D01*
X115437Y75476D01*
X112781Y78132D01*
X112809Y78269D01*
X112653Y79050D01*
X112211Y79711D01*
X111550Y80153D01*
X110769Y80309D01*
X110284Y80212D01*
X109784Y80572D01*
Y82124D01*
X109649Y82806D01*
X109262Y83385D01*
X107856Y84791D01*
X107821Y84967D01*
X107625Y85259D01*
Y86194D01*
X107490Y86877D01*
X107103Y87456D01*
X107103Y87456D01*
X100784Y93774D01*
Y96216D01*
X109640D01*
X109907Y95716D01*
X109616Y95280D01*
X109461Y94500D01*
X109616Y93720D01*
X110058Y93058D01*
X110720Y92616D01*
X111500Y92461D01*
X112280Y92616D01*
X112942Y93058D01*
X113384Y93720D01*
X113474Y94174D01*
X127500D01*
X128007Y94275D01*
X128437Y94563D01*
X129937Y96063D01*
X130225Y96493D01*
X130325Y97000D01*
Y98828D01*
X130225Y99336D01*
X129937Y99766D01*
X126766Y102937D01*
X126336Y103225D01*
X125828Y103325D01*
X100942D01*
X100805Y103606D01*
X100752Y103825D01*
X100942Y104110D01*
X101020Y104500D01*
Y110000D01*
X101147Y110155D01*
X155435D01*
X155494Y110096D01*
D02*
G37*
G36*
X79558Y74058D02*
X80220Y73616D01*
X81000Y73461D01*
X85155D01*
X90761Y67855D01*
Y49700D01*
X90916Y48920D01*
X91358Y48258D01*
X92866Y46750D01*
X81558Y35442D01*
X75042Y28926D01*
X74600Y28265D01*
X74445Y27484D01*
Y9362D01*
X73909D01*
Y8780D01*
X73409Y8611D01*
X73399Y8624D01*
X72990Y8938D01*
Y17700D01*
X73409Y18119D01*
X73409Y18119D01*
X73719Y18582D01*
X73827Y19128D01*
X73827Y19128D01*
Y29405D01*
X83435Y39012D01*
X83452Y39009D01*
X84232Y39164D01*
X84894Y39606D01*
X85336Y40268D01*
X85491Y41048D01*
X85336Y41828D01*
X84894Y42490D01*
X84232Y42932D01*
X83452Y43087D01*
X82672Y42932D01*
X82010Y42490D01*
X81568Y41828D01*
X81413Y41048D01*
X81416Y41031D01*
X72862Y32477D01*
X72400Y32668D01*
Y34401D01*
X84009Y46011D01*
X84009Y46011D01*
X84319Y46474D01*
X84427Y47020D01*
Y50548D01*
X84442Y50558D01*
X84884Y51220D01*
X85039Y52000D01*
X84884Y52780D01*
X84442Y53442D01*
X83780Y53884D01*
X83000Y54039D01*
X82220Y53884D01*
X81558Y53442D01*
X81116Y52780D01*
X80961Y52000D01*
X81116Y51220D01*
X81558Y50558D01*
X81573Y50548D01*
Y47611D01*
X79787Y45826D01*
X79325Y46018D01*
Y54000D01*
X79225Y54507D01*
X78937Y54937D01*
X64917Y68958D01*
Y77707D01*
X65442Y78058D01*
X65713Y78464D01*
X65965Y78489D01*
X66395Y78201D01*
X66902Y78101D01*
X68795D01*
X69302Y78201D01*
X69732Y78489D01*
X70904Y79660D01*
X71191Y80090D01*
X71292Y80598D01*
Y81617D01*
X71792Y81824D01*
X79558Y74058D01*
D02*
G37*
G36*
X11336Y110188D02*
X11500Y110155D01*
X29916D01*
X30015Y109655D01*
X28812Y109156D01*
X27698Y108302D01*
X26844Y107188D01*
X26307Y105892D01*
X26123Y104500D01*
X26307Y103108D01*
X26844Y101812D01*
X27698Y100698D01*
X28812Y99844D01*
X30108Y99306D01*
X31500Y99123D01*
X32892Y99306D01*
X34188Y99844D01*
X35302Y100698D01*
X36156Y101812D01*
X36694Y103108D01*
X36877Y104500D01*
X36694Y105892D01*
X36156Y107188D01*
X35302Y108302D01*
X34188Y109156D01*
X32985Y109655D01*
X33084Y110155D01*
X41736D01*
X41943Y109655D01*
X41058Y108770D01*
X40616Y108109D01*
X40461Y107328D01*
Y98500D01*
X40616Y97720D01*
X41058Y97058D01*
X45058Y93058D01*
X45720Y92616D01*
X46030Y92554D01*
X46136Y92023D01*
X45976Y91917D01*
X45534Y91256D01*
X45379Y90475D01*
X45534Y89695D01*
X45976Y89033D01*
X49952Y85058D01*
X49952Y85058D01*
X50613Y84616D01*
X51394Y84461D01*
X51394Y84461D01*
X55098D01*
X55289Y83999D01*
X52188Y80898D01*
X51802Y80319D01*
X51666Y79637D01*
Y76754D01*
X51166Y76547D01*
X45776Y81937D01*
X45346Y82225D01*
X44839Y82326D01*
X22020D01*
X21942Y82442D01*
X21280Y82884D01*
X20500Y83039D01*
X19720Y82884D01*
X19058Y82442D01*
X18616Y81780D01*
X18461Y81000D01*
X18616Y80220D01*
X18957Y79709D01*
X18558Y79442D01*
X18116Y78780D01*
X17961Y78000D01*
X18116Y77220D01*
X18558Y76558D01*
X18944Y76300D01*
Y75700D01*
X18558Y75442D01*
X18116Y74780D01*
X17961Y74000D01*
X18116Y73220D01*
X18558Y72558D01*
X19220Y72116D01*
X20000Y71961D01*
X20780Y72116D01*
X21442Y72558D01*
X21452Y72573D01*
X39909D01*
X45964Y66517D01*
X45961Y66500D01*
X46116Y65720D01*
X46558Y65058D01*
X47220Y64616D01*
X48000Y64461D01*
X48780Y64616D01*
X49442Y65058D01*
X49884Y65720D01*
X50039Y66500D01*
X49927Y67065D01*
X50270Y67477D01*
X50312Y67498D01*
X50500Y67461D01*
X51166Y67593D01*
X51666Y67318D01*
Y65689D01*
X46238Y60262D01*
X45851Y59683D01*
X45716Y59000D01*
Y55430D01*
X45616Y55280D01*
X45461Y54500D01*
X45616Y53720D01*
X45716Y53570D01*
Y49739D01*
X42761Y46784D01*
X37000D01*
X36317Y46648D01*
X35738Y46262D01*
X35738Y46262D01*
X31738Y42262D01*
X31352Y41683D01*
X31216Y41000D01*
Y36000D01*
X31352Y35317D01*
X31738Y34738D01*
X32581Y33896D01*
X32616Y33720D01*
X33058Y33058D01*
X33720Y32616D01*
X34500Y32461D01*
X35280Y32616D01*
X35942Y33058D01*
X36384Y33720D01*
X36539Y34500D01*
X36384Y35280D01*
X35942Y35942D01*
X35280Y36384D01*
X35250Y36501D01*
X35322Y36633D01*
X35642Y36989D01*
X36280Y37116D01*
X36942Y37558D01*
X37384Y38220D01*
X37539Y39000D01*
X37457Y39411D01*
X39721Y41675D01*
X44000D01*
X44507Y41775D01*
X44937Y42063D01*
X57437Y54563D01*
X57725Y54993D01*
X57825Y55500D01*
Y66647D01*
X58287Y66838D01*
X73674Y51451D01*
Y48888D01*
X73175Y48621D01*
X72780Y48884D01*
X72000Y49039D01*
X71220Y48884D01*
X70765Y49181D01*
X70685Y49582D01*
X70243Y50243D01*
X69582Y50685D01*
X68801Y50840D01*
X68021Y50685D01*
X67396Y50268D01*
X67225Y50272D01*
X66833Y50356D01*
X66442Y50942D01*
X65780Y51384D01*
X65000Y51539D01*
X64220Y51384D01*
X63558Y50942D01*
X63116Y50280D01*
X62967Y49533D01*
X62220Y49384D01*
X61558Y48942D01*
X61548Y48927D01*
X59777D01*
X59777Y48927D01*
X59231Y48819D01*
X58795Y48527D01*
X58580D01*
X58580Y48527D01*
X58034Y48419D01*
X57570Y48109D01*
X57570Y48109D01*
X38889Y29427D01*
X35452D01*
X35442Y29442D01*
X34780Y29884D01*
X34000Y30039D01*
X33220Y29884D01*
X32558Y29442D01*
X32116Y28780D01*
X31961Y28000D01*
X32116Y27220D01*
X32558Y26558D01*
X33220Y26116D01*
X34000Y25961D01*
X34565Y26073D01*
X34977Y25730D01*
X34998Y25688D01*
X34961Y25500D01*
X34998Y25314D01*
X34875Y25165D01*
X34442Y24942D01*
X33780Y25384D01*
X33000Y25539D01*
X32220Y25384D01*
X31558Y24942D01*
X31116Y24280D01*
X30961Y23500D01*
X31116Y22720D01*
X31558Y22058D01*
X32220Y21616D01*
X33000Y21461D01*
X33188Y21498D01*
X33230Y21477D01*
X33573Y21065D01*
X33461Y20500D01*
X33616Y19720D01*
X34058Y19058D01*
X34720Y18616D01*
X35500Y18461D01*
X36280Y18616D01*
X36942Y19058D01*
X36952Y19073D01*
X39507D01*
X39580Y18980D01*
X39728Y18573D01*
X39366Y18030D01*
X39211Y17250D01*
X39366Y16470D01*
X39808Y15808D01*
X40470Y15366D01*
X41250Y15211D01*
X42030Y15366D01*
X42692Y15808D01*
X43134Y16470D01*
X43289Y17250D01*
X43134Y18030D01*
X42692Y18692D01*
X42682Y18789D01*
X45893Y22000D01*
X65328D01*
X65519Y21538D01*
X55790Y11809D01*
X55480Y11345D01*
X55372Y10799D01*
X55372Y10799D01*
Y8938D01*
X54963Y8624D01*
X54627Y8186D01*
X54393Y8139D01*
X54284D01*
X54050Y8186D01*
X53714Y8624D01*
X53176Y9037D01*
X52550Y9296D01*
X51878Y9384D01*
X51206Y9296D01*
X50579Y9037D01*
X50042Y8624D01*
X49706Y8186D01*
X49472Y8139D01*
X49362D01*
X49129Y8186D01*
X48793Y8624D01*
X48255Y9037D01*
X47707Y9264D01*
Y6000D01*
X46957D01*
Y5250D01*
X44360D01*
Y5213D01*
X44448Y4540D01*
X44708Y3914D01*
X45120Y3376D01*
X45658Y2963D01*
X45944Y2845D01*
X45845Y2345D01*
X33084D01*
X32985Y2845D01*
X34188Y3344D01*
X35302Y4198D01*
X36156Y5312D01*
X36694Y6608D01*
X36877Y8000D01*
X36694Y9392D01*
X36156Y10688D01*
X35302Y11802D01*
X34188Y12656D01*
X32892Y13194D01*
X31500Y13377D01*
X30108Y13194D01*
X28812Y12656D01*
X27698Y11802D01*
X26844Y10688D01*
X26307Y9392D01*
X26123Y8000D01*
X26307Y6608D01*
X26844Y5312D01*
X27698Y4198D01*
X28812Y3344D01*
X30015Y2845D01*
X29916Y2345D01*
X10932D01*
X10675Y2294D01*
X9492Y2410D01*
X7801Y2923D01*
X6243Y3756D01*
X4877Y4877D01*
X3756Y6243D01*
X2923Y7801D01*
X2410Y9492D01*
X2237Y11250D01*
X2246Y11337D01*
X2279Y11502D01*
Y101435D01*
X2267Y101495D01*
X2409Y102942D01*
X2922Y104632D01*
X3755Y106191D01*
X4876Y107556D01*
X6241Y108677D01*
X7800Y109510D01*
X9490Y110023D01*
X11248Y110196D01*
X11336Y110188D01*
D02*
G37*
%LPC*%
G36*
X123221Y47819D02*
X122440Y47664D01*
X121779Y47221D01*
X121336Y46560D01*
X121181Y45779D01*
X121336Y44999D01*
X121589Y44621D01*
Y25396D01*
X120666Y24473D01*
X120220Y24384D01*
X119558Y23942D01*
X119116Y23280D01*
X118961Y22500D01*
X119116Y21720D01*
X119558Y21058D01*
X120220Y20616D01*
X121000Y20461D01*
X121780Y20616D01*
X122442Y21058D01*
X122884Y21720D01*
X122973Y22166D01*
X124374Y23567D01*
X124728Y24096D01*
X124852Y24721D01*
Y41188D01*
X125314Y41379D01*
X127347Y39347D01*
X127876Y38993D01*
X128500Y38869D01*
X131342D01*
X131720Y38616D01*
X132500Y38461D01*
X133280Y38616D01*
X133942Y39058D01*
X134384Y39720D01*
X134539Y40500D01*
X134384Y41280D01*
X133942Y41942D01*
X133280Y42384D01*
X132500Y42539D01*
X131720Y42384D01*
X131342Y42131D01*
X129176D01*
X125193Y46114D01*
X125104Y46560D01*
X124662Y47221D01*
X124001Y47664D01*
X123221Y47819D01*
D02*
G37*
G36*
X46207Y9264D02*
X45658Y9037D01*
X45120Y8624D01*
X44708Y8086D01*
X44448Y7460D01*
X44360Y6787D01*
Y6750D01*
X46207D01*
Y9264D01*
D02*
G37*
%LPD*%
D16*
X60000Y69000D02*
Y71500D01*
Y69000D02*
X76500Y52500D01*
Y44480D02*
Y52500D01*
X34000Y28000D02*
X39480D01*
X36130Y23400D02*
X39123D01*
X39480Y28000D02*
X58580Y47100D01*
X39200Y25599D02*
X56101Y42500D01*
X37099Y25599D02*
X39200D01*
X37000Y25500D02*
X37099Y25599D01*
X39123Y23400D02*
X55722Y40000D01*
X62000D01*
X56101Y42500D02*
X62379D01*
X58580Y47100D02*
X59377D01*
X59777Y47500D01*
X63000D01*
X65100Y45221D02*
Y49400D01*
X65000Y49500D02*
X65100Y49400D01*
X62379Y42500D02*
X65100Y45221D01*
X68801Y46801D02*
Y48801D01*
X62000Y40000D02*
X68801Y46801D01*
X72000Y45000D02*
Y47000D01*
X64500Y37500D02*
X72000Y45000D01*
X57500Y37500D02*
X64500D01*
X68000Y35980D02*
X76500Y44480D01*
X70900Y34920D02*
X83000Y47020D01*
X70900Y20920D02*
Y34920D01*
X83000Y47020D02*
Y52000D01*
X68000Y22000D02*
Y35980D01*
X56799Y10799D02*
X68000Y22000D01*
X72400Y29996D02*
X83452Y41048D01*
X40500Y20500D02*
X57500Y37500D01*
X35500Y20500D02*
X40500D01*
X95919Y93500D02*
X102750Y86669D01*
Y85134D02*
Y86669D01*
X81492Y93500D02*
X95919D01*
X102750Y77750D02*
Y85134D01*
X74063Y100929D02*
X81492Y93500D01*
X102750Y77750D02*
X105320Y75180D01*
X36030Y23500D02*
X36130Y23400D01*
X33000Y23500D02*
X36030D01*
X56799Y6000D02*
Y10799D01*
X66642Y16662D02*
X70900Y20920D01*
X66642Y6000D02*
Y16662D01*
X72400Y19128D02*
Y29996D01*
X71563Y18291D02*
X72400Y19128D01*
X71563Y6000D02*
Y18291D01*
X20000Y74000D02*
X40500D01*
X48000Y66500D01*
X105320Y74530D02*
X105550Y74300D01*
X105320Y74530D02*
Y75180D01*
X74063Y100929D02*
Y101500D01*
D19*
X35500Y39328D02*
X39172Y43000D01*
X35500Y39000D02*
Y39328D01*
X39172Y43000D02*
X44000D01*
X103000Y52500D02*
X111341Y44159D01*
Y29012D02*
Y44159D01*
X111328Y29000D02*
X111341Y29012D01*
X109000Y34000D02*
Y44561D01*
X101000Y52561D02*
X109000Y44561D01*
X107000Y33172D02*
Y44500D01*
X97500Y54000D02*
X107000Y44500D01*
X105500Y31000D02*
X110000Y26500D01*
X113000D01*
X107000Y33172D02*
X108872Y31300D01*
X109341D01*
X69828Y93000D02*
X82128Y80700D01*
X67000Y93000D02*
X69828D01*
X52338Y95500D02*
X58500D01*
X50038Y97800D02*
X52338Y95500D01*
X48200Y97800D02*
X50038D01*
X53496Y92504D02*
X60500D01*
X49500Y96500D02*
X53496Y92504D01*
X47662Y96500D02*
X49500D01*
X63591Y68409D02*
Y79659D01*
X98750Y73745D02*
X106095Y66400D01*
X100050Y74283D02*
Y84015D01*
X101350Y74822D02*
Y86089D01*
X52500Y59500D02*
X53000D01*
X66902Y79426D02*
X68795D01*
X64828Y81500D02*
X66902Y79426D01*
X55200Y62200D02*
Y77200D01*
X56500Y76661D02*
X60700Y80862D01*
X56500Y55500D02*
Y76661D01*
X52500Y59500D02*
X55200Y62200D01*
X44000Y43000D02*
X56500Y55500D01*
X63172Y81500D02*
X64828D01*
X55200Y77200D02*
X59400Y81400D01*
Y81405D01*
X62304Y84309D01*
X60700Y80867D02*
X62842Y83009D01*
X58000Y76323D02*
X62000Y80323D01*
X58000Y69000D02*
Y76323D01*
X60700Y80862D02*
Y80867D01*
X62000Y80328D02*
X63172Y81500D01*
X62000Y80323D02*
Y80328D01*
X62842Y83009D02*
X66384D01*
X64000Y79500D02*
Y79818D01*
X58000Y69000D02*
X75000Y52000D01*
X68795Y79426D02*
X69967Y80598D01*
X66384Y83009D02*
X67967Y81426D01*
X62304Y84309D02*
X67912D01*
X69967Y82254D01*
Y80598D02*
Y82254D01*
X82128Y80700D02*
X88200D01*
X63591Y68409D02*
X78000Y54000D01*
Y44000D02*
Y54000D01*
X75000Y45500D02*
Y52000D01*
X65500Y36000D02*
X75000Y45500D01*
X69500Y35500D02*
X78000Y44000D01*
X69500Y21500D02*
Y35500D01*
X58019Y36000D02*
X65500D01*
X95500Y54000D02*
X105500Y44000D01*
Y31000D02*
Y44000D01*
X97500Y54000D02*
Y58000D01*
X95500Y54000D02*
Y65000D01*
X41250Y19231D02*
X58019Y36000D01*
X41250Y17250D02*
Y19231D01*
X97500Y58000D02*
X99500Y60000D01*
X98089Y89350D02*
X101350Y86089D01*
X97550Y88050D02*
X100050Y85550D01*
X97012Y86750D02*
X98750Y85012D01*
X100050Y84015D02*
Y85550D01*
X94250Y86750D02*
X97012D01*
X96015Y88050D02*
X97550D01*
X91850Y89350D02*
X98089D01*
X93426Y88050D02*
X96015D01*
X88200Y80700D02*
X94250Y86750D01*
X98750Y73745D02*
Y85012D01*
X103000Y52500D02*
Y58000D01*
X101000Y52561D02*
Y54500D01*
X44082Y78000D02*
X48391Y73690D01*
X50391Y69609D02*
Y75447D01*
X44839Y81000D02*
X50391Y75447D01*
X20000Y78000D02*
X44082D01*
X50391Y69609D02*
X50500Y69500D01*
X83300Y105200D02*
X87800Y100700D01*
X125138D02*
X126732Y99106D01*
X87800Y100700D02*
X125138D01*
X125828Y102000D02*
X129000Y98828D01*
X88339Y102000D02*
X125828D01*
X83838Y106500D02*
X88339Y102000D01*
X47200Y105200D02*
X83300D01*
X46000Y104000D02*
X47200Y105200D01*
X44700Y104539D02*
X46661Y106500D01*
X83838D01*
X44700Y99462D02*
X47662Y96500D01*
X44700Y99462D02*
Y104539D01*
X46000Y100000D02*
Y104000D01*
Y100000D02*
X48200Y97800D01*
X101350Y74822D02*
X107172Y69000D01*
X100050Y74283D02*
X106633Y67700D01*
X107172Y69000D02*
X109341D01*
X110500Y70160D01*
X106633Y67700D02*
X109879D01*
X106095Y66400D02*
X110417D01*
X20500Y81000D02*
X44839D01*
X61721Y6000D02*
Y13721D01*
X69500Y21500D01*
X83000Y83000D02*
X84672D01*
X87376Y82000D02*
X93426Y88050D01*
X86500Y84000D02*
X91850Y89350D01*
X85672Y82000D02*
X87376D01*
X110500Y70160D02*
Y75000D01*
X112500Y70321D02*
Y73000D01*
X114500Y70483D02*
Y74539D01*
X110769Y78269D02*
X114500Y74539D01*
X110417Y66400D02*
X114500Y70483D01*
X109879Y67700D02*
X112500Y70321D01*
X84672Y83000D02*
X85672Y82000D01*
X112551Y95500D02*
X127500D01*
X129000Y97000D01*
Y98828D01*
X126732Y98268D02*
Y99106D01*
Y98268D02*
X127000Y98000D01*
X111551Y94500D02*
X112551Y95500D01*
X111500Y94500D02*
X111551D01*
D86*
X33000Y41000D02*
X37000Y45000D01*
X33000Y36000D02*
Y41000D01*
Y36000D02*
X34500Y34500D01*
X47500Y49000D02*
Y54500D01*
X43500Y45000D02*
X47500Y49000D01*
X37000Y45000D02*
X43500D01*
X78688Y2188D02*
X81000Y4500D01*
X44812Y2188D02*
X78688D01*
X44000Y3000D02*
X44812Y2188D01*
X85000Y98000D02*
X99000D01*
X82484D02*
X85000D01*
X80597Y99888D02*
X82484Y98000D01*
X79809Y99888D02*
X80597D01*
X78984Y100713D02*
X79809Y99888D01*
X78984Y100713D02*
Y101500D01*
X47500Y54500D02*
Y59000D01*
X53450Y64950D01*
Y79637D01*
X58947Y85133D01*
Y86500D01*
X105841Y84282D02*
Y86194D01*
X99000Y93035D02*
Y98000D01*
Y93035D02*
X105841Y86194D01*
Y84282D02*
X105937Y84187D01*
X108000Y71000D02*
X108000Y71000D01*
Y82124D01*
X99000Y98000D02*
X122137D01*
X105937Y84187D02*
X108000Y82124D01*
D88*
X128500Y40500D02*
X132500D01*
X123221Y24721D02*
Y45779D01*
X121000Y22500D02*
X123221Y24721D01*
Y45779D02*
X128500Y40500D01*
D89*
X86641Y78500D02*
X109141Y56000D01*
X103500Y26000D02*
Y43000D01*
Y26000D02*
X107000D01*
X102500D02*
X103500D01*
X92800Y49700D02*
X95750Y46750D01*
X83000Y34000D02*
X95750Y46750D01*
X76484Y27484D02*
X83000Y34000D01*
X116500Y56000D02*
X118500D01*
X116000Y55500D02*
X116500Y56000D01*
X116000Y25300D02*
Y55500D01*
X114200Y23500D02*
X116000Y25300D01*
X107000Y26000D02*
X109500Y23500D01*
X114200D01*
X53000Y89500D02*
X70500D01*
X48000Y94500D02*
X53000Y89500D01*
X46500Y94500D02*
X48000D01*
X83000Y34000D02*
X83500Y33500D01*
X76484Y6000D02*
Y27484D01*
X114500Y56000D02*
X116500D01*
X109141D02*
X114500D01*
X58947Y86500D02*
X70000D01*
X81000Y75500D01*
X51394Y86500D02*
X58947D01*
X81000Y75500D02*
X86000D01*
X81500Y78500D02*
X86641D01*
X70500Y89500D02*
X81500Y78500D01*
X100000Y46500D02*
X103500Y43000D01*
X96000Y46500D02*
X100000D01*
X92800Y49700D02*
Y68700D01*
X47418Y90475D02*
X51394Y86500D01*
X86000Y75500D02*
X92800Y68700D01*
X91500Y108500D02*
X91875Y108125D01*
X42500Y107328D02*
X43672Y108500D01*
X91500D01*
X42500Y98500D02*
Y107328D01*
Y98500D02*
X46500Y94500D01*
D93*
X76484Y6000D02*
D03*
X78984Y101500D02*
D03*
D94*
X71563Y6000D02*
D03*
X66642D02*
D03*
X61721D02*
D03*
X56799D02*
D03*
X51878D02*
D03*
X46957D02*
D03*
X74063Y101500D02*
D03*
X69142D02*
D03*
X64220D02*
D03*
X59299D02*
D03*
X54378D02*
D03*
X49457D02*
D03*
D95*
X40500Y39356D02*
D03*
X35500Y39000D02*
D03*
X34500Y34500D02*
D03*
X113000Y26500D02*
D03*
X109341Y31300D02*
D03*
X109000Y34000D02*
D03*
X111328Y29000D02*
D03*
X104500Y25000D02*
D03*
X19000Y89500D02*
D03*
X3500Y15500D02*
D03*
X4000Y8500D02*
D03*
X83500Y33500D02*
D03*
X114500Y56000D02*
D03*
X116500D02*
D03*
X53000Y59500D02*
D03*
X64000Y79500D02*
D03*
X60000Y71500D02*
D03*
X67967Y81426D02*
D03*
X66000Y71500D02*
D03*
X53174Y82826D02*
D03*
X60000Y51000D02*
D03*
X63000Y47500D02*
D03*
X65000Y49500D02*
D03*
X68801Y48801D02*
D03*
X40000Y6000D02*
D03*
X27000Y14000D02*
D03*
Y17500D02*
D03*
X20500Y7500D02*
D03*
X15500Y8500D02*
D03*
X96500Y43500D02*
D03*
X98500D02*
D03*
X89000Y47500D02*
D03*
X91000Y46500D02*
D03*
X95500Y69500D02*
D03*
Y65000D02*
D03*
X96000Y84000D02*
D03*
X102000Y93500D02*
D03*
X101500Y95500D02*
D03*
X101000Y54500D02*
D03*
X103000Y58000D02*
D03*
X95827Y48837D02*
D03*
X92500Y36500D02*
D03*
X47418Y90475D02*
D03*
X47500Y54500D02*
D03*
X123000Y72000D02*
D03*
X128500Y45500D02*
D03*
X132500Y40500D02*
D03*
X47000Y20500D02*
D03*
X48391Y73690D02*
D03*
X37500Y90000D02*
D03*
X58500Y65500D02*
D03*
X64500Y54500D02*
D03*
X67500Y56000D02*
D03*
X83500Y64500D02*
D03*
X79500Y58000D02*
D03*
X77000Y63500D02*
D03*
X39000Y104500D02*
D03*
X28500Y96000D02*
D03*
X6000Y94500D02*
D03*
X6500Y102000D02*
D03*
X21000Y105500D02*
D03*
X12500D02*
D03*
X13000Y77000D02*
D03*
X17000Y32500D02*
D03*
X13000Y38500D02*
D03*
X17000Y44500D02*
D03*
Y54500D02*
D03*
X13000Y50500D02*
D03*
X17000Y63000D02*
D03*
X13000Y59000D02*
D03*
Y67500D02*
D03*
X57500Y19000D02*
D03*
X45000Y11000D02*
D03*
X55000Y12000D02*
D03*
X87000Y24000D02*
D03*
X88000Y20000D02*
D03*
X101000Y7000D02*
D03*
X94500Y15000D02*
D03*
X99500Y16000D02*
D03*
X105000D02*
D03*
X118000Y17500D02*
D03*
X117000Y12500D02*
D03*
X117500Y6500D02*
D03*
X143000Y10500D02*
D03*
X138500Y4500D02*
D03*
X133500Y26000D02*
D03*
X138000Y19500D02*
D03*
X143500Y15500D02*
D03*
X149000D02*
D03*
X150500Y34500D02*
D03*
X143000Y39000D02*
D03*
X138500Y38000D02*
D03*
X138000Y55500D02*
D03*
X133000D02*
D03*
X128000D02*
D03*
X110500Y59500D02*
D03*
X113500Y61500D02*
D03*
X118500Y62500D02*
D03*
X135000Y61500D02*
D03*
X132500Y105500D02*
D03*
X138000D02*
D03*
X147500Y97000D02*
D03*
Y93000D02*
D03*
X143000Y84500D02*
D03*
X149000Y79500D02*
D03*
Y60500D02*
D03*
X144500Y64500D02*
D03*
X140000Y67000D02*
D03*
Y71000D02*
D03*
X162500Y16500D02*
D03*
X158500D02*
D03*
X154000Y17500D02*
D03*
X153000Y22000D02*
D03*
Y31000D02*
D03*
X155000Y36500D02*
D03*
X158500D02*
D03*
X162000D02*
D03*
X163000Y58000D02*
D03*
X159500D02*
D03*
X156500D02*
D03*
X153500Y75000D02*
D03*
Y63500D02*
D03*
X162500Y79500D02*
D03*
X159500D02*
D03*
X156500D02*
D03*
X102500Y24000D02*
D03*
X121221Y104500D02*
D03*
X114500D02*
D03*
X96000Y108000D02*
D03*
X97500Y105500D02*
D03*
X93500D02*
D03*
X91875Y108125D02*
D03*
X102500Y26000D02*
D03*
X41250Y17250D02*
D03*
X35500Y20500D02*
D03*
X37000Y25500D02*
D03*
X34000Y28000D02*
D03*
X50500Y69500D02*
D03*
X20000Y78000D02*
D03*
X20500Y81000D02*
D03*
X118500Y56000D02*
D03*
X103500Y22000D02*
D03*
X33000Y23500D02*
D03*
X72000Y47000D02*
D03*
X83452Y41048D02*
D03*
X83000Y52000D02*
D03*
X48000Y66500D02*
D03*
X115607Y68173D02*
D03*
X83000Y83000D02*
D03*
X112500Y73000D02*
D03*
X108000Y71000D02*
D03*
X110500Y75000D02*
D03*
X110769Y78269D02*
D03*
X105550Y74300D02*
D03*
X67000Y93000D02*
D03*
X86500Y84000D02*
D03*
X58500Y95500D02*
D03*
X60500Y92504D02*
D03*
X127000Y98000D02*
D03*
X99500Y60000D02*
D03*
X122137Y98000D02*
D03*
X111500Y94500D02*
D03*
X20000Y74000D02*
D03*
X105937Y84187D02*
D03*
X131199Y73301D02*
D03*
X37000Y49500D02*
D03*
X121000Y22500D02*
D03*
X123221Y45779D02*
D03*
X123721Y85500D02*
D03*
Y81500D02*
D03*
Y89500D02*
D03*
X115720Y85500D02*
D03*
Y81500D02*
D03*
Y89500D02*
D03*
X119720D02*
D03*
Y81500D02*
D03*
Y85500D02*
D03*
D96*
X96000Y73313D02*
X105313Y64000D01*
X96000Y73313D02*
Y84000D01*
X115477Y68278D02*
X126176D01*
X105313Y64000D02*
X111199D01*
X115477Y68278D01*
X126176D02*
X131199Y73301D01*
D97*
X102750Y24250D02*
D03*
D98*
X95250Y107250D02*
D03*
M02*
