G04*
G04 #@! TF.GenerationSoftware,Altium Limited,Altium Designer,19.1.2 (11)*
G04*
G04 Layer_Color=16711935*
%FSLAX25Y25*%
%MOIN*%
G70*
G01*
G75*
%ADD80C,0.00800*%
%ADD81R,0.03950X0.05524*%
%ADD82O,0.03950X0.05524*%
G36*
X81952Y90576D02*
X81967Y90572D01*
X81970D01*
X81989Y90568D01*
X82003Y90565D01*
X82011Y90561D01*
X82015D01*
X82029Y90553D01*
X82037Y90550D01*
Y90546D01*
X82041Y90535D01*
Y90531D01*
Y90528D01*
Y88537D01*
X82037Y88522D01*
Y88519D01*
Y88515D01*
X82022Y88507D01*
X82018Y88504D01*
X82015D01*
X81985Y88500D01*
X81974Y88496D01*
X81970D01*
X81948Y88493D01*
X81926Y88489D01*
X81878D01*
X81859Y88493D01*
X81844Y88496D01*
X81841D01*
X81822Y88500D01*
X81811D01*
X81804Y88504D01*
X81800D01*
X81789Y88507D01*
X81782Y88511D01*
X81774Y88515D01*
X81767Y88530D01*
Y88537D01*
Y89458D01*
X80823D01*
Y88537D01*
X80819Y88522D01*
Y88519D01*
Y88515D01*
X80805Y88507D01*
X80801Y88504D01*
X80797D01*
X80771Y88500D01*
X80760Y88496D01*
X80757D01*
X80734Y88493D01*
X80712Y88489D01*
X80660D01*
X80642Y88493D01*
X80627Y88496D01*
X80623D01*
X80605Y88500D01*
X80594D01*
X80586Y88504D01*
X80583D01*
X80572Y88507D01*
X80564Y88511D01*
X80557Y88515D01*
X80549Y88530D01*
Y88537D01*
Y90528D01*
X80553Y90542D01*
X80557Y90546D01*
X80564Y90553D01*
X80572Y90557D01*
X80579Y90561D01*
X80583D01*
X80594Y90565D01*
X80609Y90568D01*
X80620Y90572D01*
X80623D01*
X80646Y90576D01*
X80664Y90579D01*
X80716D01*
X80738Y90576D01*
X80753Y90572D01*
X80757D01*
X80771Y90568D01*
X80786Y90565D01*
X80794Y90561D01*
X80797D01*
X80812Y90553D01*
X80819Y90550D01*
Y90546D01*
X80823Y90535D01*
Y90531D01*
Y90528D01*
Y89699D01*
X81767D01*
Y90528D01*
X81770Y90542D01*
X81774Y90546D01*
X81782Y90553D01*
X81789Y90557D01*
X81796Y90561D01*
X81800D01*
X81811Y90565D01*
X81826Y90568D01*
X81837Y90572D01*
X81841D01*
X81863Y90576D01*
X81881Y90579D01*
X81929D01*
X81952Y90576D01*
D02*
G37*
G36*
X83802D02*
X83809D01*
X83828Y90572D01*
X83842Y90568D01*
X83850Y90565D01*
X83854Y90561D01*
X83861Y90550D01*
Y90539D01*
Y90531D01*
Y90528D01*
X83854Y90509D01*
X83846Y90491D01*
X83842Y90479D01*
X83839Y90472D01*
X83250Y89303D01*
Y88537D01*
X83247Y88522D01*
Y88519D01*
Y88515D01*
X83232Y88507D01*
X83228Y88504D01*
X83224D01*
X83195Y88500D01*
X83184Y88496D01*
X83180D01*
X83158Y88493D01*
X83136Y88489D01*
X83088D01*
X83069Y88493D01*
X83054Y88496D01*
X83051D01*
X83032Y88500D01*
X83017D01*
X83010Y88504D01*
X83006D01*
X82988Y88511D01*
X82984Y88515D01*
X82977Y88530D01*
Y88537D01*
Y89303D01*
X82392Y90472D01*
X82381Y90494D01*
X82377Y90509D01*
X82373Y90520D01*
Y90524D01*
X82370Y90539D01*
X82373Y90550D01*
X82377Y90553D01*
X82381Y90557D01*
X82392Y90565D01*
X82407Y90568D01*
X82422Y90572D01*
X82425D01*
X82455Y90576D01*
X82485Y90579D01*
X82570D01*
X82584Y90576D01*
X82588D01*
X82607Y90572D01*
X82618Y90568D01*
X82625Y90565D01*
X82629D01*
X82644Y90557D01*
X82651Y90553D01*
Y90550D01*
X82662Y90531D01*
X82666Y90524D01*
Y90520D01*
X82954Y89925D01*
X82980Y89858D01*
X82995Y89828D01*
X83006Y89802D01*
X83017Y89776D01*
X83025Y89758D01*
X83028Y89747D01*
X83032Y89743D01*
X83058Y89677D01*
X83073Y89647D01*
X83084Y89621D01*
X83091Y89595D01*
X83099Y89577D01*
X83106Y89566D01*
Y89562D01*
X83110D01*
X83139Y89632D01*
X83154Y89666D01*
X83165Y89691D01*
X83176Y89717D01*
X83184Y89736D01*
X83188Y89747D01*
X83191Y89751D01*
X83221Y89817D01*
X83232Y89847D01*
X83247Y89873D01*
X83254Y89895D01*
X83262Y89913D01*
X83269Y89925D01*
Y89928D01*
X83557Y90524D01*
X83569Y90542D01*
X83572Y90550D01*
X83576D01*
X83583Y90557D01*
X83591Y90561D01*
X83598Y90565D01*
X83602D01*
X83617Y90568D01*
X83628Y90572D01*
X83643Y90576D01*
X83646D01*
X83672Y90579D01*
X83787D01*
X83802Y90576D01*
D02*
G37*
G36*
X84664Y90591D02*
X84734Y90583D01*
X84797Y90572D01*
X84852Y90557D01*
X84901Y90542D01*
X84934Y90531D01*
X84956Y90524D01*
X84960Y90520D01*
X84964D01*
X85023Y90491D01*
X85078Y90457D01*
X85126Y90420D01*
X85171Y90387D01*
X85204Y90354D01*
X85230Y90328D01*
X85245Y90313D01*
X85252Y90306D01*
X85293Y90250D01*
X85330Y90191D01*
X85363Y90135D01*
X85389Y90080D01*
X85411Y90032D01*
X85426Y89995D01*
X85430Y89980D01*
X85433Y89969D01*
X85437Y89965D01*
Y89961D01*
X85459Y89884D01*
X85474Y89806D01*
X85485Y89728D01*
X85493Y89658D01*
X85496Y89599D01*
Y89573D01*
X85500Y89551D01*
Y89532D01*
Y89517D01*
Y89510D01*
Y89506D01*
X85496Y89414D01*
X85489Y89332D01*
X85482Y89255D01*
X85470Y89192D01*
X85459Y89136D01*
X85456Y89114D01*
X85448Y89096D01*
X85444Y89081D01*
Y89070D01*
X85441Y89066D01*
Y89062D01*
X85415Y88992D01*
X85385Y88929D01*
X85356Y88874D01*
X85330Y88829D01*
X85304Y88789D01*
X85282Y88759D01*
X85267Y88744D01*
X85263Y88737D01*
X85219Y88692D01*
X85171Y88652D01*
X85126Y88618D01*
X85082Y88589D01*
X85045Y88570D01*
X85015Y88552D01*
X84997Y88544D01*
X84989Y88541D01*
X84926Y88519D01*
X84864Y88504D01*
X84801Y88489D01*
X84745Y88481D01*
X84697Y88478D01*
X84656Y88474D01*
X84623D01*
X84542Y88478D01*
X84505Y88481D01*
X84471Y88485D01*
X84446Y88489D01*
X84427Y88493D01*
X84412Y88496D01*
X84408D01*
X84338Y88511D01*
X84309Y88519D01*
X84283Y88526D01*
X84264Y88533D01*
X84249Y88541D01*
X84238Y88544D01*
X84235D01*
X84183Y88570D01*
X84142Y88589D01*
X84127Y88600D01*
X84116Y88604D01*
X84113Y88611D01*
X84109D01*
X84075Y88633D01*
X84057Y88648D01*
X84046Y88655D01*
X84042Y88659D01*
X84031Y88670D01*
X84024Y88681D01*
X84020Y88685D01*
Y88689D01*
X84013Y88704D01*
X84009Y88711D01*
X84001Y88733D01*
Y88740D01*
Y88744D01*
X83998Y88763D01*
Y88778D01*
Y88789D01*
Y88792D01*
Y88818D01*
Y88837D01*
X84001Y88848D01*
Y88851D01*
X84005Y88870D01*
Y88881D01*
X84009Y88885D01*
Y88889D01*
X84013Y88900D01*
X84016Y88903D01*
X84020Y88907D01*
X84024D01*
X84035Y88914D01*
X84042D01*
X84061Y88911D01*
X84083Y88900D01*
X84101Y88885D01*
X84105Y88881D01*
X84109D01*
X84142Y88859D01*
X84179Y88837D01*
X84194Y88829D01*
X84205Y88822D01*
X84212Y88815D01*
X84216D01*
X84268Y88789D01*
X84316Y88766D01*
X84338Y88759D01*
X84357Y88752D01*
X84368Y88748D01*
X84372D01*
X84446Y88729D01*
X84479Y88726D01*
X84512Y88722D01*
X84542Y88718D01*
X84586D01*
X84642Y88722D01*
X84690Y88726D01*
X84734Y88733D01*
X84771Y88744D01*
X84804Y88755D01*
X84827Y88763D01*
X84845Y88766D01*
X84849Y88770D01*
X84890Y88792D01*
X84926Y88815D01*
X84960Y88840D01*
X84989Y88866D01*
X85012Y88889D01*
X85030Y88907D01*
X85041Y88918D01*
X85045Y88922D01*
X85071Y88963D01*
X85097Y89003D01*
X85119Y89044D01*
X85134Y89085D01*
X85149Y89122D01*
X85160Y89148D01*
X85163Y89166D01*
X85167Y89173D01*
X85182Y89233D01*
X85189Y89292D01*
X85197Y89351D01*
X85204Y89403D01*
Y89451D01*
X85208Y89488D01*
Y89503D01*
Y89514D01*
Y89517D01*
Y89521D01*
X85204Y89595D01*
X85200Y89662D01*
X85193Y89721D01*
X85185Y89773D01*
X85178Y89814D01*
X85174Y89847D01*
X85167Y89865D01*
Y89873D01*
X85149Y89928D01*
X85130Y89980D01*
X85108Y90024D01*
X85086Y90061D01*
X85071Y90095D01*
X85056Y90117D01*
X85045Y90132D01*
X85041Y90135D01*
X85008Y90172D01*
X84978Y90206D01*
X84945Y90235D01*
X84915Y90258D01*
X84890Y90276D01*
X84867Y90287D01*
X84852Y90294D01*
X84849Y90298D01*
X84804Y90317D01*
X84760Y90332D01*
X84719Y90339D01*
X84679Y90346D01*
X84645Y90350D01*
X84619Y90354D01*
X84549D01*
X84508Y90350D01*
X84471Y90343D01*
X84438Y90339D01*
X84412Y90332D01*
X84394Y90324D01*
X84383Y90320D01*
X84379D01*
X84316Y90298D01*
X84290Y90287D01*
X84268Y90276D01*
X84249Y90265D01*
X84235Y90258D01*
X84227Y90254D01*
X84224Y90250D01*
X84179Y90224D01*
X84149Y90202D01*
X84127Y90187D01*
X84120Y90184D01*
X84094Y90165D01*
X84072Y90158D01*
X84061Y90154D01*
X84057D01*
X84039Y90158D01*
X84035D01*
X84024Y90172D01*
X84020Y90176D01*
Y90180D01*
X84013Y90206D01*
X84009Y90217D01*
Y90220D01*
X84005Y90239D01*
Y90254D01*
Y90269D01*
Y90272D01*
Y90291D01*
Y90309D01*
X84009Y90317D01*
Y90320D01*
X84013Y90335D01*
Y90346D01*
X84016Y90354D01*
Y90357D01*
X84024Y90376D01*
X84027Y90383D01*
X84031Y90394D01*
X84042Y90405D01*
X84050Y90413D01*
X84053Y90417D01*
X84075Y90435D01*
X84101Y90454D01*
X84124Y90468D01*
X84127Y90472D01*
X84131D01*
X84175Y90494D01*
X84216Y90513D01*
X84235Y90520D01*
X84249Y90528D01*
X84257Y90531D01*
X84260D01*
X84316Y90550D01*
X84364Y90565D01*
X84386Y90568D01*
X84401Y90572D01*
X84412Y90576D01*
X84416D01*
X84479Y90587D01*
X84508Y90591D01*
X84534D01*
X84557Y90594D01*
X84590D01*
X84664Y90591D01*
D02*
G37*
D80*
X157220Y104500D02*
D03*
Y8000D02*
D03*
X31500D02*
D03*
Y104500D02*
D03*
D81*
X76484Y6000D02*
D03*
X78984Y101500D02*
D03*
D82*
X71563Y6000D02*
D03*
X66642D02*
D03*
X61721D02*
D03*
X56799D02*
D03*
X51878D02*
D03*
X46957D02*
D03*
X74063Y101500D02*
D03*
X69142D02*
D03*
X64220D02*
D03*
X59299D02*
D03*
X54378D02*
D03*
X49457D02*
D03*
M02*
